<svg width="9" height="14" viewBox="0 0 9 14" fill="none" xmlns="http://www.w3.org/2000/svg">
<path d="M1.59413 13.7317C1.42051 13.9053 1.19954 14 0.939116 14C0.418259 14 -4.76837e-06 13.5896 -4.76837e-06 13.0688C-4.76837e-06 12.8083 0.11048 12.5716 0.29199 12.3901L5.81623 6.99211L0.29199 1.60992C0.11048 1.42841 -4.76837e-06 1.18377 -4.76837e-06 0.931229C-4.76837e-06 0.410372 0.418259 0 0.939116 0C1.19954 0 1.42051 0.0947012 1.59413 0.26832L7.73393 6.26607C7.9549 6.47125 8.05749 6.72379 8.06538 7C8.06538 7.27621 7.9549 7.51297 7.73393 7.72604L1.59413 13.7317Z" fill="#FCFCFC"/>
</svg>
