<svg width="24" height="25" viewBox="0 0 24 25" fill="none" xmlns="http://www.w3.org/2000/svg">
<path d="M20.8316 17.593C20.8399 17.9173 20.7765 18.2526 20.6316 18.5809C20.4868 18.9092 20.2965 19.2207 20.0426 19.5158C19.6136 20.0137 19.1361 20.3777 18.5923 20.6171C18.0574 20.8563 17.4748 20.9885 16.844 21.0048C15.925 21.0285 14.9372 20.8375 13.8897 20.4227C12.8421 20.0079 11.7905 19.4399 10.7441 18.7185C9.68835 17.9883 8.6846 17.1756 7.72359 16.2717C6.77136 15.3585 5.90807 14.398 5.13372 13.3901C4.36839 12.3819 3.74722 11.37 3.28848 10.363C2.8295 9.34692 2.58794 8.37034 2.56379 7.43325C2.548 6.82053 2.64104 6.23206 2.84336 5.68586C3.04545 5.13064 3.37484 4.61723 3.84079 4.1544C4.40284 3.57187 5.02637 3.27629 5.69315 3.25911C5.94545 3.25261 6.19914 3.30017 6.42719 3.40249C6.66425 3.50458 6.87567 3.66143 7.0439 3.89152L9.21027 6.78409C9.37826 7.00518 9.50074 7.2094 9.58694 7.40554C9.67291 7.59267 9.72284 7.78073 9.72725 7.95194C9.73283 8.16819 9.67533 8.38607 9.55452 8.59656C9.44272 8.80682 9.2771 9.02748 9.06642 9.24931L8.39996 9.97879C8.3034 10.0805 8.26136 10.1988 8.26508 10.3429C8.26694 10.415 8.27757 10.4779 8.29745 10.5495C8.32634 10.6209 8.35477 10.6742 8.37418 10.7278C8.54403 11.021 8.83334 11.4012 9.24188 11.8596C9.65943 12.3177 10.1042 12.7841 10.5851 13.2496C11.084 13.7146 11.5639 14.144 12.0519 14.5372C12.5307 14.9216 12.9251 15.1819 13.2356 15.3362C13.2811 15.3531 13.3359 15.3787 13.3997 15.4041C13.4725 15.4293 13.5448 15.4364 13.6259 15.4344C13.779 15.4304 13.8948 15.3733 13.9913 15.2717L14.6587 14.5782C14.8782 14.3472 15.09 14.1704 15.2945 14.0569C15.4985 13.9254 15.7041 13.857 15.9294 13.8512C16.1006 13.8468 16.2817 13.8782 16.482 13.9542C16.6823 14.0302 16.8926 14.142 17.1218 14.2893L20.1589 16.3299C20.3973 16.4861 20.5644 16.6711 20.6693 16.8939C20.7652 17.1168 20.8251 17.3407 20.8316 17.593Z" stroke="#E74646" stroke-miterlimit="10"/>
</svg>
