<svg width="24" height="25" viewBox="0 0 24 25" fill="none" xmlns="http://www.w3.org/2000/svg">
<path d="M16.5 21.4048H7.5C3.9 21.4048 3 20.5048 3 16.9048V15.1048C3 11.5048 3.9 10.6048 7.5 10.6048H16.5C20.1 10.6048 21 11.5048 21 15.1048V16.9048C21 20.5048 20.1 21.4048 16.5 21.4048Z" stroke="#E74646" stroke-linecap="round" stroke-linejoin="round"/>
<path d="M6.59998 10.6048V8.80479C6.59998 5.82579 7.49998 3.40479 12 3.40479C16.05 3.40479 17.4 5.20479 17.4 7.90479" stroke="#E74646" stroke-linecap="round" stroke-linejoin="round"/>
<path d="M12 18.2548C13.2426 18.2548 14.25 17.2474 14.25 16.0048C14.25 14.7621 13.2426 13.7548 12 13.7548C10.7574 13.7548 9.75 14.7621 9.75 16.0048C9.75 17.2474 10.7574 18.2548 12 18.2548Z" stroke="#E74646" stroke-linecap="round" stroke-linejoin="round"/>
</svg>
