<svg width="24" height="25" viewBox="0 0 24 25" fill="none" xmlns="http://www.w3.org/2000/svg">
<g opacity="0.5">
<path d="M15.9458 3.78289L7.3391 6.6432C1.55363 8.57867 1.55363 11.7346 7.3391 13.6605L9.89348 14.5091L10.7418 17.0643C12.6671 22.8516 15.8315 22.8516 17.7568 17.0643L20.6257 8.46426C21.9029 4.60284 19.806 2.49575 15.9458 3.78289ZM16.2508 8.91238L12.629 12.5545C12.486 12.6975 12.3049 12.7643 12.1238 12.7643C11.9427 12.7643 11.7616 12.6975 11.6186 12.5545C11.3422 12.278 11.3422 11.8204 11.6186 11.5439L15.2405 7.90173C15.5169 7.62524 15.9744 7.62524 16.2508 7.90173C16.5272 8.17823 16.5272 8.63588 16.2508 8.91238Z" fill="white"/>
</g>
</svg>
