<svg width="24" height="25" viewBox="0 0 24 25" fill="none" xmlns="http://www.w3.org/2000/svg">
<g opacity="0.5">
<path d="M14.2746 21.1782H9.25241C4.70731 21.1782 2.76538 19.2362 2.76538 14.6911V9.66892C2.76538 5.12381 4.70731 3.18188 9.25241 3.18188H14.2746C18.8197 3.18188 20.7617 5.12381 20.7617 9.66892V14.6911C20.7617 19.2362 18.8197 21.1782 14.2746 21.1782ZM9.25241 4.43744C5.39368 4.43744 4.02094 5.81018 4.02094 9.66892V14.6911C4.02094 18.5499 5.39368 19.9226 9.25241 19.9226H14.2746C18.1334 19.9226 19.5061 18.5499 19.5061 14.6911V9.66892C19.5061 5.81018 18.1334 4.43744 14.2746 4.43744H9.25241Z" fill="#FCFCFC"/>
<path d="M9.25229 11.1337C7.97999 11.1337 6.95044 10.1042 6.95044 8.83188C6.95044 7.55958 7.97999 6.53003 9.25229 6.53003C10.5246 6.53003 11.5541 7.55958 11.5541 8.83188C11.5541 10.1042 10.5246 11.1337 9.25229 11.1337ZM9.25229 7.78558C8.67473 7.78558 8.20599 8.25432 8.20599 8.83188C8.20599 9.40944 8.67473 9.87818 9.25229 9.87818C9.82985 9.87818 10.2986 9.40944 10.2986 8.83188C10.2986 8.25432 9.82985 7.78558 9.25229 7.78558Z" fill="#FCFCFC"/>
<path d="M3.95381 18.6253C3.75292 18.6253 3.55204 18.5249 3.43485 18.3491C3.24233 18.0645 3.31767 17.6711 3.61063 17.4786L7.73722 14.708C8.64122 14.097 9.8884 14.1723 10.7087 14.8671L10.9849 15.1098C11.4034 15.4697 12.1149 15.4697 12.5251 15.1098L16.0071 12.1216C16.8944 11.3599 18.2922 11.3599 19.1879 12.1216L20.5522 13.2934C20.8117 13.5194 20.8452 13.9128 20.6192 14.1807C20.3932 14.4402 19.9998 14.4736 19.732 14.2476L18.3676 13.0758C17.9491 12.7159 17.2376 12.7159 16.8191 13.0758L13.337 16.064C12.4497 16.8257 11.0519 16.8257 10.1563 16.064L9.88003 15.8213C9.495 15.4948 8.85885 15.4613 8.43196 15.7543L4.30537 18.5249C4.19655 18.5919 4.071 18.6253 3.95381 18.6253Z" fill="#FCFCFC"/>
</g>
</svg>
