<svg width="24" height="24" viewBox="0 0 24 24" fill="none" xmlns="http://www.w3.org/2000/svg">
<path d="M9.53742 11.0596C9.44656 11.0505 9.33752 11.0505 9.23757 11.0596C7.07503 10.9869 5.35771 9.21504 5.35771 7.03433C5.35771 4.80818 7.1568 3 9.39204 3C11.6182 3 13.4264 4.80818 13.4264 7.03433C13.4173 9.21504 11.7 10.9869 9.53742 11.0596Z" stroke="#E74646" stroke-linecap="round" stroke-linejoin="round"/>
<path d="M16.1247 4.81738C17.8875 4.81738 19.305 6.24394 19.305 7.99759C19.305 9.71491 17.942 11.1142 16.2429 11.1778C16.1702 11.1687 16.0884 11.1687 16.0066 11.1778" stroke="#E74646" stroke-linecap="round" stroke-linejoin="round"/>
<path d="M4.9944 14.4126C2.79551 15.8846 2.79551 18.2834 4.9944 19.7463C7.49314 21.4182 11.5911 21.4182 14.0898 19.7463C16.2887 18.2743 16.2887 15.8755 14.0898 14.4126C11.6002 12.7498 7.50222 12.7498 4.9944 14.4126Z" stroke="#E74646" stroke-linecap="round" stroke-linejoin="round"/>
<path d="M17.8785 19.3556C18.5327 19.2193 19.1505 18.9558 19.6594 18.5651C21.0768 17.502 21.0768 15.7483 19.6594 14.6852C19.1596 14.3036 18.5509 14.0492 17.9057 13.9038" stroke="#E74646" stroke-linecap="round" stroke-linejoin="round"/>
</svg>
