<svg width="25" height="25" viewBox="0 0 25 25" fill="none" xmlns="http://www.w3.org/2000/svg">
<path d="M5.20834 11.4585V17.3764C5.20834 18.2098 5.705 18.963 6.471 19.2913L11.6793 21.5235C12.2034 21.7481 12.7966 21.7481 13.3207 21.5235L18.529 19.2913C19.295 18.963 19.7917 18.2098 19.7917 17.3764V11.4585M22.9167 9.37519V14.5835M1.97336 8.38851L11.5683 3.59104C12.1548 3.29778 12.8452 3.29778 13.4317 3.59104L23.0266 8.38851C23.4105 8.58045 23.4105 9.12826 23.0266 9.3202L13.4317 14.1177C12.8452 14.4109 12.1548 14.4109 11.5683 14.1177L1.97337 9.3202C1.58949 9.12826 1.58949 8.58045 1.97336 8.38851Z" stroke="#E74646" stroke-linecap="round"/>
</svg>
