<svg width="24" height="24" viewBox="0 0 24 24" fill="none" xmlns="http://www.w3.org/2000/svg">
<path d="M9.3 21H14.7C19.2 21 21 19.2 21 14.7V9.3C21 4.8 19.2 3 14.7 3H9.3C4.8 3 3 4.8 3 9.3V14.7C3 19.2 4.8 21 9.3 21Z" stroke="#E74646" stroke-linecap="round" stroke-linejoin="round"/>
<path d="M9.3 10.2001C10.2941 10.2001 11.1 9.39421 11.1 8.4001C11.1 7.40599 10.2941 6.6001 9.3 6.6001C8.30589 6.6001 7.5 7.40599 7.5 8.4001C7.5 9.39421 8.30589 10.2001 9.3 10.2001Z" stroke="#E74646" stroke-linecap="round" stroke-linejoin="round"/>
<path d="M3.60294 18.2553L8.03994 15.2763C8.75094 14.7993 9.77694 14.8533 10.4159 15.4023L10.7129 15.6633C11.4149 16.2663 12.5489 16.2663 13.2509 15.6633L16.9949 12.4503C17.6969 11.8473 18.8309 11.8473 19.5329 12.4503L20.9999 13.7103" stroke="#E74646" stroke-linecap="round" stroke-linejoin="round"/>
</svg>
