<svg width="24" height="24" viewBox="0 0 24 24" fill="none" xmlns="http://www.w3.org/2000/svg">
<path d="M11.6298 20.4302C6.78986 20.5549 2.75451 16.7223 2.62979 11.8824C2.50506 7.04249 6.33766 3.00714 11.1776 2.88242C16.0175 2.75769 20.0529 6.59029 20.1776 11.4302C20.3023 16.2701 16.4697 20.3055 11.6298 20.4302ZM11.2091 4.10668C7.04663 4.21395 3.74679 7.68837 3.85405 11.8509C3.96132 16.0134 7.43574 19.3132 11.5982 19.2059C15.7607 19.0987 19.0606 15.6243 18.9533 11.4618C18.8461 7.29926 15.3716 3.99942 11.2091 4.10668Z" fill="#E74646"/>
<path d="M11.4405 13.0846C11.1059 13.0932 10.8212 12.8229 10.8126 12.4882L10.7074 8.40736C10.6988 8.07273 10.9692 7.78808 11.3038 7.77945C11.6384 7.77083 11.9231 8.04118 11.9317 8.37581L12.0369 12.4567C12.0455 12.7913 11.7751 13.076 11.4405 13.0846Z" fill="#E74646"/>
<path d="M11.5089 15.7371C11.4028 15.7399 11.2961 15.7181 11.1971 15.6798C11.0981 15.6415 11.0068 15.5867 10.9233 15.5154C10.8477 15.4356 10.7885 15.3555 10.745 15.2504C10.7016 15.1536 10.6744 15.0481 10.6717 14.942C10.669 14.8359 10.6907 14.7291 10.729 14.6301C10.7673 14.5312 10.8221 14.4399 10.8934 14.3564C10.9732 14.2808 11.0615 14.2214 11.1584 14.1781C11.3521 14.0914 11.5807 14.0855 11.7787 14.1621C11.8777 14.2004 11.9689 14.2552 12.0524 14.3265C12.128 14.4063 12.1874 14.4946 12.2308 14.5914C12.2741 14.6883 12.3013 14.7938 12.304 14.8999C12.3068 15.006 12.285 15.1127 12.2467 15.2117C12.2087 15.3189 12.1536 15.402 12.0823 15.4855C12.0026 15.5611 11.9142 15.6205 11.8174 15.6638C11.7205 15.7072 11.615 15.7344 11.5089 15.7371Z" fill="#E74646"/>
</svg>
