<svg width="24" height="24" viewBox="0 0 24 24" fill="none" xmlns="http://www.w3.org/2000/svg">
<path d="M10.3728 3.20928L5.88123 4.89248C4.8461 5.27953 4 6.50367 4 7.61081V14.2986C4 15.3608 4.7021 16.7559 5.5572 17.395L9.42768 20.2844C10.6968 21.2385 12.7851 21.2385 14.0542 20.2844L17.9247 17.395C18.7798 16.7559 19.4819 15.3608 19.4819 14.2986V7.61081C19.4819 6.50367 18.6358 5.27953 17.6007 4.89248L13.1091 3.20928C12.344 2.93024 11.1199 2.93024 10.3728 3.20928Z" stroke="#E74646" stroke-linecap="round" stroke-linejoin="round"/>
<path d="M12.0682 11C12.0227 11 11.9659 11 11.9204 11C10.8523 10.9659 10 10.0795 10 9C10 7.89773 10.8977 7 12 7C13.1023 7 14 7.89773 14 9C13.9886 10.0909 13.1364 10.9659 12.0682 11Z" stroke="#E74646" stroke-linecap="round" stroke-linejoin="round"/>
<path d="M9.79852 13.6394C8.73383 14.3869 8.73383 15.6131 9.79852 16.3606C11.0074 17.2131 12.9926 17.2131 14.2015 16.3606C15.2662 15.6131 15.2662 14.3869 14.2015 13.6394C13.0037 12.7869 11.0185 12.7869 9.79852 13.6394Z" stroke="#E74646" stroke-linecap="round" stroke-linejoin="round"/>
</svg>
