<svg width="24" height="25" viewBox="0 0 24 25" fill="none" xmlns="http://www.w3.org/2000/svg">
<path d="M11.6952 15.2971C13.1857 15.2971 14.3939 14.0889 14.3939 12.5984C14.3939 11.108 13.1857 9.89978 11.6952 9.89978C10.2048 9.89978 8.99658 11.108 8.99658 12.5984C8.99658 14.0889 10.2048 15.2971 11.6952 15.2971Z" stroke="#E74646" stroke-miterlimit="10" stroke-linecap="round" stroke-linejoin="round"/>
<path d="M2.69995 13.3899V11.8066C2.69995 10.8711 3.46457 10.0975 4.4091 10.0975C6.03728 10.0975 6.70295 8.94607 5.88436 7.53378C5.41659 6.72419 5.69545 5.67171 6.51404 5.20395L8.07027 4.31339C8.78091 3.8906 9.69845 4.14248 10.1212 4.85312L10.2202 5.02404C11.0298 6.43633 12.3611 6.43633 13.1797 5.02404L13.2787 4.85312C13.7015 4.14248 14.619 3.8906 15.3296 4.31339L16.8859 5.20395C17.7044 5.67171 17.9833 6.72419 17.5155 7.53378C16.697 8.94607 17.3626 10.0975 18.9908 10.0975C19.9263 10.0975 20.7 10.8621 20.7 11.8066V13.3899C20.7 14.3254 19.9353 15.099 18.9908 15.099C17.3626 15.099 16.697 16.2504 17.5155 17.6627C17.9833 18.4813 17.7044 19.5248 16.8859 19.9925L15.3296 20.8831C14.619 21.3059 13.7015 21.054 13.2787 20.3434L13.1797 20.1725C12.3701 18.7602 11.0388 18.7602 10.2202 20.1725L10.1212 20.3434C9.69845 21.054 8.78091 21.3059 8.07027 20.8831L6.51404 19.9925C5.69545 19.5248 5.41659 18.4723 5.88436 17.6627C6.70295 16.2504 6.03728 15.099 4.4091 15.099C3.46457 15.099 2.69995 14.3254 2.69995 13.3899Z" stroke="#E74646" stroke-miterlimit="10" stroke-linecap="round" stroke-linejoin="round"/>
</svg>
