<svg width="24" height="25" viewBox="0 0 24 25" fill="none" xmlns="http://www.w3.org/2000/svg">
<path d="M12.3333 21.1665C7.84378 21.2822 2.92766 18.591 2.76843 12.4119C2.60919 6.23276 7.38017 3.29193 11.8697 3.17624C14.3639 3.11196 16.6861 3.87333 18.4304 5.32588C20.3232 6.91953 21.3645 9.21141 21.4346 11.9309C21.5047 14.6503 20.5824 16.9767 18.7742 18.6658C17.107 20.2062 14.8114 21.1027 12.3333 21.1665Z" fill="url(#paint0_radial_470_9755)"/>
<path d="M8.85641 8.71902C8.18218 8.7364 7.58377 9.32184 7.60815 10.268C7.63254 11.2142 8.26026 11.7664 8.9345 11.7491C9.61034 11.7316 10.2071 11.1462 10.1828 10.2017C10.1585 9.2571 9.53869 8.70144 8.85641 8.71902Z" fill="#422B0D"/>
<path d="M8.81647 9.35293C8.58515 9.24939 8.31247 9.35303 8.20733 9.58439C8.12665 9.76521 8.17078 9.97823 8.31756 10.1129C8.54888 10.2165 8.82156 10.1128 8.9267 9.88146C9.00738 9.70065 8.96325 9.48762 8.81647 9.35293Z" fill="#896024"/>
<path d="M15.0357 8.55972C14.3615 8.5771 13.7631 9.16254 13.7875 10.1087C13.8119 11.0549 14.4396 11.6071 15.1138 11.5898C15.7881 11.5724 16.3865 10.9869 16.3621 10.0424C16.3378 9.0978 15.71 8.54235 15.0357 8.55972Z" fill="#422B0D"/>
<path d="M14.9875 9.19399C14.7562 9.09046 14.4835 9.1941 14.3783 9.42546C14.2977 9.60627 14.3418 9.81929 14.4886 9.95399C14.7199 10.0575 14.9926 9.95389 15.0977 9.72252C15.1784 9.54171 15.1343 9.32869 14.9875 9.19399Z" fill="#896024"/>
<path d="M12.1242 16.7938C10.665 16.8427 9.2557 16.2655 8.25099 15.2061C8.17477 15.1228 8.15396 15.0025 8.19797 14.8983C8.24194 14.7925 8.34319 14.7223 8.4574 14.7178C8.50889 14.7164 8.56076 14.7296 8.60648 14.7542C9.39357 15.1799 10.7048 15.7 12.0951 15.6642L12.1176 15.6636C13.5063 15.6278 14.7907 15.0408 15.5532 14.5752C15.5976 14.5482 15.6487 14.5324 15.7002 14.5311C15.8145 14.5298 15.9192 14.5947 15.9686 14.6981C16.0195 14.7998 16.0049 14.921 15.9315 15.0082C14.9827 16.118 13.6018 16.7686 12.1419 16.7934" fill="#422B0D"/>
<path d="M19.6701 6.62567C20.5635 7.98744 21.0533 9.62369 21.1005 11.4565C21.1706 14.176 20.2483 16.5024 18.4401 18.1914C16.7729 19.7318 14.4773 20.6283 11.9992 20.6922C9.09309 20.7671 6.01487 19.6629 4.15119 17.2006C5.95587 19.9977 9.24713 21.2462 12.3335 21.1666C14.8116 21.1028 17.1072 20.2063 18.7743 18.6658C20.5826 16.9768 21.5048 14.6504 21.4348 11.931C21.3819 9.8809 20.7766 8.07373 19.6701 6.62567Z" fill="#EB8F00"/>
<defs>
<radialGradient id="paint0_radial_470_9755" cx="0" cy="0" r="1" gradientUnits="userSpaceOnUse" gradientTransform="translate(12.1015 12.1714) rotate(-1.47618) scale(9.16872)">
<stop offset="0.5" stop-color="#FDE030"/>
<stop offset="0.92" stop-color="#F7C02B"/>
<stop offset="1" stop-color="#F4A223"/>
</radialGradient>
</defs>
</svg>
