<svg width="14" height="15" viewBox="0 0 14 15" fill="none" xmlns="http://www.w3.org/2000/svg">
<g clip-path="url(#clip0_573_12052)">
<path d="M11.2633 10.298L14.0058 8.18175L10.8018 6.86481L11.2633 10.298ZM12.3405 6.70595L12.0409 6.72162L12.0409 6.72162L12.3405 6.70595ZM7.58151 1.48856L7.62459 1.19167L7.62459 1.19167L7.58151 1.48856ZM3.90579 2.23185L3.75074 1.97502L3.75074 1.97502L3.90579 2.23185ZM1.53595 5.13828L1.81873 5.23845L1.81873 5.23845L1.53595 5.13828ZM1.54785 8.88838L1.26571 8.99035L1.26571 8.99035L1.54785 8.88838ZM3.9361 11.7797L3.78268 12.0375L3.78268 12.0375L3.9361 11.7797ZM12.5866 7.8442C12.642 7.46454 12.6604 7.07811 12.6401 6.69028L12.0409 6.72162C12.0592 7.0698 12.0427 7.41669 11.9929 7.75751L12.5866 7.8442ZM12.6401 6.69028C12.5692 5.33504 12.0306 4.04632 11.1161 3.04368L10.6728 3.44803C11.4938 4.34811 11.9773 5.50501 12.0409 6.72162L12.6401 6.69028ZM11.1161 3.04368C10.2015 2.04105 8.96761 1.38654 7.62459 1.19167L7.53844 1.78546C8.74409 1.96039 9.85178 2.54795 10.6728 3.44803L11.1161 3.04368ZM7.62459 1.19167C6.28157 0.99681 4.91253 1.27365 3.75074 1.97502L4.06083 2.48868C5.10379 1.85905 6.33279 1.61052 7.53844 1.78546L7.62459 1.19167ZM3.75074 1.97502C2.58895 2.6764 1.70629 3.75891 1.25316 5.03811L1.81873 5.23845C2.22551 4.09009 3.01788 3.11831 4.06083 2.48868L3.75074 1.97502ZM1.25316 5.03811C0.800033 6.31731 0.804466 7.71405 1.26571 8.99035L1.82999 8.78642C1.41593 7.64067 1.41195 6.3868 1.81873 5.23845L1.25316 5.03811ZM1.26571 8.99035C1.72695 10.2666 2.61646 11.3435 3.78268 12.0375L4.08951 11.5219C3.04258 10.8989 2.24405 9.93217 1.82999 8.78642L1.26571 8.99035ZM3.78268 12.0375C4.9489 12.7315 6.31967 12.9996 7.66143 12.7963L7.57151 12.203C6.36699 12.3856 5.13644 12.1449 4.08951 11.5219L3.78268 12.0375Z" fill="#E74646"/>
<path d="M4.764 7.6255H3.938L3.8155 8H3L3.9065 5.522H4.8025L5.7055 8H4.8865L4.764 7.6255ZM4.575 7.041L4.351 6.3515L4.127 7.041H4.575ZM7.40103 6.369C7.3707 6.32 7.32753 6.28267 7.27153 6.257C7.21553 6.229 7.14786 6.215 7.06853 6.215C6.9192 6.215 6.8037 6.264 6.72203 6.362C6.64036 6.45767 6.59953 6.5895 6.59953 6.7575C6.59953 6.95117 6.64503 7.09583 6.73603 7.1915C6.82703 7.28717 6.96703 7.335 7.15603 7.335C7.3357 7.335 7.48036 7.26267 7.59003 7.118H6.97053V6.5685H8.23403V7.3455C8.1267 7.52983 7.97853 7.6885 7.78953 7.8215C7.60053 7.95217 7.36136 8.0175 7.07203 8.0175C6.81536 8.0175 6.59136 7.965 6.40003 7.86C6.21103 7.75267 6.0652 7.60333 5.96253 7.412C5.8622 7.22067 5.81203 7.0025 5.81203 6.7575C5.81203 6.5125 5.8622 6.29433 5.96253 6.103C6.0652 5.91167 6.21103 5.7635 6.40003 5.6585C6.58903 5.55117 6.8107 5.4975 7.06503 5.4975C7.38936 5.4975 7.65303 5.57567 7.85603 5.732C8.06136 5.88833 8.1827 6.10067 8.22003 6.369H7.40103ZM9.29087 6.1415V6.446H10.0609V7.0305H9.29087V7.3805H10.1659V8H8.51387V5.522H10.1659V6.1415H9.29087Z" fill="#E74646"/>
</g>
<defs>
<clipPath id="clip0_573_12052">
<rect width="14" height="14" fill="white" transform="translate(0 0.214355)"/>
</clipPath>
</defs>
</svg>
