<svg width="18" height="18" viewBox="0 0 18 18" fill="none" xmlns="http://www.w3.org/2000/svg">
<path d="M7.17749 14.1148C7.03499 14.1148 6.89249 14.0623 6.77999 13.9498L2.22749 9.39734C2.00999 9.17984 2.00999 8.81984 2.22749 8.60234L6.77999 4.04984C6.99749 3.83234 7.35749 3.83234 7.57499 4.04984C7.79249 4.26734 7.79249 4.62734 7.57499 4.84484L3.41999 8.99984L7.57499 13.1548C7.79249 13.3723 7.79249 13.7323 7.57499 13.9498C7.46999 14.0623 7.31999 14.1148 7.17749 14.1148Z" fill="#FCFCFC"/>
<path d="M15.375 9.5625H2.7525C2.445 9.5625 2.19 9.3075 2.19 9C2.19 8.6925 2.445 8.4375 2.7525 8.4375H15.375C15.6825 8.4375 15.9375 8.6925 15.9375 9C15.9375 9.3075 15.6825 9.5625 15.375 9.5625Z" fill="#FCFCFC"/>
</svg>
