<svg width="207" height="210" viewBox="0 0 207 210" fill="none" xmlns="http://www.w3.org/2000/svg">
<g clip-path="url(#clip0_470_9196)">
<path d="M198.673 87.3615H177.929V92.851H198.673V87.3615Z" fill="#EBEBEB"/>
<path d="M189.902 98.6277C189.902 98.6277 189.902 98.5901 189.897 98.5288C189.897 98.4535 189.897 98.3641 189.892 98.2464C189.892 97.9874 189.883 97.6296 189.878 97.1682C189.869 96.2219 189.859 94.8613 189.84 93.1429L189.906 93.2088C185.17 93.2182 177.637 93.2324 169.168 93.2512C169.215 93.2041 169.059 93.3548 169.271 93.1476V93.5007V93.8538C169.271 94.0892 169.271 94.3199 169.271 94.5553C169.271 95.0214 169.271 95.4828 169.271 95.9395C169.271 96.8575 169.271 97.7567 169.271 98.6371L169.168 98.5336C175.076 98.5524 180.241 98.5665 183.951 98.5806C185.796 98.5948 187.279 98.6042 188.315 98.6089C188.819 98.6136 189.214 98.6183 189.497 98.623C189.624 98.623 189.727 98.6277 189.807 98.6277C189.878 98.6277 189.916 98.6277 189.916 98.6324C189.916 98.6324 189.887 98.6324 189.822 98.6371C189.746 98.6371 189.647 98.6371 189.525 98.6418C189.247 98.6418 188.861 98.6513 188.367 98.656C187.336 98.6607 185.862 98.6748 184.026 98.6842C180.302 98.6983 175.109 98.7125 169.172 98.7313H169.069V98.6277C169.069 97.7473 169.069 96.8434 169.069 95.93C169.069 95.4734 169.069 95.012 169.069 94.5459C169.069 94.3152 169.069 94.0798 169.069 93.8444V93.4913V93.3171V93.1523V93.1429C169.281 92.931 169.13 93.0817 169.177 93.0346C177.651 93.0535 185.179 93.0676 189.916 93.077H189.982V93.1429C189.968 94.8754 189.953 96.2502 189.944 97.2059C189.939 97.6626 189.93 98.0157 189.93 98.2699C189.93 98.3829 189.925 98.4676 189.925 98.5383C189.925 98.5995 189.925 98.6277 189.92 98.6277H189.902Z" fill="#E0E0E0"/>
<path d="M69.716 167.209H48.9725V172.699H69.716V167.209Z" fill="#EBEBEB"/>
<path d="M60.9449 178.475C60.9449 178.475 60.9449 178.438 60.9402 178.376C60.9402 178.301 60.9402 178.212 60.9355 178.094C60.9355 177.835 60.9261 177.477 60.9214 177.016C60.912 176.069 60.9026 174.709 60.8837 172.99L60.9496 173.056C56.2134 173.066 48.6806 173.08 40.2109 173.099C40.258 173.052 40.1026 173.202 40.3145 172.995V173.348V173.701C40.3145 173.937 40.3145 174.167 40.3145 174.403C40.3145 174.869 40.3145 175.33 40.3145 175.787C40.3145 176.705 40.3145 177.604 40.3145 178.485L40.2109 178.381C46.1195 178.4 51.2841 178.414 54.994 178.428C56.8396 178.442 58.3226 178.452 59.3583 178.456C59.8621 178.461 60.2576 178.466 60.54 178.471C60.6672 178.471 60.7707 178.475 60.8508 178.475C60.9214 178.475 60.9591 178.475 60.9591 178.48C60.9591 178.48 60.9308 178.48 60.8649 178.485C60.7896 178.485 60.6907 178.485 60.5683 178.489C60.2905 178.489 59.9045 178.499 59.4101 178.503C58.3791 178.508 56.9055 178.522 55.0694 178.532C51.3453 178.541 46.1524 178.56 40.2156 178.579H40.1121V178.475C40.1121 177.595 40.1121 176.691 40.1121 175.778C40.1121 175.321 40.1121 174.86 40.1121 174.393C40.1121 174.163 40.1121 173.927 40.1121 173.692V173.339V173.165V173V172.99C40.3239 172.779 40.1733 172.929 40.2203 172.882C48.6947 172.901 56.2228 172.915 60.9591 172.925H61.025V172.99C61.0108 174.723 60.9967 176.098 60.9873 177.053C60.9826 177.51 60.9732 177.863 60.9732 178.117C60.9732 178.23 60.9685 178.315 60.9685 178.386C60.9685 178.447 60.9685 178.475 60.9638 178.475H60.9449Z" fill="#E0E0E0"/>
<path d="M107.902 0H87.1591V5.48952H107.902V0Z" fill="#EBEBEB"/>
<path d="M99.1268 11.2662C99.1268 11.2662 99.1268 11.2285 99.1221 11.1673C99.1221 11.092 99.1221 11.0026 99.1174 10.8849C99.1174 10.6259 99.108 10.2681 99.1033 9.80673C99.0939 8.86042 99.0844 7.49981 99.0656 5.78139L99.1315 5.8473C94.3953 5.85672 86.8625 5.87084 78.3928 5.88968C78.4399 5.8426 78.2845 5.99325 78.4964 5.7861V6.1392V6.4923C78.4964 6.7277 78.4964 6.95839 78.4964 7.19379C78.4964 7.65988 78.4964 8.12126 78.4964 8.57794C78.4964 9.496 78.4964 10.3952 78.4964 11.2756L78.3928 11.172C84.3013 11.1909 89.466 11.205 93.1759 11.2191C95.0214 11.2332 96.5045 11.2427 97.5402 11.2474C98.044 11.2521 98.4394 11.2568 98.7219 11.2615C98.849 11.2615 98.9526 11.2662 99.0327 11.2662C99.1033 11.2662 99.1409 11.2662 99.1409 11.2709C99.1409 11.2709 99.1127 11.2709 99.0468 11.2756C98.9715 11.2756 98.8726 11.2756 98.7502 11.2803C98.4724 11.2803 98.0863 11.2897 97.592 11.2945C96.561 11.2992 95.0874 11.3133 93.2512 11.3227C89.5272 11.3321 84.3343 11.3509 78.3975 11.3698H78.2939V11.2662C78.2939 10.3858 78.2939 9.48187 78.2939 8.56852C78.2939 8.11185 78.2939 7.65047 78.2939 7.18437C78.2939 6.95368 78.2939 6.71828 78.2939 6.48288V6.12978V5.95559V5.79081V5.78139C78.5058 5.56953 78.3551 5.72019 78.4022 5.67311C86.8766 5.69194 94.4047 5.70606 99.1409 5.71548H99.2068V5.78139C99.1927 7.51393 99.1786 8.88867 99.1692 9.84439C99.1645 10.3011 99.1551 10.6542 99.1551 10.9084C99.1551 11.0214 99.1504 11.1061 99.1504 11.1768C99.1504 11.238 99.1504 11.2662 99.1456 11.2662H99.1268Z" fill="#E0E0E0"/>
<path d="M194.53 130.322H173.786V135.811H194.53V130.322Z" fill="#EBEBEB"/>
<path d="M60.1587 36.4304H39.4153V41.9199H60.1587V36.4304Z" fill="#EBEBEB"/>
<path d="M25.6679 98.1428C25.6679 98.1428 25.6679 98.1051 25.6632 98.0439C25.6632 97.9686 25.6632 97.8791 25.6585 97.7614C25.6585 97.5025 25.6491 97.1447 25.6444 96.6833C25.635 95.737 25.6256 94.3764 25.6067 92.658L25.6727 92.7239C20.9364 92.7333 13.4036 92.7474 4.93395 92.7663C4.98103 92.7192 4.82567 92.8698 5.03753 92.6627V92.8369V93.0111V93.3642C5.03753 93.5996 5.03753 93.8303 5.03753 94.0657C5.03753 94.5318 5.03753 94.9932 5.03753 95.4498C5.03753 96.3679 5.03753 97.2671 5.03753 98.1475L4.93395 98.0439C10.8425 98.0628 16.0071 98.0769 19.717 98.091C21.5626 98.1051 23.0456 98.1146 24.0814 98.1193C24.5851 98.124 24.9806 98.1287 25.2631 98.1334C25.3902 98.1334 25.4938 98.1381 25.5738 98.1381C25.6444 98.1381 25.6821 98.1381 25.6821 98.1428C25.6821 98.1428 25.6538 98.1428 25.5879 98.1475C25.5126 98.1475 25.4137 98.1475 25.2913 98.1522C25.0135 98.1522 24.6275 98.1616 24.1331 98.1663C23.1021 98.171 21.6285 98.1852 19.7924 98.1946C16.0684 98.2087 10.8754 98.2228 4.93866 98.2417H4.83508V98.1381C4.83508 97.2577 4.83508 96.3538 4.83508 95.4404C4.83508 94.9837 4.83508 94.5223 4.83508 94.0563C4.83508 93.8256 4.83508 93.5902 4.83508 93.3548V93.0017V92.8275V92.6627V92.6533C5.04694 92.4414 4.89629 92.5921 4.94337 92.545C13.4178 92.5638 20.9458 92.578 25.6821 92.5874H25.748V92.6533C25.7339 94.3858 25.7197 95.7605 25.7103 96.7163C25.7056 97.1729 25.6962 97.5261 25.6962 97.7803C25.6962 97.8933 25.6915 97.978 25.6915 98.0486C25.6915 98.1098 25.6915 98.1381 25.6868 98.1381L25.6679 98.1428Z" fill="#E0E0E0"/>
<path d="M28.4786 92.6533C28.4786 92.6533 28.4739 92.6156 28.4692 92.5497C28.4692 92.4697 28.4645 92.3755 28.4597 92.2578C28.4597 91.9895 28.4503 91.6222 28.4409 91.1561C28.4315 90.1957 28.4174 88.8351 28.3985 87.1638L28.4739 87.2391C25.2442 87.2485 20.8516 87.2579 16.0118 87.2673C15.9177 87.3615 16.1389 87.1402 16.1154 87.1638V87.3427V87.5216V87.8794C16.1154 88.1195 16.1154 88.3549 16.1154 88.5903C16.1154 89.0611 16.1154 89.5272 16.1154 89.9886C16.1154 90.9066 16.1154 91.7964 16.1154 92.6486L16.0165 92.5497C19.6134 92.5685 22.7113 92.5874 24.9335 92.5968C26.0304 92.6062 26.9061 92.6156 27.5323 92.625C27.8242 92.6297 28.0549 92.6344 28.2338 92.6392C28.3938 92.6392 28.4786 92.6486 28.4833 92.6533C28.4833 92.6533 28.408 92.6627 28.2573 92.6674C28.0878 92.6674 27.8618 92.6768 27.5794 92.6815C26.9626 92.6862 26.0916 92.6957 25.0041 92.7098C22.7678 92.7239 19.6464 92.738 16.0212 92.7569H15.9224V92.658C15.9224 91.8058 15.9224 90.916 15.9224 89.998C15.9224 89.5366 15.9224 89.0752 15.9224 88.5997C15.9224 88.3643 15.9224 88.1289 15.9224 87.8888V87.531V87.3521V87.1826V87.1732C15.9224 87.1732 16.1248 86.9707 16.0306 87.0649C20.8705 87.0743 25.263 87.0884 28.4927 87.0931H28.568V87.1685C28.5492 88.8586 28.5351 90.2334 28.5257 91.2079C28.5162 91.6646 28.5115 92.0271 28.5068 92.2908C28.5021 92.5356 28.4974 92.6627 28.4927 92.658L28.4786 92.6533Z" fill="#E0E0E0"/>
<path d="M51.6561 14.5147H14.3358V68.6048H51.6561V14.5147Z" fill="#E0E0E0"/>
<path d="M49.7869 14.5147H12.4667V68.6048H49.7869V14.5147Z" fill="#F5F5F5"/>
<path d="M45.1496 20.3715H17.1041V62.7481H45.1496V20.3715Z" fill="white"/>
<path d="M45.1497 62.7481C45.1497 62.7481 45.1497 62.6775 45.145 62.541C45.145 62.3997 45.145 62.202 45.1402 61.9383C45.1402 61.4063 45.1355 60.6248 45.1308 59.6126C45.1261 57.5834 45.1167 54.6221 45.1073 50.884C45.0979 43.4124 45.079 32.8288 45.0602 20.3715L45.1544 20.4656C36.5858 20.4656 27.0898 20.4703 17.1136 20.475L17.2171 20.3715C17.2077 36.3551 17.203 51.0958 17.1983 62.7481L17.1183 62.6681C25.6586 62.6869 32.6594 62.701 37.5321 62.7104C39.9709 62.7199 41.8729 62.7246 43.1723 62.7293C43.8173 62.7293 44.3116 62.734 44.6506 62.7387C44.9849 62.7387 45.1638 62.7481 45.1638 62.7481C45.1638 62.7481 44.999 62.7528 44.6694 62.7575C44.3352 62.7575 43.8455 62.7622 43.2053 62.7669C41.9106 62.7716 40.0132 62.7764 37.5839 62.7858C32.7017 62.7952 25.6821 62.8093 17.1183 62.8281H17.0382V62.7481C17.0335 51.0958 17.0241 36.3598 17.0194 20.3715V20.2679H17.123C27.1039 20.2679 36.5952 20.2726 45.1638 20.2773H45.2579V20.3715C45.2391 32.8571 45.225 43.4595 45.2109 50.9452C45.2014 54.6739 45.192 57.6258 45.1873 59.655C45.1826 60.6578 45.1779 61.4346 45.1779 61.9619C45.1779 62.2208 45.1779 62.4138 45.1732 62.5504C45.1732 62.6822 45.1685 62.7481 45.1685 62.7481H45.1497Z" fill="#E0E0E0"/>
<path d="M49.8906 14.5147C49.8906 14.5147 49.6599 14.9008 49.2268 15.4799C48.7937 16.0589 48.1769 16.8499 47.4754 17.702C46.7739 18.5542 46.1148 19.3122 45.6299 19.8442C45.145 20.3762 44.8295 20.701 44.8107 20.6822C44.7872 20.6634 45.0649 20.3103 45.5216 19.75C46.0207 19.1427 46.6374 18.3941 47.3201 17.5702C47.998 16.7463 48.6148 15.9977 49.1138 15.3904C49.5752 14.8349 49.8671 14.4959 49.8906 14.5147Z" fill="#E0E0E0"/>
<path d="M45.2908 62.6115C46.6843 64.8243 48.3274 66.8817 50.1824 68.7272L45.2908 62.6115Z" fill="white"/>
<path d="M50.1824 68.7272C50.1824 68.7272 49.8293 68.4589 49.3303 67.9504C48.8265 67.4467 48.1627 66.7169 47.4848 65.8695C46.8068 65.0221 46.2419 64.2123 45.8605 63.6097C45.4792 63.007 45.2673 62.621 45.2908 62.6068C45.3144 62.5927 45.5686 62.9505 45.9782 63.5296C46.3878 64.1087 46.9669 64.8949 47.6401 65.7424C48.3134 66.5851 48.9584 67.3243 49.4292 67.8516C49.9 68.3788 50.1966 68.7037 50.1777 68.7272H50.1824Z" fill="#E0E0E0"/>
<path d="M12.4623 68.5626C14.0912 66.5522 15.7202 64.5419 17.3492 62.5316L12.4623 68.5626Z" fill="white"/>
<path d="M17.3489 62.5315C17.3913 62.5692 16.332 63.9439 14.9855 65.6106C13.6343 67.2772 12.5044 68.5954 12.462 68.5625C12.4197 68.5295 13.479 67.1501 14.8255 65.4835C16.1767 63.8168 17.3066 62.4986 17.3489 62.5315Z" fill="#E0E0E0"/>
<path d="M12.467 14.5147C12.5094 14.4818 13.5734 15.7482 14.8398 17.3489C16.1063 18.9497 17.095 20.2773 17.0526 20.3103C17.0102 20.3432 15.9462 19.0768 14.6798 17.4761C13.4133 15.8753 12.4246 14.5477 12.467 14.5147Z" fill="#E0E0E0"/>
<path d="M36.4116 28.973H27.0192V55.6343H36.4116V28.973Z" fill="#E0E0E0"/>
<path d="M203.362 14.5147H166.042V68.6048H203.362V14.5147Z" fill="#E0E0E0"/>
<path d="M201.493 14.5148H164.173V68.6049H201.493V14.5148Z" fill="#F5F5F5"/>
<path d="M196.851 20.3715H168.805V62.7481H196.851V20.3715Z" fill="white"/>
<path d="M196.851 62.7481C196.851 62.7481 196.851 62.6775 196.846 62.541C196.846 62.3997 196.846 62.202 196.841 61.9383C196.841 61.4063 196.836 60.6248 196.832 59.6126C196.827 57.5834 196.818 54.6221 196.808 50.884C196.799 43.4124 196.78 32.8288 196.761 20.3715L196.855 20.4656C188.287 20.4656 178.791 20.4703 168.815 20.475L168.918 20.3715C168.909 36.3551 168.904 51.0958 168.899 62.7481L168.819 62.6681C177.359 62.6869 184.36 62.701 189.233 62.7104C191.672 62.7199 193.574 62.7246 194.873 62.7293C195.518 62.7293 196.013 62.734 196.352 62.7387C196.686 62.7387 196.865 62.7481 196.865 62.7481C196.865 62.7481 196.7 62.7528 196.37 62.7575C196.036 62.7575 195.546 62.7622 194.906 62.7669C193.611 62.7716 191.714 62.7764 189.285 62.7858C184.403 62.7952 177.383 62.8093 168.819 62.8281H168.739V62.7481C168.734 51.0958 168.725 36.3598 168.72 20.3715V20.2679H168.824C178.805 20.2679 188.296 20.2726 196.865 20.2773H196.959V20.3715C196.94 32.8571 196.926 43.4595 196.912 50.9452C196.902 54.6739 196.893 57.6258 196.888 59.655C196.884 60.6578 196.879 61.4346 196.879 61.9619C196.879 62.2208 196.879 62.4138 196.874 62.5504C196.874 62.6822 196.869 62.7481 196.869 62.7481H196.851Z" fill="#E0E0E0"/>
<path d="M201.591 14.5147C201.591 14.5147 201.361 14.9008 200.928 15.4799C200.494 16.0589 199.878 16.8499 199.176 17.702C198.475 18.5542 197.816 19.3122 197.331 19.8442C196.846 20.3809 196.53 20.701 196.512 20.6822C196.488 20.6634 196.766 20.3103 197.222 19.75C197.721 19.1427 198.338 18.3941 199.021 17.5702C199.699 16.7463 200.316 15.9977 200.815 15.3904C201.276 14.8349 201.568 14.4959 201.591 14.5147Z" fill="#E0E0E0"/>
<path d="M196.996 62.6115C198.39 64.8243 200.033 66.8817 201.888 68.7272L196.996 62.6115Z" fill="white"/>
<path d="M201.888 68.7272C201.888 68.7272 201.535 68.4589 201.036 67.9504C200.532 67.4467 199.868 66.7169 199.19 65.8695C198.512 65.0221 197.948 64.2123 197.566 63.6097C197.185 63.007 196.973 62.621 196.997 62.6068C197.02 62.5927 197.274 62.9505 197.684 63.5296C198.093 64.1087 198.673 64.8949 199.346 65.7424C200.019 66.5851 200.664 67.3243 201.135 67.8516C201.606 68.3788 201.902 68.7037 201.883 68.7272H201.888Z" fill="#E0E0E0"/>
<path d="M164.163 68.5626C165.792 66.5522 167.421 64.5419 169.05 62.5316L164.163 68.5626Z" fill="white"/>
<path d="M169.055 62.5315C169.097 62.5692 168.038 63.9439 166.691 65.6106C165.34 67.2772 164.21 68.5954 164.168 68.5625C164.125 68.5295 165.185 67.1501 166.531 65.4835C167.882 63.8168 169.012 62.4986 169.055 62.5315Z" fill="#E0E0E0"/>
<path d="M164.172 14.5147C164.215 14.4818 165.279 15.7482 166.545 17.3489C167.812 18.9497 168.8 20.2773 168.758 20.3103C168.716 20.3432 167.652 19.0768 166.385 17.4761C165.119 15.8753 164.13 14.5477 164.172 14.5147Z" fill="#E0E0E0"/>
<path d="M188.117 28.973H178.725V55.6343H188.117V28.973Z" fill="#E0E0E0"/>
<path d="M206.511 200.061C206.511 200.127 160.279 200.184 103.26 200.184C46.2419 200.184 0 200.127 0 200.061C0 199.996 46.2231 199.939 103.26 199.939C160.298 199.939 206.511 199.996 206.511 200.061Z" fill="#263238"/>
<path d="M166.781 164.059C166.202 163.758 165.839 163.08 165.905 162.426C165.947 162.049 166.117 161.672 166.032 161.301C165.962 160.995 165.731 160.754 165.552 160.5C164.907 159.582 164.902 158.259 165.543 157.336C164.963 157.03 164.521 156.4 164.361 155.571C164.238 154.931 164.719 153.711 164.719 153.711C164.719 153.711 164.149 153.335 163.904 152.294C163.758 151.677 164.055 150.547 164.497 150.091C163.339 149.319 163.052 147.516 163.914 146.423C163.047 145.449 162.859 143.933 163.462 142.775C162.449 141.993 162.181 140.406 162.878 139.333C161.969 138.354 161.569 136.927 161.833 135.618C161.833 135.618 160.966 132.12 161.192 131.414C161.291 131.103 160.006 134.055 159.643 139.164C159.281 144.267 161.395 159.488 162.614 165.688C163.834 171.889 167.845 178.814 167.845 178.814L172.948 178.174C172.948 178.174 167.661 169.059 167.026 165.411L167.011 164.309" fill="#455A64"/>
<g opacity="0.3">
<path d="M168 165.712C167.699 164.855 166.983 164.493 166.442 163.763C165.411 165.5 164.836 167.524 164.916 169.54C164.996 171.555 165.467 173.537 165.933 175.5L167.397 175.053C167.623 172.364 167.845 169.681 168.071 166.993C168.108 166.564 168.141 166.122 168 165.712Z" fill="black"/>
</g>
<path d="M193.315 146.974C193.743 146.885 189.52 158.429 188.668 164.926C187.816 171.418 184.812 179.52 183.607 181.54C182.402 183.56 179.003 181.714 179.003 181.714L184.261 168.593L184.699 164.554C184.699 164.554 185.942 162.482 185.895 160.472C185.895 160.472 186.978 159.93 187.204 157.76C187.204 157.76 188.357 157.487 188.593 155.142C188.593 155.142 189.417 153.189 189.407 151.965C189.407 151.965 191.714 147.308 193.31 146.979L193.315 146.974Z" fill="#455A64"/>
<g opacity="0.3">
<path d="M183.97 169.554C184.125 171.032 184.082 172.529 183.847 173.998C184.53 173.626 185.208 173.254 185.89 172.882C185.834 174.007 185.259 175.057 184.502 175.891C183.744 176.724 182.807 177.369 181.879 178.009C182.322 175.015 182.976 172.049 183.838 169.144" fill="black"/>
</g>
<path d="M194.153 155.241C194.073 155.444 193.301 160.142 192.854 163.033C192.468 165.533 191.851 171.126 189.676 174.794C187.501 178.461 184.412 181.498 182.421 182.75C179.328 184.69 176.724 184.662 176.724 184.662L183.249 175.481C183.249 175.481 185.839 174.13 185.509 172.976L185.777 171.427C185.777 171.427 187.647 170.99 187.849 169.097C187.849 169.097 189.685 167.463 189.572 164.973C189.572 164.973 191.121 163.857 190.89 162.266C190.89 162.266 192.143 161.107 191.898 160.142C191.898 160.142 193.042 159.257 192.646 158.076L194.153 155.246V155.241Z" fill="#455A64"/>
<path d="M194.153 155.241C194.04 155.458 193.597 156.31 192.679 158.09V158.061C192.792 158.391 192.802 158.786 192.661 159.158C192.524 159.535 192.27 159.883 191.926 160.175L191.94 160.128C191.983 160.317 191.978 160.514 191.94 160.712C191.893 160.905 191.818 161.098 191.719 161.282C191.516 161.649 191.248 161.988 190.928 162.308L190.947 162.261C191.013 162.746 190.933 163.278 190.678 163.753C190.434 164.234 190.071 164.667 189.61 165.025L189.638 164.973C189.709 166.39 189.101 167.976 187.896 169.153L187.92 169.106C187.858 169.634 187.651 170.18 187.265 170.604C186.884 171.032 186.371 171.338 185.796 171.503L185.853 171.442C185.773 171.922 185.679 172.454 185.589 172.99V172.958C185.674 173.268 185.561 173.588 185.401 173.833C185.236 174.087 185.034 174.313 184.808 174.511C184.351 174.911 183.838 175.255 183.292 175.552L183.32 175.528C181.3 178.372 179.097 181.474 176.799 184.709L176.729 184.572C176.973 184.572 177.247 184.544 177.52 184.506C178.748 184.332 179.935 183.951 181.022 183.423C182.124 182.91 183.113 182.228 184.003 181.46C185.782 179.921 187.279 178.188 188.527 176.423C189.144 175.537 189.713 174.643 190.156 173.72C190.598 172.797 190.942 171.861 191.225 170.942C191.78 169.097 192.124 167.331 192.387 165.717C192.872 162.473 193.315 159.85 193.621 158.043C193.776 157.139 193.903 156.437 193.993 155.962C194.04 155.726 194.073 155.543 194.101 155.425C194.125 155.303 194.153 155.251 194.153 155.246C194.153 155.246 193.979 156.244 193.687 158.057C193.4 159.869 192.981 162.492 192.505 165.74C192.251 167.36 191.912 169.135 191.356 170.99C191.074 171.917 190.735 172.859 190.288 173.791C189.84 174.728 189.271 175.622 188.649 176.517C187.397 178.296 185.9 180.038 184.101 181.592C183.202 182.364 182.199 183.061 181.084 183.583C179.982 184.115 178.781 184.511 177.529 184.685C177.251 184.723 176.978 184.751 176.715 184.751H176.545L176.644 184.615C178.941 181.38 181.149 178.278 183.174 175.439L183.183 175.424L183.202 175.415C183.739 175.123 184.247 174.784 184.69 174.398C184.911 174.205 185.109 173.989 185.26 173.753C185.41 173.522 185.5 173.249 185.429 173V172.981V172.962C185.523 172.426 185.617 171.894 185.697 171.413L185.707 171.366L185.759 171.352C186.291 171.201 186.794 170.905 187.152 170.505C187.519 170.109 187.717 169.596 187.778 169.092V169.064L187.802 169.045C188.974 167.906 189.577 166.352 189.511 164.977V164.945L189.539 164.921C189.977 164.582 190.339 164.158 190.575 163.697C190.82 163.24 190.9 162.732 190.839 162.27V162.242L190.857 162.223C191.173 161.917 191.441 161.583 191.634 161.23C191.728 161.051 191.804 160.872 191.851 160.688C191.888 160.505 191.893 160.321 191.855 160.152V160.124L191.87 160.105C192.194 159.832 192.449 159.488 192.58 159.13C192.717 158.772 192.712 158.396 192.609 158.08V158.066V158.052C193.569 156.296 194.031 155.453 194.148 155.241H194.153Z" fill="#263238"/>
<path d="M170.142 120.054C170.142 120.054 167.369 124.489 167.186 131.885C167.002 139.277 168.664 169.944 168.664 169.944L170.792 176.248L174.488 175.137C174.488 175.137 172.36 155.081 172.176 152.031C171.992 148.98 171.239 137.149 170.83 132.808C170.42 128.462 169.591 120.699 170.142 120.054Z" fill="#455A64"/>
<g opacity="0.2">
<path d="M170.142 120.054C170.142 120.054 167.369 124.489 167.186 131.885C167.002 139.277 168.664 169.944 168.664 169.944L170.792 176.248L174.488 175.137C174.488 175.137 172.36 155.081 172.176 152.031C171.992 148.98 171.239 137.149 170.83 132.808C170.42 128.462 169.591 120.699 170.142 120.054Z" fill="black"/>
</g>
<path d="M153.057 154.488C153.057 154.488 154.441 166.319 156.809 171.776C160.816 181.022 173.485 184.017 173.485 184.017L166.781 175.25C166.781 175.25 164.949 175.98 164.493 173.786C164.493 173.786 162.021 172.873 162.205 171.498C162.205 171.498 160.467 171.041 160.1 169.073C160.1 169.073 157.996 168.386 158.269 166.008C158.269 166.008 156.837 165.632 157.129 163.88C157.129 163.88 155.557 162.859 155.816 160.938C155.816 160.938 154.794 160.208 154.884 158.462L153.057 154.483V154.488Z" fill="#455A64"/>
<path d="M153.057 154.488C153.179 154.742 153.754 155.966 154.921 158.448V158.457V158.466C154.902 158.862 154.94 159.295 155.077 159.723C155.213 160.147 155.458 160.59 155.839 160.9L155.863 160.919V160.947C155.792 161.437 155.849 161.983 156.065 162.496C156.287 163.005 156.663 163.485 157.153 163.833L157.186 163.857V163.895C157.11 164.295 157.134 164.733 157.313 165.123C157.497 165.505 157.859 165.816 158.278 165.947L158.335 165.966V166.018C158.259 166.611 158.344 167.247 158.659 167.793C158.97 168.339 159.507 168.772 160.114 169.008L160.157 169.022L160.166 169.059C160.265 169.568 160.481 170.076 160.839 170.5C161.192 170.919 161.682 171.253 162.219 171.423L162.285 171.442L162.275 171.508C162.214 172.021 162.567 172.515 163.005 172.854C163.443 173.212 163.97 173.49 164.511 173.706L164.554 173.725L164.563 173.767C164.657 174.238 164.865 174.728 165.269 175.034C165.674 175.33 166.253 175.345 166.738 175.17L166.8 175.147L166.837 175.194C168.928 177.925 171.192 180.886 173.546 183.955L173.701 184.158L173.457 184.092C173.297 184.05 173.122 184.003 172.948 183.96C170.382 183.226 167.967 182.204 165.764 180.98C163.57 179.751 161.592 178.292 159.992 176.616C158.391 174.944 157.176 173.052 156.465 171.117C155.731 169.191 155.274 167.327 154.888 165.627C154.13 162.219 153.707 159.422 153.429 157.492C153.292 156.527 153.193 155.773 153.137 155.265C153.109 155.015 153.085 154.822 153.071 154.686C153.057 154.554 153.057 154.483 153.057 154.488C153.057 154.493 153.071 154.559 153.09 154.686C153.109 154.822 153.137 155.015 153.17 155.265C153.245 155.778 153.353 156.527 153.495 157.487C153.796 159.413 154.239 162.205 155.011 165.604C155.406 167.299 155.868 169.158 156.602 171.07C157.313 172.986 158.518 174.855 160.109 176.512C161.701 178.174 163.664 179.619 165.848 180.839C168.038 182.053 170.444 183.07 172.995 183.8C173.165 183.847 173.339 183.89 173.494 183.932L173.405 184.068C171.056 180.994 168.791 178.033 166.705 175.302L166.804 175.33C166.268 175.519 165.641 175.505 165.175 175.17C164.719 174.827 164.507 174.295 164.408 173.805L164.46 173.866C163.895 173.64 163.367 173.358 162.906 172.986C162.68 172.798 162.468 172.59 162.322 172.336C162.172 172.087 162.092 171.785 162.124 171.498L162.181 171.583C161.597 171.399 161.103 171.046 160.726 170.608C160.354 170.166 160.124 169.629 160.025 169.102L160.072 169.158C159.417 168.909 158.871 168.452 158.542 167.878C158.212 167.299 158.127 166.63 158.203 166.018L158.25 166.089C157.784 165.938 157.407 165.604 157.205 165.189C157.012 164.766 156.993 164.304 157.068 163.89L157.096 163.951C156.578 163.579 156.202 163.085 155.976 162.558C155.75 162.026 155.698 161.461 155.769 160.952L155.788 160.999C155.378 160.66 155.138 160.208 154.997 159.77C154.855 159.328 154.822 158.885 154.846 158.481V158.499C153.725 155.995 153.175 154.761 153.057 154.507V154.488Z" fill="#263238"/>
<path d="M190.914 133.942C190.914 133.942 185.212 136.532 181.757 150.552C180.335 156.324 183.706 168.075 183.706 168.075L185.867 158.316C185.867 158.316 184.059 157.534 185.292 155.66C185.292 155.66 184.2 153.264 185.302 152.426C185.302 152.426 184.403 150.872 185.537 149.225C185.537 149.225 184.539 147.247 186.418 145.769C186.418 145.769 185.674 144.488 187.119 143.462C187.119 143.462 186.733 141.626 188.282 140.458C188.282 140.458 188.08 139.22 189.379 138.048L190.909 133.947L190.914 133.942Z" fill="#263238"/>
<path d="M178.273 113.081C178.494 112.643 175.594 116.914 175.133 120.515C174.671 124.122 174.488 126.8 174.488 126.8C174.488 126.8 175.057 129.305 174.153 130.449C174.153 130.449 175.345 133.693 174.153 135.501C174.153 135.501 175.109 138.552 174.153 139.743C174.153 139.743 175.156 142.793 174.153 143.843C174.153 143.843 175.491 146.466 174.153 147.704C174.153 147.704 175.109 150.326 173.96 151.277C173.96 151.277 175.152 153.495 173.96 154.483C173.96 154.483 175.01 158.669 173.386 159.144C173.386 159.144 173.989 162.817 172.948 163.292C172.948 163.292 173.621 166.771 172.383 167.534C172.383 167.534 172.718 170.872 171.861 171.682C171.861 171.682 172.529 174.163 171.672 175.307C170.815 176.451 172.171 182.891 172.171 182.891H177.562L178.485 178.023C178.485 178.023 178.103 154.662 178.009 150.849C177.915 147.035 177.152 134.827 177.152 134.827C177.152 134.827 176.912 123.575 176.865 122.243C176.818 120.906 177.534 114.541 178.273 113.077V113.081Z" fill="#455A64"/>
<path d="M183.009 125.76C183.009 125.76 180.665 134.178 181.837 143.231C183.009 152.285 184.822 163.687 183.753 170.293C183.212 173.65 182.246 176.898 181.427 179.28C180.608 181.667 178.861 183.626 176.587 184.723C176.587 184.723 174.163 181.131 174.587 179.389C175.015 177.647 176.78 174.874 176.78 174.874C176.78 174.874 178.744 171.785 178.315 169.973C178.315 169.973 179.488 168.48 179.276 166.776C179.276 166.776 180.34 164.219 179.808 162.727C179.808 162.727 181.3 160.914 180.552 158.786C180.552 158.786 180.98 157.826 180.34 155.698C180.34 155.698 180.02 152.398 179.276 151.437C179.276 151.437 180.118 149.611 179.276 148.052C179.276 148.052 179.93 146.277 179.045 144.888C179.045 144.888 179.714 143.613 179.045 142.224C179.045 142.224 179.714 140.891 178.88 139.837C178.88 139.837 179.323 138.062 179.045 137.059C179.045 137.059 179.568 135.336 179.276 134.338C179.276 134.338 179.822 133.062 179.93 131.894C179.93 131.894 181.041 131.005 180.707 129.616C180.707 129.616 181.484 129.729 181.653 127.949L183.004 125.76H183.009Z" fill="#455A64"/>
<path d="M183.009 125.76C182.924 125.901 182.529 126.556 181.677 127.963V127.954C181.649 128.246 181.606 128.571 181.488 128.9C181.427 129.065 181.352 129.234 181.23 129.38C181.107 129.522 180.933 129.653 180.707 129.649L180.745 129.606C180.834 129.969 180.834 130.388 180.702 130.802C180.57 131.212 180.321 131.607 179.958 131.923L179.972 131.894C179.892 132.671 179.662 133.5 179.318 134.352V134.319C179.436 134.752 179.422 135.209 179.375 135.67C179.323 136.132 179.229 136.598 179.092 137.068V137.04C179.205 137.478 179.2 137.939 179.163 138.41C179.12 138.881 179.045 139.361 178.932 139.846L178.923 139.799C179.167 140.115 179.337 140.524 179.351 140.957C179.375 141.39 179.285 141.833 179.101 142.252V142.2C179.483 142.982 179.521 144.017 179.101 144.921V144.856C179.666 145.745 179.699 146.979 179.342 148.08V148.024C179.874 149.013 179.817 150.331 179.342 151.47L179.332 151.395C179.549 151.687 179.676 152.03 179.789 152.374C179.897 152.718 179.991 153.076 180.067 153.443C180.222 154.173 180.335 154.926 180.415 155.698V155.684C180.552 156.155 180.674 156.658 180.73 157.186C180.782 157.718 180.81 158.269 180.622 158.824V158.768C180.839 159.399 180.905 160.114 180.759 160.816C180.622 161.517 180.316 162.195 179.869 162.788L179.883 162.708C180.095 163.353 180.057 164.064 179.94 164.756C179.817 165.448 179.615 166.14 179.351 166.818V166.776C179.488 167.873 179.087 169.064 178.381 170.034L178.395 169.963C178.527 170.589 178.419 171.23 178.259 171.832C178.089 172.44 177.854 173.028 177.576 173.598C177.303 174.167 176.983 174.732 176.644 175.269C176.314 175.815 175.994 176.376 175.698 176.945C175.401 177.52 175.123 178.103 174.893 178.715C174.841 178.871 174.784 179.021 174.742 179.177L174.676 179.412L174.643 179.643C174.61 179.798 174.643 179.958 174.643 180.118C174.671 180.278 174.685 180.439 174.723 180.599C174.869 181.234 175.119 181.851 175.401 182.449C175.688 183.047 176.008 183.635 176.361 184.205L176.573 184.544L176.63 184.629L176.658 184.671C176.762 184.704 176.531 184.657 176.564 184.652L176.587 184.643L176.766 184.553C177.002 184.436 177.232 184.299 177.458 184.163C177.91 183.885 178.329 183.565 178.72 183.216C179.506 182.519 180.165 181.696 180.669 180.792C181.192 179.897 181.479 178.894 181.799 177.92C182.11 176.94 182.402 175.961 182.661 174.987C183.174 173.033 183.607 171.088 183.824 169.163C184.031 167.233 184.021 165.326 183.96 163.471C183.824 159.761 183.433 156.244 183.042 152.963C182.647 149.681 182.218 146.63 181.86 143.843C181.762 143.147 181.705 142.464 181.63 141.795C181.568 141.127 181.54 140.477 181.503 139.841C181.465 138.575 181.455 137.379 181.503 136.259C181.587 134.022 181.809 132.106 182.039 130.553C182.27 128.999 182.519 127.798 182.703 126.993C182.793 126.588 182.873 126.282 182.929 126.08C182.957 125.981 182.976 125.906 182.995 125.849C183.009 125.812 183.014 125.788 183.019 125.769C182.995 125.882 182.915 126.231 182.741 126.998C182.567 127.808 182.331 129.004 182.11 130.562C181.889 132.116 181.681 134.032 181.606 136.263C181.564 137.379 181.573 138.57 181.62 139.837C181.663 140.468 181.691 141.117 181.757 141.781C181.832 142.445 181.893 143.128 181.992 143.824C182.359 146.612 182.793 149.662 183.197 152.944C183.598 156.225 183.993 159.742 184.134 163.461C184.2 165.321 184.21 167.233 184.003 169.177C183.786 171.121 183.353 173.066 182.84 175.024C182.581 176.004 182.289 176.983 181.978 177.967C181.658 178.941 181.366 179.954 180.834 180.872C180.321 181.794 179.648 182.632 178.847 183.343C178.447 183.696 178.019 184.026 177.562 184.308C177.331 184.45 177.101 184.586 176.86 184.704L176.682 184.798L176.658 184.808C176.658 184.808 176.437 184.742 176.531 184.765L176.503 184.723L176.446 184.638L176.23 184.294C175.877 183.72 175.552 183.127 175.26 182.519C174.973 181.912 174.718 181.286 174.572 180.632C174.535 180.467 174.516 180.297 174.488 180.132C174.488 179.963 174.459 179.794 174.488 179.619L174.525 179.365L174.591 179.125C174.634 178.965 174.695 178.81 174.747 178.654C174.977 178.033 175.26 177.444 175.561 176.865C175.862 176.286 176.183 175.726 176.512 175.18C176.856 174.638 177.167 174.092 177.44 173.522C177.713 172.958 177.948 172.378 178.113 171.785C178.273 171.197 178.372 170.58 178.249 170.001L178.24 169.963L178.263 169.93C178.941 168.998 179.332 167.835 179.205 166.795V166.771L179.21 166.752C179.469 166.093 179.671 165.406 179.789 164.728C179.902 164.055 179.94 163.363 179.742 162.765L179.728 162.722L179.756 162.685C180.18 162.124 180.481 161.456 180.613 160.783C180.754 160.109 180.693 159.422 180.49 158.819L180.481 158.796L180.49 158.763C180.655 158.278 180.641 157.713 180.585 157.205C180.528 156.687 180.41 156.192 180.274 155.726V155.712C180.194 154.949 180.081 154.196 179.93 153.476C179.855 153.113 179.765 152.76 179.657 152.421C179.549 152.087 179.422 151.753 179.229 151.489L179.205 151.456L179.224 151.414C179.685 150.317 179.742 149.031 179.229 148.095L179.214 148.071L179.224 148.043C179.572 146.979 179.539 145.778 179.003 144.936L178.984 144.907L178.998 144.874C179.398 144.017 179.365 143.01 178.998 142.266L178.984 142.243L178.998 142.214C179.172 141.824 179.262 141.39 179.238 140.981C179.224 140.567 179.069 140.185 178.838 139.889L178.819 139.865V139.837C178.937 139.361 179.017 138.886 179.059 138.42C179.097 137.958 179.101 137.502 178.998 137.087V137.073V137.059C179.13 136.598 179.224 136.132 179.28 135.68C179.332 135.228 179.342 134.776 179.233 134.366V134.352V134.338C179.572 133.5 179.808 132.671 179.892 131.909V131.894L179.907 131.885C180.25 131.584 180.5 131.198 180.632 130.802C180.759 130.407 180.763 130.002 180.679 129.649L180.669 129.606H180.716C180.895 129.616 181.069 129.498 181.182 129.366C181.3 129.23 181.375 129.065 181.437 128.905C181.554 128.58 181.597 128.265 181.634 127.973V127.963C182.51 126.574 182.92 125.925 183.004 125.788L183.009 125.76Z" fill="#263238"/>
<g opacity="0.3">
<path d="M176.813 184.407C176.38 181.884 175.439 179.45 174.059 177.294C173.381 176.234 172.6 175.236 172.101 174.083C171.602 172.929 171.423 171.559 171.988 170.439C171.206 169.789 170.82 168.692 171.027 167.694C169.784 166.804 169.205 165.09 169.653 163.631L168.104 162.685L167.953 167.402L168.523 174.869L171.738 180.001L176.809 184.403L176.813 184.407Z" fill="black"/>
</g>
<path d="M169.05 152.473C169.05 152.694 168.024 157.341 167.369 160.189C166.804 162.656 165.298 168.08 165.957 172.289C166.616 176.503 168.645 180.594 171.046 182.534C174.088 184.991 176.922 184.709 176.922 184.709L171.668 175.307C171.668 175.307 169.766 173.094 170.495 172.143L170.82 170.604C170.82 170.604 169.248 169.507 169.761 167.67C169.761 167.67 168.664 165.472 169.686 163.203C169.686 163.203 168.659 161.592 169.464 160.199C169.464 160.199 168.73 158.659 169.318 157.854C169.318 157.854 168.584 156.607 169.394 155.656L169.045 152.468L169.05 152.473Z" fill="#455A64"/>
<path d="M169.05 152.473C169.078 152.713 169.196 153.669 169.436 155.656V155.67L169.427 155.684C169.215 155.938 169.069 156.286 169.064 156.668C169.055 157.049 169.163 157.459 169.365 157.835L169.38 157.864L169.365 157.887C169.267 158.033 169.201 158.203 169.172 158.391C169.144 158.579 169.149 158.772 169.172 158.975C169.224 159.375 169.347 159.784 169.525 160.185L169.535 160.213L169.521 160.236C169.295 160.641 169.182 161.145 169.238 161.658C169.285 162.171 169.464 162.703 169.747 163.179L169.766 163.207L169.751 163.235C169.182 164.488 169.168 166.154 169.831 167.647L169.841 167.675V167.699C169.7 168.188 169.695 168.739 169.888 169.243C170.072 169.747 170.425 170.208 170.867 170.547L170.91 170.58L170.9 170.627C170.801 171.103 170.688 171.63 170.575 172.167V172.185L170.561 172.199C170.406 172.402 170.387 172.689 170.439 172.957C170.491 173.231 170.594 173.504 170.726 173.767C170.994 174.29 171.338 174.794 171.729 175.264H171.734V175.278C173.362 178.188 175.137 181.371 176.992 184.68L177.058 184.803L176.922 184.812C176.39 184.845 175.834 184.784 175.283 184.68C174.031 184.431 172.854 183.922 171.823 183.23C170.778 182.557 169.902 181.667 169.201 180.702C167.793 178.753 166.894 176.587 166.324 174.469C166.046 173.405 165.839 172.35 165.754 171.31C165.674 170.269 165.698 169.257 165.778 168.282C165.938 166.333 166.286 164.549 166.649 162.929C167.421 159.709 168.01 157.096 168.419 155.288C168.617 154.389 168.772 153.688 168.88 153.207C168.97 152.779 169.012 152.581 169.036 152.482C169.036 152.487 169.036 152.548 169.017 152.671C168.998 152.793 168.965 152.977 168.918 153.217C168.824 153.697 168.678 154.399 168.49 155.307C168.104 157.12 167.529 159.737 166.776 162.962C166.423 164.577 166.084 166.362 165.929 168.297C165.849 169.262 165.83 170.269 165.91 171.3C165.994 172.327 166.202 173.376 166.479 174.431C167.049 176.531 167.944 178.682 169.337 180.603C170.034 181.559 170.886 182.425 171.917 183.089C172.929 183.772 174.088 184.271 175.312 184.516C175.848 184.619 176.404 184.676 176.898 184.647L176.832 184.779C174.982 181.465 173.207 178.287 171.583 175.373L171.592 175.387C171.192 174.907 170.844 174.398 170.571 173.857C170.434 173.584 170.326 173.301 170.269 173.005C170.213 172.713 170.227 172.374 170.425 172.119L170.411 172.152C170.524 171.616 170.637 171.088 170.74 170.613L170.773 170.693C170.302 170.326 169.94 169.85 169.742 169.313C169.54 168.777 169.544 168.193 169.686 167.68V167.732C169.008 166.192 169.036 164.492 169.624 163.202V163.264C169.337 162.76 169.158 162.223 169.111 161.687C169.055 161.15 169.177 160.622 169.417 160.199V160.251C169.234 159.836 169.111 159.417 169.059 159.008C169.036 158.801 169.036 158.598 169.064 158.4C169.097 158.203 169.172 158.019 169.281 157.859V157.911C169.069 157.515 168.961 157.096 168.975 156.696C168.979 156.296 169.139 155.933 169.365 155.67L169.356 155.698C169.158 153.706 169.064 152.751 169.041 152.506L169.05 152.473Z" fill="#263238"/>
<path d="M186.775 200.061H163.113L160.397 181.616H189.487L186.775 200.061Z" fill="#E74646"/>
<path d="M158.231 185.82L158.217 181.616H191.634L191.366 185.82H158.231Z" fill="#E74646"/>
<path d="M191.366 185.82C191.366 185.881 183.937 185.933 174.775 185.933C165.613 185.933 158.184 185.881 158.184 185.82C158.184 185.759 165.613 185.707 174.775 185.707C183.937 185.707 191.366 185.759 191.366 185.82Z" fill="#263238"/>
<g opacity="0.3">
<path d="M162.073 185.787C165.043 187.176 170.232 187.731 175.001 187.552C179.77 187.373 183.767 186.653 187.821 185.707L162.073 185.787Z" fill="black"/>
</g>
<path d="M137.337 200.038L76.7402 199.746C69.4523 199.713 63.5673 193.776 63.6002 186.488L64.2405 34.5802C64.2735 27.2875 70.2103 21.3978 77.5029 21.4308C77.5076 21.4308 77.5171 21.4308 77.5218 21.4308L138.099 21.6944C145.387 21.7274 151.268 27.6642 151.24 34.9522L150.599 186.874C150.58 194.162 144.653 200.057 137.365 200.038C137.356 200.038 137.346 200.038 137.332 200.038H137.337Z" fill="#263238"/>
<path d="M137.591 26.958L125.863 26.9062L91.5469 26.7461H87.418L77.1263 26.7038C72.0229 26.6802 67.8657 30.795 67.8374 35.9032L67.2113 184.196C67.1877 189.299 71.3072 193.456 76.4154 193.48L136.894 193.757C141.998 193.776 146.15 189.652 146.169 184.549L146.795 36.2516C146.819 31.1481 142.704 26.991 137.596 26.9627L137.591 26.958Z" fill="#FAFAFA"/>
<path d="M138.137 40.7242C138.137 41.1432 137.798 41.4822 137.379 41.4822C136.96 41.4822 136.621 41.1432 136.621 40.7242C136.621 40.3052 136.96 39.9662 137.379 39.9662C137.793 39.9662 138.132 40.3052 138.132 40.7242H138.137Z" fill="#263238"/>
<path d="M138.128 43.4595C138.128 43.8785 137.784 44.2128 137.365 44.2128C136.946 44.2128 136.612 43.8691 136.612 43.4501C136.612 43.0358 136.951 42.6968 137.37 42.6968C137.789 42.6968 138.128 43.0405 138.128 43.4595Z" fill="#263238"/>
<path d="M138.118 46.1666C138.118 46.5856 137.784 46.9293 137.36 46.9293C136.941 46.9293 136.598 46.595 136.598 46.1713C136.598 45.7523 136.932 45.4086 137.356 45.4086H137.365C137.779 45.4086 138.118 45.7476 138.123 46.1666H138.118Z" fill="#263238"/>
<path d="M137.092 103H76.9078C75.8541 103 75 103.337 75 103.752V118.248C75 118.663 75.8541 119 76.9078 119H137.092C138.146 119 139 118.663 139 118.248V103.752C139 103.337 138.146 103 137.092 103Z" fill="#E74646"/>
<path d="M131.383 108H128.233C127.455 108 126.825 108.63 126.825 109.408V112.557C126.825 113.335 127.455 113.965 128.233 113.965H131.383C132.16 113.965 132.79 113.335 132.79 112.557V109.408C132.79 108.63 132.16 108 131.383 108Z" fill="white"/>
<path d="M122.417 108H119.268C118.49 108 117.86 108.63 117.86 109.408V112.557C117.86 113.335 118.49 113.965 119.268 113.965H122.417C123.195 113.965 123.825 113.335 123.825 112.557V109.408C123.825 108.63 123.195 108 122.417 108Z" fill="white"/>
<path d="M113.452 108H110.303C109.525 108 108.895 108.63 108.895 109.408V112.557C108.895 113.335 109.525 113.965 110.303 113.965H113.452C114.23 113.965 114.86 113.335 114.86 112.557V109.408C114.86 108.63 114.23 108 113.452 108Z" fill="white"/>
<path d="M104.487 108H101.338C100.56 108 99.9301 108.63 99.9301 109.408V112.557C99.9301 113.335 100.56 113.965 101.338 113.965H104.487C105.265 113.965 105.895 113.335 105.895 112.557V109.408C105.895 108.63 105.265 108 104.487 108Z" fill="white"/>
<path d="M95.5224 108H92.3728C91.5953 108 90.9651 108.63 90.9651 109.408V112.557C90.9651 113.335 91.5953 113.965 92.3728 113.965H95.5224C96.2999 113.965 96.9301 113.335 96.9301 112.557V109.408C96.9301 108.63 96.2999 108 95.5224 108Z" fill="white"/>
<path d="M86.5573 108H83.4077C82.6302 108 82 108.63 82 109.408V112.557C82 113.335 82.6302 113.965 83.4077 113.965H86.5573C87.3348 113.965 87.965 113.335 87.965 112.557V109.408C87.965 108.63 87.3348 108 86.5573 108Z" fill="white"/>
<path d="M110.857 187.296C111.304 185.393 110.124 183.487 108.221 183.039C106.318 182.591 104.412 183.771 103.964 185.674C103.516 187.578 104.696 189.484 106.599 189.931C108.503 190.379 110.409 189.199 110.857 187.296Z" fill="#F5F5F5"/>
<path d="M110.567 58.0072H76.6178C75.9446 58.0072 75.3984 57.4611 75.3984 56.7879C75.3984 56.1146 75.9446 55.5685 76.6178 55.5685H110.567C111.24 55.5685 111.787 56.1146 111.787 56.7879C111.787 57.4611 111.24 58.0072 110.567 58.0072Z" fill="#E0E0E0"/>
<path d="M126.141 45.305H92.1919C91.5187 45.305 90.9725 44.7589 90.9725 44.0856C90.9725 43.4124 91.5187 42.8663 92.1919 42.8663H126.141C126.814 42.8663 127.361 43.4124 127.361 44.0856C127.361 44.7589 126.814 45.305 126.141 45.305Z" fill="#E0E0E0"/>
<path d="M103.943 171.358H77.8326C77.2064 171.358 76.7026 170.85 76.7026 170.228C76.7026 169.602 77.2111 169.098 77.8326 169.098H103.943C104.569 169.098 105.073 169.607 105.073 170.228C105.073 170.854 104.565 171.358 103.943 171.358Z" fill="#E74646"/>
<path d="M80.5491 49.9989C83.781 49.9989 86.4011 47.3788 86.4011 44.1468C86.4011 40.9148 83.781 38.2948 80.5491 38.2948C77.3171 38.2948 74.697 40.9148 74.697 44.1468C74.697 47.3788 77.3171 49.9989 80.5491 49.9989Z" fill="#E0E0E0"/>
<path d="M80.549 44.0857C81.2901 44.0857 81.8908 43.4849 81.8908 42.7439C81.8908 42.0028 81.2901 41.4021 80.549 41.4021C79.808 41.4021 79.2073 42.0028 79.2073 42.7439C79.2073 43.4849 79.808 44.0857 80.549 44.0857Z" fill="white"/>
<path d="M77.5594 46.8869H83.5339C83.5339 46.8869 83.049 44.6365 80.5114 44.6365C78.1903 44.6365 77.5594 46.8869 77.5594 46.8869Z" fill="white"/>
<path d="M64.1888 181.39H22.8197V184.261H64.1888V181.39Z" fill="#AE7461"/>
<path d="M65.766 163.024L68.7367 199.958H65.766L61.4723 163.024H65.766Z" fill="#AE7461"/>
<path d="M72.0088 114.319C68.5531 109.899 63.3319 107.761 58.2144 106.419C53.431 105.167 48.5394 104.475 43.629 104.324V104.291C43.4218 104.291 43.2147 104.306 43.0075 104.31C42.8004 104.31 42.5932 104.296 42.3861 104.291V104.324C37.4756 104.475 32.5793 105.167 27.8007 106.419C22.6831 107.761 17.462 109.899 14.0063 114.319C9.47721 120.115 6.4641 130.52 8.46499 137.878C10.4659 145.237 13.14 153.556 17.2077 159.761L43.0075 155.839L70.0832 159.761C71.2555 158.179 74.1603 143.919 76.1565 136.555C78.1574 129.197 76.5331 120.115 72.0041 114.319H72.0088Z" fill="#455A64"/>
<path d="M66.7453 163.024H20.2538C17.881 163.024 15.9554 161.098 15.9554 158.725C15.9554 156.352 17.881 154.427 20.2538 154.427H66.7453C69.1181 154.427 71.0437 156.352 71.0437 158.725C71.0437 161.098 69.1181 163.024 66.7453 163.024Z" fill="#455A64"/>
<path d="M67.4138 154.507C67.4138 154.573 56.7925 154.629 43.6949 154.629C30.5973 154.629 19.9713 154.573 19.9713 154.507C19.9713 154.441 30.5878 154.385 43.6949 154.385C56.8019 154.385 67.4138 154.441 67.4138 154.507Z" fill="#263238"/>
<path d="M22.1087 163.024L19.1427 199.958H22.1087L26.4024 163.024H22.1087Z" fill="#AE7461"/>
<path d="M22.8479 115.539C22.8479 115.539 22.5937 115.751 22.1323 116.123C21.6662 116.495 21.0212 117.059 20.2915 117.836C18.8367 119.366 17.123 121.843 16.2568 124.974C15.3905 128.1 15.5788 131.108 16.0355 133.17C16.2615 134.206 16.5251 135.03 16.7323 135.585C16.9394 136.146 17.0618 136.447 17.043 136.456C17.0336 136.456 16.9959 136.386 16.9253 136.245C16.8594 136.103 16.7511 135.896 16.6428 135.618C16.4074 135.068 16.1155 134.248 15.866 133.208C15.3575 131.136 15.1363 128.086 16.0167 124.908C16.897 121.735 18.6625 119.23 20.1644 117.719C20.913 116.956 21.5862 116.4 22.0711 116.052C22.3065 115.868 22.509 115.751 22.6361 115.661C22.7679 115.576 22.8385 115.534 22.8432 115.544L22.8479 115.539Z" fill="#263238"/>
<path d="M23.8178 155.119C23.8178 155.119 23.7754 155.029 23.7236 154.851C23.6624 154.643 23.5871 154.384 23.4977 154.064C23.2999 153.349 23.0269 152.369 22.6973 151.169C22.0241 148.725 21.1013 145.345 19.9055 141.668C19.6089 140.75 19.284 139.865 18.8744 139.06C18.4601 138.26 17.9563 137.535 17.3302 137.012C16.7087 136.475 15.9602 136.179 15.2398 136.085C14.5148 136.004 13.8274 136.108 13.2248 136.278C12.0196 136.635 11.1345 137.172 10.5224 137.52C10.2352 137.69 10.0045 137.831 9.82094 137.939C9.66086 138.034 9.57612 138.081 9.57141 138.076C9.57141 138.071 9.64203 138.01 9.79739 137.897C9.94805 137.789 10.174 137.629 10.4753 137.436C11.0733 137.059 11.9537 136.494 13.1824 136.108C13.7945 135.924 14.5054 135.802 15.2681 135.877C16.0261 135.972 16.8217 136.273 17.4761 136.833C18.1447 137.379 18.6673 138.133 19.091 138.947C19.5147 139.766 19.8442 140.665 20.1409 141.588C21.3414 145.275 22.2359 148.664 22.8668 151.122C23.1681 152.332 23.4129 153.316 23.5918 154.036C23.6671 154.361 23.7283 154.625 23.7754 154.832C23.8131 155.015 23.8319 155.11 23.8225 155.114L23.8178 155.119Z" fill="#263238"/>
<path d="M61.4111 115.379C61.4111 115.379 61.4912 115.407 61.6277 115.487C61.7642 115.567 61.9714 115.675 62.2162 115.84C62.7199 116.16 63.4261 116.669 64.2218 117.389C65.8131 118.806 67.7292 121.193 68.8027 124.31C69.8761 127.427 69.8431 130.487 69.4618 132.586C69.2782 133.641 69.0381 134.479 68.8356 135.039C68.7462 135.322 68.6473 135.534 68.5908 135.684C68.5296 135.83 68.4966 135.906 68.4872 135.901C68.4684 135.892 68.5767 135.581 68.7462 135.011C68.9204 134.441 69.1322 133.608 69.2923 132.558C69.6266 130.473 69.6313 127.459 68.572 124.39C67.5127 121.32 65.653 118.952 64.1041 117.516C63.332 116.791 62.6493 116.264 62.1644 115.92C61.6795 115.577 61.4017 115.398 61.4111 115.379Z" fill="#263238"/>
<path d="M62.8752 154.945C62.8752 154.945 62.8752 154.846 62.9035 154.662C62.9364 154.45 62.9835 154.187 63.04 153.857C63.1766 153.127 63.3602 152.125 63.5861 150.901C64.0664 148.41 64.7537 144.968 65.7236 141.216C65.9637 140.275 66.2415 139.361 66.6134 138.519C66.99 137.676 67.4655 136.899 68.0964 136.31C68.7179 135.713 69.4947 135.359 70.2432 135.218C71.0012 135.096 71.7168 135.171 72.3383 135.317C73.5859 135.628 74.4993 136.141 75.1207 136.48C75.4315 136.654 75.6669 136.795 75.8269 136.899C75.987 136.998 76.067 137.054 76.0623 137.064C76.0623 137.073 75.9682 137.031 75.8034 136.941C75.6151 136.842 75.375 136.72 75.0784 136.565C74.4475 136.254 73.5294 135.769 72.3006 135.487C71.6886 135.355 70.9965 135.289 70.2809 135.416C69.57 135.557 68.8403 135.896 68.2518 136.471C67.6539 137.036 67.1972 137.789 66.8347 138.613C66.4722 139.441 66.2038 140.341 65.9637 141.277C64.9938 145.02 64.2829 148.452 63.7556 150.934C63.4967 152.153 63.2895 153.146 63.1342 153.871C63.0589 154.196 63.0024 154.46 62.9553 154.667C62.9129 154.851 62.8847 154.945 62.8752 154.94V154.945Z" fill="#263238"/>
<path d="M59.2924 100.478C59.2924 100.478 48.1298 96.2643 47.8238 96.2643C47.5177 96.2643 37.8758 96.3538 37.5698 96.2785C37.2637 96.2031 26.0587 101.551 26.0587 101.551L26.5531 118.124L29.6839 128.561L29.2037 134.573L37.2496 135.166L57.461 133.09C57.461 133.09 56.3923 128.335 56.317 128.109C56.2417 127.879 59.2924 100.483 59.2924 100.483V100.478Z" fill="#E74646"/>
<path d="M49.6222 100.445C49.6222 100.445 49.4715 100.549 49.1796 100.699C49.0337 100.775 48.8548 100.864 48.6382 100.949C48.4216 101.038 48.1815 101.146 47.8991 101.231C47.3482 101.429 46.6656 101.603 45.9029 101.74C45.1355 101.867 44.2833 101.947 43.3888 101.937C42.4896 101.923 41.6421 101.82 40.8794 101.674C40.1215 101.514 39.4435 101.325 38.8974 101.109C38.6196 101.015 38.3795 100.902 38.1676 100.808C37.9511 100.718 37.7769 100.624 37.6309 100.544C37.3437 100.389 37.1884 100.294 37.1978 100.28C37.2166 100.238 37.8569 100.582 38.9539 100.949C39.5 101.137 40.1685 101.307 40.9218 101.453C41.6751 101.584 42.5131 101.678 43.3935 101.693C44.2739 101.697 45.1119 101.627 45.8699 101.518C46.6232 101.391 47.2964 101.241 47.8473 101.066C48.9536 100.727 49.6034 100.403 49.6222 100.445Z" fill="#263238"/>
<path d="M67.1877 169.266L72.0746 180.622L78.5292 188.489C78.9953 189.054 78.8823 189.897 78.2844 190.325C77.9502 190.565 77.5264 190.627 77.1357 190.49C74.6687 189.629 65.6058 186.422 65.2951 185.57C64.9373 184.586 59.3489 173.937 59.3489 173.937L67.1924 169.271L67.1877 169.266Z" fill="#263238"/>
<path d="M78.2844 190.321L64.9467 184.808L65.1632 185.283C65.3515 185.693 65.6764 186.027 66.0907 186.22C67.1877 186.733 70.2479 188.08 77.1027 190.504C77.5029 190.645 77.9454 190.575 78.2844 190.321Z" fill="#E0E0E0"/>
<g opacity="0.6">
<path d="M65.9306 181.413C66.3025 181.479 66.5897 181.865 66.538 182.237C66.472 182.736 65.8035 183.094 65.3751 182.656C64.9937 182.27 65.1303 181.568 65.6481 181.418C65.7705 181.385 65.893 181.38 66.0012 181.427" fill="white"/>
</g>
<path d="M72.9078 186.098C72.9832 186.116 73.1103 185.42 73.7459 184.916C74.3673 184.393 75.0735 184.407 75.0735 184.332C75.0735 184.299 74.904 184.243 74.6121 184.266C74.3249 184.29 73.9248 184.422 73.5764 184.704C73.228 184.986 73.0161 185.354 72.9361 185.631C72.8513 185.909 72.8749 186.093 72.9078 186.098Z" fill="white"/>
<path d="M74.5416 187.43C74.6169 187.453 74.81 186.921 75.3137 186.493C75.8081 186.05 76.3589 185.928 76.3448 185.848C76.3495 185.777 75.6998 185.787 75.1348 186.286C74.5604 186.78 74.4663 187.425 74.5416 187.43Z" fill="white"/>
<path d="M70.7845 184.906C70.8552 184.949 71.293 184.2 72.1452 183.602C72.9879 182.995 73.84 182.825 73.8212 182.745C73.8212 182.675 72.8937 182.731 71.9898 183.386C71.0811 184.026 70.7233 184.892 70.7892 184.911L70.7845 184.906Z" fill="white"/>
<path d="M69.6406 182.84C69.7018 182.891 70.2056 182.35 70.9965 181.95C71.7875 181.54 72.5219 181.451 72.5125 181.371C72.5172 181.3 71.7215 181.267 70.8741 181.71C70.022 182.143 69.5794 182.807 69.6406 182.84Z" fill="white"/>
<path d="M29.4061 131.023C29.4061 131.023 22.4948 141.108 22.8337 146.315C23.1727 151.527 25.0983 154.587 25.0983 154.587H34.8391C34.8391 154.587 42.0235 145.524 42.0235 145.637C42.0235 145.637 61.1756 181.079 61.2886 180.853C61.4016 180.627 72.5172 176.503 72.1782 176.503C71.8392 176.503 59.2924 141.758 54.6645 134.427C50.1966 127.351 45.9406 130.124 42.5414 131.028L37.6686 133.975L29.3967 131.028L29.4061 131.023Z" fill="#263238"/>
<path d="M57.0467 132.723C57.3857 132.723 65.2056 141.673 64.749 146.659C64.2923 151.644 60.9072 155.835 60.9072 155.835L49.8482 158.697C49.8482 158.697 45.4085 195.862 45.9076 195.871L33.1913 195.707C33.1913 195.707 35.1686 158.98 34.9427 154.789C34.7167 150.599 37.0518 145.807 42.0282 145.637L50.5685 131.541L57.0467 132.723Z" fill="#263238"/>
<path d="M53.0214 133.067C53.0214 133.067 53.092 133.109 53.2191 133.203C53.3462 133.297 53.5298 133.443 53.7699 133.646C54.2407 134.046 54.9328 134.658 55.6955 135.567C56.0768 136.023 56.477 136.555 56.8113 137.2C56.896 137.36 56.9667 137.535 57.0467 137.704C57.1126 137.883 57.1738 138.067 57.2397 138.255C57.3668 138.622 57.4845 139.013 57.6399 139.404C58.219 140.99 58.9252 142.789 59.702 144.785C62.8234 152.765 67.2583 163.871 72.3006 176.446L72.3477 176.559L72.2347 176.602C69.7159 177.571 67.0747 178.593 64.3864 179.629C63.3271 180.038 62.2773 180.443 61.2603 180.834L61.1615 180.872L61.1097 180.778C53.3603 166.555 46.5055 153.984 41.9717 145.661L42.0376 145.703C41.0348 145.679 40.0697 145.858 39.2693 146.259C38.4642 146.659 37.8145 147.228 37.3249 147.845C36.3362 149.083 35.8701 150.392 35.5594 151.442C35.2581 152.501 35.131 153.344 35.0509 153.909C35.018 154.187 34.9945 154.403 34.9803 154.554C34.9662 154.7 34.9568 154.775 34.9568 154.775C34.9568 154.775 34.9568 154.7 34.9568 154.554C34.9615 154.408 34.9803 154.191 35.0086 153.904C35.0745 153.335 35.1875 152.487 35.4794 151.418C35.7807 150.359 36.2327 149.036 37.2307 147.77C37.7251 147.139 38.3842 146.55 39.2081 146.136C40.032 145.722 41.0207 145.524 42.0423 145.548H42.0847L42.1082 145.59C46.6609 153.9 53.5439 166.456 61.3263 180.66L61.1756 180.603C62.1972 180.208 63.2471 179.803 64.3017 179.398C66.99 178.362 69.6312 177.345 72.1499 176.376L72.0793 176.536C67.0465 163.951 62.6398 152.836 59.556 144.841C58.7886 142.841 58.0966 141.037 57.5269 139.446C57.3762 139.051 57.2585 138.655 57.1314 138.283C57.0702 138.1 57.0137 137.916 56.9478 137.742C56.8678 137.572 56.8019 137.403 56.7218 137.243C56.397 136.602 56.0062 136.07 55.6343 135.614C54.8857 134.7 54.2078 134.084 53.7464 133.669C53.5157 133.462 53.3321 133.312 53.2144 133.213C53.092 133.109 53.0308 133.057 53.0308 133.057L53.0214 133.067Z" fill="#455A64"/>
<path d="M36.1856 186.361L35.4935 198.701L32.132 208.305C31.8919 208.997 32.2827 209.751 32.9889 209.944C33.3844 210.052 33.8034 209.967 34.1235 209.703C36.148 208.051 43.5583 201.926 43.5583 201.022C43.5583 199.972 45.1543 188.051 45.1543 188.051L36.1856 186.357V186.361Z" fill="#263238"/>
<path d="M32.9889 209.944L43.6242 200.189L43.5819 200.711C43.5442 201.163 43.3512 201.587 43.0357 201.907C42.1789 202.764 39.7684 205.08 34.1612 209.708C33.8363 209.977 33.3938 210.066 32.9889 209.944Z" fill="#E0E0E0"/>
<path d="M36.5858 204.134C36.5198 204.176 36.162 203.569 35.3899 203.315C34.6272 203.037 33.9681 203.296 33.9446 203.221C33.9304 203.192 34.0717 203.079 34.3542 202.999C34.6319 202.924 35.0557 202.91 35.4794 203.056C35.9031 203.202 36.2279 203.475 36.3974 203.705C36.5716 203.941 36.614 204.12 36.5858 204.134Z" fill="white"/>
<path d="M35.5077 205.946C35.4465 205.994 35.0793 205.565 34.4578 205.33C33.8411 205.085 33.2808 205.156 33.2667 205.08C33.2384 205.014 33.8505 204.798 34.5567 205.08C35.2629 205.349 35.5736 205.923 35.5077 205.951V205.946Z" fill="white"/>
<path d="M38.1771 202.288C38.1253 202.354 37.4568 201.799 36.454 201.53C35.4559 201.248 34.599 201.38 34.5849 201.3C34.5566 201.238 35.4512 200.97 36.5246 201.271C37.598 201.563 38.2336 202.251 38.1771 202.288Z" fill="white"/>
<path d="M38.5396 199.949C38.5019 200.019 37.8428 199.68 36.9577 199.581C36.0773 199.468 35.357 199.638 35.3334 199.558C35.3052 199.497 36.0396 199.191 36.9906 199.313C37.9417 199.426 38.5819 199.897 38.5396 199.953V199.949Z" fill="white"/>
<path d="M45.9311 195.796C45.9311 195.862 43.0734 195.918 39.5518 195.918C36.0302 195.918 33.1725 195.862 33.1725 195.796C33.1725 195.73 36.0255 195.674 39.5518 195.674C43.0781 195.674 45.9311 195.73 45.9311 195.796Z" fill="#455A64"/>
<path d="M34.1 134.347C34.1188 134.38 33.6292 134.705 32.8665 135.265C32.0991 135.826 31.0681 136.631 30.004 137.605C28.94 138.584 28.0502 139.54 27.4241 140.256C26.8026 140.971 26.4354 141.428 26.4024 141.405C26.3883 141.395 26.4636 141.268 26.6143 141.047C26.765 140.825 26.9909 140.515 27.2875 140.143C27.8807 139.394 28.7611 138.41 29.8346 137.422C30.908 136.438 31.9673 135.647 32.7629 135.119C33.1584 134.856 33.488 134.653 33.7234 134.526C33.9541 134.394 34.0906 134.328 34.0953 134.343L34.1 134.347Z" fill="#455A64"/>
<g opacity="0.3">
<path d="M47.3153 120.369C45.3521 121.334 43.1064 121.876 40.9595 121.461C38.1771 120.929 36.3128 118.665 34.5708 116.429L35.9126 119.188C37.4709 121.683 38.9586 124.282 41.0725 126.617C41.7411 127.356 42.8569 127.973 43.822 128.232C45.0131 128.547 46.2843 127.977 47.1741 127.13C50.0648 124.376 51.2842 120.181 52.7154 116.669C51.0064 118.034 49.2786 119.409 47.3153 120.374V120.369Z" fill="black"/>
</g>
<path d="M26.0634 101.556C25.6821 101.523 16.5957 106.725 25.4043 121.363C33.229 134.366 36.76 136.188 40.0132 136.532C43.2664 136.875 44.4152 133.999 43.7749 132.445C43.1629 130.953 33.5727 115.355 33.8505 115.077C33.8505 115.077 28.0314 101.73 26.0634 101.561V101.556Z" fill="#E74646"/>
<path d="M59.2924 100.478C59.5231 100.553 64.33 102.766 63.7179 107.804C63.1059 112.841 56.8442 133.98 55.6249 135.049C54.4055 136.117 52.7954 135.811 51.0817 135.355C49.368 134.898 48.0638 133.377 47.9556 131.541C47.8473 129.705 55.0175 111.466 55.0929 111.236C55.1682 111.005 59.2877 100.478 59.2877 100.478H59.2924Z" fill="#E74646"/>
<path d="M43.3936 112.879H50.0836C50.8557 112.879 51.4866 113.505 51.4866 114.282V129.281C51.4866 130.054 50.8605 130.684 50.0836 130.684H43.3936C42.6215 130.684 41.9906 130.058 41.9906 129.281V114.287C41.9906 113.514 42.6168 112.884 43.3936 112.884V112.879Z" fill="#263238"/>
<g opacity="0.3">
<path d="M41.6328 129.333L37.4803 127.831C36.986 128.811 36.6423 129.879 36.647 130.976C36.6517 132.073 37.0378 133.189 37.8334 133.942C38.6715 134.733 39.8767 135.044 41.0302 135.006C41.5669 134.988 42.1318 134.889 42.5556 134.554C43.064 134.15 43.2853 133.472 43.3182 132.822C43.3842 131.48 42.7297 130.124 41.6375 129.338L41.6328 129.333Z" fill="black"/>
</g>
<path d="M37.0614 131.169C37.0849 130.981 37.5133 127.897 37.9653 126.466C38.4173 125.035 43.5066 120.821 44.2552 120.671C45.0037 120.52 45.0037 120.972 44.8531 121.537C44.7024 122.102 40.9078 126.08 41.2797 126.315C41.8353 126.668 41.6422 127.022 41.9577 126.843C42.3249 126.636 47.6402 123.533 48.6195 123.345C49.5987 123.156 49.7117 123.834 49.1844 124.55L48.6571 125.266C48.6571 125.266 49.2456 124.927 49.853 125.529C50.4603 126.132 47.9415 127.827 47.9415 127.827C47.9415 127.827 48.1675 128.279 47.5649 129.07C46.9623 129.861 44.6695 133.062 43.9915 133.528C43.3136 133.999 41.9953 133.698 41.9953 133.698C41.9953 133.698 41.1667 134.338 40.3005 134.375C39.4342 134.413 36.9107 132.295 37.0661 131.179L37.0614 131.169Z" fill="#AE7461"/>
<g opacity="0.3">
<path d="M54.8434 129.267L48.1487 131.664C48.7607 132.266 49.3869 132.864 50.1119 133.326C50.8369 133.782 51.6844 134.093 52.5412 134.055C53.3981 134.018 54.2644 133.594 54.7022 132.85C55.0318 132.29 55.0883 131.621 55.1448 130.976C55.1918 130.383 55.2248 129.724 54.8482 129.267H54.8434Z" fill="black"/>
</g>
<path d="M46.5056 120.638C46.6562 120.628 51.3595 121.72 51.8868 122.21C52.4141 122.7 54.5939 127.064 54.5939 127.064C54.5939 127.064 55.4979 127.78 55.6108 128.571C55.7238 129.361 55.2719 133.086 53.5017 133.086C53.3133 133.086 50.4038 132.935 49.9377 132.822C49.4716 132.709 46.5009 130.473 46.5009 130.473L47.0894 129.682C47.0894 129.682 43.7561 127.897 43.0782 127.497C42.4002 127.097 42.0895 125.962 42.7769 125.967C43.4642 125.976 49.5517 128.265 49.5517 128.265C49.5517 128.265 43.6855 125.52 43.4972 124.729C43.3042 123.938 44.2458 123.298 44.8484 123.561C45.451 123.825 49.8906 126.085 50.6062 126.122C51.3219 126.16 51.3972 125.783 51.3972 125.783L49.9424 123.825C49.9424 123.825 46.5056 122.13 46.2043 121.716C45.903 121.301 46.5056 120.633 46.5056 120.633V120.638Z" fill="#AE7461"/>
<path d="M46.5056 120.638C46.5056 120.638 46.4256 120.736 46.3079 120.944C46.2514 121.047 46.1807 121.184 46.1572 121.358C46.1478 121.443 46.1478 121.537 46.1902 121.626C46.2325 121.716 46.3126 121.782 46.4067 121.848C47.1788 122.37 48.4123 122.992 49.9754 123.768L49.9895 123.778L49.9989 123.792C50.4368 124.376 50.9311 125.035 51.4631 125.741L51.4866 125.774L51.4772 125.802C51.3548 126.146 51.0017 126.202 50.7287 126.212C50.4321 126.212 50.1543 126.094 49.8906 126C49.3539 125.793 48.8125 125.553 48.2523 125.294C47.6967 125.03 47.1223 124.762 46.5291 124.484C45.9453 124.211 45.3192 123.881 44.7213 123.632C44.4294 123.561 44.0857 123.693 43.8597 123.914C43.7467 124.027 43.6573 124.169 43.6149 124.319C43.5725 124.46 43.5819 124.658 43.6384 124.762C43.822 125.016 44.1516 125.228 44.4482 125.43C44.7542 125.633 45.0791 125.826 45.4086 126.009C46.7269 126.758 48.144 127.459 49.6129 128.156L49.5187 128.373C48.2993 127.921 47.0376 127.455 45.7335 126.998C45.0838 126.772 44.4247 126.546 43.7514 126.334C43.4266 126.24 43.0593 126.108 42.7627 126.089C42.4708 126.071 42.4803 126.476 42.6168 126.767C42.7015 126.965 42.8381 127.139 42.9981 127.276C43.1488 127.408 43.3842 127.507 43.5772 127.62C43.9821 127.841 44.387 128.057 44.7872 128.279C45.5875 128.717 46.3785 129.145 47.1553 129.569L47.2777 129.635L47.193 129.748C46.9952 130.011 46.8022 130.275 46.6045 130.538L46.5809 130.369C47.1506 130.797 47.7203 131.212 48.2852 131.617C48.5677 131.819 48.8502 132.017 49.1327 132.205C49.4104 132.389 49.7117 132.596 49.9754 132.704C50.611 132.808 51.2936 132.836 51.9386 132.883C52.2635 132.902 52.5883 132.921 52.9085 132.94C53.2286 132.954 53.5487 132.991 53.8218 132.921C54.0996 132.836 54.3256 132.638 54.5186 132.422C54.6928 132.182 54.8482 131.932 54.9611 131.654C55.1965 131.113 55.3378 130.538 55.4319 129.978C55.4743 129.696 55.512 129.418 55.5261 129.14C55.5402 128.862 55.5544 128.589 55.4649 128.349C55.2907 127.86 54.9235 127.455 54.5468 127.13L54.528 127.116L54.5186 127.097C53.7465 125.557 53.0356 124.169 52.3435 122.987C52.1646 122.704 52.0092 122.384 51.7785 122.21C51.529 122.055 51.2277 121.951 50.9546 121.852C50.3991 121.659 49.8859 121.513 49.4198 121.381C48.4877 121.123 47.7579 120.939 47.2636 120.816C46.8493 120.718 46.6468 120.666 46.5056 120.633C46.5056 120.633 46.5762 120.633 46.7033 120.652C46.8351 120.675 47.0235 120.708 47.273 120.765C47.772 120.873 48.5065 121.038 49.4434 121.283C49.9095 121.41 50.4321 121.551 50.9923 121.735C51.2748 121.833 51.562 121.923 51.8539 122.102C52.1316 122.318 52.2682 122.624 52.4612 122.912C53.1674 124.093 53.8924 125.477 54.674 127.017L54.6504 126.984C55.0553 127.328 55.4367 127.737 55.6391 128.283C55.738 128.566 55.7285 128.862 55.7144 129.145C55.7003 129.432 55.6626 129.715 55.6203 130.007C55.5261 130.581 55.3849 131.165 55.14 131.734C55.0271 132.022 54.8623 132.295 54.674 132.554C54.4621 132.798 54.2079 133.029 53.8736 133.128C53.5252 133.213 53.2051 133.17 52.8896 133.161C52.5695 133.142 52.2446 133.123 51.9198 133.104C51.2607 133.057 50.611 133.034 49.9142 132.925C49.547 132.78 49.2927 132.586 48.9961 132.398C48.7089 132.205 48.4265 132.007 48.1393 131.81C47.5696 131.405 46.9999 130.99 46.4303 130.562L46.3361 130.491L46.4067 130.397C46.5998 130.134 46.7975 129.875 46.9905 129.606L47.0282 129.785C46.2467 129.362 45.4557 128.928 44.6506 128.495C44.2505 128.279 43.8456 128.057 43.4407 127.836C43.2382 127.718 43.0358 127.638 42.8286 127.469C42.6356 127.304 42.485 127.102 42.3814 126.871C42.3061 126.692 42.2496 126.499 42.2731 126.287C42.2778 126.184 42.3296 126.061 42.4191 125.976C42.5132 125.887 42.6356 125.859 42.7439 125.854C43.1582 125.882 43.4642 126.014 43.8173 126.108C44.4953 126.32 45.1544 126.546 45.8088 126.777C47.1129 127.238 48.3747 127.7 49.594 128.156L49.4999 128.373C48.0263 127.671 46.6092 126.96 45.2862 126.202C44.9567 126.014 44.6318 125.816 44.3164 125.609C44.0056 125.393 43.6902 125.204 43.4407 124.87C43.2524 124.451 43.4266 124.023 43.6996 123.754C43.9774 123.491 44.3682 123.326 44.7589 123.42C45.4369 123.702 46.0018 124.013 46.6045 124.296C47.193 124.578 47.7673 124.851 48.3182 125.115C48.8737 125.374 49.4151 125.619 49.9424 125.826C50.2108 125.925 50.465 126.033 50.7192 126.033C50.9688 126.038 51.2512 125.943 51.3125 125.76L51.3266 125.821C50.804 125.105 50.3144 124.446 49.8812 123.858L49.9048 123.877C48.3417 123.081 47.1223 122.445 46.3502 121.895C46.2561 121.824 46.1619 121.744 46.1195 121.64C46.0772 121.537 46.0772 121.429 46.0913 121.339C46.1242 121.155 46.1996 121.019 46.2655 120.915C46.3973 120.708 46.4962 120.628 46.4962 120.628L46.5056 120.638Z" fill="#6F4439"/>
<path d="M39.4577 124.531C39.4577 124.531 39.307 124.385 39.0763 124.089C38.8456 123.792 38.5208 123.354 38.1488 122.794C37.3908 121.683 36.4351 120.091 35.4182 118.317C34.406 116.537 33.5209 114.908 32.8712 113.736C32.5652 113.185 32.3109 112.719 32.1038 112.347C31.9202 112.017 31.8307 111.834 31.8448 111.824C31.859 111.815 31.9814 111.984 32.1885 112.3C32.3957 112.615 32.6829 113.077 33.0265 113.651C33.7139 114.804 34.6273 116.419 35.6348 118.194C36.647 119.969 37.5792 121.57 38.2948 122.7C38.6479 123.269 38.9492 123.717 39.1563 124.032C39.3682 124.343 39.4765 124.517 39.4624 124.531H39.4577Z" fill="#263238"/>
<path d="M37.7251 126.325C37.7393 126.363 37.3768 126.485 36.8636 126.796C36.3551 127.111 35.696 127.643 35.2205 128.425C34.9851 128.811 34.8156 129.216 34.7215 129.597C34.6273 129.974 34.6085 130.341 34.5473 130.647C34.4484 131.282 34.1094 131.57 34.0953 131.537C34.067 131.513 34.326 131.221 34.3731 130.619C34.4107 130.322 34.406 129.955 34.4955 129.54C34.5849 129.131 34.7544 128.702 35.0039 128.293C35.5077 127.469 36.2233 126.927 36.7694 126.64C37.325 126.358 37.711 126.292 37.7157 126.32L37.7251 126.325Z" fill="#263238"/>
<path d="M61.4723 103.769C61.4911 103.792 61.1333 104.155 60.5119 104.696C59.8904 105.238 59.0053 105.953 57.9837 106.688C56.962 107.422 56.0016 108.034 55.2907 108.453C54.5798 108.872 54.1231 109.098 54.109 109.07C54.0902 109.037 54.5139 108.759 55.2013 108.307C55.8886 107.855 56.8302 107.224 57.8471 106.49C58.8641 105.76 59.7633 105.068 60.4083 104.56C61.0533 104.056 61.4582 103.741 61.4817 103.764L61.4723 103.769Z" fill="#263238"/>
<path d="M54.7445 111.062C54.7775 111.071 54.6692 111.565 54.4432 112.356C54.2172 113.142 53.8641 114.221 53.4122 115.388C52.9602 116.556 52.4941 117.592 52.1316 118.326C51.7691 119.06 51.5148 119.503 51.4866 119.489C51.4536 119.475 51.6514 119.009 51.9762 118.255C52.2964 117.502 52.7342 116.462 53.1862 115.303C53.6334 114.141 54.0101 113.077 54.2784 112.304C54.5468 111.532 54.7116 111.052 54.7445 111.062Z" fill="#263238"/>
<path d="M58.3744 127.295C58.3321 127.309 58.2238 126.843 57.8283 126.212C57.4375 125.576 56.7313 124.804 55.7803 124.173C54.8293 123.538 53.8642 123.128 53.1721 122.832C52.4753 122.54 52.0375 122.365 52.0516 122.332C52.061 122.304 52.5177 122.422 53.2333 122.671C53.9489 122.926 54.9376 123.316 55.9169 123.971C56.9008 124.616 57.6165 125.444 57.979 126.127C58.1626 126.466 58.2709 126.763 58.3274 126.97C58.3839 127.177 58.3933 127.295 58.3791 127.299L58.3744 127.295Z" fill="#263238"/>
<path d="M34.4389 133.575C34.4389 133.575 34.0293 133.288 33.4408 132.732C32.8523 132.182 32.0708 131.381 31.2752 130.44C30.4795 129.498 29.8204 128.599 29.3684 127.926C28.9212 127.252 28.6763 126.819 28.7046 126.8C28.7328 126.782 29.0294 127.182 29.5097 127.822C29.9899 128.462 30.6678 129.343 31.4588 130.275C32.2497 131.207 33.003 132.022 33.5585 132.601C34.1141 133.18 34.4625 133.538 34.4342 133.566L34.4389 133.575Z" fill="#263238"/>
<path d="M30.875 110.101C30.8891 110.073 31.0868 110.139 31.3599 110.327C31.633 110.515 31.9672 110.845 32.2215 111.288C32.4757 111.73 32.5887 112.187 32.6122 112.516C32.6358 112.846 32.5887 113.048 32.5605 113.048C32.4851 113.048 32.4945 112.239 32.0096 111.405C31.5388 110.567 30.8326 110.162 30.875 110.101Z" fill="#263238"/>
<path d="M32.9983 72.7008C35.4794 69.8054 38.8974 68.1482 42.9039 68.0493C45.1637 67.9928 45.2438 68.0117 46.8774 68.3977C48.5111 68.7838 50.8463 69.9702 51.8302 71.2272C52.9978 72.7197 53.9865 74.391 54.2219 76.2177C54.4667 78.0915 55.1494 79.7958 55.4507 82.1403C55.6908 84.0141 57.3009 92.545 56.1098 94.0845L48.8877 95.3463C46.0065 95.4687 42.9933 95.9206 40.178 95.3463C37.3626 94.7719 30.875 96.3255 29.3449 94.0845C27.2216 90.9678 27.9937 78.5387 32.9936 72.7008H32.9983Z" fill="#263238"/>
<path d="M38.3466 73.0068L45.2579 70.1726L47.0752 70.3656C51.157 70.3374 54.0148 74.81 54.076 78.1103C54.1419 81.7825 54.0807 86.2645 53.5252 88.9763C52.4094 94.4282 47.772 94.9319 47.772 94.9319C47.772 94.9319 47.8191 95.8029 47.8756 97.6296C46.6468 100.431 41.9812 100.417 37.9605 97.2671L37.8193 97.0505L36.5293 74.8853C36.5528 73.8825 37.3438 73.0633 38.3466 73.0021V73.0068Z" fill="#AE7461"/>
<path d="M51.656 82.6912C51.656 83.0631 51.3359 83.3691 50.9451 83.3738C50.5591 83.3738 50.2436 83.0772 50.2483 82.7053C50.2483 82.3334 50.5685 82.0274 50.9592 82.0226C51.35 82.0226 51.6607 82.3192 51.656 82.6912Z" fill="#263238"/>
<path d="M52.8519 80.1912C52.7625 80.2807 52.2446 79.8617 51.4866 79.8287C50.7286 79.7864 50.1543 80.1536 50.0789 80.0547C50.0413 80.0123 50.1354 79.8523 50.3849 79.6828C50.6298 79.518 51.0441 79.3673 51.5196 79.3862C51.9904 79.4097 52.3811 79.6027 52.6024 79.7911C52.8284 79.9794 52.899 80.1489 52.8566 80.1912H52.8519Z" fill="#263238"/>
<path d="M48.0498 85.9538C48.0498 85.9114 48.5206 85.8502 49.2927 85.7843C49.4857 85.7749 49.674 85.742 49.7117 85.6101C49.7635 85.4736 49.6929 85.2617 49.6081 85.031C49.4481 84.5555 49.2786 84.0565 49.0997 83.5339C48.3982 81.4012 47.8991 79.6498 47.9839 79.6216C48.0686 79.5933 48.7089 81.3023 49.4104 83.435C49.5799 83.9623 49.7399 84.4614 49.8906 84.9416C49.9518 85.1629 50.0695 85.4218 49.9565 85.7043C49.9 85.8455 49.7494 85.9444 49.627 85.9726C49.4998 86.0056 49.3916 86.0009 49.2974 86.0056C48.5253 86.015 48.0498 85.9962 48.0498 85.9538Z" fill="#263238"/>
<path d="M47.7813 94.9319C47.7813 94.9319 44.0762 95.0073 40.5122 92.6439C40.5122 92.6439 42.3012 96.5374 47.8237 96.269L47.7813 94.9319Z" fill="#6F4439"/>
<path d="M52.5694 78.84C52.4329 79.0189 51.8585 78.8683 51.1806 78.8965C50.4979 78.8965 49.9282 79.0754 49.787 78.9012C49.7258 78.8165 49.8058 78.6376 50.0506 78.4634C50.2907 78.2892 50.7003 78.1338 51.1664 78.1244C51.6325 78.115 52.0468 78.2515 52.2916 78.4116C52.5412 78.5764 52.6306 78.7506 52.5694 78.8353V78.84Z" fill="#263238"/>
<path d="M43.7655 82.7712C43.7514 83.1431 44.0527 83.4633 44.4387 83.4868C44.8248 83.5104 45.1544 83.2279 45.1685 82.856C45.1826 82.484 44.8813 82.1639 44.4952 82.1403C44.1045 82.1168 43.7796 82.3993 43.7655 82.7712Z" fill="#263238"/>
<path d="M42.5979 80.1536C42.6826 80.2477 43.2193 79.8523 43.982 79.8617C44.74 79.8617 45.2955 80.2524 45.3756 80.1583C45.418 80.1159 45.3285 79.9511 45.0884 79.7722C44.853 79.5933 44.4434 79.4191 43.9726 79.4191C43.5018 79.4191 43.1016 79.5886 42.8709 79.7675C42.6355 79.9464 42.5555 80.1112 42.5979 80.1536Z" fill="#263238"/>
<path d="M43.0262 77.3429C43.1722 77.5171 43.7607 77.3429 44.4669 77.3382C45.1684 77.3146 45.7663 77.4606 45.9028 77.2817C45.964 77.1969 45.8699 77.0227 45.6109 76.858C45.3567 76.6932 44.9283 76.5567 44.4433 76.5661C43.9584 76.5755 43.5394 76.7309 43.2946 76.905C43.0451 77.0792 42.9603 77.2581 43.0262 77.3429Z" fill="#263238"/>
<path d="M37.5698 84.1036C37.5886 83.694 37.1555 82.71 36.7553 82.63C35.6819 82.4134 33.7375 82.4134 33.5962 85.1535C33.4032 88.8963 37.4238 88.3596 37.4379 88.2513C37.4473 88.1666 37.5133 85.516 37.5698 84.1036Z" fill="#AE7461"/>
<path d="M36.2562 86.7871C36.2562 86.7871 36.1902 86.8295 36.0773 86.8766C35.969 86.9189 35.7807 86.9472 35.5876 86.8624C35.2016 86.6977 34.9003 86.0527 34.9144 85.3747C34.9238 85.031 35.0085 84.7109 35.1451 84.4519C35.2722 84.1836 35.4605 84 35.663 83.9764C35.8654 83.9388 35.9972 84.0659 36.0396 84.1742C36.0867 84.2824 36.0584 84.3531 36.0773 84.3625C36.0867 84.3719 36.162 84.306 36.1385 84.1459C36.129 84.0706 36.0867 83.9811 36.0019 83.9058C35.9172 83.8305 35.7854 83.7834 35.6441 83.7928C35.3522 83.7975 35.0792 84.0518 34.9332 84.3389C34.7684 84.6261 34.6649 84.9887 34.6554 85.37C34.6413 86.128 34.9897 86.853 35.5264 87.0366C35.7854 87.1167 36.0113 87.0508 36.129 86.966C36.2515 86.8813 36.275 86.7965 36.2609 86.7871H36.2562Z" fill="#6F4439"/>
<path d="M47.5224 88.0818C47.5224 88.7409 46.9904 89.2729 46.3313 89.2729C45.6721 89.2729 45.1401 88.7409 45.1401 88.0818C45.1401 87.4227 45.6721 86.8907 46.3313 86.8907C46.9904 86.8907 47.5224 87.4227 47.5224 88.0818Z" fill="#6F4439"/>
<path d="M47.9037 88.4161C47.9178 88.4773 47.7154 88.5997 47.3435 88.6421C46.9762 88.6845 46.4489 88.6186 45.9358 88.3737C45.4226 88.1289 45.0413 87.7429 44.8671 87.4086C44.6882 87.0743 44.6929 86.8295 44.7494 86.8154C44.82 86.7919 44.933 86.9755 45.1495 87.2062C45.3661 87.4416 45.7098 87.7193 46.1476 87.9312C47.0374 88.3784 47.8661 88.2843 47.899 88.4161H47.9037Z" fill="#263238"/>
<path d="M55.5872 77.2628C55.3377 74.7959 53.9253 72.4372 51.7549 70.8647C49.5845 69.2922 46.6844 68.5342 43.8972 68.7979L39.2646 71.3025C38.2947 74.2733 39.2599 75.6245 40.6111 79.9464C42.4754 79.3532 45.9028 78.7647 47.8802 78.6282C47.6448 77.6395 47.4141 76.6508 47.1787 75.6668C47.7719 76.5237 48.3651 77.3853 48.9583 78.2421C50.0082 77.6348 50.4555 76.3542 50.0459 75.3184C50.4602 76.1753 50.7474 77.0745 50.8792 77.9973C52.4658 77.8796 54.043 77.6348 55.5825 77.2628H55.5872Z" fill="#263238"/>
<path d="M36.7552 82.63C36.7552 82.63 37.2166 84.678 37.5556 84.3625C41.1337 81.034 39.2975 76.6603 39.1422 76.5661L39.2316 72.0935L35.4464 73.36L36.7505 82.63H36.7552Z" fill="#263238"/>
<path d="M35.9926 82.5547C35.9926 82.5547 35.9126 82.4228 35.8043 82.1686C35.696 81.9144 35.5642 81.5377 35.4323 81.0669C35.164 80.1206 34.9427 78.76 35.0039 77.2488C35.0698 75.7422 35.3994 74.4004 35.7478 73.4824C35.9173 73.021 36.0773 72.6538 36.2092 72.4137C36.3363 72.1688 36.4116 72.037 36.4304 72.0464C36.4681 72.0653 36.2092 72.6114 35.9126 73.5389C35.616 74.4616 35.3146 75.7799 35.2534 77.2629C35.1969 78.7412 35.3853 80.083 35.6065 81.0246C35.8278 81.9709 36.0397 82.5405 36.002 82.5547H35.9926Z" fill="#455A64"/>
<path d="M50.3284 75.2573C50.286 75.2714 50.1165 74.7158 49.6834 73.9014C49.4715 73.4918 49.1749 73.0257 48.8124 72.536C48.4405 72.0558 47.9932 71.5521 47.4706 71.0813C46.9433 70.6152 46.3925 70.2291 45.8746 69.9137C45.3473 69.6077 44.853 69.3676 44.4199 69.2075C43.5583 68.8732 42.9886 68.7697 42.998 68.7226C42.998 68.7037 43.144 68.7226 43.4029 68.7649C43.6619 68.8026 44.0338 68.8968 44.4763 69.0427C44.9236 69.1887 45.4368 69.4146 45.9829 69.716C46.5243 70.0267 47.0893 70.4174 47.6307 70.893C48.1674 71.3732 48.6194 71.8958 48.9913 72.3948C49.3538 72.9033 49.6363 73.3882 49.834 73.8166C50.0318 74.2403 50.1683 74.5981 50.2342 74.8524C50.3048 75.1066 50.3378 75.2478 50.3237 75.2526L50.3284 75.2573Z" fill="#455A64"/>
<path d="M54.1277 75.7892C54.0853 75.8081 53.8687 75.1301 53.219 74.2168C52.5835 73.2987 51.4583 72.1971 49.9799 71.3355C48.5016 70.4692 47.028 69.9466 45.9687 69.5653C45.4791 69.3911 45.0554 69.2404 44.707 69.118C44.4104 69.0097 44.2456 68.9438 44.255 68.925C44.2597 68.9109 44.4339 68.9438 44.7399 69.0239C45.046 69.1039 45.4885 69.2263 46.0252 69.3958C47.1034 69.7348 48.6005 70.2385 50.1071 71.1189C51.6136 71.9993 52.7529 73.1528 53.365 74.1132C53.6757 74.5934 53.8782 75.0124 53.9911 75.309C54.1041 75.6056 54.1465 75.7798 54.1324 75.7845L54.1277 75.7892Z" fill="#455A64"/>
</g>
<defs>
<clipPath id="clip0_470_9196">
<rect width="206.511" height="210" fill="white"/>
</clipPath>
</defs>
</svg>
