<svg width="40" height="40" viewBox="0 0 40 40" fill="none" xmlns="http://www.w3.org/2000/svg">
<rect width="40" height="40" rx="8" fill="#FCFCFC" fill-opacity="0.1"/>
<path d="M18.1776 25.115C18.0351 25.115 17.8926 25.0625 17.7801 24.95L13.2276 20.3975C13.0101 20.18 13.0101 19.82 13.2276 19.6025L17.7801 15.05C17.9976 14.8325 18.3576 14.8325 18.5751 15.05C18.7926 15.2675 18.7926 15.6275 18.5751 15.845L14.4201 20L18.5751 24.155C18.7926 24.3725 18.7926 24.7325 18.5751 24.95C18.4701 25.0625 18.3201 25.115 18.1776 25.115Z" fill="#FCFCFC"/>
<path d="M26.3749 20.5625H13.7524C13.4449 20.5625 13.1899 20.3075 13.1899 20C13.1899 19.6925 13.4449 19.4375 13.7524 19.4375H26.3749C26.6824 19.4375 26.9374 19.6925 26.9374 20C26.9374 20.3075 26.6824 20.5625 26.3749 20.5625Z" fill="#FCFCFC"/>
<rect x="0.5" y="0.5" width="39" height="39" rx="7.5" stroke="#FCFCFC" stroke-opacity="0.2"/>
</svg>
