<svg width="110" height="110" viewBox="0 0 110 110" fill="none" xmlns="http://www.w3.org/2000/svg">
<circle cx="55" cy="55" r="55" fill="white"/>
<path d="M49.3 74H60.7C70.2 74 74 70.2 74 60.7V49.3C74 39.8 70.2 36 60.7 36H49.3C39.8 36 36 39.8 36 49.3V60.7C36 70.2 39.8 74 49.3 74Z" stroke="#0C0B0B" stroke-width="2.5" stroke-linecap="round" stroke-linejoin="round"/>
<path d="M49.3 51.2001C51.3987 51.2001 53.1 49.4988 53.1 47.4001C53.1 45.3014 51.3987 43.6001 49.3 43.6001C47.2013 43.6001 45.5 45.3014 45.5 47.4001C45.5 49.4988 47.2013 51.2001 49.3 51.2001Z" stroke="#0C0B0B" stroke-width="2.5" stroke-linecap="round" stroke-linejoin="round"/>
<path d="M37.2729 68.2049L46.6399 61.9159C48.1409 60.9089 50.3069 61.0229 51.6559 62.1819L52.2829 62.7329C53.7649 64.0059 56.1589 64.0059 57.6409 62.7329L65.5449 55.9499C67.0269 54.6769 69.4209 54.6769 70.9029 55.9499L73.9999 58.6099" stroke="#0C0B0B" stroke-width="2.5" stroke-linecap="round" stroke-linejoin="round"/>
</svg>
