<svg width="42" height="42" viewBox="0 0 42 42" fill="none" xmlns="http://www.w3.org/2000/svg">
<path d="M15.3 40H26.7C36.2 40 40 36.2 40 26.7V15.3C40 5.8 36.2 2 26.7 2H15.3C5.8 2 2 5.8 2 15.3V26.7C2 36.2 5.8 40 15.3 40Z" stroke="#0C0B0B" stroke-width="2.5" stroke-linecap="round" stroke-linejoin="round"/>
<path d="M15.3 17.2001C17.3987 17.2001 19.1 15.4988 19.1 13.4001C19.1 11.3014 17.3987 9.6001 15.3 9.6001C13.2013 9.6001 11.5 11.3014 11.5 13.4001C11.5 15.4988 13.2013 17.2001 15.3 17.2001Z" stroke="#0C0B0B" stroke-width="2.5" stroke-linecap="round" stroke-linejoin="round"/>
<path d="M3.27286 34.2049L12.6399 27.9159C14.1409 26.9089 16.3069 27.0229 17.6559 28.1819L18.2829 28.7329C19.7649 30.0059 22.1589 30.0059 23.6409 28.7329L31.5449 21.9499C33.0269 20.6769 35.4209 20.6769 36.9029 21.9499L39.9999 24.6099" stroke="#0C0B0B" stroke-width="2.5" stroke-linecap="round" stroke-linejoin="round"/>
</svg>
