<svg width="250" height="162" viewBox="0 0 250 162" fill="none" xmlns="http://www.w3.org/2000/svg">
<g clip-path="url(#clip0_1_64)">
<path d="M191.57 46.7142C186.487 45.4895 185.443 42.0324 179.637 44.6536C173.83 47.2748 169.917 54.5421 159.633 56.7453C159.633 56.7453 157.52 53.9168 157.42 52.1996C157.32 50.4856 157.91 48.9693 157.91 48.9693C157.91 48.9693 155.697 46.8536 154.793 44.6309C154.793 44.6309 162.46 41.3877 168.687 41.6728C174.913 41.9579 178.73 38.517 182.027 39.2655C185.323 40.0139 187.81 44.3199 191.18 44.592C194.55 44.861 193.42 47.1549 191.57 46.7078V46.7142Z" fill="#1A1A1A"/>
<path d="M19.67 45.4605C19.67 45.4605 24.86 46.1927 28.0267 42.8814C31.1934 39.5701 34.9634 36.6185 41.71 36.4889C48.4567 36.3593 52.3334 30.2325 57.9134 28.6546C63.2534 27.1447 66.5667 29.4387 71.8834 28.0941L71.8967 27.8608C71.9167 27.4785 72.25 27.1836 72.6467 27.2063C73.04 27.229 73.3434 27.553 73.32 27.9353L69.0967 103.035C69.08 103.35 68.85 103.606 68.55 103.674C68.4867 103.69 68.4167 103.696 68.3467 103.69C67.9534 103.667 67.65 103.343 67.6734 102.961L69.8267 64.664C67.9934 63.909 62.9734 62.3474 59.1767 62.9468C54.2834 63.7211 50.9467 59.1235 47.5734 57.685C44.2 56.2464 39.8 59.629 33.0767 60.7565C26.3534 61.884 21.94 64.9134 21.94 64.9134C17.4734 54.2052 19.6734 45.4605 19.6734 45.4605H19.67Z" fill="#1A1A1A"/>
<path d="M226.4 40.8079C235.873 43.5198 240.07 43.4323 244.75 45.6485C244.883 45.386 245.2 45.2597 245.483 45.3763C245.78 45.4962 245.917 45.8234 245.797 46.1085L223.563 98.13C223.44 98.4151 223.103 98.5512 222.81 98.4313C222.683 98.3794 222.587 98.2887 222.523 98.1818C222.443 98.0392 222.427 97.8611 222.497 97.6991L236.853 64.1067C229.387 63.9512 224.123 59.3245 215.86 59.1042C207.37 58.8774 205.687 60.1345 205.687 60.1345C205.687 60.1345 200.403 51.9373 204.24 42.3307C204.24 42.3307 215.077 37.5647 226.4 40.8047V40.8079Z" fill="#1A1A1A"/>
<mask id="mask0_1_64" style="mask-type:luminance" maskUnits="userSpaceOnUse" x="-1" y="0" width="251" height="162">
<path d="M249.8 0H-0.199951V162H249.8V0Z" fill="white"/>
</mask>
<g mask="url(#mask0_1_64)">
<path d="M253.24 163.455C253.603 152.785 252.79 120.369 250.82 109.868C251.52 109.214 252.773 108.193 253.303 106.875C253.837 105.556 253.627 103.978 252.77 102.834C252.273 102.167 251.587 101.658 250.9 101.169C248.747 99.6397 246.5 98.2368 244.17 96.9764C243.927 96.1178 244.117 95.7841 244.083 95.4342C244.037 94.8769 243.397 94.4914 242.827 94.5659C242.77 94.5724 242.713 94.5821 242.663 94.5594C242.587 94.5238 242.563 94.433 242.54 94.3553C242.35 93.7332 241.513 93.3898 240.923 93.6911C240.98 93.2537 240.53 92.8843 240.08 92.8422C239.63 92.8001 239.197 92.9912 238.787 93.1792C238.51 92.8519 238.373 92.6122 238.167 92.4275C237.96 92.2428 237.673 92.1262 237.4 92.1845C237.137 92.2428 236.94 92.4502 236.76 92.6478C236.387 93.0593 236.003 93.487 235.827 94.0118C235.653 94.5367 235.747 95.1815 236.197 95.5152C236.267 95.567 236.343 95.6124 236.383 95.6869C236.453 95.8262 236.353 95.9882 236.27 96.1243C236.1 96.403 235.997 96.7334 236.057 97.0542C236.157 97.6082 236.69 97.9744 237.177 98.2789C235.813 98.5187 234.457 98.9334 233.173 99.5036C233.013 97.2616 231.307 95.3953 231.027 93.163C230.703 90.5774 229.35 88.1701 227.157 87.2435C226.173 86.8288 225.06 86.8028 223.993 86.8936C222.61 87.0134 221.22 87.3245 220.023 88.0146C218.827 88.7047 217.843 89.8031 217.513 91.1153C217.03 93.0463 217.993 95.0292 218.04 97.0186C216.89 96.9505 216.003 97.1838 215.197 97.5791C214.96 97.6925 214.723 97.8253 214.46 97.8286C214.063 97.835 213.73 97.5629 213.407 97.3361C212.277 96.5423 210.813 96.2086 209.437 96.4289C207.517 94.7084 205.697 93.2926 203.51 92.907C203.02 92.8195 202.52 92.7871 202.043 92.651C201.48 92.4923 200.97 92.1942 200.437 91.9577C198.43 91.0634 196.143 91.0408 193.933 91.0343C194.173 90.0104 194.207 89.2426 194.243 88.4747C194.253 88.2544 194.267 88.0276 194.367 87.8332C194.457 87.6647 194.603 87.5351 194.733 87.3925C195.58 86.4853 195.73 85.0338 195.093 83.9808C194.973 83.7832 194.83 83.5985 194.763 83.3782C194.693 83.1449 194.72 82.8986 194.737 82.6589C194.877 80.4848 194.067 78.2654 192.547 76.6649C193.157 75.5374 193.347 74.2025 193.073 72.9551C194.043 70.0034 194.773 67.2592 195.447 64.5084C195.877 62.7394 196.287 60.8861 195.82 59.1268C195.383 55.2874 194.313 51.8206 193.17 48.4121C192.963 47.7965 192.753 47.1647 192.763 46.5167C192.78 45.6127 193.233 44.7088 192.993 43.834C192.827 43.2378 192.367 42.7712 191.923 42.3306C191.803 42.2107 191.67 42.0844 191.5 42.0649C191.293 42.039 191.087 42.1718 190.887 42.1168C190.683 42.0617 190.57 41.8316 190.37 41.7701C190.03 41.6664 189.703 42.0908 189.36 42.0066C189.273 41.9839 189.2 41.9353 189.12 41.9029C188.807 41.7798 188.46 41.9386 188.163 42.0973C187.91 41.8543 187.51 41.8511 187.273 42.0293C187.037 42.2042 186.927 42.4958 186.84 42.7745C186.603 43.5294 186.443 44.3135 186.47 45.1008C186.477 45.2563 186.49 45.4183 186.577 45.5479C186.687 45.7132 186.887 45.7974 187.043 45.9205C187.327 46.1376 187.473 46.4778 187.7 46.7532C188.017 47.142 188.473 47.3882 188.92 47.628C189.9 48.7523 190.267 50.0807 190.4 51.3929C190.533 52.7018 190.453 54.0238 190.5 55.3392C190.603 58.2098 191.297 61.1777 190.32 63.8863C189.673 65.678 188.323 67.243 188.103 69.1319C187.183 69.323 186.593 69.9289 186.237 70.5413C185.88 71.1536 185.607 71.8535 185.017 72.2585C184.343 72.7186 183.353 72.7218 182.847 73.3536C182.537 73.7424 182.487 74.2867 182.157 74.6561C181.98 74.8537 181.74 74.9833 181.533 75.1518C181.19 75.4337 180.95 75.8322 180.86 76.2631C180.38 76.0493 180.207 75.7447 180.033 75.4434C179.99 75.3689 179.947 75.2879 179.957 75.2036C179.967 75.1291 180.017 75.0676 180.067 75.006C180.59 74.345 180.82 73.4411 180.553 72.6473C180.287 71.8567 179.473 71.2346 178.617 71.28C178.613 69.2032 177 67.5119 175.08 67.1198C173.157 66.7278 171.073 67.567 169.853 69.0606C168.777 70.3825 168.367 72.32 169.223 73.7878C169.48 74.2316 169.84 74.6172 170.05 75.0838C170.34 75.7253 170.313 76.4575 170.463 77.1444C170.66 78.0419 171.167 78.8746 171.887 79.4675C171.133 79.299 170.553 78.9912 170.26 79.3444C170.063 79.5809 170.183 79.9276 170.31 80.2062C170.563 80.757 170.813 81.311 171.063 81.8618C171.127 82.0012 171.19 82.147 171.167 82.296C171.133 82.5066 170.943 82.6524 170.777 82.7852C168.96 84.253 168.53 86.8839 169.11 89.113C169.69 91.3388 171.097 93.2634 172.477 95.1264C171.687 95.9461 171.11 96.5877 170.35 96.5974C170.133 96.5974 169.913 96.5488 169.703 96.6071C169.307 96.714 169.1 97.1546 168.72 97.3037C168.187 97.5143 167.64 97.0704 167.097 96.8825C166.57 96.701 165.957 96.7756 165.49 97.0769C165.74 96.4451 165.903 95.4634 165.927 94.7862C165.943 94.3391 165.903 93.8758 165.71 93.4708C165.517 93.0625 165.147 92.7159 164.69 92.6381C164.62 91.044 164.197 89.3851 163.08 88.1896C162.013 87.0458 160.353 86.4529 158.78 86.6506C157.203 86.8482 155.757 87.8364 155.027 89.2069C154.33 90.5159 154.287 92.0581 154.357 93.5291C154.033 93.8175 153.803 94.1512 153.757 94.4816C153.71 94.8154 153.803 95.1523 153.9 95.4763C153.45 94.8737 153.093 94.2289 152.737 93.5874C152.587 93.3152 152.433 93.0399 152.233 92.8001C152.11 92.6511 151.967 92.5182 151.85 92.3627C151.7 92.1651 151.597 91.9382 151.483 91.7212C150.613 90.0364 149.067 88.6982 147.247 88.0503C145.947 87.5902 144.52 87.4703 143.283 86.8644C143.67 85.5425 143.837 84.0521 143.827 82.5973C143.817 81.4018 143.693 80.2094 143.457 79.0366C143.32 78.3497 143.137 77.6596 142.753 77.0699C142.007 75.9294 140.59 75.3397 139.207 75.2328C138.177 75.1518 137.087 75.3235 136.25 75.9132C135.677 76.3182 135.253 76.8949 134.923 77.5073C134.193 78.8551 133.883 80.4136 134.037 81.9266C133.787 82.1891 133.617 82.2636 133.483 82.3511C133.107 82.6006 132.953 83.0833 133.007 83.5207C133.06 83.9581 133.287 84.3599 133.54 84.726C133.597 84.807 133.657 84.8912 133.687 84.9884C133.713 85.0759 133.71 85.1699 133.71 85.2606C133.7 85.6429 133.69 86.0252 133.68 86.4076C131.023 86.2261 128.85 87.6517 126.537 88.1507C125.677 88.3354 124.767 88.4002 123.997 88.8214C122.02 89.9003 121.87 92.732 120.15 94.1641C119.657 94.5756 119.047 94.8575 118.637 95.3467C117.847 96.2896 117.983 97.78 117.093 98.6353C116.707 99.0079 116.17 99.2088 115.787 99.5846C114.96 100.395 115.083 101.71 115.267 102.834C114.553 102.468 114.02 101.597 113.217 101.357C112.863 101.253 112.487 101.279 112.127 101.195C111.17 100.968 110.537 99.9994 109.573 99.792C109.523 98.6159 109.653 97.5305 109.75 96.4418C110.23 96.3835 110.647 96.0952 110.957 95.7712C111.317 95.3953 111.603 94.945 111.73 94.4492C111.857 93.9535 111.813 93.4027 111.55 92.9588C112.067 91.9933 112.323 90.9954 112.163 90.0266C112.003 89.0546 111.363 88.1215 110.41 87.7878C110.27 87.7392 110.123 87.7036 109.997 87.6355C109.823 87.5416 109.69 87.3958 109.547 87.2662C108.91 86.6992 107.99 86.4464 107.143 86.6084C106.61 86.7089 106.103 86.9649 105.557 86.9584C105.1 86.9551 104.667 86.764 104.217 86.683C102.937 86.4497 101.6 87.143 100.853 88.1798C100.107 89.2166 99.8768 90.5386 99.9334 91.8022C99.5534 92.1294 99.2501 92.4275 99.1334 92.7904C98.9301 93.406 99.2501 94.0734 99.6468 94.5918C100.043 95.1102 100.54 95.5832 100.757 96.1956C100.997 96.8663 100.873 97.605 100.973 98.3081C101.027 98.2563 100.89 98.6094 100.89 98.6094C100.313 99.076 99.4268 98.9302 98.7734 99.2866C98.3701 99.5069 98.0668 99.9119 97.6168 100.025C97.4001 100.08 97.1734 100.061 96.9501 100.045C95.8968 99.9767 94.8334 100.032 93.7934 100.21C94.1734 99.8244 94.6734 99.2574 94.8134 98.6029C94.9534 97.9517 94.7301 97.2356 94.2401 96.7691C94.6968 94.9061 94.0068 92.9102 92.8334 91.368C92.3868 90.7816 91.8634 90.2372 91.2234 89.8582C89.7134 88.9672 87.7334 89.1292 86.1401 89.8679C85.9601 87.5934 86.1201 85.1245 86.4134 82.6718C86.5334 81.6707 86.7168 80.5918 87.4534 79.8822C88.1101 79.2536 89.0734 79.0463 89.8401 78.5473C90.4968 78.1196 90.9968 77.4749 91.2401 76.7426C91.3268 76.4802 91.3868 76.1983 91.5668 75.9845C91.8334 75.667 92.3134 75.5698 92.5634 75.2425C92.8368 74.8829 92.7168 74.3191 92.3434 74.0567C91.9701 73.7975 91.4168 73.8493 91.0668 74.1377C91.1734 73.4411 91.2034 72.6343 90.6168 72.3784C90.4001 72.2844 90.1534 72.3006 89.9168 72.3168L87.3468 72.5047C87.1301 72.5209 86.9034 72.5404 86.7068 72.6311C86.3301 72.8093 86.1334 73.2143 85.9901 73.5966C85.6434 74.5297 85.4434 75.5082 85.1701 76.464C84.0334 80.4719 81.6734 84.0229 79.6968 87.71C79.0634 88.8959 78.4601 90.1141 78.1634 91.4198C77.9268 92.4599 77.8901 93.5291 77.8534 94.595C77.8168 95.6578 77.7801 96.7205 77.7434 97.7832C77.0301 97.2745 76.6168 96.8177 76.2901 96.309C76.1201 96.0466 75.9734 95.7744 75.7768 95.5346C75.3401 95.0033 74.7001 94.6825 74.0768 94.3747C73.7201 93.2634 72.4768 92.7806 72.3534 91.8151C72.3034 91.4263 72.4501 91.0181 72.3068 90.652C72.1801 90.3312 71.8434 90.1076 71.7634 89.7707C71.6601 89.3398 72.0201 88.8829 71.8768 88.4585C71.8268 88.3094 71.7168 88.1798 71.6734 88.0276C71.6068 87.7716 71.7501 87.5092 71.8601 87.2662C72.3501 86.197 72.2334 84.888 71.5601 83.916C70.8901 82.944 69.6868 82.3446 68.4834 82.3802C68.2134 80.7764 66.7201 79.9373 65.2401 79.934C63.7601 79.9308 62.3401 80.6792 61.3734 81.7646C60.5234 82.7172 59.9901 83.9322 59.8668 85.1893C59.7268 86.6246 60.1034 88.1248 59.6101 89.4823C59.3168 89.6054 59.0134 89.9424 58.6768 90.0688C58.2834 90.2146 57.8501 90.0688 57.4368 89.9975C56.3134 89.7966 55.1734 90.1303 54.0834 90.4608C53.7534 90.2534 53.6334 89.7869 53.5801 89.3981C53.5568 89.2426 53.5368 89.0806 53.5701 88.925C53.5968 88.8116 53.6534 88.708 53.7034 88.6043C54.0934 87.8364 54.3234 86.9972 54.3834 86.1419C55.4868 85.7887 56.2834 84.6126 56.1401 83.4786C56.0601 82.8598 55.7401 82.2928 55.3668 81.7873C55.7201 80.3196 56.0601 78.7644 55.5834 77.3291C55.0401 75.6896 53.4968 74.5103 51.8301 73.9238C51.2301 73.7132 50.6034 73.5642 49.9668 73.5415C47.8234 73.4605 45.7668 74.8861 44.9568 76.8172C44.3701 78.2136 44.3968 79.8401 45.0268 81.2203C44.1268 81.405 43.6568 82.1923 43.5768 82.9213C43.4268 84.2886 44.3001 85.7012 45.6134 86.2164C45.6801 87.4087 45.7201 88.5686 45.7601 89.7286C45.0401 89.6605 44.5201 89.7091 44.0968 89.9392C43.9934 89.9942 43.8901 90.0655 43.7734 90.0752C43.6334 90.0882 43.5034 90.0169 43.3734 89.9683C42.8534 89.7674 42.2168 89.8841 41.8068 90.2567C41.2968 88.6853 40.8834 87.3536 39.7668 86.738C38.9901 86.3071 38.0401 86.3363 37.1668 86.1451C36.7701 86.0576 36.3834 85.9248 35.9801 85.8892C35.4301 85.8373 34.8801 85.9702 34.3401 86.0998C33.6101 86.278 32.8601 86.4594 32.2334 86.8644C31.1434 87.5642 30.5801 88.8052 30.0734 89.9748C29.4834 89.8193 29.0834 89.6962 28.6834 89.5698C29.1901 88.7307 29.1734 87.8753 28.7401 87.2759C28.6368 87.1301 28.5068 86.9972 28.4568 86.8255C28.4168 86.6862 28.4368 86.5404 28.4568 86.3978C28.6368 85.0824 28.7968 83.7281 28.4501 82.445C27.9868 80.7343 26.5701 79.3022 24.8334 78.7774C23.0968 78.2557 21.0934 78.6607 19.7168 79.8174C18.0368 81.23 17.4234 83.4656 16.8934 85.5652C16.4501 85.7952 16.1734 85.9345 15.9601 86.1386C15.5068 86.5793 15.3968 87.2597 15.4468 87.8818C15.4901 88.4002 15.6234 88.9153 15.8434 89.3884C15.9801 89.6832 16.1534 89.9683 16.1968 90.2891C16.2401 90.6099 16.1134 90.9824 15.8068 91.1088C15.6934 91.1542 15.5701 91.1639 15.4501 91.1866C15.0001 91.2773 14.6301 91.5883 14.1868 91.6985C13.6368 91.8346 13.0601 91.6466 12.4968 91.5948C11.9301 91.543 11.2434 91.7179 11.0701 92.246C10.7668 92.1359 10.4634 92.0257 10.1601 91.9188C9.1801 91.0537 8.0401 91.2092 7.13343 90.8528C6.3301 90.5386 5.7301 89.829 4.90676 89.5795C4.40676 89.4272 3.85676 89.4532 3.3801 89.2458C3.03343 89.0968 2.75343 88.8376 2.4801 88.5848C1.4701 87.6452 0.463431 86.6992 -0.536569 85.7498C0.473432 83.2064 1.9001 80.8445 3.32343 78.4825C4.03343 77.3064 4.75343 76.1173 5.74677 75.1583C6.42343 74.5006 7.25677 73.9076 7.52343 73.0134C10.4034 72.2812 12.7201 70.7584 14.6068 68.9342C14.8001 68.7463 14.9968 68.5519 15.2468 68.4385C15.5168 68.3154 15.8634 68.2798 16.0201 68.0335C16.1801 67.7808 16.0201 67.4179 15.7468 67.2851C15.4734 67.1522 15.1368 67.2041 14.8601 67.3337C14.9468 66.7537 14.6868 66.0604 14.2434 65.5873C13.8001 65.111 13.1968 64.8097 12.6101 64.5214C12.0101 64.2233 11.3668 63.9187 10.7001 63.9965C10.4234 64.0289 10.1568 64.1261 9.8801 64.1228C9.56343 64.1196 9.2501 63.9835 8.9401 64.0354C8.6101 64.0904 8.3601 64.3399 8.07677 64.5116C7.60343 64.7935 7.0301 64.8486 6.51676 65.056C5.50676 65.4642 4.83343 66.4168 4.41677 67.4017C4.0001 68.3867 3.77676 69.4429 3.33676 70.4149C1.34676 71.5684 0.0367641 73.0231 -1.06657 74.5492C-2.16657 76.0752 -3.11657 77.7114 -4.37324 79.1176C-5.0899 79.9211 -5.90324 80.6404 -6.61657 81.4504C-7.4899 82.4418 -8.20657 83.5628 -8.73657 84.7616C-9.31657 86.0771 -9.65657 87.6096 -9.0599 88.9121C-8.80657 89.4694 -8.39657 89.9424 -7.9899 90.4057C-7.06324 91.462 -6.11324 92.502 -5.02324 93.3962C-3.6399 94.5303 -2.05324 95.4115 -0.683235 96.5585C0.833432 97.8286 2.0701 99.4162 2.9101 101.185C1.7401 109.032 -2.41657 163.432 -2.41657 163.432H253.24V163.455Z" fill="#1A1A1A"/>
</g>
<mask id="mask1_1_64" style="mask-type:luminance" maskUnits="userSpaceOnUse" x="-1" y="0" width="251" height="163">
<path d="M249.887 0.0842438H-0.113281V162.084H249.887V0.0842438Z" fill="white"/>
</mask>
<g mask="url(#mask1_1_64)">
<path d="M51.2967 146.503C50.79 144.413 50.1533 142.353 49.5167 140.295C48.9467 138.714 48.7633 137.434 48.2567 136.261C47.41 134.288 45.64 132.714 43.5467 132.059C41.3133 129.856 39.2 127.847 36.9967 125.929C36.9967 125.492 37.16 125.006 37.3233 124.52C37.5367 123.888 37.7533 123.24 37.73 122.576C37.7067 121.912 37.3967 121.215 36.79 120.907C37.03 119.527 36.8233 118.208 36.5233 116.941C36.0333 114.884 35.25 112.823 33.76 111.284C32.13 109.6 29.76 108.689 27.3867 108.534C25.0133 108.378 22.63 108.929 20.4367 109.823C19.17 110.338 17.8467 111.08 17.38 112.337C17.0633 113.189 17.2067 114.155 17.5867 114.981C17.9667 115.807 18.5667 116.52 19.1867 117.194C19.5267 120.379 17.6867 123.47 18.2567 126.561C18.56 128.207 19.5267 129.681 19.8367 131.324C19.7667 131.46 19.7267 131.638 19.6867 131.813C19.2467 131.751 18.93 131.894 18.6933 132.066C18.4567 132.237 18.2267 132.454 17.9367 132.497C17.4567 132.568 17.0533 132.16 16.59 132.027C15.42 131.693 14.3567 133.141 13.1533 132.963C12.7733 132.908 12.44 132.694 12.08 132.565C11.4867 132.354 10.81 132.39 10.24 132.655C9.96667 132.782 9.72 132.96 9.44 133.073C8.85334 133.31 8.19 133.235 7.55667 133.2C6.51334 133.141 5.46334 133.2 4.43334 133.368C3.72667 133.485 3.02001 133.66 2.40667 134.016C2.10667 134.191 1.82667 134.411 1.49001 134.502C1.08667 134.609 0.616673 134.535 0.286673 134.784C0.0566721 134.962 -0.0466604 135.267 -0.29666 135.419C-0.673327 135.649 -1.15333 135.419 -1.59333 135.357C-2.22 135.276 -2.87666 135.607 -3.17333 136.148C-3.34999 134.431 -3.76999 133.093 -4.02999 131.732C-4.62999 128.615 -4.96666 126.341 -4.62999 122.436C-4.56666 121.714 -4.16333 120.745 -3.71333 120.168C-3.43999 119.818 -3.06666 119.553 -2.73333 119.251C-1.58 118.205 -0.909994 116.672 -0.939994 115.14C-0.953327 114.346 -1.13666 113.5 -0.753327 112.797C-0.596661 112.509 -0.343328 112.185 -0.503327 111.897C-0.606661 111.709 -0.853328 111.637 -1.07333 111.637C-1.85666 111.637 -2.47999 112.243 -3.01 112.804C-3.87 112.292 -4.50333 111.501 -4.12333 110.808C-4.05666 110.685 -3.95999 110.578 -3.91333 110.445C-3.77999 110.06 -4.12333 109.677 -4.46999 109.45C-5.07333 109.052 -5.80666 108.809 -6.53333 108.877C-7.25999 108.945 -7.96666 109.356 -8.27999 109.998C-8.44333 110.335 -8.54333 110.766 -8.89999 110.895C-9.07333 110.96 -9.27333 110.931 -9.43999 111.006C-9.96999 111.242 -9.67999 112.11 -10.0833 112.519C-10.1967 112.635 -10.3567 112.697 -10.4833 112.801C-10.92 113.151 -10.8667 113.808 -10.76 114.349C-10.4767 115.778 -10.0933 117.188 -9.61999 118.565C-11.4767 123.966 -11.96 130.073 -12 136.057C-12.0133 138.228 -11.9667 140.448 -11.2067 142.489C-10.4467 144.53 -8.84666 146.393 -6.68666 146.953C-6.44333 148.473 -6.34999 149.183 -6.06333 149.831C-5.76666 150.498 -5.27999 151.065 -4.79999 151.619C-4.32999 152.163 -3.80666 152.74 -3.09333 152.892C-2.44333 153.032 -1.76333 152.785 -1.19999 152.436C-0.639994 152.086 -0.149995 151.635 0.420005 151.295C1.15001 150.861 1.98667 150.628 2.81334 150.417C2.65334 151.039 2.53001 151.94 2.14334 152.743C1.97667 153.087 1.76334 153.414 1.65667 153.78C1.43667 154.516 1.67334 155.306 1.57001 156.068C1.46 156.881 0.976671 157.603 0.806672 158.404C0.496672 159.842 1.20667 161.375 1.22001 162.81H46.9033C46.76 161.452 46.8467 160.072 47.1533 158.741C47.4233 157.574 47.8633 156.437 47.9433 155.241C48.0367 153.874 47.65 152.517 47.69 151.149C48.7233 151.149 49.9233 151.169 50.73 150.475C51.2733 150.009 51.5333 149.293 51.5767 148.59C51.62 147.887 51.4633 147.187 51.2967 146.5V146.503Z" fill="#F1F1F1"/>
<path d="M204.703 157.581C205.15 157.746 205.42 157.014 205.157 156.625C204.893 156.236 204.4 156.029 204.163 155.624C204.01 155.361 203.98 155.05 203.953 154.746C203.767 152.695 203.433 150.654 202.95 148.648C202.48 146.688 201.867 144.75 201.653 142.748C201.473 141.04 201.587 139.32 201.697 137.609C202.05 132.257 202.403 126.888 203.34 121.6C203.593 120.168 203.89 118.74 204.003 117.288C204.07 116.426 204.07 115.558 204.173 114.696C204.267 113.918 204.447 113.154 204.5 112.373C204.657 110.118 203.767 107.902 202.287 105.362C202.497 102.206 201.907 99.0144 200.663 96.0952C199.84 94.1641 198.74 92.3562 197.48 90.6617C197.037 90.0688 196.567 89.4726 196.347 88.7728C196.043 87.817 196.237 86.7866 196.43 85.7596C196.78 84.3826 196.34 82.9472 195.907 81.5929C195.873 81.4892 195.837 81.3791 195.753 81.3046C195.687 81.2462 195.593 81.2171 195.52 81.162C195.423 81.0875 195.373 80.9741 195.283 80.8931C195.077 80.7084 194.72 80.7732 194.537 80.9806C194.353 81.1847 194.317 81.4828 194.363 81.7517C193.893 81.8975 193.56 82.377 193.473 82.9732C193.25 82.7302 192.817 82.8922 192.613 83.1546C192.41 83.417 192.313 83.754 192.06 83.9711C191.893 84.1137 191.677 84.1882 191.477 84.2886C191.087 84.4895 190.77 84.8005 190.463 85.1083C190.053 85.5166 189.61 86.0188 189.707 86.5825C189.76 86.8936 189.973 87.1528 190.16 87.4087C191.133 88.7339 191.63 90.328 191.87 92.1586C191.373 91.9544 190.79 91.9577 190.3 92.1748C190.133 92.2493 189.96 92.3465 189.777 92.3206C189.647 92.3011 189.537 92.2169 189.423 92.1456C188.92 91.8216 188.283 91.705 187.693 91.8281C187.37 91.8961 187.063 92.0354 186.733 92.0808C186.373 92.1327 186.007 92.0711 185.647 92.1197C185.19 92.1812 184.76 92.4178 184.477 92.7709C184.76 91.2578 184.727 89.4208 184.85 87.8882C184.973 86.3557 185.363 84.7617 186.443 83.6374C186.773 83.2939 187.16 82.9991 187.417 82.6038C187.673 82.2053 187.76 81.6545 187.403 81.094C187.373 80.8315 187.457 80.5594 187.397 80.3034C187.357 80.1284 187.253 79.9729 187.147 79.8239C187.077 79.7267 187.003 79.6262 186.897 79.5679C186.743 79.4804 186.553 79.4966 186.38 79.5161C186.227 79.5355 186.067 79.5582 185.94 79.6424C185.897 79.6716 185.86 79.704 185.737 79.7688C185.69 79.6003 185.64 79.4318 185.59 79.2634C185.577 79.2115 185.56 79.1597 185.523 79.1176C185.48 79.0722 185.417 79.0528 185.353 79.0398C185.037 78.9847 184.693 79.1176 184.513 79.38C184.687 78.8616 184.863 78.3238 184.797 77.7859C184.773 77.5948 184.717 77.4004 184.58 77.261C184.443 77.125 184.21 77.0634 184.043 77.1671C183.92 77.2416 183.863 77.3842 183.81 77.5138C183.72 77.7373 183.633 77.9576 183.53 78.165C183.613 77.5494 183.697 76.9111 183.523 76.315C183.463 76.1108 183.36 75.897 183.157 75.816C182.96 75.7382 182.727 75.8225 182.587 75.9748C182.447 76.1303 182.39 76.3376 182.343 76.6163C182.267 76.4316 182.26 76.2275 182.237 76.0298C182.213 75.8322 182.163 75.6248 182.027 75.479C181.887 75.3332 181.637 75.2717 181.473 75.3948C181.387 75.4596 181.343 75.5633 181.313 75.6637C181.067 76.4575 181.443 77.3032 181.453 78.1326C181.457 78.5635 181.363 79.0009 181.447 79.4254C181.5 79.6943 181.62 79.9502 181.67 80.2224C181.743 80.6306 181.647 81.0454 181.543 81.4471C181.23 82.6913 180.873 83.9225 180.47 85.2379C178.967 88.7436 177.457 92.2687 176.533 95.9591C176.037 97.942 175.717 99.9605 175.253 101.985C174.747 102.88 174.237 103.774 173.73 104.668C173.56 104.97 173.387 105.271 173.183 105.549C172.957 105.861 172.69 106.142 172.45 106.444C171.79 107.27 171.337 108.232 170.89 109.182C169.75 111.602 168.583 114.152 168.79 116.808C168.887 118.056 169.287 119.271 169.34 120.518C169.393 121.779 169.1 123.026 169.073 124.286C169.063 124.853 169.107 125.424 169.267 125.968C169.5 126.755 169.967 127.455 170.277 128.217C170.59 128.981 170.743 129.798 170.893 130.608C171.217 132.338 171.537 134.068 171.563 136.18C171.523 140.146 171.483 144.112 171.44 148.078C171.427 149.283 171.41 150.521 170.943 151.635C170.647 152.348 170.18 152.986 169.95 153.722C169.72 154.457 169.8 155.368 170.3 156.401C170.23 158.825 170.16 161.245 170.09 163.669H205.29C205.57 161.854 205.27 159.959 204.717 157.581H204.703Z" fill="#F1F1F1"/>
<path d="M166.48 123.836C166.657 123.133 166.67 122.401 166.797 121.688C166.99 120.615 167.443 119.598 167.58 118.519C167.78 116.935 167.287 115.344 167.277 113.747C167.267 112.551 167.523 111.31 167.08 110.196C167.327 106.055 167.44 102.031 166.1 98.3373C165.427 96.4775 164.403 94.7603 163.477 93.0074C161.47 89.2134 159.9 85.2152 158.4 81.2074C159.037 80.0183 159.357 78.5668 159.037 77.2481C158.993 77.0699 158.91 76.8658 158.723 76.8334C158.5 76.7945 158.33 77.0342 158.107 77.0764C158.123 76.5126 158.137 75.9488 158.153 75.3851C158.16 75.1874 158.167 74.9768 158.277 74.8116C158.463 74.5265 158.853 74.4714 159.19 74.3807C159.523 74.29 159.897 74.0405 159.833 73.7068C159.78 73.4216 159.427 73.2888 159.13 73.3082C158.833 73.3277 158.55 73.4508 158.25 73.4573C158.507 73.0458 158.853 72.8806 159.183 72.6862C159.347 72.5922 159.51 72.4853 159.623 72.3362C159.737 72.1872 159.79 71.9831 159.717 71.8114C159.643 71.6396 159.417 71.5327 159.25 71.6202C159.267 71.4161 159.267 71.1763 159.11 71.0402C158.973 70.9236 158.767 70.9301 158.587 70.9528C157.337 71.1018 156.18 71.6494 155.05 72.1904C154.743 71.6137 154.55 70.9852 154.223 70.4279C154.053 70.1363 153.783 69.835 153.44 69.8609C153.19 69.8771 152.983 70.0747 152.89 70.2983C152.797 70.5218 152.793 70.7713 152.8 71.0143C152.843 72.5663 153.247 74.0858 153.647 75.5892C152.807 73.9206 152.073 72.2164 151.323 70.5154C151.177 70.1784 150.91 69.7799 150.543 69.8512C150.387 69.8803 150.263 69.997 150.17 70.1233C149.677 70.7972 149.933 71.7239 150.207 72.508C150.673 73.8526 151.143 75.1972 151.61 76.5418C150.65 75.2587 149.82 73.9692 149.137 72.6084C148.937 72.2099 148.633 71.7368 148.18 71.779C147.837 71.8114 147.6 72.1613 147.58 72.4982C147.56 72.8352 147.703 73.156 147.843 73.4638C148.243 74.3418 148.643 75.2231 149.043 76.1044C149.46 77.018 149.883 77.99 149.77 78.9815C149.753 79.124 149.71 79.286 149.573 79.3411C149.473 79.38 149.363 79.3411 149.267 79.299C148.723 79.043 148.367 78.4987 147.82 78.246C147.697 78.1877 147.553 78.1488 147.423 78.1909C147.093 78.3011 147.157 78.7709 147.303 79.0787C147.733 79.9956 148.313 80.8445 149.013 81.5897C147.423 83.6438 145.893 85.6138 144.363 87.5804C143.197 89.0806 142.03 90.5807 140.903 92.1067C139.963 93.3768 139.04 94.6793 138.467 96.1373C137.837 97.7411 137.65 99.468 137.337 101.159C136.693 104.623 135.49 108.031 135.557 111.55C134.637 112.25 134.57 113.06 134.483 113.756C134.28 115.422 133.623 117.006 133.3 118.655C132.543 122.547 133.69 126.551 135.22 130.219C135.243 132.403 135.267 134.622 135.55 136.819C135.74 138.283 136.047 139.751 135.943 141.225C135.847 142.635 135.38 144.002 135.28 145.414C135.187 146.72 135.41 148.026 135.607 149.322C136.003 151.904 136.3 154.503 136.503 157.104C136.567 157.908 136.617 158.734 136.377 159.505C136.167 160.182 135.733 160.804 135.673 161.511C135.613 162.217 136.19 163.053 136.897 162.888C136.78 163.986 136.733 164.744 136.687 165.506H164.923L164.933 163.607C166.187 162.518 166.967 160.931 167.05 159.301C167.17 156.968 165.937 154.707 166.13 152.377C166.23 151.178 166.71 149.999 166.56 148.803C166.49 148.243 166.283 147.705 166.163 147.151C165.657 144.805 166.75 142.385 166.513 139.997C166.423 139.077 166.137 138.189 165.893 137.298C165.103 134.379 164.78 131.34 164.94 128.323C165.19 126.37 166.137 125.213 166.483 123.839L166.48 123.836ZM160.403 103.285C160.293 104.892 159.553 106.512 160.013 108.057C159.287 108.498 158.86 109.175 158.743 109.904C159.003 107.759 158.883 105.472 158.123 103.401C157.84 102.627 157.453 101.862 156.823 101.308C156.57 101.085 156.283 100.903 156.02 100.689C155.12 99.9637 154.517 98.914 153.533 98.2984C153.31 98.1591 153.06 98.0392 152.793 98.023C152.58 98.0068 152.367 98.0554 152.153 98.0586C151.497 98.0716 150.877 97.6731 150.223 97.7411C149.637 97.8027 149.163 98.2271 148.6 98.3956C148.24 98.5057 147.857 98.5057 147.483 98.5576C146.22 98.726 145.05 99.4842 144.407 100.557C146.023 95.0616 149.1 89.7739 153.13 85.2898C155.07 87.0264 156.143 89.0968 156.963 91.2254C157.78 93.3509 158.36 95.5573 159.113 97.7054C159.75 99.5231 160.523 101.37 160.397 103.285H160.403Z" fill="#F1F1F1"/>
<path d="M89.8501 113.98C89.7901 113.74 89.6934 113.507 89.6434 113.261C89.4901 112.473 89.8235 111.56 89.3335 110.915C89.1834 110.721 88.9734 110.575 88.8035 110.393C88.5035 110.069 88.3568 109.638 88.1434 109.253C87.9301 108.867 87.5835 108.498 87.1368 108.462C86.3335 103.038 83.6368 98.3113 81.1201 93.6684C79.3668 90.4316 77.6735 87.1657 76.0435 83.8706C75.8768 82.1794 76.7134 80.9222 76.9801 79.5323C76.9935 78.7936 77.3134 78.0905 77.0701 77.4554C76.9301 77.0926 76.6268 76.8172 76.3434 76.545C75.8434 76.0655 75.3801 75.5536 74.9534 75.0125C74.5301 74.4746 74.1168 73.885 73.4868 73.5901C73.0534 73.386 72.5568 73.3471 72.0768 73.3115C71.7601 73.2888 71.4434 73.2629 71.1268 73.2402C70.9201 73.224 70.7101 73.2078 70.5034 73.2208C70.3468 73.2305 70.1934 73.2564 70.0401 73.2823C69.6234 73.3536 69.2068 73.4249 68.7901 73.4929C68.6168 73.5156 68.4868 73.5512 68.4001 73.629C68.3134 73.7068 68.2701 73.8331 68.2901 73.9498C68.2968 73.9854 68.3101 74.0243 68.2968 74.0599C68.2868 74.0923 68.2568 74.115 68.2301 74.1409C68.1401 74.2316 68.1034 74.3645 68.1334 74.4876C68.1634 74.6075 68.2634 74.7112 68.3834 74.75C67.8301 74.912 67.3201 74.9995 66.8034 75.0676C66.5968 74.7986 66.5334 74.5718 66.3634 74.4325C66.0301 74.1604 65.5301 74.3645 65.1634 74.5913C63.9934 75.3106 62.9034 76.2404 62.3334 77.4684C61.9501 78.2946 61.8201 79.2148 61.7601 80.1187C61.6901 81.1782 61.7068 82.2474 61.8101 83.3036C61.8601 83.8285 61.9334 84.3599 61.8501 84.8848C61.7268 85.6721 61.2634 86.3654 60.7834 87.0102C59.9101 88.1863 58.9434 89.2976 57.9801 90.4057C54.4268 94.0313 51.3168 98.0262 48.6168 102.264C47.8168 103.515 47.0368 104.837 46.8601 106.301C46.7634 107.098 46.8501 107.905 46.9501 108.699C47.1868 110.526 47.5101 112.347 47.9201 114.145C47.6034 114.728 47.3201 115.435 46.9934 116.125C46.7601 116.621 46.5001 117.116 46.3768 117.648C46.2534 118.182 46.2801 118.772 46.5901 119.232C46.9101 119.825 47.8068 119.98 48.5734 120.175C49.3401 120.369 50.2134 120.871 50.1468 121.636C50.1268 121.863 50.0234 122.077 50.0168 122.307C50.0101 122.495 50.0734 122.676 50.1301 122.854C50.4834 123.979 50.6668 125.145 50.8468 126.305C51.1601 128.298 51.4734 130.293 51.7868 132.286C52.0101 133.718 52.2368 135.15 52.3834 136.592C52.5001 137.736 52.5701 138.886 52.6368 140.033L53.0268 146.584C53.3101 151.34 53.5901 153.32 53.2868 157.377C52.9834 161.433 51.8968 164.054 52.9401 166.293H87.2435C87.2435 166.293 87.3301 160.124 86.9401 155.348C86.5501 150.573 86.4301 146.584 86.4301 146.584C86.3568 144.621 86.2835 142.657 86.2101 140.694C86.1868 140.017 86.1601 139.339 86.2101 138.666C86.2501 138.128 86.3401 137.593 86.4301 137.062C86.6368 135.834 86.8435 134.606 87.0468 133.375C86.9501 132.221 87.5935 131.431 87.7235 130.604C87.8035 130.096 87.6834 129.574 87.7468 129.062C87.8134 128.534 88.0768 128.038 88.1334 127.51C88.1901 126.972 88.0301 126.431 88.0968 125.893C88.1668 125.349 88.4601 124.863 88.6668 124.354C88.8735 123.846 88.9801 123.24 88.6868 122.77C89.4001 120.279 89.8001 117.852 89.9234 115.415C89.9468 114.936 89.9601 114.447 89.8434 113.98H89.8501ZM66.2934 89.505C67.0234 88.5589 67.7534 87.6128 68.4801 86.6668C68.9668 86.035 69.4568 85.3999 69.8168 84.6936C70.0768 84.1882 70.2668 83.6503 70.4534 83.1157C70.4468 83.5855 70.7101 84.0488 71.2368 84.4344C71.4668 85.4161 71.6868 86.3914 72.0101 87.3504C72.1301 87.7068 72.2501 88.0697 72.3901 88.4228C72.5334 88.7857 72.7001 89.1324 72.8068 89.5082C73.0101 90.2308 73.1301 90.976 73.2201 91.7212C73.3134 92.4793 73.3534 93.2407 73.2668 93.8174C72.1034 93.0528 70.6268 92.8228 69.2334 92.9783C67.8368 93.1306 66.5068 93.6425 65.2534 94.2581C64.9234 94.4201 64.5901 94.595 64.3434 94.8607C64.1001 95.1264 63.9501 95.4731 63.6634 95.6966C63.4568 95.8586 63.2001 95.9396 62.9701 96.066C62.4168 96.3641 62.0434 96.8922 61.7501 97.3458C62.5234 94.4201 64.4268 91.922 66.2901 89.505H66.2934ZM60.3401 101.091C59.9434 103.699 60.9568 106.298 62.0268 108.718C62.4301 109.632 62.8534 110.63 62.5868 111.589C62.1268 111.33 61.6568 110.999 61.1134 110.98C60.8801 110.97 60.6334 111.019 60.4268 110.915C60.1701 110.785 60.0101 110.435 59.7201 110.458C59.5334 110.474 59.3968 110.649 59.2101 110.688C59.0101 110.73 58.8201 110.601 58.6434 110.494C58.2668 110.264 57.8368 110.118 57.3968 110.069C56.9701 109.305 56.5934 108.611 56.2268 107.698C57.7968 105.53 59.1401 103.207 60.3368 101.094L60.3401 101.091Z" fill="#F1F1F1"/>
<path d="M149.21 44.5176C146.9 43.0078 144.507 44.2519 143.093 45.535C140.747 44.0543 135.16 40.837 127.55 38.4426C119.98 36.0612 113.543 35.4845 110.727 35.3452C110.35 33.5016 109.16 31.1429 106.387 31.0522C104.337 30.9841 102.463 33.8969 101.613 38.4718C100.24 45.8492 101.58 59.0328 114.013 65.3216C114.907 68.8046 114.053 71.3189 113.44 72.5436C113.417 72.5306 113.397 72.5112 113.373 72.5015C113.143 72.3946 112.857 72.4237 112.653 72.5728C112.463 72.7121 112.36 72.9292 112.257 73.1365C112.243 73.1657 112.227 73.1948 112.21 73.2272C111.95 73.1722 111.637 73.1074 111.277 73.0393C111.283 73.0199 111.293 73.0004 111.3 72.9842C111.437 72.644 111.487 72.2326 111.263 71.941C111.047 71.6558 110.617 71.5781 110.27 71.6915C109.923 71.8049 109.653 72.077 109.453 72.3751C109.383 72.482 109.32 72.5922 109.26 72.7024C109.067 72.6732 108.87 72.6473 108.673 72.6246C108.74 72.4205 108.837 72.2228 108.893 72.0155C108.967 71.753 108.957 71.4388 108.757 71.2508C108.643 71.1439 108.483 71.0953 108.327 71.0759C108.147 71.0532 107.963 71.0662 107.797 71.131C107.447 71.267 107.233 71.6137 107.113 71.9636C107.057 72.1289 107.017 72.3006 106.973 72.4691C106.753 72.4561 106.543 72.4496 106.333 72.4496C106.217 72.3071 106.083 72.1678 105.907 72.103C105.54 71.9701 105.127 72.2131 104.933 72.5436C104.307 72.6538 103.86 72.8741 103.733 73.2499C103.57 73.7392 103.877 74.2576 104.48 74.7792C104.443 75.0028 104.41 75.2231 104.39 75.4499C104.34 76.0525 104.39 76.6811 104.683 77.2124C102.637 81.2689 100.357 85.0694 97.7667 88.6594C96.9533 89.8484 96.1533 91.0213 95.5233 92.2817C94.2367 94.8575 93.68 97.7314 93.5367 100.592C93.3933 103.453 93.6433 106.314 93.8967 109.169C93.3933 110.468 93.2533 111.608 93.1667 112.736C93.1 113.63 93.0633 114.544 93.2933 115.412C93.4833 116.128 93.8467 116.796 94.0267 117.515C94.1733 118.095 94.1933 118.694 94.26 119.287C94.49 121.367 95.2467 123.369 95.4533 125.453C95.5933 126.888 95.4733 128.346 95.7333 129.762C95.8767 130.54 96.1333 131.301 96.2067 132.088C96.2833 132.934 96.1667 133.861 96.67 134.557C95.4567 141.646 94.3633 148.489 93.65 155.377C93.4367 157.451 93.2567 159.528 92.9133 161.585C92.51 164.015 91.8767 166.403 91.25 168.788C91.2467 168.904 91.96 169.128 91.96 169.128C91.47 169.62 91.6033 170.418 91.4333 171.082C91.2833 171.662 90.89 172.157 90.69 172.724C90.4967 173.275 90.4967 173.868 90.52 174.451H125.97C126.07 173.593 126.17 172.708 125.927 171.879C125.83 171.555 125.683 171.247 125.59 170.923C125.38 170.187 125.45 169.407 125.523 168.645C125.57 168.205 125.853 168.033 126.073 167.819C126.613 167.288 126.76 166.416 126.417 165.745C126.313 165.545 126.173 165.363 126.083 165.156C125.75 164.385 126.183 163.419 125.74 162.706C125.55 159.774 125.23 157.007 124.977 154.234C124.723 151.457 124.537 148.677 124.35 145.897C124.067 141.666 123.783 137.434 123.5 133.203C123.813 130.954 124.783 129.503 125.56 127.99C126.453 126.243 127.097 124.387 127.737 122.537C128.04 121.659 128.343 120.777 128.65 119.899L129.54 117.327C130.067 115.807 130.59 114.291 131.113 112.771C131.633 110.26 132.21 108.21 132.637 106.133C132.923 104.736 133.147 103.311 133.027 101.892C132.887 100.233 132.287 98.6418 131.63 97.106C129.513 92.1391 126.77 87.4508 124.437 82.5779C124.067 81.9428 123.94 81.4957 123.913 81.0616C124.957 81.0356 125.7 80.7926 125.89 80.2159C126.123 79.5161 125.147 78.6348 123.83 77.7989C123.747 77.4684 123.64 77.1476 123.5 76.8366C123.39 76.5936 123.257 76.3506 123.037 76.1951C122.817 76.0428 122.483 76.0104 122.283 76.1886C122.11 76.3409 122.083 76.5936 122.113 76.8204C121.963 76.7426 121.817 76.6681 121.67 76.5936C121.643 76.5094 121.62 76.4251 121.6 76.3376C121.543 76.1141 121.5 75.884 121.4 75.6734C121.303 75.4628 121.143 75.2684 120.92 75.1842C120.71 75.1032 120.467 75.1291 120.257 75.2101C120.14 75.2555 120.027 75.3203 119.963 75.4272C119.907 75.5212 119.897 75.6313 119.893 75.7382C119.893 75.7447 119.893 75.748 119.893 75.7544C119.81 75.7188 119.73 75.6832 119.653 75.6475C119.613 75.4564 119.583 75.2652 119.573 75.0708C119.553 74.6788 119.58 74.2219 119.267 73.9757C119.047 73.804 118.737 73.8202 118.483 73.9498C118.763 72.5728 119.633 70.1687 122.33 67.9525C136.23 69.971 145.28 60.0307 148.62 53.2624C150.687 49.0698 150.923 45.6419 149.22 44.5306L149.21 44.5176ZM103.087 38.7277C103.883 34.438 105.497 32.481 106.333 32.5102C108.177 32.5717 108.9 34.1982 109.187 35.3549C108.897 36.3204 104.713 50.7416 110.92 59.1365C112.003 60.6042 112.76 61.9715 113.3 63.248C102.943 57.0726 101.85 45.3924 103.09 38.731L103.087 38.7277ZM116.917 79.9632C116.81 79.8854 116.71 79.8142 116.607 79.7396C116.687 79.7623 116.767 79.785 116.847 79.8044C116.87 79.8563 116.893 79.9081 116.917 79.96V79.9632ZM126.407 102.588C125.047 104.626 124.133 106.897 123.707 109.256C123.233 109.275 123.007 109.557 122.913 109.852C122.82 110.147 122.827 110.461 122.787 110.766C122.653 111.754 121.977 112.655 121.047 113.076C120.463 113.338 119.76 113.452 119.367 113.948C119.253 114.09 119.17 114.265 119.02 114.372C118.843 114.502 118.607 114.515 118.393 114.579C118.043 114.686 117.75 114.949 117.61 115.279C117.437 115.691 117.44 116.254 117.02 116.426C116.687 116.562 116.297 116.339 115.95 116.436C115.797 116.361 116.07 114.142 116.07 114.142C116.587 113.792 116.957 113.248 117.087 112.648C117.557 112.797 118.047 112.629 118.283 112.318C118.52 112.007 118.577 111.608 118.66 111.229C118.75 110.808 118.873 110.393 119.033 109.992C119.13 109.745 119.243 109.499 119.273 109.237C119.293 109.052 119.267 108.851 119.137 108.718C119.007 108.582 118.753 108.556 118.637 108.702C118.383 107.795 118.59 106.865 119.093 106.12C119.313 105.792 119.59 105.498 119.783 105.154C120.183 104.451 120.213 103.599 120.077 102.805C120.017 102.459 119.927 102.112 119.943 101.762C119.957 101.503 120.027 101.253 120.067 100.997C120.183 100.284 120.073 99.5587 119.963 98.8427C119.837 98.0132 119.653 97.0898 118.95 96.6038C118.707 96.4354 118.42 96.3349 118.16 96.1891C117.713 95.9364 117.36 95.5573 116.987 95.2106C116.24 94.514 115.367 93.9179 114.37 93.6554C113.373 93.393 112.237 93.5064 111.413 94.1155C111.177 94.2905 110.95 94.5108 110.66 94.5626C110.497 94.5918 110.333 94.5626 110.167 94.5497C109.373 94.4784 108.553 94.6922 107.907 95.1426C107.35 95.5282 106.927 96.0692 106.373 96.458C106.143 96.6168 105.897 96.7529 105.677 96.9246C105.407 97.1352 105.187 97.3976 104.97 97.6601C104.203 98.5835 103.427 99.5231 102.993 100.631C102.18 102.708 102.683 105.034 103.283 107.182C103.02 107.289 102.717 107.578 102.497 107.924C102.277 108.271 102.15 108.692 102.237 109.091C102.333 109.541 102.683 109.907 102.783 110.354C102.823 110.529 102.823 110.711 102.887 110.879C103.007 111.187 103.333 111.388 103.663 111.453C103.997 111.518 104.34 111.472 104.677 111.427C105.597 112.567 105.497 114.061 106.103 115.276C105.59 115.299 105.49 114.926 105.21 114.874C105.123 114.858 105.03 114.881 104.943 114.874C104.693 114.864 104.49 114.664 104.37 114.45C104.25 114.236 104.177 113.993 104.033 113.795C103.733 113.384 103.16 113.209 102.897 112.771C102.71 112.464 102.713 112.081 102.553 111.761C102.393 111.44 102.08 111.2 101.953 110.866C101.85 110.594 101.88 110.29 101.807 110.008C101.753 109.794 101.64 109.596 101.58 109.386C101.403 108.754 101.687 108.009 101.32 107.458C101.103 104.652 100.697 102.031 100.13 99.4421C100.98 97.4333 101.797 95.4893 102.617 93.5485C103.507 91.436 104.397 89.3203 105.327 87.224C106.363 84.888 107.47 82.5422 109.117 80.5658C110.397 80.433 111.823 80.1511 112.703 79.1986C112.85 79.0398 112.977 78.8681 113.103 78.6964C113.447 78.8098 113.77 78.9134 114.057 79.0009C114.273 79.069 114.513 79.1435 114.767 79.2212C114.73 79.286 114.703 79.3541 114.69 79.4254C114.653 79.6327 114.707 79.8433 114.773 80.0442C115.087 80.9644 115.753 81.7452 116.53 82.3543C117.307 82.9634 118.197 83.4235 119.083 83.8706C119.533 83.9484 119.727 84.2335 119.883 84.496C123.157 90.059 124.043 96.6233 126.403 102.608L126.407 102.588ZM147.26 52.6176C144.243 58.7347 136.29 67.6026 124.137 66.6727C125.347 65.9405 126.793 65.2568 128.563 64.6834C138.423 61.4887 143.71 47.9779 144.267 46.4843C145.183 45.6937 146.8 44.7023 148.377 45.7326C149.073 46.1862 149.197 48.6875 147.26 52.6208V52.6176Z" fill="#F1F1F1"/>
<path d="M255.78 95.2268C255.423 93.1565 253.877 91.4944 252.37 89.991C248.097 85.7207 243.597 81.6674 238.89 77.8507C238.973 75.0416 238.643 72.5306 237.777 70.2043C237.663 68.8597 237.85 67.8683 238.22 66.9416C238.37 66.5658 238.55 66.1997 238.64 65.8044C238.73 65.4091 238.713 64.975 238.493 64.6348C238.417 64.5149 238.31 64.408 238.173 64.3658C237.823 64.2524 237.5 64.5894 237.303 64.8907C236.843 65.6068 236.47 66.3779 236.193 67.1782C236.083 66.3682 236.3 65.704 236.447 65.0236C236.593 64.3464 236.673 63.6336 236.497 62.9629C236.447 62.7782 236.37 62.5806 236.2 62.4834C236.04 62.3894 235.83 62.4056 235.657 62.4802C235.483 62.5547 235.343 62.681 235.203 62.8074C235.057 62.5028 234.957 62.2501 234.767 62.0622C234.58 61.8775 234.283 61.7706 234.033 61.8646C234.1 61.5244 234.143 61.1161 233.88 60.8828C233.647 60.6787 233.267 60.7176 233.01 60.8926C232.753 61.0675 232.59 61.3429 232.437 61.6086C232.113 61.317 231.743 61.3008 231.457 61.4207C231.17 61.5406 230.947 61.7641 230.73 61.9844C230.287 62.4348 229.843 62.8884 229.397 63.3388C229.283 63.1735 229.07 62.9791 228.85 62.95C228.63 62.924 228.413 63.018 228.22 63.1249C227.83 63.342 227.473 63.6174 227.133 63.9058C226.057 64.8194 225.07 65.9761 224.91 67.3596C224.297 68.5616 223.887 69.7928 223.613 71.0532C223.32 72.4075 223.183 73.804 222.667 75.0935C222.283 76.046 221.7 76.9079 221.137 77.7697C219.803 79.8044 218.543 81.8845 217.36 84.0035C215.953 86.521 214.647 89.1032 213.743 91.8313C212.247 96.3511 211.873 101.198 210.033 105.595C209.2 106.693 208.54 107.623 208.363 108.696C208.31 109.023 208.3 109.353 208.247 109.68C208.193 109.995 208.1 110.299 208.003 110.604L207.437 112.431C206.813 114.434 206.193 116.604 206.917 118.578C207.117 123.729 207.897 128.852 209.053 133.89C209.677 136.602 210.413 139.339 210.253 142.116C210.05 145.69 208.373 149.082 208.253 152.659C208.213 153.819 208.34 154.985 208.17 156.136C207.803 158.611 206.133 161.284 207.52 163.393H242.683C243.243 159.431 242.87 155.368 243.14 151.363C243.663 143.678 246.577 136.245 246.633 128.544C247.89 126.175 248.687 124.248 249.48 122.316C249.91 121.273 250.343 120.223 251.003 119.303C251.313 118.869 251.68 118.461 251.88 117.968C252.083 117.469 252.103 116.915 252.247 116.397C252.413 115.801 252.74 115.26 252.97 114.686C253.5 113.342 253.47 111.861 253.433 110.422C254.34 107.96 254.76 106.444 255.013 104.425C255.283 102.284 255.653 99.8244 255.803 97.78C255.867 96.9311 255.927 96.0757 255.783 95.2366L255.78 95.2268ZM245.197 97.0963C245.13 97.8188 244.65 98.428 244.25 99.0403C243.047 100.89 242.473 103.123 242.39 105.242C241.39 105.76 241.78 107.438 240.863 108.086C240.71 108.197 240.53 108.265 240.39 108.391C239.97 108.777 240.067 109.554 239.567 109.83C239.39 109.927 239.167 109.94 239.01 110.063C238.687 110.319 238.833 110.866 238.563 111.174C238.327 111.443 237.863 111.43 237.637 111.705C237.437 111.948 237.467 112.36 237.18 112.503C237.027 112.577 236.823 112.545 236.7 112.661C236.62 112.739 236.6 112.856 236.567 112.963C236.39 113.51 235.747 113.75 235.183 113.918C235.153 113.685 235.2 113.4 235.247 113.115C235.31 112.723 235.377 112.324 235.557 111.968C235.823 111.433 236.317 111.045 236.703 110.581C237.837 109.224 237.947 107.147 236.96 105.682C237.427 103.887 236.947 101.93 236.07 100.252C235.693 99.5328 235.25 98.8492 234.803 98.1688C234.573 97.8188 234.337 97.4592 234.003 97.2032C233.703 96.9732 233.34 96.8339 233.047 96.5974C232.757 96.3608 232.54 96.0304 232.207 95.8586C231.753 95.6254 231.203 95.7323 230.697 95.6513C230.32 95.593 229.973 95.4277 229.603 95.3338C229.057 95.1977 228.48 95.2268 227.923 95.3046C225.393 95.6642 223.053 97.1352 221.673 99.2282C221.233 99.8957 220.883 100.644 220.857 101.269C220.407 99.4615 220.85 97.5499 221.563 95.823C222.277 94.0961 223.257 92.4826 223.953 90.7492C224.93 88.3127 225.32 85.6948 226.037 83.1708C226.753 80.6501 227.88 78.1164 230.253 76.3279C230.873 78.1715 232.33 79.6133 233.663 81.0583C236.403 84.0262 238.787 87.2824 241.167 90.5288C242.18 91.9091 243.19 93.2926 244.203 94.6728C244.733 95.3953 245.287 96.2021 245.203 97.0834L245.197 97.0963Z" fill="#F1F1F1"/>
</g>
</g>
<defs>
<clipPath id="clip0_1_64">
<rect width="250" height="162" fill="white"/>
</clipPath>
</defs>
</svg>
