<svg width="18" height="18" viewBox="0 0 18 18" fill="none" xmlns="http://www.w3.org/2000/svg">
<path d="M14.8001 5.38789C12.802 5.18989 10.792 5.08789 8.78803 5.08789C7.60002 5.08789 6.41201 5.14789 5.22401 5.26789L4 5.38789" stroke="#E74646" stroke-linecap="round" stroke-linejoin="round"/>
<path d="M7.29999 4.78201L7.43199 3.99601C7.52799 3.426 7.59999 3 8.61399 3H10.186C11.2 3 11.278 3.45 11.368 4.00201L11.5 4.78201" stroke="#E74646" stroke-linecap="round" stroke-linejoin="round"/>
<path d="M13.51 7.28418L13.12 13.3262C13.054 14.2682 13 15.0002 11.3259 15.0002H7.47393C5.79992 15.0002 5.74592 14.2682 5.67992 13.3262L5.28992 7.28418" stroke="#E74646" stroke-linecap="round" stroke-linejoin="round"/>
<path d="M8.39813 11.7002H10.3961" stroke="#E74646" stroke-linecap="round" stroke-linejoin="round"/>
<path d="M7.90009 9.2998H10.9001" stroke="#E74646" stroke-linecap="round" stroke-linejoin="round"/>
</svg>
