<svg width="18" height="18" viewBox="0 0 18 18" fill="none" xmlns="http://www.w3.org/2000/svg">
<path d="M15.5 10.775V6.725C15.5 3.35 14.15 2 10.775 2H6.725C3.35 2 2 3.35 2 6.725V10.775C2 14.15 3.35 15.5 6.725 15.5H10.775C14.15 15.5 15.5 14.15 15.5 10.775Z" stroke="#FCFCFC" stroke-opacity="0.5" stroke-linecap="round" stroke-linejoin="round"/>
<path d="M2.35107 5.44922H15.1491" stroke="#FCFCFC" stroke-opacity="0.5" stroke-linecap="round" stroke-linejoin="round"/>
<path d="M6.40112 2.07422V5.35472" stroke="#FCFCFC" stroke-opacity="0.5" stroke-linecap="round" stroke-linejoin="round"/>
<path d="M11.0989 2.07422V5.05097" stroke="#FCFCFC" stroke-opacity="0.5" stroke-linecap="round" stroke-linejoin="round"/>
<path d="M7.2312 10.4036V9.59358C7.2312 8.55408 7.96695 8.12883 8.8647 8.64858L9.5667 9.05358L10.2687 9.45858C11.1665 9.97833 11.1665 10.8288 10.2687 11.3486L9.5667 11.7536L8.8647 12.1586C7.96695 12.6783 7.2312 12.2531 7.2312 11.2136V10.4036V10.4036Z" stroke="#FCFCFC" stroke-opacity="0.5" stroke-miterlimit="10" stroke-linecap="round" stroke-linejoin="round"/>
</svg>
