<svg width="24" height="24" viewBox="0 0 24 24" fill="none" xmlns="http://www.w3.org/2000/svg">
<path d="M5.26832 9.59418C5.0947 9.42056 5 9.19959 5 8.93916C5 8.4183 5.41037 8.00004 5.93123 8.00004C6.19166 8.00004 6.42841 8.11053 6.60992 8.29204L12.0079 13.8163L17.3901 8.29204C17.5716 8.11053 17.8162 8.00004 18.0688 8.00004C18.5896 8.00004 19 8.4183 19 8.93916C19 9.19959 18.9053 9.42056 18.7317 9.59418L12.7339 15.734C12.5287 15.9549 12.2762 16.0575 12 16.0654C11.7238 16.0654 11.487 15.9549 11.274 15.734L5.26832 9.59418Z" fill="#FCFCFC"/>
</svg>
