<svg width="18" height="18" viewBox="0 0 18 18" fill="none" xmlns="http://www.w3.org/2000/svg">
<path d="M8.69965 2.86768H7.3664C4.03327 2.86768 2.70001 4.20093 2.70001 7.53406V11.5338C2.70001 14.867 4.03327 16.2002 7.3664 16.2002H11.3662C14.6993 16.2002 16.0325 14.867 16.0325 11.5338V10.2006" stroke="#FCFCFC" stroke-opacity="0.5" stroke-linecap="round" stroke-linejoin="round"/>
<path d="M12.0593 3.54763L6.80633 8.80065C6.60634 9.00064 6.40635 9.39395 6.36636 9.68059L6.07971 11.6871C5.97305 12.4138 6.48635 12.9204 7.21297 12.8204L9.21952 12.5338C9.4995 12.4938 9.89281 12.2938 10.0995 12.0938L15.3525 6.84077C16.2591 5.93415 16.6857 4.88088 15.3525 3.54763C14.0192 2.21438 12.966 2.64102 12.0593 3.54763Z" stroke="#FCFCFC" stroke-opacity="0.5" stroke-miterlimit="10" stroke-linecap="round" stroke-linejoin="round"/>
<path d="M11.3063 4.30078C11.7529 5.89402 12.9995 7.14061 14.5994 7.59392" stroke="#FCFCFC" stroke-opacity="0.5" stroke-miterlimit="10" stroke-linecap="round" stroke-linejoin="round"/>
</svg>
