<svg width="14" height="14" viewBox="0 0 14 14" fill="none" xmlns="http://www.w3.org/2000/svg">
<path d="M6.41663 1.16663H5.24996C2.33329 1.16663 1.16663 2.33329 1.16663 5.24996V8.74996C1.16663 11.6666 2.33329 12.8333 5.24996 12.8333H8.74996C11.6666 12.8333 12.8333 11.6666 12.8333 8.74996V7.58329" stroke="white" stroke-linecap="round" stroke-linejoin="round"/>
<path d="M9.35672 1.76169L4.76005 6.35836C4.58505 6.53336 4.41005 6.87753 4.37505 7.12836L4.12422 8.88419C4.03088 9.52002 4.48005 9.96336 5.11588 9.87586L6.87172 9.62503C7.11672 9.59003 7.46088 9.41503 7.64172 9.24003L12.2384 4.64336C13.0317 3.85003 13.4051 2.92836 12.2384 1.76169C11.0717 0.595025 10.1501 0.968359 9.35672 1.76169Z" stroke="white" stroke-miterlimit="10" stroke-linecap="round" stroke-linejoin="round"/>
<path d="M8.69751 2.42078C9.08834 3.81494 10.1792 4.90578 11.5792 5.30244" stroke="white" stroke-miterlimit="10" stroke-linecap="round" stroke-linejoin="round"/>
</svg>
