<svg width="18" height="18" viewBox="0 0 18 18" fill="none" xmlns="http://www.w3.org/2000/svg">
<path d="M6.725 15.5H10.775C14.15 15.5 15.5 14.15 15.5 10.775V6.725C15.5 3.35 14.15 2 10.775 2H6.725C3.35 2 2 3.35 2 6.725V10.775C2 14.15 3.35 15.5 6.725 15.5Z" stroke="#FCFCFC" stroke-opacity="0.5" stroke-linecap="round" stroke-linejoin="round"/>
<path d="M6.725 7.4002C7.47058 7.4002 8.075 6.79578 8.075 6.0502C8.075 5.30461 7.47058 4.7002 6.725 4.7002C5.97942 4.7002 5.375 5.30461 5.375 6.0502C5.375 6.79578 5.97942 7.4002 6.725 7.4002Z" stroke="#FCFCFC" stroke-opacity="0.5" stroke-linecap="round" stroke-linejoin="round"/>
<path d="M2.45215 13.441L5.7799 11.2067C6.31315 10.849 7.08265 10.8895 7.5619 11.3012L7.78465 11.497C8.31115 11.9492 9.16165 11.9492 9.68815 11.497L12.4961 9.08723C13.0226 8.63498 13.8731 8.63498 14.3996 9.08723L15.4999 10.0322" stroke="#FCFCFC" stroke-opacity="0.5" stroke-linecap="round" stroke-linejoin="round"/>
</svg>
