<svg width="203" height="188" viewBox="0 0 203 188" fill="none" xmlns="http://www.w3.org/2000/svg">
<g clip-path="url(#clip0_1_273)">
<path d="M109.625 68.1338L97.7667 52.5802C97.1625 51.7857 96.0296 51.6347 95.2379 52.2389C94.4462 52.8432 94.2896 53.9761 94.8966 54.7706L106.755 70.3242C91.6936 71.7453 72.7914 65.0735 63.4089 52.8208C54.0767 40.5262 52.6472 20.533 58.0071 6.3837L69.8653 21.9373C70.4696 22.729 71.6025 22.8829 72.3942 22.2786C73.1859 21.6744 73.3397 20.5414 72.7355 19.7497L60.8772 4.19612C75.9385 2.77503 94.8406 9.44687 104.223 21.6995C113.555 33.9886 114.985 53.9845 109.625 68.1338Z" fill="black"/>
<path d="M152.062 90.3845C172.534 90.3845 189.131 73.7883 189.131 53.3159C189.131 32.8435 172.534 16.2474 152.062 16.2474C131.59 16.2474 114.993 32.8435 114.993 53.3159C114.993 73.7883 131.59 90.3845 152.062 90.3845Z" fill="black"/>
<path d="M36.453 61.4228C47.1596 61.4228 55.8391 52.7434 55.8391 42.0368C55.8391 31.3301 47.1596 22.6507 36.453 22.6507C25.7463 22.6507 17.0669 31.3301 17.0669 42.0368C17.0669 52.7434 25.7463 61.4228 36.453 61.4228Z" fill="black"/>
<path d="M69.9829 95.5205C69.9829 75.8043 54.4209 59.8227 35.225 59.8227C16.0292 59.8227 0.464355 75.8043 0.464355 95.5205C0.464355 109.247 8.00898 121.164 19.0728 127.137H51.3745C62.4355 121.164 69.9829 109.247 69.9829 95.5205Z" fill="black"/>
<path d="M152.062 16.2502C131.59 16.2502 114.993 32.8444 114.993 53.3187C114.993 73.793 131.59 90.3845 152.062 90.3845C172.533 90.3845 189.131 73.7874 189.131 53.3159C189.131 32.8444 172.533 16.2502 152.062 16.2502ZM182.836 39.4184C175.149 39.6785 164.751 41.9752 154.25 50.2416C152.647 51.5032 150.487 51.7885 148.599 51.0165C145.997 49.9506 143.636 48.7533 141.496 47.4693C140.128 46.6469 139.787 44.823 140.763 43.5585C145.026 38.0309 152.703 32.229 161.428 30.047C167.372 28.5588 172.975 29.0484 177.79 31.4485C179.815 33.8263 181.522 36.5035 182.836 39.4184ZM155.738 19.7246C162.899 20.5106 169.526 23.5822 174.727 28.2903C170.489 27.0706 165.836 27.0538 160.983 28.2651C151.751 30.5729 143.622 36.772 139.155 42.6494C138.237 43.8551 136.492 44.0425 135.333 43.0634C134.427 42.2969 133.577 41.5192 132.782 40.7388C131.971 39.9387 131.767 38.7106 132.265 37.6868C134.206 33.6809 138.134 29.1798 142.87 25.6551C147.264 22.3849 151.743 20.3456 155.738 19.7246ZM146.736 19.9484C147.715 19.7917 148.688 19.6826 149.659 19.6127C147.06 20.7009 144.394 22.2339 141.773 24.1837C137.683 27.2244 134.231 30.8779 131.971 34.4474C130.955 36.0475 128.642 36.1258 127.554 34.5733C126.938 33.6977 126.384 32.8389 125.881 32.0024C130.939 25.7754 138.212 21.3107 146.736 19.9484ZM124.689 33.5634C128.759 40.087 135.946 47.9365 148.344 52.8907C150.238 53.6488 151.567 55.3776 151.841 57.3974C152.219 60.1836 152.364 62.8271 152.319 65.3224C152.291 66.9198 150.881 68.1255 149.298 67.9128C142.38 66.9869 133.515 63.2384 127.263 56.7735C123.002 52.3676 120.625 47.2707 120.295 41.9025C121.369 38.9232 122.851 36.1146 124.689 33.5634ZM148.123 83.8441C147.67 84.8204 147.2 85.738 146.724 86.594C137.504 85.1086 129.313 79.8326 124.121 72.1901C126.362 73.8965 129.02 75.4323 132.016 76.7275C136.696 78.7472 141.586 79.911 145.804 80.0844C147.698 80.1599 148.92 82.1265 148.123 83.8441ZM132.743 75.0435C127.713 72.8699 123.705 70.0109 121.17 66.861C120.034 64.279 119.206 61.5124 118.739 58.6002C118.057 54.323 118.213 50.0989 119.086 46.1014C120.146 50.3954 122.46 54.4461 125.945 58.052C132.561 64.8916 141.994 68.8332 149.318 69.7647C150.823 69.955 151.855 71.3732 151.586 72.8671C151.377 74.0336 151.128 75.1581 150.848 76.2407C150.563 77.3429 149.6 78.1346 148.464 78.2157C144.025 78.5346 138.162 77.3849 132.743 75.0435ZM158.088 86.4765C157.855 86.5185 157.623 86.5604 157.388 86.5968C154.437 87.0695 151.514 87.1395 148.671 86.8513C152.291 80.0648 155.503 69.9102 153.592 56.684C153.301 54.6671 154.135 52.6501 155.746 51.4025C157.97 49.6821 160.188 48.2358 162.37 47.0245C163.766 46.2525 165.518 46.8679 166.125 48.3421C168.782 54.7986 169.968 64.3489 167.495 72.9957C165.808 78.8955 162.577 83.5056 158.088 86.4765ZM179.303 73.1636C175.177 78.8172 169.305 83.1979 162.334 85.4219C165.526 82.3559 167.879 78.3276 169.258 73.5021C171.982 63.9797 170.458 53.3831 167.358 46.5881C166.944 45.679 167.372 44.6076 168.304 44.2467C169.753 43.6872 171.174 43.2229 172.556 42.8396C173.652 42.5347 174.819 42.9739 175.46 43.9166C177.96 47.6008 179.893 53.2516 180.576 59.1178C181.205 64.528 180.741 69.4011 179.303 73.1636ZM182.397 58.908C181.807 53.8446 180.369 49.0303 178.408 45.2874C177.53 43.6089 178.618 41.5668 180.506 41.3989C181.58 41.3038 182.61 41.2535 183.589 41.2339C184.403 43.3627 185.01 45.6091 185.382 47.9449C186.515 55.0335 185.34 61.9683 182.414 67.9828C182.772 65.1966 182.775 62.1362 182.397 58.908Z" fill="white"/>
<path d="M58.2645 0.867199C57.6519 0.959514 57.084 1.20289 56.6057 1.56655C56.1273 1.93022 55.7413 2.41417 55.4923 2.97925C48.2722 19.3385 50.4374 41.7011 60.5332 55C70.6907 68.2653 91.6825 76.2771 109.371 73.6475C109.983 73.5552 110.551 73.3118 111.029 72.9482C111.508 72.5845 111.894 72.1006 112.143 71.5355C119.363 55.1762 117.198 32.8109 107.102 19.5148C96.9416 6.24943 75.9498 -1.76237 58.2645 0.867199ZM109.625 68.1338L97.7668 52.5802C97.1626 51.7857 96.0296 51.6347 95.238 52.2389C94.4463 52.8432 94.2897 53.9761 94.8967 54.7706L106.755 70.3242C91.6936 71.7453 72.7915 65.0735 63.409 52.8208C54.0768 40.5261 52.6473 20.533 58.0072 6.3837L69.8654 21.9373C70.4697 22.729 71.6026 22.8829 72.3943 22.2786C73.186 21.6744 73.3398 20.5414 72.7356 19.7497L60.8773 4.19612C75.9386 2.77504 94.8407 9.44687 104.223 21.6995C113.555 33.9886 114.985 53.9845 109.625 68.1338ZM82.3503 24.483C83.142 23.8787 83.2958 22.7458 82.6916 21.9513C82.0873 21.1568 80.9544 21.0058 80.1599 21.61L69.6948 29.5883C68.9003 30.1925 68.7493 31.3254 69.3535 32.1199C69.9577 32.9144 71.0907 33.0654 71.8852 32.4612L75.6812 29.5659L78.6857 33.5074L74.8896 36.4028C74.0951 37.007 73.944 38.14 74.5483 38.9344C75.1525 39.7289 76.2855 39.8799 77.08 39.2757L80.876 36.3804L83.8805 40.3219L80.0844 43.2173C79.2899 43.8215 79.1388 44.9545 79.7431 45.7489C80.3473 46.5434 81.4803 46.6944 82.2747 46.0902L86.0708 43.1949L89.0753 47.1364L85.2792 50.0318C84.4875 50.636 84.3337 51.769 84.9379 52.5634C85.5421 53.3579 86.6751 53.5089 87.4696 52.9047L97.9347 44.9265C98.7291 44.3222 98.8802 43.1893 98.276 42.3948C97.6717 41.6032 96.5388 41.4493 95.7443 42.0535L91.9482 44.9489L88.941 41.0073L92.7399 38.112C93.5316 37.5077 93.6854 36.3748 93.0812 35.5803C92.4769 34.7859 91.344 34.6348 90.5495 35.239L86.7534 38.1344L83.749 34.1928L87.5451 31.2975C88.3368 30.6932 88.4906 29.5603 87.8864 28.7658C87.2821 27.9713 86.1464 27.8203 85.3547 28.4245L81.5586 31.3199L78.5542 27.3783L82.3503 24.483Z" fill="white"/>
<path d="M19.47 32.7941L45.5112 59.1793C38.1596 63.0509 28.8498 61.8592 22.7095 55.6406C16.5719 49.4191 15.5033 40.0953 19.47 32.7941Z" fill="white"/>
<path d="M20.6002 30.9646L22.1528 31.3954L21.9626 32.0863L20.1834 31.594C20.0519 31.7982 19.9261 32.0024 19.803 32.2094L46.1015 58.8548C46.5267 58.6114 46.9435 58.3513 47.3519 58.0743L45.8021 57.6463L45.9924 56.9554L48.1016 57.54C48.5464 57.2043 48.9828 56.8491 49.4052 56.4714L22.2339 28.9393C21.6353 29.5855 21.0926 30.2624 20.6002 30.9646ZM46.4707 56.035L46.2805 56.726L44.3699 56.1973L44.5601 55.5063L46.4707 56.035ZM45.0385 54.586L44.8482 55.2769L42.9376 54.7482L43.1278 54.0572L45.0385 54.586ZM43.609 53.1369L43.4188 53.8279L41.5081 53.2991L41.6983 52.6082L43.609 53.1369ZM42.1795 51.6878L41.9893 52.3788L40.0786 51.8501L40.2689 51.1591L42.1795 51.6878ZM40.7472 50.2388L40.557 50.9297L38.6464 50.401L38.8366 49.7101L40.7472 50.2388ZM39.3177 48.7869L39.1275 49.4779L37.2169 48.9492L37.4071 48.2582L39.3177 48.7869ZM37.8883 47.3379L37.698 48.0288L35.7874 47.5001L35.9776 46.8091L37.8883 47.3379ZM36.456 45.8888L36.2658 46.5798L34.3551 46.051L34.5454 45.3601L36.456 45.8888ZM35.0265 44.4397L34.8363 45.1307L32.9256 44.602L33.1159 43.911L35.0265 44.4397ZM33.597 42.9907L33.4068 43.6816L31.4962 43.1529L31.6864 42.462L33.597 42.9907ZM32.1648 41.5416L31.9745 42.2326L30.0639 41.7039L30.2541 41.0129L32.1648 41.5416ZM30.7353 40.0926L30.5451 40.7835L28.6344 40.2548L28.8246 39.5638L30.7353 40.0926ZM29.3058 38.6435L29.1156 39.3344L27.2049 38.8057L27.3952 38.1148L29.3058 38.6435ZM27.8735 37.1916L27.6833 37.8826L25.7727 37.3539L25.9629 36.6629L27.8735 37.1916ZM26.444 35.7426L26.2538 36.4335L24.3432 35.9048L24.5334 35.2139L26.444 35.7426ZM25.0146 34.2935L24.8243 34.9845L22.9137 34.4558L23.1039 33.7648L25.0146 34.2935ZM23.5823 32.8444L23.3921 33.5354L21.4814 33.0067L21.6717 32.3157L23.5823 32.8444Z" fill="white"/>
<path d="M26.2649 25.5908L26.7349 27.3783L26.0411 27.5601L25.6327 26.002C24.9221 26.4831 24.2396 27.0174 23.585 27.6049L50.7563 55.137C51.1227 54.737 51.4724 54.3258 51.7997 53.9034L51.285 51.7298L51.9787 51.548L52.3871 53.1033C52.6697 52.7005 52.9326 52.2893 53.1788 51.8697L26.8775 25.2215C26.6705 25.339 26.4663 25.4621 26.2649 25.5908ZM51.05 52.0151L50.3562 52.197L49.8527 50.2807L50.5464 50.0989L51.05 52.0151ZM49.6205 50.5661L48.9267 50.7479L48.4232 48.8317L49.117 48.6498L49.6205 50.5661ZM48.191 49.117L47.4973 49.2988L46.9937 47.3826L47.6875 47.2008L48.191 49.117ZM46.7587 47.6679L46.065 47.8498L45.5615 45.9335L46.2552 45.7517L46.7587 47.6679ZM45.3293 46.2189L44.6355 46.4007L44.132 44.4845L44.8257 44.3027L45.3293 46.2189ZM43.8998 44.7698L43.206 44.9517L42.7025 43.0354L43.3963 42.8536L43.8998 44.7698ZM42.4675 43.3208L41.7738 43.5026L41.2702 41.5864L41.964 41.4045L42.4675 43.3208ZM41.038 41.8689L40.3443 42.0507L39.8407 40.1345L40.5345 39.9527L41.038 41.8689ZM39.6086 40.4198L38.9148 40.6017L38.4113 38.6854L39.105 38.5036L39.6086 40.4198ZM38.1763 38.9708L37.4825 39.1526L36.979 37.2364L37.6727 37.0546L38.1763 38.9708ZM36.7468 37.5217L36.053 37.7036L35.5495 35.7873L36.2433 35.6055L36.7468 37.5217ZM35.3173 36.0727L34.6236 36.2545L34.12 34.3383L34.8138 34.1564L35.3173 36.0727ZM33.885 34.6236L33.1913 34.8054L32.6877 32.8892L33.3815 32.7074L33.885 34.6236ZM32.4556 33.1745L31.7618 33.3564L31.2583 31.4401L31.952 31.2583L32.4556 33.1745ZM31.0261 31.7255L30.3323 31.9073L29.8288 29.9911L30.5226 29.8093L31.0261 31.7255ZM29.5938 30.2736L28.9 30.4555L28.3965 28.5392L29.0903 28.3574L29.5938 30.2736ZM28.1643 28.8246L27.4706 29.0064L26.967 27.0902L27.6608 26.9083L28.1643 28.8246Z" fill="white"/>
<path d="M50.2751 28.4357C56.4154 34.6572 57.484 43.9865 53.5117 51.2878L27.4678 24.8998C34.8194 21.0226 44.1348 22.2115 50.2751 28.4357Z" fill="white"/>
<path d="M62.4608 87.1674C64.4162 87.1674 66.5058 86.745 68.7046 85.9114C66.9394 79.4158 63.4315 73.6699 58.7318 69.2332C58.5416 73.7678 57.8339 79.3571 55.9932 85.4219C57.9849 86.5828 60.1557 87.1674 62.4608 87.1674Z" fill="white"/>
<path d="M53.856 83.9029C55.7134 77.4884 56.2561 71.6194 56.3009 67.1436C52.4377 64.114 47.9394 61.8928 43.0439 60.7375C44.0566 66.0833 47.0079 78.0982 53.856 83.9029Z" fill="white"/>
<path d="M69.306 88.485C66.9198 89.3634 64.6315 89.811 62.4607 89.811C59.8731 89.811 57.4281 89.1844 55.1706 87.9451C54.0489 91.1538 52.6641 94.2589 51.0444 97.213C56.3539 102.26 61.0872 107.723 65.2161 113.569C68.2429 108.274 69.9829 102.108 69.9829 95.5233C69.9829 93.1148 69.7479 90.7621 69.306 88.485Z" fill="white"/>
<path d="M53.0278 86.5408C44.4426 79.9529 41.3011 65.3728 40.4339 60.2283C38.733 59.9654 36.9931 59.8283 35.2195 59.8283C25.1768 59.8283 16.1327 64.2035 9.7854 71.1942C20.3456 75.3652 35.281 82.8482 49.1478 95.4506C50.678 92.6112 51.976 89.6236 53.0278 86.5408Z" fill="white"/>
<path d="M49.7268 99.4957C47.4301 103.283 44.6943 106.853 41.5751 110.137L41.5835 110.145L41.5583 110.171C45.2118 114.728 47.0637 120.518 47.0217 127.143H51.3493C56.3119 124.465 60.5724 120.599 63.7586 115.905C59.6884 110.039 55.0055 104.553 49.7268 99.4957Z" fill="white"/>
<path d="M18.1189 126.608C18.435 126.793 18.7539 126.969 19.0756 127.143H44.5713C44.63 121.156 43.0215 116.068 39.7597 111.975C33.8404 117.735 26.5951 122.627 18.1189 126.608Z" fill="white"/>
<path d="M39.8465 108.254C42.9264 105.012 45.6119 101.485 47.8499 97.7389C33.7565 84.84 18.4854 77.3569 8.00628 73.3119C3.28144 79.4074 0.456055 87.1255 0.456055 95.5233C0.456055 96.2003 0.475637 96.8717 0.512003 97.5403C1.57782 97.5123 2.62405 97.5011 3.64791 97.5011C20.5835 97.5011 32.7522 101.118 39.8465 108.254Z" fill="white"/>
<path d="M3.64801 100.145C2.70248 100.145 1.73458 100.159 0.752686 100.181C2.05348 110.436 7.59516 119.324 15.509 124.93C24.416 120.946 31.9634 115.975 38.0478 110.07C31.4123 103.485 19.8506 100.145 3.64801 100.145Z" fill="white"/>
<path d="M195.939 130.449H7.09985V187.933H195.939V130.449Z" fill="white"/>
<path d="M40.02 153.9H29.5884V150.258C29.5884 147.961 29.4905 146.523 29.2919 145.947C29.0933 145.368 28.6233 145.08 27.8792 145.08C27.2358 145.08 26.7966 145.329 26.5672 145.824C26.3351 146.319 26.2204 147.592 26.2204 149.639V168.894C26.2204 170.695 26.3351 171.879 26.5672 172.449C26.7994 173.02 27.261 173.305 27.9548 173.305C28.7157 173.305 29.2304 172.984 29.5045 172.34C29.7759 171.697 29.9129 170.441 29.9129 168.572V163.814H27.8065V157.718H40.0228V179.253H33.4657L32.5006 176.377C31.79 177.616 30.892 178.545 29.8094 179.166C28.7268 179.784 27.4484 180.095 25.977 180.095C24.223 180.095 22.5837 179.67 21.0535 178.819C19.5233 177.969 18.3624 176.914 17.568 175.658C16.7735 174.402 16.2783 173.084 16.0797 171.705C15.8811 170.326 15.7832 168.256 15.7832 165.498V153.578C15.7832 149.746 15.9902 146.962 16.4014 145.228C16.8155 143.493 17.9988 141.904 19.9569 140.458C21.9151 139.012 24.4468 138.29 27.5519 138.29C30.6067 138.29 33.144 138.92 35.1609 140.173C37.175 141.429 38.4898 142.92 39.0997 144.646C39.7095 146.372 40.0172 148.878 40.0172 152.168V153.9H40.02Z" fill="black"/>
<path d="M62.0943 139.132L68.0612 179.253H57.4002L56.8408 172.041H53.109L52.4824 179.253H41.6956L47.0162 139.132H62.0943ZM56.5638 164.927C56.0351 160.384 55.5064 154.767 54.9749 148.076C53.9119 155.757 53.2433 161.374 52.9719 164.927H56.5638Z" fill="black"/>
<path d="M102.022 139.132V179.253H92.9023L92.8911 152.168L89.2601 179.253H82.7924L78.9628 152.786L78.9516 179.253H69.832V139.132H83.3324C83.7324 141.544 84.1464 144.389 84.5716 147.662L86.0542 157.867L88.4516 139.132H102.022Z" fill="black"/>
<path d="M106.21 139.132H123.607V147.161H116.644V154.77H123.162V162.401H116.644V171.224H124.301V179.253H106.21V139.132Z" fill="black"/>
<path d="M160.082 162.622C160.082 166.653 159.987 169.507 159.797 171.185C159.607 172.861 159.011 174.394 158.012 175.781C157.014 177.169 155.662 178.234 153.962 178.979C152.261 179.723 150.277 180.095 148.014 180.095C145.866 180.095 143.938 179.742 142.229 179.04C140.52 178.338 139.144 177.286 138.103 175.882C137.062 174.478 136.444 172.95 136.245 171.297C136.047 169.646 135.949 166.754 135.949 162.622V155.76C135.949 151.729 136.044 148.876 136.234 147.197C136.425 145.522 137.018 143.989 138.019 142.601C139.018 141.213 140.369 140.148 142.07 139.404C143.771 138.659 145.754 138.287 148.017 138.287C150.165 138.287 152.093 138.64 153.802 139.342C155.511 140.044 156.888 141.099 157.928 142.5C158.969 143.905 159.587 145.432 159.786 147.085C159.984 148.739 160.082 151.628 160.082 155.76V162.622ZM149.651 149.441C149.651 147.575 149.547 146.38 149.34 145.86C149.133 145.34 148.708 145.08 148.065 145.08C147.519 145.08 147.102 145.289 146.814 145.712C146.526 146.134 146.381 147.376 146.381 149.441V168.175C146.381 170.505 146.476 171.94 146.666 172.486C146.856 173.031 147.298 173.303 147.992 173.303C148.702 173.303 149.156 172.989 149.354 172.36C149.553 171.733 149.651 170.237 149.651 167.876V149.441Z" fill="black"/>
<path d="M187.267 139.132V179.253H178.123L172.696 161.014V179.253H163.973V139.132H172.696L178.545 157.198V139.132H187.267Z" fill="black"/>
<path d="M199.657 89.7131C190.605 79.1892 166.829 81.6733 147.287 96.4465C143.622 99.2187 140.095 102.162 137.143 105.675C134.279 109.085 131.837 112.898 129.887 117.005C128.362 120.211 127.143 123.607 126.228 127.143H193.903C198.865 121.492 206.88 98.1137 199.657 89.7131ZM177.574 99.6299C177.197 99.8425 176.822 100.055 176.441 100.262L174.192 101.529C173.985 101.647 173.775 101.767 173.568 101.885C173.647 102.019 173.725 102.15 173.803 102.285C174.355 103.253 174.83 104.26 175.216 105.323C175.409 105.854 175.574 106.4 175.711 106.962C175.778 107.244 175.84 107.53 175.887 107.824C175.935 108.114 175.977 108.414 175.988 108.727C175.725 108.556 175.493 108.369 175.266 108.176C175.04 107.986 174.827 107.787 174.617 107.586C174.203 107.18 173.82 106.758 173.465 106.321C172.749 105.449 172.128 104.52 171.579 103.552C171.507 103.423 171.434 103.292 171.364 103.163C170.827 103.476 170.293 103.792 169.761 104.114C169.227 104.433 168.698 104.758 168.169 105.082C168.625 105.857 169.031 106.66 169.375 107.505C169.585 108.019 169.772 108.548 169.926 109.099C170.002 109.376 170.074 109.653 170.13 109.941C170.189 110.227 170.24 110.52 170.265 110.828C169.999 110.671 169.758 110.498 169.526 110.322C169.294 110.145 169.073 109.958 168.86 109.771C168.435 109.39 168.038 108.993 167.666 108.579C167.056 107.899 166.511 107.183 166.013 106.433C164.737 107.244 163.475 108.073 162.228 108.92C162.681 109.631 163.092 110.369 163.45 111.147C163.682 111.65 163.892 112.171 164.071 112.713C164.158 112.985 164.242 113.259 164.315 113.544C164.387 113.827 164.449 114.115 164.488 114.423C164.214 114.28 163.968 114.118 163.727 113.95C163.487 113.785 163.26 113.609 163.036 113.43C162.594 113.069 162.18 112.691 161.791 112.294C161.193 111.684 160.647 111.038 160.144 110.364C158.91 111.231 157.688 112.12 156.479 113.024C157.002 113.754 157.478 114.518 157.897 115.329C158.152 115.821 158.384 116.333 158.588 116.868C158.689 117.136 158.784 117.405 158.868 117.687C158.952 117.967 159.027 118.252 159.081 118.557C158.801 118.426 158.546 118.275 158.3 118.118C158.051 117.961 157.819 117.796 157.587 117.628C157.128 117.287 156.697 116.926 156.292 116.549C155.626 115.928 155.019 115.265 154.456 114.565C153.964 114.946 153.475 115.326 152.988 115.712C152.501 116.096 152.014 116.484 151.53 116.876C151.626 116.988 151.721 117.1 151.816 117.212C152.526 118.068 153.175 118.977 153.738 119.956C154.02 120.445 154.28 120.952 154.512 121.483C154.627 121.749 154.739 122.02 154.837 122.3C154.935 122.58 155.027 122.865 155.094 123.17C154.806 123.047 154.543 122.904 154.286 122.756C154.028 122.608 153.785 122.448 153.545 122.286C153.066 121.959 152.616 121.612 152.188 121.243C151.332 120.507 150.557 119.704 149.846 118.845C149.748 118.728 149.651 118.608 149.555 118.487C149.371 118.638 149.186 118.792 149.002 118.943L147.018 120.597C146.691 120.876 146.358 121.153 146.025 121.43C145.695 121.71 145.362 121.99 145.021 122.261C145.259 121.895 145.505 121.536 145.751 121.178C146.006 120.826 146.26 120.473 146.523 120.127C146.786 119.78 147.055 119.438 147.323 119.097L148.151 118.09C148.347 117.858 148.546 117.628 148.747 117.399C148.456 116.979 148.182 116.549 147.925 116.101C147.642 115.612 147.382 115.105 147.15 114.574C147.035 114.308 146.923 114.039 146.825 113.757C146.724 113.477 146.635 113.192 146.565 112.887C146.853 113.01 147.116 113.153 147.371 113.304C147.628 113.452 147.871 113.611 148.112 113.774C148.59 114.101 149.041 114.451 149.469 114.817C149.776 115.08 150.073 115.354 150.361 115.634C150.803 115.172 151.253 114.716 151.712 114.266C152.205 113.785 152.705 113.312 153.214 112.851C152.893 112.355 152.593 111.843 152.319 111.312C152.065 110.817 151.833 110.308 151.628 109.773C151.528 109.505 151.432 109.236 151.349 108.954C151.265 108.674 151.186 108.389 151.136 108.084C151.416 108.215 151.67 108.366 151.916 108.523C152.165 108.68 152.398 108.845 152.63 109.012C153.089 109.354 153.517 109.715 153.925 110.092C154.319 110.459 154.694 110.842 155.052 111.239C156.266 110.218 157.52 109.245 158.806 108.319C158.541 107.854 158.292 107.379 158.068 106.886C157.836 106.383 157.626 105.863 157.447 105.32C157.357 105.049 157.273 104.774 157.204 104.489C157.131 104.206 157.066 103.918 157.03 103.611C157.301 103.756 157.55 103.916 157.788 104.083C158.029 104.251 158.255 104.427 158.476 104.604C158.918 104.965 159.332 105.342 159.721 105.739C160.102 106.126 160.46 106.526 160.798 106.94C162.121 106.064 163.475 105.239 164.86 104.467C164.614 103.991 164.39 103.504 164.186 103.004C163.976 102.489 163.789 101.96 163.635 101.409C163.559 101.132 163.487 100.855 163.428 100.57C163.369 100.285 163.316 99.9936 163.294 99.6859C163.559 99.8425 163.8 100.016 164.029 100.195C164.261 100.371 164.48 100.559 164.695 100.746C165.12 101.127 165.517 101.524 165.89 101.938C166.29 102.383 166.662 102.847 167.014 103.323C167.627 103.012 168.248 102.71 168.872 102.422C169.453 102.153 170.038 101.893 170.628 101.644C170.466 101.275 170.318 100.9 170.178 100.517C169.985 99.9852 169.82 99.4397 169.683 98.8774C169.616 98.5949 169.554 98.3096 169.507 98.0186C169.456 97.7277 169.417 97.4284 169.403 97.1179C169.663 97.2885 169.898 97.4759 170.125 97.6689C170.351 97.8592 170.564 98.0606 170.774 98.262C171.188 98.6676 171.571 99.09 171.926 99.5264C172.254 99.9265 172.561 100.338 172.852 100.76C173.138 100.654 173.423 100.55 173.708 100.447C174.12 100.307 174.531 100.164 174.945 100.027C175.362 99.8985 175.776 99.767 176.192 99.6411C176.609 99.5208 177.029 99.4061 177.448 99.2914C177.871 99.1879 178.293 99.0816 178.718 98.9893C178.332 99.2103 177.952 99.4201 177.574 99.6299Z" fill="white"/>
<path d="M176.178 99.6383C175.762 99.7614 175.348 99.8929 174.931 100.024C174.517 100.161 174.108 100.304 173.694 100.444C173.409 100.545 173.124 100.651 172.838 100.757C172.547 100.335 172.242 99.9237 171.912 99.5236C171.554 99.0872 171.174 98.6648 170.76 98.2592C170.55 98.0578 170.34 97.8592 170.111 97.6661C169.884 97.4731 169.652 97.2885 169.389 97.1151C169.403 97.4284 169.442 97.7249 169.493 98.0158C169.54 98.3095 169.602 98.5921 169.669 98.8746C169.806 99.4369 169.971 99.9824 170.164 100.514C170.301 100.897 170.452 101.272 170.614 101.641C170.024 101.89 169.439 102.15 168.858 102.419C168.234 102.71 167.616 103.009 167 103.32C166.65 102.844 166.276 102.38 165.876 101.935C165.504 101.521 165.109 101.124 164.681 100.743C164.466 100.556 164.247 100.368 164.015 100.192C163.783 100.013 163.545 99.8397 163.28 99.6831C163.305 99.9908 163.355 100.282 163.414 100.567C163.473 100.855 163.545 101.132 163.621 101.406C163.778 101.955 163.962 102.486 164.172 103.001C164.376 103.502 164.603 103.988 164.846 104.464C163.461 105.236 162.105 106.061 160.784 106.937C160.446 106.523 160.088 106.123 159.707 105.737C159.318 105.339 158.904 104.962 158.462 104.601C158.239 104.422 158.012 104.246 157.774 104.081C157.536 103.913 157.287 103.751 157.016 103.608C157.055 103.913 157.12 104.201 157.19 104.486C157.26 104.769 157.343 105.043 157.433 105.317C157.612 105.857 157.822 106.38 158.054 106.884C158.281 107.376 158.527 107.852 158.793 108.316C157.503 109.242 156.25 110.215 155.038 111.236C154.68 110.839 154.308 110.456 153.911 110.089C153.505 109.712 153.075 109.348 152.616 109.01C152.386 108.842 152.151 108.674 151.902 108.52C151.656 108.363 151.402 108.212 151.122 108.081C151.175 108.386 151.251 108.671 151.335 108.951C151.419 109.231 151.514 109.502 151.614 109.771C151.819 110.302 152.051 110.814 152.305 111.309C152.579 111.841 152.879 112.353 153.2 112.848C152.691 113.312 152.191 113.785 151.698 114.263C151.239 114.711 150.789 115.167 150.347 115.631C150.059 115.351 149.762 115.077 149.455 114.814C149.027 114.448 148.576 114.098 148.098 113.771C147.857 113.609 147.614 113.449 147.357 113.301C147.102 113.153 146.836 113.007 146.551 112.884C146.618 113.189 146.71 113.474 146.811 113.754C146.909 114.034 147.021 114.302 147.136 114.571C147.368 115.102 147.628 115.609 147.911 116.098C148.168 116.546 148.442 116.977 148.733 117.396C148.532 117.626 148.333 117.855 148.137 118.087L147.309 119.094C147.041 119.438 146.772 119.777 146.509 120.124C146.249 120.471 145.992 120.823 145.737 121.176C145.491 121.534 145.242 121.892 145.007 122.258C145.348 121.987 145.681 121.707 146.011 121.427C146.344 121.15 146.677 120.873 147.004 120.594L148.988 118.94C149.172 118.787 149.357 118.636 149.541 118.484C149.637 118.605 149.734 118.725 149.832 118.843C150.543 119.699 151.315 120.504 152.174 121.24C152.602 121.609 153.052 121.956 153.531 122.283C153.771 122.446 154.015 122.605 154.272 122.753C154.529 122.902 154.792 123.044 155.08 123.167C155.013 122.862 154.921 122.577 154.823 122.297C154.725 122.018 154.613 121.746 154.498 121.481C154.266 120.949 154.006 120.443 153.724 119.953C153.159 118.974 152.512 118.065 151.802 117.209C151.707 117.097 151.612 116.985 151.516 116.873C152 116.484 152.484 116.096 152.974 115.709C153.461 115.323 153.95 114.943 154.443 114.563C155.005 115.262 155.612 115.928 156.278 116.546C156.683 116.926 157.114 117.287 157.573 117.626C157.805 117.794 158.037 117.961 158.286 118.115C158.532 118.272 158.787 118.423 159.067 118.554C159.016 118.25 158.938 117.964 158.854 117.684C158.77 117.405 158.675 117.133 158.574 116.865C158.37 116.33 158.138 115.821 157.883 115.326C157.467 114.518 156.988 113.751 156.465 113.021C157.676 112.118 158.896 111.228 160.13 110.361C160.633 111.035 161.179 111.681 161.777 112.291C162.166 112.688 162.58 113.066 163.022 113.427C163.246 113.606 163.473 113.782 163.713 113.947C163.954 114.115 164.2 114.277 164.474 114.42C164.438 114.112 164.373 113.824 164.301 113.541C164.231 113.256 164.147 112.982 164.057 112.711C163.878 112.171 163.668 111.648 163.436 111.144C163.078 110.369 162.667 109.628 162.214 108.917C163.461 108.07 164.726 107.242 165.999 106.43C166.497 107.18 167.042 107.896 167.652 108.576C168.024 108.99 168.418 109.387 168.846 109.768C169.062 109.955 169.28 110.143 169.512 110.319C169.744 110.498 169.985 110.669 170.251 110.825C170.226 110.517 170.175 110.227 170.116 109.938C170.058 109.65 169.988 109.373 169.912 109.096C169.756 108.548 169.571 108.017 169.361 107.502C169.017 106.657 168.609 105.854 168.155 105.079C168.684 104.755 169.216 104.43 169.747 104.111C170.279 103.792 170.813 103.476 171.35 103.16C171.42 103.292 171.493 103.42 171.565 103.549C172.114 104.517 172.735 105.446 173.451 106.319C173.809 106.755 174.192 107.177 174.603 107.583C174.813 107.784 175.026 107.983 175.252 108.173C175.479 108.366 175.714 108.551 175.974 108.724C175.96 108.411 175.921 108.114 175.874 107.821C175.826 107.527 175.764 107.242 175.697 106.959C175.56 106.397 175.395 105.851 175.202 105.32C174.819 104.257 174.341 103.25 173.789 102.282C173.714 102.148 173.633 102.013 173.554 101.882C173.761 101.764 173.968 101.644 174.178 101.527L176.427 100.259C176.805 100.052 177.183 99.8397 177.56 99.6271C177.938 99.4173 178.318 99.2075 178.693 98.9837C178.268 99.076 177.846 99.1795 177.423 99.2858C177.018 99.4005 176.598 99.5152 176.178 99.6383Z" fill="black"/>
<path d="M111.029 83.9029L96.4465 79.2703L96.3906 79.3207L86.3674 87.9032L89.8866 99.9097L90.4908 101.977L90.7342 102.066L104.635 107.147L105.174 106.629L115.119 97.1262L111.497 84.0511L111.029 83.9029Z" fill="white"/>
<path d="M118.476 79.1892L115.038 81.8524L112.464 83.8469L112.716 84.7561L116.107 96.9948L126.233 105.079L130.485 101.124L130.421 100.1L130.418 100.047L129.744 89.0445L129.657 87.6178C128.161 84.7225 126.284 82.0566 124.088 79.6844L118.949 79.2284L118.476 79.1892Z" fill="white"/>
<path d="M105.821 123.173L106.344 122.728L106.853 122.292L104.125 108.011L97.3137 105.521L89.853 102.794L77.7961 112.713L82.2664 126.58L84.0875 127.145H101.157L105.821 123.173Z" fill="white"/>
<path d="M130.994 102.201L130.897 102.089L127.931 104.844L126.684 106.005L123.139 116.641L121.83 120.566L122.801 127.145H125.249C130.259 121.173 133.364 113.553 133.624 105.208L130.994 102.201Z" fill="white"/>
<path d="M81.3095 126.829L78.8534 119.206L76.9791 113.385L76.9512 113.295L67.9631 104.925L64.7992 108.145L64.4943 108.456L63.96 116.339C65.4062 120.317 67.5351 123.965 70.2038 127.145H80.9766L81.1529 126.983L81.3095 126.829Z" fill="white"/>
<path d="M63.9573 116.339L64.4916 108.456L64.7965 108.145L67.9604 104.925L76.9484 113.295L76.9764 113.385L78.8507 119.206L81.3068 126.829L81.1446 126.98L80.9683 127.142H84.0819L82.2607 126.58L77.7905 112.713L89.8473 102.794L97.308 105.521L104.12 108.011L106.847 122.292L106.338 122.725L105.815 123.17L101.152 127.142H102.671L107.065 123.4L107.619 122.927L120.583 121.173L120.913 121.128L121.799 127.142H122.795L121.825 120.563L123.134 116.638L126.678 106.002L127.926 104.842L130.891 102.086L130.989 102.198L133.616 105.205C133.356 113.547 130.25 121.17 125.24 127.142H127.889C132.788 120.748 135.7 112.75 135.7 104.069C135.7 83.0916 118.694 66.0861 97.7165 66.0861C76.7386 66.0861 59.7332 83.0916 59.7332 104.069C59.7332 112.747 62.6453 120.745 67.5435 127.142H70.1927C67.5323 123.965 65.4035 120.317 63.9573 116.339ZM115.119 97.1262L105.174 106.629L104.632 107.147L90.7341 102.066L90.4907 101.977L89.8837 99.9069L86.3645 87.9004L96.3877 79.3179L96.4464 79.2675L111.029 83.8973L111.497 84.0455L115.119 97.1262ZM124.088 79.6844C126.281 82.0566 128.161 84.7197 129.657 87.6178L129.744 89.0445L130.418 100.047L130.421 100.1L130.485 101.124L126.233 105.079L116.107 96.9948L112.716 84.7561L112.464 83.8469L115.038 81.8524L118.476 79.1892L118.949 79.2312L124.088 79.6844ZM123.044 78.6046L119.62 78.3024L118.817 78.2325L112.965 73.1524L109.482 70.1284C114.635 71.9131 119.257 74.8392 123.044 78.6046ZM97.722 68.1562C100.561 68.1562 103.322 68.4863 105.972 69.1101L102.128 69.3675L95.2351 69.8263L79.6116 73.5133L79.371 73.1972C84.742 69.9969 91.0166 68.1562 97.722 68.1562ZM79.6703 74.5091L94.9862 70.8949L95.3247 73.807L95.8674 78.4703L88.8123 84.5099L85.5617 87.2933L72.6852 88.6193L71.7341 82.9182L79.6703 74.5091ZM63.5348 108.025L63.4537 108.106L62.0522 108.263C61.8928 106.889 61.806 105.491 61.806 104.072C61.806 95.6016 64.7377 87.8164 69.6444 81.6761L69.7731 81.8272L70.7466 82.9741L71.7732 89.1284L67.5799 103.907L64.5951 106.945L63.6635 107.893L63.5348 108.025Z" fill="black"/>
<path d="M118.817 78.2297L119.62 78.2996L123.044 78.6018C119.257 74.8364 114.635 71.9103 109.482 70.1228L112.965 73.1468L118.817 78.2297Z" fill="white"/>
<path d="M120.918 121.131L120.588 121.173L107.628 122.927L107.071 123.4L102.676 127.145H121.805L120.918 121.131Z" fill="white"/>
<path d="M95.2352 69.8235L102.128 69.3647L105.972 69.1073C103.323 68.4835 100.562 68.1534 97.7221 68.1534C91.0139 68.1534 84.7421 69.9913 79.3711 73.1916L79.6117 73.5077L95.2352 69.8235Z" fill="white"/>
<path d="M67.58 103.91L71.7733 89.1284L70.7467 82.9741L69.7732 81.8272L69.6445 81.6761C64.7406 87.8192 61.8089 95.6016 61.8062 104.072C61.8062 105.491 61.8929 106.886 62.0523 108.263L63.4538 108.106L63.535 108.025L63.6636 107.893L64.5952 106.945L67.58 103.91Z" fill="white"/>
<path d="M85.5644 87.2933L88.815 84.5099L95.8673 78.4703L95.3246 73.8098L94.9861 70.8949L79.6703 74.5091L71.7368 82.9182L72.6879 88.6193L85.5644 87.2933Z" fill="white"/>
</g>
<defs>
<clipPath id="clip0_1_273">
<rect width="203" height="187.933" fill="white"/>
</clipPath>
</defs>
</svg>
