<svg width="17" height="17" viewBox="0 0 17 17" fill="none" xmlns="http://www.w3.org/2000/svg">
<path d="M7.375 14.425V2.575C7.375 1.45 6.895 1 5.7025 1H2.6725C1.48 1 1 1.45 1 2.575V14.425C1 15.55 1.48 16 2.6725 16H5.7025C6.895 16 7.375 15.55 7.375 14.425Z" stroke="#E74646" stroke-linecap="round" stroke-linejoin="round"/>
<path d="M16 14.425V7.825C16 6.7 15.52 6.25 14.3275 6.25H11.2975C10.105 6.25 9.62504 6.7 9.62504 7.825V14.425C9.62504 15.55 10.105 16 11.2975 16H14.3275C15.52 16 16 15.55 16 14.425Z" stroke="#E74646" stroke-linecap="round" stroke-linejoin="round"/>
</svg>
