<svg width="151" height="39" viewBox="0 0 151 39" fill="none" xmlns="http://www.w3.org/2000/svg">
<path d="M35.0633 20.8464L31.2546 16.0617C31.0606 15.8173 30.6967 15.7708 30.4424 15.9567C30.1881 16.1425 30.1378 16.4911 30.3328 16.7355L34.1415 21.5202C29.304 21.9574 23.2329 19.9049 20.2194 16.1357C17.2221 12.3535 16.7629 6.20301 18.4844 1.85027L22.2931 6.63502C22.4872 6.87856 22.8511 6.92589 23.1054 6.74001C23.3596 6.55412 23.409 6.2056 23.215 5.96205L19.4063 1.17731C24.2437 0.740142 30.3148 2.79259 33.3283 6.56187C36.3257 10.3423 36.7848 16.4937 35.0633 20.8464Z" fill="black"/>
<path d="M48.6934 27.6913C55.2688 27.6913 60.5993 22.5858 60.5993 16.2879C60.5993 9.99004 55.2688 4.88458 48.6934 4.88458C42.118 4.88458 36.7876 9.99004 36.7876 16.2879C36.7876 22.5858 42.118 27.6913 48.6934 27.6913Z" fill="black"/>
<path d="M11.5614 18.7819C15.0002 18.7819 17.7879 16.1118 17.7879 12.8182C17.7879 9.52448 15.0002 6.85443 11.5614 6.85443C8.1226 6.85443 5.3349 9.52448 5.3349 12.8182C5.3349 16.1118 8.1226 18.7819 11.5614 18.7819Z" fill="black"/>
<path d="M22.3306 29.2714C22.3306 23.2061 17.3323 18.2897 11.1669 18.2897C5.0015 18.2897 0.00231934 23.2061 0.00231934 29.2714C0.00231934 33.4942 2.42554 37.1602 5.97905 38.9975H16.3539C19.9065 37.1602 22.3306 33.4942 22.3306 29.2714Z" fill="black"/>
<path d="M48.6937 4.88544C42.1186 4.88544 36.7878 9.99031 36.7878 16.2888C36.7878 22.5873 42.1186 27.6913 48.6937 27.6913C55.2688 27.6913 60.5995 22.5856 60.5995 16.2879C60.5995 9.99031 55.2688 4.88544 48.6937 4.88544ZM58.5779 12.0126C56.1089 12.0927 52.7692 12.7992 49.3963 15.3422C48.8815 15.7303 48.1878 15.8181 47.5814 15.5805C46.7458 15.2527 45.9874 14.8844 45.3001 14.4894C44.8607 14.2363 44.7511 13.6753 45.0647 13.2863C46.434 11.5858 48.8994 9.80099 51.7018 9.12975C53.6111 8.67193 55.4108 8.82253 56.9571 9.56089C57.6076 10.2924 58.1556 11.1159 58.5779 12.0126ZM49.8743 5.95426C52.1744 6.19608 54.3029 7.14098 55.9732 8.58931C54.612 8.21411 53.1178 8.20894 51.559 8.58157C48.5939 9.29153 45.983 11.1985 44.5481 13.0066C44.2534 13.3775 43.6927 13.4352 43.3207 13.134C43.0296 12.8982 42.7565 12.6589 42.5013 12.4188C42.2408 12.1727 42.1752 11.7949 42.3351 11.48C42.9586 10.2476 44.2201 8.86297 45.7413 7.77866C47.1528 6.77266 48.5913 6.14531 49.8743 5.95426ZM46.983 6.0231C47.2974 5.97491 47.6101 5.94135 47.9219 5.91984C47.0872 6.2546 46.2309 6.72619 45.3891 7.326C44.0755 8.26144 42.9667 9.38534 42.2408 10.4834C41.9146 10.9757 41.1716 10.9998 40.822 10.5221C40.6244 10.2528 40.4465 9.98859 40.2847 9.73128C41.9092 7.81566 44.2453 6.4422 46.983 6.0231ZM39.902 10.2115C41.2093 12.2183 43.5175 14.6331 47.4996 16.1571C48.1079 16.3903 48.5346 16.9222 48.6227 17.5435C48.744 18.4006 48.7907 19.2139 48.7763 19.9815C48.7674 20.4729 48.3145 20.8438 47.806 20.7784C45.584 20.4935 42.7367 19.3404 40.7286 17.3516C39.3602 15.9962 38.5965 14.4283 38.4905 12.7768C38.8355 11.8603 39.3117 10.9963 39.902 10.2115ZM47.4286 25.6793C47.2831 25.9796 47.1321 26.2619 46.9794 26.5252C44.018 26.0683 41.3872 24.4452 39.7196 22.0942C40.4393 22.6191 41.2929 23.0916 42.2551 23.49C43.7583 24.1113 45.3289 24.4693 46.6838 24.5227C47.292 24.5459 47.6847 25.1509 47.4286 25.6793ZM42.4887 22.972C40.8733 22.3033 39.5857 21.4238 38.7717 20.4548C38.4069 19.6605 38.141 18.8094 37.9909 17.9135C37.7717 16.5977 37.822 15.2983 38.1023 14.0685C38.4429 15.3895 39.1859 16.6356 40.3054 17.7449C42.4303 19.849 45.46 21.0615 47.8123 21.3481C48.2957 21.4066 48.6272 21.8429 48.5409 22.3024C48.4736 22.6613 48.3936 23.0072 48.3037 23.3403C48.2121 23.6793 47.903 23.9229 47.5382 23.9478C46.1123 24.0459 44.2291 23.6922 42.4887 22.972ZM50.629 26.4891C50.5544 26.502 50.4799 26.5149 50.4044 26.5261C49.4565 26.6715 48.5176 26.693 47.6047 26.6044C48.7674 24.5167 49.7988 21.3928 49.1852 17.3241C49.0917 16.7036 49.3595 16.0831 49.877 15.6993C50.5913 15.1701 51.3038 14.7251 52.0046 14.3525C52.453 14.115 53.0154 14.3043 53.2104 14.7578C54.0639 16.744 54.4449 19.682 53.6506 22.342C53.1088 24.1569 52.0711 25.5752 50.629 26.4891ZM57.4431 22.3937C56.1179 24.1329 54.232 25.4805 51.9929 26.1646C53.0181 25.2215 53.7737 23.9823 54.2167 22.4978C55.0918 19.5684 54.6021 16.3086 53.6066 14.2183C53.4736 13.9386 53.6111 13.609 53.9103 13.498C54.3757 13.3259 54.8321 13.183 55.276 13.0651C55.6282 12.9713 56.0029 13.1064 56.2086 13.3964C57.0119 14.5298 57.6327 16.2681 57.852 18.0727C58.0541 19.7371 57.905 21.2362 57.4431 22.3937ZM58.4369 18.0082C58.2473 16.4506 57.7855 14.9695 57.1556 13.8181C56.8735 13.3018 57.223 12.6736 57.8295 12.6219C58.1745 12.5927 58.5052 12.5772 58.8196 12.5712C59.0811 13.226 59.2761 13.9171 59.3956 14.6356C59.7594 16.8163 59.3821 18.9497 58.4423 20.7999C58.5573 19.9428 58.5582 19.0013 58.4369 18.0082Z" fill="#FCFCFC"/>
<path d="M18.5673 0.153203C18.3705 0.181602 18.1881 0.256471 18.0345 0.368344C17.8808 0.480218 17.7569 0.629096 17.6769 0.80293C15.3579 5.83552 16.0533 12.7149 19.296 16.806C22.5584 20.8868 29.3006 23.3515 34.9817 22.5425C35.1785 22.5141 35.3609 22.4393 35.5145 22.3274C35.6682 22.2155 35.7922 22.0666 35.8721 21.8928C38.1911 16.8602 37.4957 9.98 34.2531 5.88973C30.9898 1.80893 24.2475 -0.655729 18.5673 0.153203ZM35.0635 20.8464L31.2548 16.0616C31.0607 15.8172 30.6969 15.7708 30.4426 15.9566C30.1883 16.1425 30.138 16.491 30.333 16.7354L34.1417 21.5202C29.3042 21.9574 23.2331 19.9049 20.2196 16.1356C17.2223 12.3534 16.7631 6.20298 18.4846 1.85024L22.2933 6.63498C22.4874 6.87852 22.8513 6.92585 23.1055 6.73997C23.3598 6.55409 23.4092 6.20556 23.2152 5.96202L19.4065 1.17728C24.2439 0.740109 30.315 2.79256 33.3285 6.56184C36.3259 10.3423 36.785 16.4936 35.0635 20.8464ZM26.3033 7.4181C26.5575 7.23222 26.6069 6.88369 26.4129 6.63929C26.2188 6.39489 25.8549 6.34842 25.5997 6.5343L22.2385 8.98863C21.9833 9.17451 21.9348 9.52304 22.1289 9.76744C22.323 10.0118 22.6869 10.0583 22.942 9.87243L24.1613 8.98175L25.1262 10.1943L23.907 11.085C23.6518 11.2709 23.6033 11.6194 23.7974 11.8638C23.9915 12.1082 24.3553 12.1547 24.6105 11.9688L25.8298 11.0781L26.7947 12.2906L25.5755 13.1813C25.3203 13.3672 25.2718 13.7157 25.4659 13.9601C25.6599 14.2045 26.0238 14.251 26.279 14.0651L27.4982 13.1744L28.4632 14.387L27.244 15.2776C26.9897 15.4635 26.9403 15.8121 27.1344 16.0565C27.3284 16.3009 27.6923 16.3473 27.9475 16.1614L31.3087 13.7071C31.5639 13.5212 31.6124 13.1727 31.4183 12.9283C31.2243 12.6848 30.8604 12.6374 30.6052 12.8233L29.386 13.714L28.4201 12.5015L29.6402 11.6108C29.8945 11.4249 29.9439 11.0764 29.7499 10.832C29.5558 10.5876 29.1919 10.5411 28.9367 10.727L27.7175 11.6177L26.7525 10.4051L27.9717 9.51444C28.226 9.32855 28.2754 8.98003 28.0814 8.73562C27.8873 8.49122 27.5225 8.44475 27.2682 8.63064L26.049 9.52132L25.084 8.30878L26.3033 7.4181Z" fill="#FCFCFC"/>
<path d="M6.10683 9.97479L14.4708 18.0916C12.1096 19.2827 9.11946 18.9161 7.14728 17.003C5.176 15.0891 4.83278 12.2209 6.10683 9.97479Z" fill="#FCFCFC"/>
<path d="M6.47006 9.41199L6.96872 9.54452L6.90762 9.75708L6.33618 9.60562C6.29395 9.66844 6.25352 9.73126 6.21399 9.79494L14.6607 17.9918C14.7972 17.917 14.9311 17.8369 15.0623 17.7517L14.5645 17.6201L14.6256 17.4075L15.3031 17.5874C15.4459 17.4841 15.5861 17.3748 15.7218 17.2586L6.99477 8.78894C6.8025 8.98773 6.62819 9.19599 6.47006 9.41199ZM14.7793 17.1244L14.7182 17.3369L14.1045 17.1743L14.1656 16.9617L14.7793 17.1244ZM14.3192 16.6786L14.2581 16.8912L13.6445 16.7285L13.7056 16.516L14.3192 16.6786ZM13.8601 16.2328L13.799 16.4454L13.1853 16.2827L13.2464 16.0702L13.8601 16.2328ZM13.401 15.7871L13.3399 15.9996L12.7262 15.837L12.7873 15.6244L13.401 15.7871ZM12.941 15.3413L12.8799 15.5538L12.2662 15.3912L12.3273 15.1786L12.941 15.3413ZM12.4818 14.8947L12.4207 15.1072L11.8071 14.9446L11.8682 14.732L12.4818 14.8947ZM12.0227 14.4489L11.9616 14.6614L11.3479 14.4988L11.409 14.2862L12.0227 14.4489ZM11.5627 14.0031L11.5016 14.2157L10.8879 14.053L10.949 13.8405L11.5627 14.0031ZM11.1036 13.5573L11.0425 13.7699L10.4288 13.6072L10.4899 13.3947L11.1036 13.5573ZM10.6444 13.1116L10.5833 13.3241L9.96966 13.1615L10.0308 12.9489L10.6444 13.1116ZM10.1844 12.6658L10.1233 12.8783L9.50964 12.7157L9.57073 12.5031L10.1844 12.6658ZM9.72527 12.22L9.66418 12.4326L9.05051 12.2699L9.11161 12.0574L9.72527 12.22ZM9.26615 11.7742L9.20505 11.9868L8.59138 11.8242L8.65248 11.6116L9.26615 11.7742ZM8.80612 11.3276L8.74503 11.5402L8.13136 11.3775L8.19246 11.165L8.80612 11.3276ZM8.347 10.8818L8.2859 11.0944L7.67223 10.9318L7.73333 10.7192L8.347 10.8818ZM7.88787 10.4361L7.82677 10.6486L7.21311 10.486L7.2742 10.2734L7.88787 10.4361ZM7.42784 9.99029L7.36675 10.2029L6.75308 10.0402L6.81418 9.82764L7.42784 9.99029Z" fill="#FCFCFC"/>
<path d="M8.28961 7.75892L8.44056 8.30882L8.21773 8.36476L8.08656 7.88542C7.85834 8.03344 7.63911 8.19781 7.42886 8.37853L16.1559 16.8482C16.2736 16.7252 16.3859 16.5987 16.491 16.4687L16.3257 15.8L16.5485 15.7441L16.6797 16.2226C16.7704 16.0987 16.8549 15.9722 16.934 15.8431L8.48638 7.64532C8.41989 7.68147 8.3543 7.71933 8.28961 7.75892ZM16.2502 15.8878L16.0274 15.9438L15.8657 15.3543L16.0885 15.2983L16.2502 15.8878ZM15.7911 15.4421L15.5683 15.498L15.4065 14.9085L15.6293 14.8526L15.7911 15.4421ZM15.332 14.9963L15.1091 15.0522L14.9474 14.4627L15.1702 14.4068L15.332 14.9963ZM14.8719 14.5505L14.6491 14.6064L14.4874 14.017L14.7102 13.961L14.8719 14.5505ZM14.4128 14.1047L14.19 14.1607L14.0282 13.5712L14.2511 13.5152L14.4128 14.1047ZM13.9537 13.659L13.7308 13.7149L13.5691 13.1254L13.7919 13.0695L13.9537 13.659ZM13.4936 13.2132L13.2708 13.2691L13.1091 12.6796L13.3319 12.6237L13.4936 13.2132ZM13.0345 12.7666L12.8117 12.8225L12.65 12.233L12.8728 12.1771L13.0345 12.7666ZM12.5754 12.3208L12.3526 12.3767L12.1908 11.7872L12.4137 11.7313L12.5754 12.3208ZM12.1154 11.875L11.8925 11.9309L11.7308 11.3415L11.9536 11.2855L12.1154 11.875ZM11.6562 11.4292L11.4334 11.4852L11.2717 10.8957L11.4945 10.8397L11.6562 11.4292ZM11.1971 10.9835L10.9743 11.0394L10.8126 10.4499L11.0354 10.394L11.1971 10.9835ZM10.7371 10.5377L10.5143 10.5936L10.3525 10.0041L10.5754 9.9482L10.7371 10.5377ZM10.278 10.0919L10.0551 10.1478L9.89341 9.55836L10.1162 9.50243L10.278 10.0919ZM9.81884 9.64614L9.59601 9.70208L9.43429 9.11259L9.65711 9.05665L9.81884 9.64614ZM9.35881 9.19951L9.13599 9.25544L8.97426 8.66596L9.19708 8.61002L9.35881 9.19951ZM8.89969 8.75373L8.67686 8.80967L8.51513 8.22018L8.73796 8.16425L8.89969 8.75373Z" fill="#FCFCFC"/>
<path d="M16.001 8.63406C17.9732 10.548 18.3164 13.4179 17.0406 15.664L8.67566 7.5463C11.0369 6.35356 14.0288 6.7193 16.001 8.63406Z" fill="#FCFCFC"/>
<path d="M19.9151 26.7017C20.5431 26.7017 21.2143 26.5718 21.9205 26.3153C21.3536 24.3171 20.2269 22.5495 18.7174 21.1846C18.6563 22.5796 18.429 24.299 17.8378 26.1647C18.4775 26.5219 19.1747 26.7017 19.9151 26.7017Z" fill="#FCFCFC"/>
<path d="M17.1513 25.6974C17.7479 23.7241 17.9222 21.9186 17.9366 20.5417C16.6958 19.6097 15.251 18.9265 13.6786 18.571C14.0039 20.2156 14.9518 23.9117 17.1513 25.6974Z" fill="#FCFCFC"/>
<path d="M22.1139 27.1071C21.3475 27.3773 20.6125 27.515 19.9153 27.515C19.0842 27.515 18.2989 27.3222 17.5739 26.941C17.2136 27.928 16.7688 28.8833 16.2486 29.792C17.9539 31.3445 19.4742 33.0252 20.8003 34.8238C21.7725 33.1947 22.3313 31.298 22.3313 29.2723C22.3313 28.5313 22.2559 27.8076 22.1139 27.1071Z" fill="#FCFCFC"/>
<path d="M16.8855 26.5089C14.1281 24.4823 13.1191 19.997 12.8405 18.4144C12.2942 18.3336 11.7354 18.2914 11.1657 18.2914C7.94018 18.2914 5.03537 19.6373 2.9967 21.7879C6.38849 23.071 11.1855 25.373 15.6393 29.2498C16.1308 28.3764 16.5477 27.4573 16.8855 26.5089Z" fill="#FCFCFC"/>
<path d="M15.825 30.4943C15.0873 31.6595 14.2086 32.7575 13.2068 33.7679L13.2095 33.7704L13.2014 33.7782C14.3748 35.18 14.9696 36.9614 14.9562 38.9992H16.3461C17.94 38.1757 19.3084 36.9864 20.3318 35.5423C19.0245 33.7377 17.5204 32.0502 15.825 30.4943Z" fill="#FCFCFC"/>
<path d="M5.67294 38.8348C5.77447 38.8916 5.8769 38.9458 5.98023 38.9992H14.169C14.1879 37.1576 13.6713 35.5922 12.6236 34.3332C10.7224 36.1051 8.39536 37.6102 5.67294 38.8348Z" fill="#FCFCFC"/>
<path d="M12.6516 33.1887C13.6408 32.1913 14.5034 31.1061 15.2222 29.9538C10.6956 25.9857 5.79074 23.6837 2.42501 22.4393C0.907471 24.3145 0 26.6888 0 29.2722C0 29.4805 0.00628941 29.687 0.0179697 29.8927C0.360293 29.8841 0.696327 29.8806 1.02517 29.8806C6.46461 29.8806 10.373 30.9934 12.6516 33.1887Z" fill="#FCFCFC"/>
<path d="M1.02493 30.6938C0.721246 30.6938 0.41037 30.6982 0.0950012 30.705C0.512797 33.8599 2.2927 36.5939 4.83452 38.3185C7.6953 37.093 10.1194 35.5638 12.0736 33.7471C9.94241 31.7214 6.22897 30.6938 1.02493 30.6938Z" fill="#FCFCFC"/>
<path d="M63.9804 27.4848C61.0729 24.2473 53.4366 25.0115 47.1598 29.5562C45.9828 30.409 44.8498 31.3143 43.9019 32.3952C42.9818 33.4442 42.1975 34.6172 41.5712 35.8805C41.0815 36.8667 40.6898 37.9114 40.396 38.9992H62.1322C63.7261 37.2608 66.3003 30.0691 63.9804 27.4848ZM56.8877 30.5355C56.7664 30.6009 56.646 30.6663 56.5238 30.73L55.8014 31.1198C55.735 31.156 55.6676 31.193 55.6011 31.2291C55.6262 31.2704 55.6514 31.3109 55.6766 31.3522C55.8536 31.6499 56.0063 31.9597 56.1303 32.2867C56.1923 32.4502 56.2453 32.6181 56.2893 32.791C56.3109 32.8779 56.3307 32.9657 56.3459 33.0561C56.3612 33.1456 56.3747 33.2377 56.3783 33.3341C56.2938 33.2816 56.2192 33.2239 56.1465 33.1645C56.0737 33.106 56.0054 33.0449 55.938 32.9829C55.805 32.8582 55.6819 32.7282 55.5678 32.594C55.3378 32.3255 55.1384 32.0398 54.9623 31.742C54.9389 31.7024 54.9155 31.662 54.8931 31.6224C54.7206 31.7188 54.549 31.816 54.3782 31.915C54.2066 32.0131 54.0368 32.1129 53.867 32.2127C54.0135 32.4511 54.1437 32.6981 54.2542 32.958C54.3216 33.1163 54.3818 33.279 54.4313 33.4485C54.4555 33.5337 54.4789 33.6189 54.4968 33.7075C54.5157 33.7953 54.5319 33.8857 54.54 33.9803C54.4546 33.9321 54.3773 33.8788 54.3028 33.8246C54.2282 33.7704 54.1572 33.7127 54.0889 33.655C53.9524 33.538 53.8248 33.4158 53.7053 33.2884C53.5094 33.0793 53.3342 32.859 53.1743 32.6284C52.7646 32.8779 52.3593 33.1327 51.9586 33.3934C52.1042 33.612 52.2362 33.8392 52.3513 34.0784C52.4258 34.2333 52.4932 34.3934 52.5507 34.5604C52.5786 34.6438 52.6055 34.7282 52.6289 34.8159C52.6522 34.9029 52.672 34.9915 52.6846 35.0862C52.5965 35.0423 52.5175 34.9924 52.4402 34.9407C52.3629 34.89 52.2902 34.8357 52.2183 34.7807C52.0763 34.6696 51.9433 34.5535 51.8185 34.4313C51.6262 34.2437 51.451 34.0449 51.2892 33.8375C50.893 34.1043 50.5004 34.3779 50.1122 34.6559C50.2802 34.8805 50.433 35.1154 50.5678 35.365C50.6495 35.5164 50.7241 35.6739 50.7897 35.8383C50.822 35.9209 50.8526 36.0035 50.8795 36.0904C50.9065 36.1765 50.9307 36.2643 50.9478 36.3581C50.858 36.3176 50.7762 36.2712 50.6971 36.223C50.6172 36.1748 50.5426 36.124 50.468 36.0724C50.3207 35.9674 50.1823 35.8564 50.052 35.7402C49.8382 35.5491 49.6432 35.3452 49.4626 35.1301C49.3045 35.2471 49.1473 35.3641 48.9909 35.4829C48.8346 35.6008 48.6782 35.7204 48.5228 35.8409C48.5534 35.8753 48.5839 35.9097 48.6145 35.9441C48.8427 36.2075 49.0511 36.4872 49.2317 36.7884C49.3225 36.939 49.406 37.0947 49.4806 37.2582C49.5174 37.34 49.5534 37.4235 49.5848 37.5095C49.6163 37.5956 49.6459 37.6833 49.6675 37.7771C49.5749 37.7393 49.4905 37.6954 49.4078 37.6498C49.3252 37.6042 49.247 37.5551 49.1697 37.5052C49.0161 37.4045 48.8714 37.2978 48.734 37.1842C48.459 36.9579 48.2101 36.7109 47.9819 36.4467C47.9505 36.4106 47.919 36.3736 47.8885 36.3366C47.8292 36.383 47.7699 36.4304 47.7106 36.4768L47.0735 36.9854C46.9684 37.0715 46.8615 37.1567 46.7546 37.2419C46.6486 37.3279 46.5416 37.414 46.432 37.4975C46.5084 37.3847 46.5875 37.2746 46.6665 37.1644C46.7483 37.056 46.8301 36.9476 46.9145 36.8409C46.999 36.7341 47.0852 36.6292 47.1715 36.5242L47.4374 36.2144C47.5003 36.1429 47.5641 36.0724 47.6288 36.0018C47.5354 35.8727 47.4473 35.7402 47.3647 35.6025C47.2739 35.4519 47.1904 35.2961 47.1158 35.1326C47.0789 35.0509 47.043 34.9683 47.0115 34.8813C46.9792 34.7953 46.9505 34.7075 46.928 34.6137C47.0205 34.6516 47.105 34.6955 47.1868 34.7419C47.2694 34.7875 47.3476 34.8366 47.4249 34.8865C47.5785 34.9872 47.7232 35.0948 47.8606 35.2075C47.9595 35.2884 48.0547 35.3727 48.1472 35.4588C48.2892 35.3168 48.4339 35.1765 48.5812 35.038C48.7393 34.89 48.9002 34.7445 49.0637 34.6025C48.9604 34.4502 48.8642 34.2927 48.7762 34.1292C48.6944 33.9769 48.6198 33.8203 48.5543 33.6559C48.5219 33.5733 48.4914 33.4907 48.4644 33.4038C48.4375 33.3177 48.4123 33.2299 48.3961 33.1361C48.486 33.1766 48.5677 33.223 48.6468 33.2712C48.7268 33.3194 48.8013 33.3702 48.8759 33.4218C49.0233 33.5268 49.1607 33.6378 49.2919 33.754C49.4186 33.8667 49.539 33.9846 49.654 34.1068C50.0439 33.7927 50.4465 33.4933 50.8598 33.2084C50.7744 33.0656 50.6944 32.9193 50.6226 32.7678C50.548 32.6129 50.4806 32.4528 50.4231 32.2859C50.3944 32.2024 50.3674 32.1181 50.3449 32.0303C50.3216 31.9434 50.3009 31.8547 50.2892 31.7601C50.3764 31.8048 50.4563 31.8539 50.5327 31.9055C50.61 31.9571 50.6828 32.0114 50.7537 32.0656C50.8957 32.1766 51.0287 32.2928 51.1536 32.415C51.2758 32.5337 51.3908 32.6568 51.4995 32.7841C51.9245 32.5148 52.3593 32.2609 52.8041 32.0234C52.725 31.8771 52.6531 31.7274 52.5876 31.5733C52.5202 31.415 52.46 31.2523 52.4106 31.0828C52.3863 30.9976 52.3629 30.9124 52.3441 30.8246C52.3252 30.7369 52.3081 30.6474 52.3009 30.5527C52.3863 30.6009 52.4636 30.6542 52.5372 30.7093C52.6118 30.7635 52.6819 30.8212 52.7511 30.8789C52.8877 30.9959 53.0152 31.1181 53.1347 31.2455C53.2632 31.3823 53.3827 31.5251 53.4959 31.6714C53.6927 31.5759 53.8922 31.483 54.0925 31.3943C54.2794 31.3117 54.4672 31.2317 54.6568 31.1551C54.6047 31.0415 54.557 30.9262 54.5121 30.8083C54.4501 30.6448 54.3971 30.477 54.3531 30.304C54.3315 30.2171 54.3118 30.1293 54.2965 30.0398C54.2803 29.9503 54.2677 29.8582 54.2632 29.7627C54.3468 29.8152 54.4223 29.8729 54.495 29.9322C54.5678 29.9908 54.6361 30.0527 54.7035 30.1147C54.8365 30.2395 54.9596 30.3694 55.0737 30.5036C55.1788 30.6267 55.2776 30.7532 55.3711 30.8832C55.4627 30.8505 55.5544 30.8186 55.646 30.7868C55.7781 30.7437 55.9102 30.6999 56.0431 30.6577C56.177 30.6181 56.31 30.5777 56.4439 30.5389C56.5777 30.5019 56.7125 30.4666 56.8473 30.4314C56.983 30.3995 57.1186 30.3668 57.2552 30.3384C57.1312 30.4064 57.009 30.4709 56.8877 30.5355Z" fill="#FCFCFC"/>
<path d="M56.4394 30.5381C56.3056 30.5759 56.1726 30.6164 56.0387 30.6568C55.9057 30.699 55.7746 30.7429 55.6416 30.7859C55.5499 30.8169 55.4583 30.8496 55.3667 30.8823C55.2732 30.7524 55.1753 30.6258 55.0693 30.5028C54.9542 30.3685 54.8321 30.2386 54.6991 30.1138C54.6317 30.0519 54.5643 29.9908 54.4906 29.9314C54.4179 29.872 54.3433 29.8152 54.2588 29.7618C54.2633 29.8582 54.2759 29.9494 54.2921 30.0389C54.3073 30.1293 54.3271 30.2162 54.3487 30.3031C54.3927 30.4761 54.4457 30.6439 54.5077 30.8074C54.5517 30.9253 54.6002 31.0406 54.6524 31.1542C54.4628 31.2308 54.275 31.3109 54.0881 31.3935C53.8877 31.483 53.6892 31.5751 53.4915 31.6706C53.3792 31.5243 53.2588 31.3814 53.1303 31.2446C53.0108 31.1172 52.8841 30.995 52.7467 30.878C52.6775 30.8203 52.6074 30.7627 52.5328 30.7085C52.4583 30.6534 52.3819 30.6 52.2965 30.5518C52.3046 30.6465 52.3208 30.736 52.3397 30.8238C52.3585 30.9124 52.3819 30.9976 52.4061 31.0819C52.4565 31.2506 52.5158 31.4141 52.5831 31.5725C52.6487 31.7265 52.7215 31.8763 52.7997 32.0225C52.3549 32.2601 51.9192 32.5139 51.4951 32.7833C51.3864 32.6559 51.2714 32.5329 51.1492 32.4141C51.0243 32.2919 50.8913 32.1757 50.7493 32.0647C50.6775 32.0096 50.6047 31.9554 50.5283 31.9046C50.4519 31.853 50.372 31.8031 50.2848 31.7592C50.2974 31.853 50.3181 31.9417 50.3405 32.0294C50.363 32.1163 50.3899 32.2007 50.4187 32.285C50.4762 32.4511 50.5436 32.612 50.6182 32.7669C50.6909 32.9184 50.77 33.0647 50.8554 33.2075C50.4412 33.4924 50.0386 33.7919 49.6496 34.106C49.5346 33.9838 49.4151 33.8659 49.2875 33.7531C49.1572 33.637 49.0188 33.5251 48.8715 33.421C48.7978 33.3693 48.7223 33.3177 48.6424 33.2704C48.5633 33.2222 48.4816 33.1757 48.3917 33.1353C48.4088 33.2291 48.433 33.3168 48.46 33.4029C48.4869 33.489 48.5175 33.5724 48.5498 33.655C48.6154 33.8185 48.69 33.976 48.7718 34.1284C48.8598 34.2919 48.956 34.4493 49.0593 34.6017C48.8958 34.7445 48.7349 34.89 48.5768 35.0371C48.4294 35.1748 48.2848 35.3151 48.1428 35.4579C48.0503 35.3719 47.955 35.2875 47.8562 35.2066C47.7187 35.0939 47.5741 34.9863 47.4204 34.8857C47.3432 34.8357 47.265 34.7867 47.1823 34.7411C47.1006 34.6955 47.0152 34.6507 46.9236 34.6129C46.9451 34.7067 46.9748 34.7944 47.0071 34.8805C47.0386 34.9665 47.0745 35.0492 47.1114 35.1318C47.1859 35.2953 47.2695 35.451 47.3602 35.6016C47.4429 35.7393 47.531 35.8719 47.6244 36.0009C47.5597 36.0715 47.4959 36.1421 47.433 36.2135L47.1671 36.5233C47.0808 36.6292 46.9946 36.7333 46.9101 36.84C46.8265 36.9467 46.7439 37.0551 46.6621 37.1636C46.583 37.2737 46.5031 37.3839 46.4276 37.4966C46.5372 37.4131 46.6441 37.3271 46.7502 37.241C46.8571 37.1558 46.964 37.0706 47.0691 36.9846L47.7062 36.476C47.7655 36.4286 47.8248 36.3822 47.8841 36.3357C47.9146 36.3727 47.9461 36.4097 47.9775 36.4459C48.2057 36.7092 48.4537 36.957 48.7295 37.1834C48.867 37.297 49.0117 37.4037 49.1653 37.5044C49.2426 37.5543 49.3207 37.6033 49.4034 37.6489C49.4861 37.6945 49.5705 37.7384 49.6631 37.7763C49.6415 37.6825 49.6119 37.5947 49.5804 37.5087C49.549 37.4226 49.513 37.3391 49.4762 37.2574C49.4016 37.0939 49.318 36.9381 49.2273 36.7875C49.0458 36.4863 48.8383 36.2066 48.61 35.9433C48.5795 35.9089 48.5489 35.8744 48.5184 35.84C48.6738 35.7204 48.8293 35.6008 48.9865 35.482C49.1428 35.3633 49.3001 35.2462 49.4582 35.1292C49.6388 35.3443 49.8338 35.5491 50.0476 35.7393C50.1779 35.8564 50.3163 35.9674 50.4636 36.0715C50.5382 36.1231 50.6128 36.1748 50.6927 36.2221C50.7718 36.2703 50.8536 36.3168 50.9434 36.3572C50.9272 36.2634 50.9021 36.1756 50.8751 36.0896C50.8482 36.0035 50.8176 35.9201 50.7853 35.8374C50.7197 35.6731 50.6451 35.5164 50.5633 35.3641C50.4295 35.1154 50.2758 34.8796 50.1078 34.655C50.4969 34.3771 50.8886 34.1034 51.2848 33.8366C51.4466 34.044 51.6218 34.2428 51.814 34.4304C51.9389 34.5526 52.0719 34.6688 52.2139 34.7798C52.2857 34.8349 52.3585 34.8891 52.4358 34.9399C52.5131 34.9915 52.5921 35.0414 52.6802 35.0853C52.6685 34.9906 52.6478 34.902 52.6245 34.8151C52.602 34.7273 52.5751 34.643 52.5463 34.5595C52.4888 34.3934 52.4214 34.2325 52.3468 34.0776C52.2318 33.8392 52.0998 33.6112 51.9542 33.3926C52.3549 33.1318 52.761 32.8771 53.1699 32.6275C53.3298 32.8582 53.505 33.0785 53.7009 33.2876C53.8204 33.4149 53.947 33.5371 54.0845 33.6542C54.1537 33.7118 54.2238 33.7695 54.2984 33.8237C54.3729 33.8788 54.4502 33.9313 54.5356 33.9795C54.5275 33.8848 54.5113 33.7953 54.4924 33.7067C54.4736 33.618 54.4511 33.5328 54.4268 33.4476C54.3765 33.279 54.3172 33.1155 54.2498 32.9571C54.1393 32.6972 54.0081 32.4502 53.8626 32.2119C54.0324 32.112 54.2031 32.0122 54.3738 31.9141C54.5445 31.816 54.7162 31.7188 54.8887 31.6215C54.9111 31.662 54.9345 31.7016 54.9578 31.7411C55.1339 32.0389 55.3334 32.3246 55.5634 32.5931C55.6784 32.7274 55.8015 32.8573 55.9336 32.9821C56.001 33.044 56.0693 33.1051 56.142 33.1637C56.2148 33.223 56.2903 33.2798 56.3739 33.3332C56.3694 33.2368 56.3568 33.1456 56.3415 33.0552C56.3262 32.9649 56.3065 32.8771 56.2849 32.7902C56.2409 32.6172 56.1879 32.4494 56.1259 32.2859C56.0028 31.9589 55.8491 31.6491 55.6721 31.3513C55.6479 31.31 55.6218 31.2687 55.5967 31.2282C55.6632 31.1921 55.7296 31.1551 55.797 31.119L56.5194 30.7291C56.6407 30.6654 56.762 30.6 56.8833 30.5346C57.0046 30.4701 57.1268 30.4055 57.2472 30.3367C57.1106 30.3651 56.9749 30.3969 56.8393 30.4296C56.709 30.4649 56.5742 30.5002 56.4394 30.5381Z" fill="black"/>
<path d="M35.5141 25.6974L30.8303 24.2723L30.8123 24.2878L27.593 26.928L28.7233 30.6215L28.9174 31.2575L28.9956 31.285L33.4602 32.8478L33.6336 32.6886L36.8277 29.7653L35.6642 25.743L35.5141 25.6974Z" fill="#FCFCFC"/>
<path d="M37.9059 24.2474L36.8017 25.0666L35.9751 25.6802L36.0559 25.9599L37.1449 29.7249L40.3974 32.2119L41.7631 30.9951L41.7425 30.6801L41.7416 30.6638L41.525 27.2791L41.4972 26.8403C41.0165 25.9496 40.4136 25.1295 39.7083 24.3997L38.0578 24.2594L37.9059 24.2474Z" fill="#FCFCFC"/>
<path d="M33.8411 37.778L34.0091 37.6412L34.1727 37.5069L33.2966 33.1137L31.1088 32.3478L28.7126 31.5088L24.8401 34.5604L26.2759 38.8262L26.8608 39H32.3433L33.8411 37.778Z" fill="#FCFCFC"/>
<path d="M41.9268 31.3264L41.8954 31.2919L40.943 32.1396L40.5423 32.4967L39.4039 35.7686L38.9834 36.976L39.2952 39H40.0813C41.6905 37.1627 42.6879 34.8185 42.7714 32.2515L41.9268 31.3264Z" fill="#FCFCFC"/>
<path d="M25.9687 38.9027L25.1799 36.5577L24.5779 34.7668L24.5689 34.7393L21.6821 32.1645L20.6659 33.155L20.5679 33.2505L20.3963 35.6756C20.8608 36.8993 21.5446 38.0215 22.4018 39H25.8618L25.9184 38.9501L25.9687 38.9027Z" fill="#FCFCFC"/>
<path d="M20.3954 35.6756L20.5671 33.2506L20.665 33.155L21.6812 32.1645L24.568 34.7393L24.577 34.7669L25.179 36.5577L25.9679 38.9028L25.9157 38.9492L25.8591 38.9991H26.8592L26.2742 38.8262L24.8385 34.5603L28.7109 31.5088L31.1072 32.3478L33.295 33.1137L34.171 37.5069L34.0075 37.6403L33.8395 37.7771L32.3417 38.9991H32.8296L34.2411 37.8477L34.419 37.7023L38.5826 37.1627L38.6886 37.1489L38.9734 38.9991H39.2933L38.9815 36.9751L39.402 35.7677L40.5404 32.4958L40.9411 32.1387L41.8935 31.291L41.925 31.3255L42.7687 32.2506C42.6851 34.8168 41.6878 37.1618 40.0786 38.9991H40.9294C42.5027 37.0319 43.438 34.5715 43.438 31.9012C43.438 25.4478 37.9761 20.2164 31.2384 20.2164C24.5006 20.2164 19.0387 25.4478 19.0387 31.9012C19.0387 34.5707 19.9741 37.031 21.5473 38.9991H22.3982C21.5437 38.0215 20.86 36.8994 20.3954 35.6756ZM36.8279 29.7653L33.6337 32.6886L33.4594 32.8478L28.9958 31.285L28.9176 31.2575L28.7226 30.6207L27.5923 26.9271L30.8116 24.2869L30.8305 24.2714L35.5143 25.6957L35.6643 25.7413L36.8279 29.7653ZM39.7084 24.3996C40.4128 25.1294 41.0166 25.9487 41.4973 26.8402L41.5251 27.2791L41.7417 30.6637L41.7426 30.68L41.7632 30.995L40.3975 32.2119L37.145 29.7248L36.0561 25.9598L35.9752 25.6802L36.8018 25.0666L37.906 24.2473L38.0579 24.2602L39.7084 24.3996ZM39.3733 24.0675L38.2735 23.9745L38.0157 23.953L36.136 22.3902L35.0174 21.4599C36.6724 22.009 38.1567 22.9091 39.3733 24.0675ZM31.2402 20.8532C32.1521 20.8532 33.0389 20.9548 33.8898 21.1467L32.6553 21.2259L30.4414 21.367L25.4234 22.5012L25.3461 22.404C27.0712 21.4195 29.0865 20.8532 31.2402 20.8532ZM25.4422 22.8076L30.3615 21.6957L30.4702 22.5916L30.6445 24.0262L28.3785 25.8841L27.3344 26.7404L23.1987 27.1483L22.8932 25.3945L25.4422 22.8076ZM20.2598 33.118L20.2337 33.143L19.7836 33.1912C19.7324 32.7686 19.7045 32.3384 19.7045 31.9021C19.7045 29.2963 20.6461 26.9013 22.2221 25.0124L22.2634 25.0588L22.5761 25.4117L22.9058 27.3049L21.559 31.8513L20.6003 32.7859L20.3011 33.0776L20.2598 33.118Z" fill="black"/>
<path d="M38.0158 23.9522L38.2737 23.9737L39.3734 24.0666C38.1569 22.9083 36.6726 22.0082 35.0176 21.4583L36.1362 22.3885L38.0158 23.9522Z" fill="#FCFCFC"/>
<path d="M38.6903 37.1498L38.5842 37.1627L34.4216 37.7023L34.2428 37.8478L32.8312 39.0001H38.9751L38.6903 37.1498Z" fill="#FCFCFC"/>
<path d="M30.4416 21.3662L32.6554 21.225L33.89 21.1459C33.0391 20.954 32.1523 20.8524 31.2403 20.8524C29.0858 20.8524 27.0713 21.4178 25.3463 22.4023L25.4235 22.4995L30.4416 21.3662Z" fill="#FCFCFC"/>
<path d="M21.5587 31.8521L22.9055 27.3049L22.5758 25.4116L22.2631 25.0588L22.2218 25.0123C20.6467 26.9021 19.7051 29.2962 19.7042 31.902C19.7042 32.3383 19.7321 32.7677 19.7833 33.1911L20.2334 33.143L20.2595 33.118L20.3008 33.0776L20.6 32.7858L21.5587 31.8521Z" fill="#FCFCFC"/>
<path d="M27.3351 26.7404L28.3791 25.8841L30.6442 24.0262L30.4699 22.5925L30.3612 21.6957L25.442 22.8076L22.8939 25.3945L23.1994 27.1483L27.3351 26.7404Z" fill="#FCFCFC"/>
<path d="M151 15.7852H70.9812V38.9106H151V15.7852Z" fill="#FCFCFC"/>
<path d="M84.8082 25.2194H80.4267V23.7541C80.4267 22.8302 80.3856 22.2517 80.3022 22.0199C80.2188 21.7869 80.0214 21.671 79.7088 21.671C79.4386 21.671 79.2541 21.7712 79.1577 21.9704C79.0602 22.1696 79.012 22.6816 79.012 23.5054V31.2515C79.012 31.9762 79.0602 32.4523 79.1577 32.6819C79.2553 32.9114 79.4491 33.0262 79.7405 33.0262C80.0601 33.0262 80.2763 32.8968 80.3915 32.638C80.5054 32.3791 80.563 31.8738 80.563 31.1221V29.2078H79.6783V26.7555H84.8094V35.4188H82.0553L81.6499 34.2619C81.3514 34.7605 80.9743 35.1341 80.5195 35.3839C80.0648 35.6326 79.5279 35.7576 78.9098 35.7576C78.1731 35.7576 77.4846 35.5865 76.8418 35.2444C76.1991 34.9023 75.7115 34.478 75.3778 33.9727C75.0441 33.4674 74.8361 32.9373 74.7527 32.3825C74.6693 31.8277 74.6282 30.9949 74.6282 29.8853V25.0899C74.6282 23.5482 74.7151 22.4284 74.8878 21.7306C75.0617 21.0329 75.5588 20.3937 76.3813 19.8118C77.2037 19.23 78.2671 18.9397 79.5713 18.9397C80.8544 18.9397 81.9201 19.1929 82.7673 19.6971C83.6133 20.2024 84.1655 20.8022 84.4217 21.4966C84.6778 22.1909 84.8071 23.1993 84.8071 24.5228V25.2194H84.8082Z" fill="black"/>
<path d="M94.08 19.2787L96.5863 35.4191H92.1084L91.8734 32.5178H90.306L90.0428 35.4191H85.5121L87.7469 19.2787H94.08ZM91.7571 29.656C91.535 27.8283 91.313 25.5685 91.0897 22.8766C90.6432 25.9669 90.3624 28.2267 90.2484 29.656H91.7571Z" fill="black"/>
<path d="M110.85 19.2787V35.4191H107.02L107.015 24.523L105.49 35.4191H102.774L101.165 24.7717L101.16 35.4191H97.3299V19.2787H103C103.168 20.2488 103.342 21.3933 103.521 22.71L104.144 26.8155L105.151 19.2787H110.85Z" fill="black"/>
<path d="M112.61 19.2787H119.917V22.5086H116.992V25.5696H119.73V28.6397H116.992V32.1892H120.208V35.4191H112.61V19.2787Z" fill="black"/>
<path d="M135.238 28.7288C135.238 30.3505 135.198 31.4984 135.118 32.1737C135.038 32.8478 134.788 33.4645 134.368 34.0227C133.949 34.5809 133.381 35.0097 132.667 35.309C131.952 35.6084 131.119 35.758 130.169 35.758C129.266 35.758 128.457 35.6163 127.739 35.3338C127.021 35.0513 126.443 34.6282 126.006 34.0632C125.569 33.4983 125.309 32.8838 125.226 32.2187C125.142 31.5547 125.101 30.391 125.101 28.7288V25.9682C125.101 24.3465 125.141 23.1986 125.221 22.5234C125.301 21.8493 125.55 21.2326 125.971 20.6744C126.39 20.1162 126.957 19.6874 127.672 19.3881C128.386 19.0887 129.219 18.939 130.17 18.939C131.072 18.939 131.882 19.0808 132.6 19.3633C133.318 19.6458 133.896 20.07 134.333 20.6339C134.77 21.1988 135.03 21.8133 135.113 22.4784C135.196 23.1435 135.238 24.306 135.238 25.9682V28.7288ZM130.856 23.426C130.856 22.6753 130.813 22.1948 130.726 21.9855C130.639 21.7761 130.46 21.6715 130.19 21.6715C129.961 21.6715 129.786 21.7559 129.665 21.9258C129.544 22.0958 129.483 22.5954 129.483 23.426V30.9627C129.483 31.9002 129.522 32.4775 129.602 32.697C129.682 32.9164 129.868 33.0256 130.159 33.0256C130.458 33.0256 130.648 32.8996 130.732 32.6463C130.815 32.3942 130.856 31.7922 130.856 30.8423V23.426Z" fill="black"/>
<path d="M146.656 19.2787V35.4191H142.815L140.536 28.0815V35.4191H136.872V19.2787H140.536L142.992 26.5465V19.2787H146.656Z" fill="black"/>
</svg>
