<svg width="55" height="55" viewBox="0 0 55 55" fill="none" xmlns="http://www.w3.org/2000/svg">
<circle cx="27.5" cy="27.5" r="27.5" fill="black"/>
<g clip-path="url(#clip0_413_5657)">
<path d="M28.8208 24.0759L26.8931 21.5475C26.7949 21.4183 26.6107 21.3938 26.482 21.492C26.3533 21.5902 26.3278 21.7744 26.4265 21.9035L28.3542 24.432C25.9058 24.663 22.8331 23.5784 21.3078 21.5866C19.7908 19.5879 19.5584 16.3378 20.4297 14.0377L22.3574 16.5661C22.4556 16.6948 22.6398 16.7198 22.7685 16.6216C22.8972 16.5234 22.9222 16.3392 22.824 16.2105L20.8963 13.6821C23.3447 13.4511 26.4174 14.5356 27.9427 16.5275C29.4597 18.5252 29.6921 21.7758 28.8208 24.0759Z" fill="black"/>
<path d="M35.7194 27.693C39.0474 27.693 41.7453 24.9951 41.7453 21.667C41.7453 18.339 39.0474 15.6411 35.7194 15.6411C32.3914 15.6411 29.6935 18.339 29.6935 21.667C29.6935 24.9951 32.3914 27.693 35.7194 27.693Z" fill="black"/>
<path d="M16.9258 22.985C18.6663 22.985 20.0773 21.574 20.0773 19.8336C20.0773 18.0931 18.6663 16.6821 16.9258 16.6821C15.1854 16.6821 13.7744 18.0931 13.7744 19.8336C13.7744 21.574 15.1854 22.985 16.9258 22.985Z" fill="black"/>
<path d="M22.3765 28.5279C22.3765 25.3229 19.8467 22.7249 16.7262 22.7249C13.6057 22.7249 11.0754 25.3229 11.0754 28.5279C11.0754 30.7594 12.3019 32.6967 14.1005 33.6676H19.3515C21.1496 32.6967 22.3765 30.7594 22.3765 28.5279Z" fill="black"/>
<path d="M35.7194 15.6416C32.3915 15.6416 29.6935 18.3392 29.6935 21.6675C29.6935 24.9959 32.3915 27.693 35.7194 27.693C39.0473 27.693 41.7453 24.9949 41.7453 21.6671C41.7453 18.3392 39.0473 15.6416 35.7194 15.6416ZM40.7221 19.4079C39.4725 19.4502 37.7822 19.8235 36.075 21.1673C35.8144 21.3724 35.4634 21.4188 35.1564 21.2933C34.7335 21.12 34.3497 20.9254 34.0018 20.7166C33.7794 20.5829 33.7239 20.2864 33.8827 20.0809C34.5757 19.1823 35.8235 18.2391 37.2419 17.8844C38.2083 17.6425 39.1191 17.7221 39.9018 18.1123C40.231 18.4988 40.5084 18.934 40.7221 19.4079ZM36.3169 16.2064C37.4811 16.3342 38.5584 16.8335 39.4038 17.5989C38.7149 17.4006 37.9586 17.3979 37.1696 17.5948C35.6689 17.9699 34.3474 18.9777 33.6212 19.9331C33.472 20.1291 33.1883 20.1596 33 20.0004C32.8526 19.8758 32.7144 19.7494 32.5853 19.6225C32.4534 19.4924 32.4202 19.2928 32.5011 19.1264C32.8167 18.4752 33.4552 17.7435 34.2251 17.1705C34.9395 16.6389 35.6676 16.3074 36.3169 16.2064ZM34.8536 16.2428C35.0127 16.2173 35.171 16.1996 35.3288 16.1882C34.9063 16.3651 34.4729 16.6143 34.0468 16.9313C33.382 17.4256 32.8208 18.0195 32.4534 18.5998C32.2883 18.8599 31.9122 18.8726 31.7353 18.6202C31.6353 18.4779 31.5452 18.3383 31.4634 18.2023C32.2856 17.19 33.4679 16.4642 34.8536 16.2428ZM31.2697 18.4561C31.9313 19.5165 33.0996 20.7926 35.115 21.5979C35.4229 21.7212 35.6389 22.0022 35.6835 22.3306C35.7449 22.7835 35.7685 23.2132 35.7612 23.6189C35.7567 23.8785 35.5275 24.0745 35.2701 24.04C34.1455 23.8894 32.7044 23.2801 31.688 22.2291C30.9954 21.5129 30.6089 20.6843 30.5552 19.8117C30.7299 19.3274 30.9709 18.8708 31.2697 18.4561ZM35.0791 26.6298C35.0054 26.7885 34.929 26.9376 34.8517 27.0768C33.3529 26.8353 32.0214 25.9777 31.1773 24.7353C31.5416 25.0127 31.9736 25.2623 32.4606 25.4729C33.2214 25.8012 34.0164 25.9904 34.7021 26.0186C35.01 26.0309 35.2087 26.3506 35.0791 26.6298ZM32.5789 25.1991C31.7612 24.8458 31.1096 24.381 30.6976 23.869C30.5129 23.4492 30.3783 22.9995 30.3024 22.5261C30.1914 21.8308 30.2169 21.1441 30.3588 20.4943C30.5311 21.1923 30.9072 21.8508 31.4738 22.437C32.5493 23.5488 34.0827 24.1896 35.2733 24.341C35.5179 24.3719 35.6858 24.6025 35.6421 24.8453C35.608 25.035 35.5675 25.2178 35.522 25.3938C35.4757 25.5729 35.3192 25.7016 35.1346 25.7148C34.4129 25.7667 33.4597 25.5798 32.5789 25.1991ZM36.6989 27.0577C36.6612 27.0645 36.6234 27.0713 36.5852 27.0773C36.1055 27.1541 35.6303 27.1655 35.1682 27.1186C35.7567 26.0154 36.2787 24.3647 35.9682 22.2146C35.9209 21.8867 36.0564 21.5588 36.3183 21.356C36.6798 21.0763 37.0405 20.8412 37.3952 20.6443C37.6221 20.5188 37.9068 20.6189 38.0054 20.8585C38.4375 21.9081 38.6303 23.4606 38.2283 24.8663C37.9541 25.8253 37.4288 26.5748 36.6989 27.0577ZM40.1478 24.8935C39.477 25.8126 38.5225 26.5247 37.3893 26.8863C37.9081 26.3878 38.2906 25.733 38.5148 24.9486C38.9577 23.4006 38.7099 21.678 38.206 20.5734C38.1387 20.4256 38.2083 20.2514 38.3597 20.1928C38.5953 20.1018 38.8263 20.0263 39.0509 19.964C39.2292 19.9145 39.4188 19.9858 39.5229 20.1391C39.9295 20.738 40.2437 21.6566 40.3547 22.6102C40.457 23.4897 40.3815 24.2819 40.1478 24.8935ZM40.6507 22.5761C40.5548 21.753 40.321 20.9704 40.0023 20.3619C39.8595 20.0891 40.0364 19.7571 40.3433 19.7298C40.5179 19.7144 40.6853 19.7062 40.8445 19.703C40.9768 20.0491 41.0755 20.4142 41.136 20.7939C41.3201 21.9463 41.1291 23.0736 40.6535 24.0513C40.7117 23.5984 40.7121 23.1009 40.6507 22.5761Z" fill="white"/>
<path d="M20.4716 13.141C20.372 13.156 20.2796 13.1956 20.2019 13.2547C20.1241 13.3138 20.0614 13.3925 20.0209 13.4844C18.8472 16.1437 19.1992 19.779 20.8404 21.9409C22.4916 24.0974 25.904 25.3998 28.7794 24.9723C28.879 24.9573 28.9713 24.9177 29.0491 24.8586C29.1269 24.7995 29.1896 24.7208 29.2301 24.629C30.4038 21.9696 30.0518 18.3338 28.4106 16.1724C26.759 14.016 23.3465 12.7135 20.4716 13.141ZM28.8208 24.076L26.8931 21.5476C26.7949 21.4184 26.6107 21.3939 26.482 21.4921C26.3533 21.5903 26.3279 21.7745 26.4265 21.9036L28.3542 24.4321C25.9058 24.6631 22.8331 23.5785 21.3078 21.5867C19.7908 19.588 19.5584 16.3379 20.4297 14.0378L22.3574 16.5662C22.4556 16.6949 22.6398 16.7199 22.7685 16.6217C22.8972 16.5235 22.9222 16.3393 22.824 16.2106L20.8963 13.6822C23.3447 13.4512 26.4174 14.5357 27.9427 16.5276C29.4597 18.5253 29.6921 21.7759 28.8208 24.076ZM24.387 16.98C24.5157 16.8818 24.5407 16.6976 24.4424 16.5685C24.3442 16.4393 24.16 16.4148 24.0309 16.513L22.3297 17.81C22.2005 17.9082 22.176 18.0924 22.2742 18.2215C22.3724 18.3507 22.5566 18.3752 22.6857 18.277L23.3028 17.8063L23.7912 18.4471L23.1741 18.9177C23.045 19.016 23.0204 19.2001 23.1187 19.3293C23.2169 19.4584 23.4011 19.483 23.5302 19.3848L24.1473 18.9141L24.6357 19.5548L24.0186 20.0255C23.8895 20.1237 23.8649 20.3079 23.9631 20.4371C24.0614 20.5662 24.2455 20.5908 24.3747 20.4925L24.9918 20.0219L25.4802 20.6626L24.8631 21.1333C24.7344 21.2315 24.7094 21.4157 24.8076 21.5448C24.9058 21.674 25.09 21.6985 25.2192 21.6003L26.9204 20.3034C27.0495 20.2051 27.0741 20.021 26.9759 19.8918C26.8776 19.7631 26.6935 19.7381 26.5643 19.8363L25.9472 20.307L25.4584 19.6663L26.0759 19.1956C26.2046 19.0974 26.2296 18.9132 26.1314 18.784C26.0332 18.6549 25.849 18.6303 25.7198 18.7286L25.1027 19.1992L24.6143 18.5585L25.2314 18.0878C25.3601 17.9896 25.3851 17.8054 25.2869 17.6763C25.1887 17.5471 25.0041 17.5226 24.8754 17.6208L24.2583 18.0914L23.7699 17.4507L24.387 16.98Z" fill="white"/>
<path d="M14.1651 18.3311L18.3984 22.6203C17.2033 23.2497 15.6899 23.0559 14.6917 22.045C13.694 21.0336 13.5202 19.518 14.1651 18.3311Z" fill="white"/>
<path d="M14.3488 18.0338L14.6012 18.1039L14.5703 18.2162L14.2811 18.1361C14.2597 18.1693 14.2392 18.2025 14.2192 18.2362L18.4944 22.5677C18.5635 22.5281 18.6312 22.4859 18.6976 22.4408L18.4457 22.3713L18.4766 22.2589L18.8195 22.354C18.8918 22.2994 18.9628 22.2417 19.0314 22.1803L14.6144 17.7046C14.5171 17.8096 14.4289 17.9197 14.3488 18.0338ZM18.5544 22.1093L18.5235 22.2216L18.2129 22.1357L18.2438 22.0234L18.5544 22.1093ZM18.3216 21.8738L18.2906 21.9861L17.98 21.9001L18.011 21.7878L18.3216 21.8738ZM18.0892 21.6382L18.0583 21.7505L17.7477 21.6646L17.7786 21.5522L18.0892 21.6382ZM17.8568 21.4026L17.8259 21.515L17.5153 21.429L17.5462 21.3167L17.8568 21.4026ZM17.624 21.1671L17.593 21.2794L17.2824 21.1934L17.3134 21.0811L17.624 21.1671ZM17.3916 20.9311L17.3607 21.0434L17.0501 20.9574L17.081 20.8451L17.3916 20.9311ZM17.1592 20.6955L17.1283 20.8078L16.8177 20.7219L16.8486 20.6095L17.1592 20.6955ZM16.9264 20.4599L16.8955 20.5723L16.5849 20.4863L16.6158 20.374L16.9264 20.4599ZM16.694 20.2244L16.6631 20.3367L16.3525 20.2507L16.3834 20.1384L16.694 20.2244ZM16.4616 19.9888L16.4307 20.1011L16.1201 20.0152L16.151 19.9029L16.4616 19.9888ZM16.2288 19.7532L16.1979 19.8656L15.8873 19.7796L15.9182 19.6673L16.2288 19.7532ZM15.9964 19.5177L15.9655 19.63L15.6549 19.5441L15.6858 19.4317L15.9964 19.5177ZM15.764 19.2821L15.7331 19.3944L15.4225 19.3085L15.4534 19.1962L15.764 19.2821ZM15.5312 19.0461L15.5003 19.1584L15.1897 19.0725L15.2206 18.9602L15.5312 19.0461ZM15.2988 18.8105L15.2679 18.9229L14.9573 18.8369L14.9882 18.7246L15.2988 18.8105ZM15.0664 18.575L15.0355 18.6873L14.7249 18.6014L14.7558 18.489L15.0664 18.575ZM14.8336 18.3394L14.8027 18.4517L14.4921 18.3658L14.523 18.2535L14.8336 18.3394Z" fill="white"/>
<path d="M15.2696 17.1601L15.346 17.4507L15.2333 17.4803L15.1669 17.227C15.0514 17.3052 14.9404 17.392 14.834 17.4875L19.251 21.9632C19.3106 21.8982 19.3674 21.8313 19.4206 21.7627L19.3369 21.4093L19.4497 21.3798L19.5161 21.6326C19.562 21.5671 19.6048 21.5003 19.6448 21.4321L15.3692 17.1001C15.3356 17.1192 15.3024 17.1392 15.2696 17.1601ZM19.2987 21.4557L19.186 21.4853L19.1041 21.1738L19.2169 21.1442L19.2987 21.4557ZM19.0664 21.2202L18.9536 21.2497L18.8717 20.9382L18.9845 20.9086L19.0664 21.2202ZM18.834 20.9846L18.7212 21.0141L18.6394 20.7026L18.7521 20.6731L18.834 20.9846ZM18.6012 20.749L18.4884 20.7786L18.4065 20.4671L18.5193 20.4375L18.6012 20.749ZM18.3688 20.5135L18.256 20.543L18.1741 20.2315L18.2869 20.202L18.3688 20.5135ZM18.1364 20.2779L18.0236 20.3075L17.9418 19.996L18.0545 19.9664L18.1364 20.2779ZM17.9036 20.0423L17.7908 20.0719L17.7089 19.7604L17.8217 19.7308L17.9036 20.0423ZM17.6712 19.8063L17.5584 19.8359L17.4765 19.5244L17.5893 19.4948L17.6712 19.8063ZM17.4388 19.5708L17.326 19.6003L17.2442 19.2888L17.3569 19.2593L17.4388 19.5708ZM17.206 19.3352L17.0932 19.3648L17.0113 19.0533L17.1241 19.0237L17.206 19.3352ZM16.9736 19.0996L16.8608 19.1292L16.779 18.8177L16.8917 18.7881L16.9736 19.0996ZM16.7412 18.8641L16.6284 18.8936L16.5466 18.5821L16.6594 18.5526L16.7412 18.8641ZM16.5084 18.6285L16.3956 18.6581L16.3137 18.3466L16.4265 18.317L16.5084 18.6285ZM16.276 18.393L16.1632 18.4225L16.0814 18.111L16.1941 18.0815L16.276 18.393ZM16.0436 18.1574L15.9308 18.187L15.849 17.8754L15.9618 17.8459L16.0436 18.1574ZM15.8108 17.9214L15.698 17.9509L15.6162 17.6394L15.7289 17.6099L15.8108 17.9214ZM15.5784 17.6858L15.4656 17.7154L15.3838 17.4039L15.4966 17.3743L15.5784 17.6858Z" fill="white"/>
<path d="M19.1728 17.6227C20.171 18.634 20.3447 20.1506 19.699 21.3375L15.4652 17.0479C16.6603 16.4176 18.1746 16.6108 19.1728 17.6227Z" fill="white"/>
<path d="M21.1537 27.1701C21.4716 27.1701 21.8113 27.1014 22.1687 26.9659C21.8817 25.9099 21.3115 24.9759 20.5475 24.2546C20.5166 24.9918 20.4015 25.9004 20.1023 26.8863C20.4261 27.075 20.779 27.1701 21.1537 27.1701Z" fill="white"/>
<path d="M19.7548 26.6393C20.0568 25.5966 20.145 24.6425 20.1523 23.9149C19.5243 23.4224 18.793 23.0613 17.9972 22.8735C18.1618 23.7426 18.6416 25.6957 19.7548 26.6393Z" fill="white"/>
<path d="M22.2665 27.3844C21.8786 27.5272 21.5066 27.5999 21.1537 27.5999C20.733 27.5999 20.3356 27.4981 19.9686 27.2966C19.7863 27.8182 19.5612 28.323 19.2979 28.8032C20.161 29.6236 20.9304 30.5117 21.6016 31.4622C22.0937 30.6013 22.3765 29.599 22.3765 28.5286C22.3765 28.137 22.3383 27.7546 22.2665 27.3844Z" fill="white"/>
<path d="M19.6203 27.0683C18.2246 25.9973 17.7139 23.6271 17.573 22.7909C17.2965 22.7481 17.0136 22.7258 16.7253 22.7258C15.0927 22.7258 13.6225 23.4371 12.5907 24.5735C14.3074 25.2515 16.7353 26.468 18.9895 28.5166C19.2383 28.0551 19.4493 27.5694 19.6203 27.0683Z" fill="white"/>
<path d="M19.0836 29.1743C18.7103 29.7901 18.2655 30.3703 17.7585 30.9042L17.7598 30.9056L17.7557 30.9096C18.3496 31.6504 18.6507 32.5918 18.6439 33.6686H19.3474C20.1541 33.2334 20.8467 32.605 21.3647 31.8419C20.703 30.8883 19.9417 29.9965 19.0836 29.1743Z" fill="white"/>
<path d="M13.9454 33.5817C13.9968 33.6117 14.0487 33.6404 14.101 33.6685H18.2456C18.2551 32.6954 17.9936 31.8682 17.4634 31.2029C16.5011 32.1392 15.3233 32.9346 13.9454 33.5817Z" fill="white"/>
<path d="M17.4775 30.598C17.9781 30.071 18.4147 29.4975 18.7785 28.8886C16.4875 26.7918 14.005 25.5753 12.3015 24.9177C11.5334 25.9086 11.0741 27.1633 11.0741 28.5285C11.0741 28.6385 11.0773 28.7476 11.0832 28.8563C11.2565 28.8518 11.4265 28.85 11.593 28.85C14.346 28.85 16.3242 29.438 17.4775 30.598Z" fill="white"/>
<path d="M11.593 29.2798C11.4393 29.2798 11.2819 29.2821 11.1223 29.2857C11.3338 30.9528 12.2346 32.3976 13.5211 33.3089C14.9691 32.6613 16.196 31.8532 17.1851 30.8932C16.1064 29.8228 14.2269 29.2798 11.593 29.2798Z" fill="white"/>
<path d="M42.8522 34.2061H12.1542V43.5508H42.8522V34.2061Z" fill="white"/>
<path d="M17.5056 38.0182H15.8099V37.4261C15.8099 37.0528 15.794 36.819 15.7617 36.7254C15.7294 36.6312 15.653 36.5844 15.532 36.5844C15.4274 36.5844 15.356 36.6249 15.3187 36.7054C15.281 36.7859 15.2624 36.9928 15.2624 37.3256V40.4557C15.2624 40.7486 15.281 40.9409 15.3187 41.0337C15.3565 41.1265 15.4315 41.1728 15.5443 41.1728C15.668 41.1728 15.7517 41.1205 15.7962 41.016C15.8403 40.9114 15.8626 40.7072 15.8626 40.4034V39.6299H15.5202V38.639H17.5061V42.1396H16.4402L16.2833 41.6722C16.1678 41.8736 16.0218 42.0246 15.8458 42.1255C15.6698 42.226 15.462 42.2765 15.2228 42.2765C14.9377 42.2765 14.6712 42.2074 14.4224 42.0692C14.1737 41.9309 13.985 41.7595 13.8558 41.5553C13.7267 41.3511 13.6462 41.1369 13.6139 40.9127C13.5816 40.6885 13.5657 40.352 13.5657 39.9036V37.9659C13.5657 37.3429 13.5993 36.8904 13.6662 36.6085C13.7335 36.3266 13.9258 36.0683 14.2442 35.8331C14.5625 35.598 14.974 35.4807 15.4788 35.4807C15.9754 35.4807 16.3879 35.583 16.7157 35.7868C17.0432 35.9909 17.2569 36.2333 17.356 36.5139C17.4552 36.7945 17.5052 37.202 17.5052 37.7367V38.0182H17.5056Z" fill="black"/>
<path d="M21.0941 35.6177L22.0641 42.1397H20.3311L20.2401 40.9674H19.6335L19.5316 42.1397H17.7781L18.643 35.6177H21.0941ZM20.1951 39.8109C20.1091 39.0724 20.0232 38.1593 19.9368 37.0715C19.764 38.3203 19.6553 39.2334 19.6112 39.8109H20.1951Z" fill="black"/>
<path d="M27.5848 35.6177V42.1397H26.1023L26.1005 37.7368L25.5102 42.1397H24.4588L23.8362 37.8373L23.8344 42.1397H22.3519V35.6177H24.5466C24.6116 36.0097 24.6789 36.4722 24.748 37.0042L24.989 38.6632L25.3788 35.6177H27.5848Z" fill="black"/>
<path d="M28.2655 35.6177H31.0936V36.9228H29.9617V38.1597H31.0213V39.4003H29.9617V40.8346H31.2064V42.1397H28.2655V35.6177Z" fill="black"/>
<path d="M37.0231 39.4361C37.0231 40.0914 37.0077 40.5553 36.9767 40.8281C36.9458 41.1005 36.849 41.3497 36.6866 41.5753C36.5243 41.8008 36.3046 41.9741 36.0281 42.095C35.7516 42.216 35.4292 42.2765 35.0613 42.2765C34.7121 42.2765 34.3987 42.2192 34.1209 42.1051C33.843 41.9909 33.6193 41.8199 33.4501 41.5916C33.281 41.3634 33.1805 41.1151 33.1482 40.8463C33.1159 40.578 33.1 40.1078 33.1 39.4361V38.3206C33.1 37.6653 33.1154 37.2015 33.1464 36.9286C33.1773 36.6562 33.2737 36.407 33.4365 36.1815C33.5988 35.9559 33.8185 35.7826 34.095 35.6617C34.3715 35.5407 34.6939 35.4802 35.0618 35.4802C35.411 35.4802 35.7243 35.5375 36.0022 35.6517C36.2801 35.7658 36.5038 35.9373 36.673 36.1651C36.8421 36.3934 36.9426 36.6417 36.9749 36.9104C37.0072 37.1792 37.0231 37.6489 37.0231 38.3206V39.4361ZM35.3274 37.2933C35.3274 36.99 35.3105 36.7958 35.2769 36.7112C35.2432 36.6267 35.1741 36.5844 35.0695 36.5844C34.9808 36.5844 34.9131 36.6185 34.8662 36.6871C34.8194 36.7558 34.7957 36.9577 34.7957 37.2933V40.3388C34.7957 40.7176 34.8112 40.9509 34.8421 41.0396C34.8731 41.1282 34.9449 41.1724 35.0577 41.1724C35.1732 41.1724 35.2469 41.1214 35.2791 41.0191C35.3114 40.9172 35.3274 40.6739 35.3274 40.2901V37.2933Z" fill="black"/>
<path d="M41.4425 35.6177V42.1397H39.9559L39.0737 39.1747V42.1397H37.6558V35.6177H39.0737L40.0246 38.5545V35.6177H41.4425Z" fill="black"/>
<path d="M43.4566 27.584C41.985 25.8732 38.12 26.2771 34.9431 28.6786C34.3474 29.1293 33.774 29.6077 33.2942 30.1788C32.8286 30.7332 32.4316 31.353 32.1146 32.0206C31.8668 32.5417 31.6685 33.0938 31.5198 33.6686H42.5211C43.3279 32.75 44.6307 28.9496 43.4566 27.584ZM39.8668 29.1961C39.8054 29.2307 39.7444 29.2652 39.6826 29.2989L39.317 29.5049C39.2833 29.524 39.2492 29.5435 39.2155 29.5626C39.2283 29.5845 39.241 29.6058 39.2537 29.6277C39.3433 29.785 39.4206 29.9487 39.4834 30.1215C39.5148 30.2079 39.5416 30.2966 39.5639 30.388C39.5748 30.4339 39.5848 30.4803 39.5925 30.5281C39.6003 30.5754 39.6071 30.624 39.6089 30.675C39.5662 30.6472 39.5284 30.6168 39.4916 30.5854C39.4547 30.5545 39.4202 30.5222 39.3861 30.4894C39.3188 30.4235 39.2565 30.3548 39.1987 30.2839C39.0823 30.142 38.9813 29.991 38.8922 29.8337C38.8804 29.8128 38.8686 29.7914 38.8572 29.7705C38.7699 29.8214 38.683 29.8728 38.5966 29.9251C38.5098 29.9769 38.4238 30.0297 38.3379 30.0824C38.412 30.2084 38.4779 30.3389 38.5339 30.4762C38.568 30.5599 38.5984 30.6459 38.6235 30.7354C38.6357 30.7805 38.6476 30.8255 38.6567 30.8723C38.6662 30.9187 38.6744 30.9665 38.6785 31.0165C38.6353 30.991 38.5962 30.9628 38.5584 30.9342C38.5207 30.9055 38.4848 30.8751 38.4502 30.8446C38.3811 30.7827 38.3165 30.7182 38.256 30.6509C38.1569 30.5404 38.0682 30.4239 37.9873 30.3021C37.7799 30.4339 37.5748 30.5685 37.372 30.7063C37.4456 30.8218 37.5125 30.9419 37.5707 31.0683C37.6085 31.1502 37.6426 31.2348 37.6717 31.323C37.6858 31.3671 37.6994 31.4117 37.7112 31.458C37.723 31.504 37.7331 31.5508 37.7394 31.6008C37.6949 31.5776 37.6548 31.5513 37.6157 31.524C37.5766 31.4972 37.5398 31.4685 37.5034 31.4394C37.4316 31.3807 37.3642 31.3193 37.301 31.2548C37.2037 31.1556 37.115 31.0506 37.0332 30.941C36.8326 31.082 36.6339 31.2266 36.4375 31.3735C36.5225 31.4921 36.5998 31.6163 36.668 31.7482C36.7094 31.8282 36.7471 31.9114 36.7803 31.9983C36.7967 32.0419 36.8122 32.0856 36.8258 32.1315C36.8395 32.177 36.8517 32.2234 36.8604 32.273C36.8149 32.2516 36.7735 32.227 36.7335 32.2016C36.693 32.1761 36.6553 32.1493 36.6175 32.122C36.543 32.0665 36.4729 32.0078 36.407 31.9464C36.2988 31.8455 36.2001 31.7377 36.1087 31.624C36.0286 31.6859 35.9491 31.7477 35.8699 31.8105C35.7908 31.8728 35.7117 31.936 35.633 31.9997C35.6485 32.0178 35.6639 32.036 35.6794 32.0542C35.7949 32.1934 35.9004 32.3412 35.9918 32.5003C36.0377 32.5799 36.08 32.6622 36.1178 32.7486C36.1364 32.7918 36.1546 32.8359 36.1705 32.8814C36.1864 32.9269 36.2014 32.9733 36.2124 33.0228C36.1655 33.0028 36.1228 32.9796 36.0809 32.9555C36.0391 32.9314 35.9995 32.9055 35.9604 32.8791C35.8827 32.8259 35.8095 32.7695 35.7399 32.7095C35.6007 32.5899 35.4748 32.4594 35.3592 32.3198C35.3433 32.3007 35.3274 32.2811 35.312 32.2616C35.2819 32.2861 35.2519 32.3112 35.2219 32.3357L34.8995 32.6045C34.8463 32.6499 34.7922 32.695 34.7381 32.74C34.6844 32.7855 34.6303 32.8309 34.5748 32.8751C34.6135 32.8155 34.6535 32.7573 34.6935 32.6991C34.7349 32.6418 34.7763 32.5845 34.819 32.5281C34.8618 32.4717 34.9054 32.4162 34.9491 32.3607L35.0837 32.197C35.1155 32.1593 35.1478 32.122 35.1805 32.0847C35.1332 32.0165 35.0887 31.9464 35.0468 31.8737C35.0009 31.7941 34.9586 31.7118 34.9209 31.6254C34.9022 31.5822 34.884 31.5385 34.8681 31.4926C34.8517 31.4471 34.8372 31.4007 34.8258 31.3512C34.8727 31.3712 34.9154 31.3944 34.9568 31.4189C34.9986 31.443 35.0382 31.469 35.0773 31.4953C35.1551 31.5485 35.2283 31.6054 35.2979 31.665C35.3479 31.7077 35.3961 31.7523 35.4429 31.7977C35.5148 31.7227 35.588 31.6486 35.6626 31.5754C35.7426 31.4972 35.824 31.4203 35.9068 31.3453C35.8545 31.2648 35.8058 31.1816 35.7612 31.0952C35.7199 31.0147 35.6821 30.9319 35.6489 30.845C35.6326 30.8014 35.6171 30.7577 35.6035 30.7118C35.5898 30.6663 35.5771 30.6199 35.5689 30.5704C35.6144 30.5917 35.6557 30.6163 35.6958 30.6418C35.7362 30.6672 35.774 30.6941 35.8117 30.7213C35.8863 30.7768 35.9559 30.8355 36.0223 30.8969C36.0864 30.9565 36.1473 31.0188 36.2055 31.0833C36.4029 30.9173 36.6066 30.7591 36.8158 30.6086C36.7726 30.5331 36.7321 30.4558 36.6958 30.3757C36.658 30.2939 36.6239 30.2093 36.5948 30.1211C36.5803 30.077 36.5666 30.0324 36.5552 29.986C36.5434 29.9401 36.533 29.8932 36.5271 29.8432C36.5712 29.8669 36.6116 29.8928 36.6503 29.9201C36.6894 29.9474 36.7262 29.976 36.7622 30.0047C36.834 30.0633 36.9013 30.1247 36.9645 30.1893C37.0264 30.252 37.0846 30.3171 37.1396 30.3844C37.3547 30.242 37.5748 30.1079 37.7999 29.9824C37.7599 29.9051 37.7235 29.8259 37.6903 29.7445C37.6562 29.6609 37.6257 29.5749 37.6007 29.4853C37.5884 29.4403 37.5766 29.3953 37.5671 29.3489C37.5575 29.3025 37.5489 29.2552 37.5452 29.2052C37.5884 29.2307 37.6276 29.2589 37.6648 29.288C37.7026 29.3166 37.7381 29.3471 37.7731 29.3776C37.8422 29.4394 37.9068 29.504 37.9673 29.5713C38.0323 29.6436 38.0928 29.7191 38.1501 29.7964C38.2497 29.7459 38.3506 29.6968 38.452 29.6499C38.5466 29.6063 38.6416 29.564 38.7376 29.5235C38.7112 29.4635 38.6871 29.4026 38.6644 29.3403C38.633 29.2539 38.6062 29.1652 38.5839 29.0738C38.573 29.0278 38.563 28.9815 38.5552 28.9342C38.5471 28.8869 38.5407 28.8382 38.5384 28.7877C38.5807 28.8155 38.6189 28.8459 38.6557 28.8773C38.6926 28.9082 38.7271 28.941 38.7612 28.9737C38.8286 29.0397 38.8909 29.1083 38.9486 29.1793C39.0018 29.2443 39.0518 29.3112 39.0991 29.3798C39.1455 29.3625 39.1919 29.3457 39.2383 29.3289C39.3051 29.3062 39.372 29.283 39.4393 29.2607C39.507 29.2398 39.5743 29.2184 39.6421 29.1979C39.7099 29.1784 39.7781 29.1597 39.8463 29.1411C39.915 29.1243 39.9836 29.107 40.0527 29.092C39.99 29.1279 39.9281 29.162 39.8668 29.1961Z" fill="white"/>
<path d="M39.6398 29.1973C39.5721 29.2173 39.5048 29.2387 39.437 29.2601C39.3697 29.2823 39.3033 29.3055 39.236 29.3283C39.1896 29.3446 39.1432 29.3619 39.0968 29.3792C39.0495 29.3105 39 29.2437 38.9463 29.1787C38.8881 29.1077 38.8263 29.039 38.759 28.9731C38.7249 28.9404 38.6907 28.9081 38.6535 28.8767C38.6166 28.8453 38.5789 28.8153 38.5361 28.7871C38.5384 28.838 38.5448 28.8862 38.553 28.9335C38.5607 28.9813 38.5707 29.0272 38.5816 29.0731C38.6039 29.1646 38.6307 29.2532 38.6621 29.3396C38.6844 29.4019 38.7089 29.4629 38.7353 29.5229C38.6394 29.5634 38.5443 29.6057 38.4497 29.6493C38.3483 29.6966 38.2478 29.7453 38.1478 29.7957C38.0909 29.7184 38.03 29.643 37.965 29.5706C37.9045 29.5033 37.8404 29.4388 37.7708 29.3769C37.7358 29.3465 37.7003 29.316 37.6626 29.2873C37.6248 29.2582 37.5862 29.23 37.543 29.2046C37.547 29.2546 37.5552 29.3019 37.5648 29.3483C37.5743 29.3951 37.5862 29.4401 37.5984 29.4847C37.6239 29.5738 37.6539 29.6602 37.688 29.7439C37.7212 29.8253 37.7581 29.9044 37.7976 29.9817C37.5725 30.1073 37.352 30.2414 37.1373 30.3837C37.0823 30.3164 37.0241 30.2514 36.9622 30.1887C36.899 30.1241 36.8317 30.0627 36.7599 30.004C36.7235 29.9749 36.6867 29.9463 36.648 29.9194C36.6093 29.8922 36.5689 29.8658 36.5248 29.8426C36.5311 29.8922 36.5416 29.939 36.553 29.9854C36.5643 30.0313 36.578 30.0759 36.5925 30.1204C36.6216 30.2082 36.6557 30.2932 36.6935 30.3751C36.7303 30.4551 36.7703 30.5324 36.8135 30.6079C36.6039 30.7585 36.4002 30.9167 36.2033 31.0827C36.145 31.0181 36.0846 30.9558 36.02 30.8963C35.954 30.8349 35.884 30.7757 35.8094 30.7207C35.7721 30.6934 35.7339 30.6661 35.6935 30.6411C35.6535 30.6157 35.6121 30.5911 35.5666 30.5697C35.5752 30.6193 35.5875 30.6657 35.6012 30.7112C35.6148 30.7566 35.6303 30.8008 35.6466 30.8444C35.6798 30.9308 35.7176 31.014 35.759 31.0945C35.8035 31.1809 35.8522 31.2641 35.9045 31.3446C35.8217 31.4201 35.7403 31.497 35.6603 31.5747C35.5857 31.6475 35.5125 31.7216 35.4406 31.7971C35.3938 31.7516 35.3456 31.7071 35.2956 31.6643C35.226 31.6048 35.1528 31.5479 35.075 31.4947C35.0359 31.4683 34.9963 31.4424 34.9545 31.4183C34.9131 31.3942 34.8699 31.3706 34.8235 31.3505C34.8344 31.4001 34.8495 31.4465 34.8658 31.492C34.8817 31.5375 34.8999 31.5811 34.9186 31.6248C34.9563 31.7112 34.9986 31.7935 35.0445 31.8731C35.0864 31.9458 35.1309 32.0158 35.1782 32.0841C35.1455 32.1214 35.1132 32.1586 35.0814 32.1964L34.9468 32.3601C34.9031 32.416 34.8595 32.4711 34.8167 32.5274C34.7744 32.5838 34.7326 32.6411 34.6912 32.6984C34.6512 32.7566 34.6107 32.8148 34.5725 32.8744C34.628 32.8303 34.6821 32.7848 34.7358 32.7394C34.7899 32.6943 34.844 32.6493 34.8972 32.6038L35.2196 32.3351C35.2496 32.3101 35.2797 32.2855 35.3097 32.261C35.3251 32.2805 35.341 32.3001 35.357 32.3192C35.4725 32.4583 35.598 32.5893 35.7376 32.7089C35.8072 32.7689 35.8804 32.8253 35.9581 32.8785C35.9972 32.9049 36.0368 32.9308 36.0786 32.9549C36.1205 32.979 36.1632 33.0022 36.2101 33.0222C36.1992 32.9726 36.1842 32.9263 36.1682 32.8808C36.1523 32.8353 36.1341 32.7912 36.1155 32.748C36.0777 32.6616 36.0354 32.5793 35.9895 32.4997C35.8977 32.3405 35.7926 32.1927 35.6771 32.0536C35.6616 32.0354 35.6462 32.0172 35.6307 31.999C35.7094 31.9358 35.7881 31.8726 35.8676 31.8098C35.9468 31.7471 36.0264 31.6852 36.1064 31.6234C36.1978 31.7371 36.2965 31.8453 36.4047 31.9458C36.4706 32.0077 36.5407 32.0663 36.6153 32.1214C36.653 32.1486 36.6907 32.1759 36.7312 32.2009C36.7712 32.2264 36.8126 32.251 36.8581 32.2723C36.8499 32.2228 36.8372 32.1764 36.8235 32.1309C36.8099 32.0854 36.7944 32.0413 36.7781 31.9977C36.7449 31.9108 36.7071 31.828 36.6657 31.7475C36.598 31.6161 36.5202 31.4915 36.4352 31.3728C36.6321 31.2259 36.8304 31.0813 37.0309 30.9404C37.1128 31.05 37.2014 31.155 37.2987 31.2541C37.362 31.3187 37.4293 31.3801 37.5011 31.4388C37.5375 31.4679 37.5743 31.4965 37.6134 31.5234C37.6525 31.5506 37.6926 31.577 37.7371 31.6002C37.7312 31.5502 37.7208 31.5033 37.7089 31.4574C37.6976 31.411 37.6839 31.3665 37.6694 31.3224C37.6403 31.2346 37.6062 31.1495 37.5684 31.0677C37.5102 30.9417 37.4434 30.8212 37.3697 30.7057C37.5725 30.5679 37.7781 30.4333 37.985 30.3014C38.0659 30.4233 38.1546 30.5397 38.2537 30.6502C38.3142 30.7175 38.3783 30.7821 38.4479 30.844C38.4829 30.8744 38.5184 30.9049 38.5561 30.9335C38.5939 30.9626 38.633 30.9904 38.6762 31.0159C38.6721 30.9658 38.6639 30.9185 38.6544 30.8717C38.6448 30.8249 38.6334 30.7798 38.6212 30.7348C38.5957 30.6457 38.5657 30.5593 38.5316 30.4756C38.4756 30.3383 38.4093 30.2078 38.3356 30.0818C38.4215 30.029 38.5079 29.9763 38.5943 29.9244C38.6807 29.8726 38.7676 29.8212 38.8549 29.7698C38.8663 29.7912 38.8781 29.8121 38.8899 29.833C38.9791 29.9904 39.08 30.1414 39.1964 30.2832C39.2546 30.3542 39.3169 30.4229 39.3838 30.4888C39.4179 30.5215 39.4525 30.5538 39.4893 30.5847C39.5261 30.6161 39.5643 30.6461 39.6066 30.6743C39.6043 30.6234 39.598 30.5752 39.5902 30.5274C39.5825 30.4797 39.5725 30.4333 39.5616 30.3874C39.5393 30.296 39.5125 30.2073 39.4811 30.1209C39.4188 29.9481 39.341 29.7844 39.2515 29.627C39.2392 29.6052 39.226 29.5834 39.2133 29.562C39.2469 29.5429 39.2806 29.5234 39.3147 29.5043L39.6803 29.2983C39.7417 29.2646 39.8031 29.23 39.8645 29.1955C39.9259 29.1614 39.9877 29.1273 40.0486 29.0909C39.9795 29.1059 39.9108 29.1227 39.8422 29.14C39.7762 29.1586 39.708 29.1773 39.6398 29.1973Z" fill="black"/>
<path d="M29.0491 26.6395L26.6785 25.8865L26.6694 25.8947L25.04 27.2898L25.6121 29.2416L25.7103 29.5777L25.7499 29.5922L28.0096 30.4181L28.0973 30.334L29.714 28.7892L29.1251 26.6636L29.0491 26.6395Z" fill="white"/>
<path d="M30.2596 25.8733L29.7007 26.3062L29.2823 26.6305L29.3233 26.7782L29.8744 28.7678L31.5206 30.082L32.2119 29.439L32.2014 29.2726L32.2009 29.2639L32.0914 27.4754L32.0773 27.2435C31.834 26.7728 31.5288 26.3394 31.1718 25.9538L30.3365 25.8797L30.2596 25.8733Z" fill="white"/>
<path d="M28.2023 33.0233L28.2874 32.951L28.3701 32.8801L27.9267 30.5586L26.8194 30.1538L25.6066 29.7104L23.6466 31.323L24.3733 33.5772L24.6693 33.6691H27.4442L28.2023 33.0233Z" fill="white"/>
<path d="M32.2947 29.6139L32.2788 29.5957L31.7967 30.0436L31.5939 30.2324L31.0178 31.9613L30.8049 32.5993L30.9627 33.6689H31.3606C32.1751 32.698 32.6799 31.4593 32.7222 30.1028L32.2947 29.6139Z" fill="white"/>
<path d="M24.2178 33.6176L23.8186 32.3784L23.5139 31.4321L23.5093 31.4175L22.0482 30.0569L21.5339 30.5803L21.4843 30.6308L21.3975 31.9123C21.6326 32.5589 21.9786 33.1519 22.4125 33.669H24.1637L24.1924 33.6426L24.2178 33.6176Z" fill="white"/>
<path d="M21.397 31.9123L21.4839 30.6308L21.5334 30.5804L22.0478 30.0569L23.5089 31.4176L23.5134 31.4321L23.8181 32.3785L24.2174 33.6177L24.191 33.6422L24.1624 33.6686H24.6685L24.3724 33.5772L23.6458 31.323L25.6057 29.7104L26.8186 30.1538L27.9259 30.5585L28.3693 32.88L28.2865 32.9505L28.2015 33.0228L27.4434 33.6686H27.6903L28.4047 33.0601L28.4948 32.9833L30.6021 32.6981L30.6558 32.6909L30.7999 33.6686H30.9618L30.804 32.599L31.0168 31.961L31.593 30.232L31.7958 30.0433L32.2779 29.5954L32.2938 29.6136L32.7208 30.1024C32.6785 31.4585 32.1737 32.6977 31.3593 33.6686H31.7899C32.5862 32.629 33.0596 31.3289 33.0596 29.9178C33.0596 26.5076 30.2951 23.7432 26.885 23.7432C23.4748 23.7432 20.7103 26.5076 20.7103 29.9178C20.7103 31.3284 21.1837 32.6286 21.98 33.6686H22.4106C21.9782 33.152 21.6321 32.559 21.397 31.9123ZM29.714 28.7891L28.0973 30.3339L28.0091 30.418L25.7499 29.5922L25.7103 29.5776L25.6116 29.2411L25.0396 27.2893L26.6689 25.8941L26.6785 25.886L29.0491 26.6386L29.1251 26.6627L29.714 28.7891ZM31.1719 25.9537C31.5284 26.3393 31.834 26.7723 32.0773 27.2434L32.0914 27.4753L32.201 29.2639L32.2015 29.2725L32.2119 29.4389L31.5207 30.082L29.8745 28.7677L29.3233 26.7782L29.2824 26.6304L29.7008 26.3061L30.2597 25.8732L30.3365 25.88L31.1719 25.9537ZM31.0023 25.7782L30.4457 25.7291L30.3151 25.7177L29.3638 24.8919L28.7976 24.4003C29.6353 24.6904 30.3865 25.1661 31.0023 25.7782ZM26.8859 24.0797C27.3474 24.0797 27.7963 24.1333 28.2269 24.2348L27.6021 24.2766L26.4816 24.3512L23.9418 24.9505L23.9027 24.8991C24.7758 24.3789 25.7958 24.0797 26.8859 24.0797ZM23.9513 25.1124L26.4411 24.5249L26.4961 24.9983L26.5844 25.7564L25.4375 26.7382L24.9091 27.1906L22.8158 27.4062L22.6612 26.4794L23.9513 25.1124ZM21.3283 30.5608L21.3151 30.574L21.0873 30.5995C21.0614 30.3762 21.0473 30.1488 21.0473 29.9182C21.0473 28.5413 21.5239 27.2757 22.3215 26.2775L22.3424 26.3021L22.5007 26.4885L22.6676 27.489L21.9859 29.8914L21.5007 30.3853L21.3493 30.5394L21.3283 30.5608Z" fill="black"/>
<path d="M30.3151 25.7173L30.4456 25.7287L31.0022 25.7778C30.3865 25.1657 29.6353 24.69 28.7976 24.3994L29.3638 24.891L30.3151 25.7173Z" fill="white"/>
<path d="M30.6567 32.6914L30.6031 32.6982L28.4962 32.9834L28.4057 33.0602L27.6913 33.6691H30.8009L30.6567 32.6914Z" fill="white"/>
<path d="M26.4816 24.3508L27.6021 24.2763L28.2269 24.2344C27.7963 24.133 27.3475 24.0793 26.8859 24.0793C25.7954 24.0793 24.7758 24.3781 23.9027 24.8984L23.9418 24.9497L26.4816 24.3508Z" fill="white"/>
<path d="M21.9858 29.892L22.6675 27.489L22.5006 26.4886L22.3424 26.3021L22.3215 26.2776C21.5243 27.2762 21.0477 28.5413 21.0472 29.9183C21.0472 30.1489 21.0613 30.3758 21.0873 30.5996L21.3151 30.5741L21.3283 30.5609L21.3492 30.5395L21.5006 30.3854L21.9858 29.892Z" fill="white"/>
<path d="M24.9095 27.1907L25.4379 26.7382L26.5843 25.7564L26.4961 24.9988L26.4411 24.5249L23.9513 25.1124L22.6616 26.4794L22.8162 27.4062L24.9095 27.1907Z" fill="white"/>
</g>
<defs>
<clipPath id="clip0_413_5657">
<rect width="33" height="30.5507" fill="white" transform="translate(11 13)"/>
</clipPath>
</defs>
</svg>
