<svg width="25" height="25" viewBox="0 0 25 25" fill="none" xmlns="http://www.w3.org/2000/svg">
    <path
        d="M14.5501 12.5496C14.5501 13.5576 13.7401 14.3496 12.7501 14.3496C11.7601 14.3496 10.9501 13.5396 10.9501 12.5496C10.9501 11.5596 11.7601 10.7496 12.7501 10.7496C13.7401 10.7496 14.5501 11.5416 14.5501 12.5496Z"
        fill="white" />
    <path
        d="M14.5501 5.3499C14.5501 6.3579 13.7401 7.1499 12.7501 7.1499C11.7601 7.1499 10.9501 6.3399 10.9501 5.3499C10.9501 4.3599 11.7601 3.5499 12.7501 3.5499C13.7401 3.5499 14.5501 4.3419 14.5501 5.3499Z"
        fill="white" />
    <path
        d="M14.5501 19.7498C14.5501 20.7578 13.7401 21.5498 12.7501 21.5498C11.7601 21.5498 10.9501 20.7398 10.9501 19.7498C10.9501 18.7598 11.7601 17.9498 12.7501 17.9498C13.7401 17.9498 14.5501 18.7418 14.5501 19.7498Z"
        fill="white" />
</svg>
