<svg width="40" height="41" viewBox="0 0 40 41" fill="none" xmlns="http://www.w3.org/2000/svg">
<rect y="0.214355" width="40" height="40" rx="8" fill="#FCFCFC" fill-opacity="0.1"/>
<path fill-rule="evenodd" clip-rule="evenodd" d="M14.8763 16.8003C15.1663 14.1895 17.3731 12.2144 20 12.2144C22.6269 12.2144 24.8336 14.1895 25.1237 16.8003L25.3336 18.6888C25.4333 19.5862 25.7253 20.4514 26.1899 21.2256L26.6716 22.0285L26.6795 22.0418C26.8241 22.2827 26.944 22.4825 27.03 22.6473C27.1163 22.8124 27.1942 22.9886 27.22 23.1783C27.3113 23.8468 26.9448 24.494 26.3246 24.7598C26.1487 24.8352 25.9575 24.859 25.7715 24.87C25.586 24.881 25.353 24.881 25.072 24.881H25.0565H14.9435H14.928C14.647 24.881 14.414 24.881 14.2285 24.87C14.0425 24.859 13.8513 24.8352 13.6754 24.7598C13.0552 24.494 12.6887 23.8468 12.78 23.1783C12.8058 22.9886 12.8837 22.8124 12.97 22.6473C13.056 22.4825 13.1759 22.2827 13.3204 22.0418L13.3284 22.0285L13.8101 21.2256C14.2746 20.4514 14.5667 19.5862 14.6664 18.6888L14.8763 16.8003ZM20 13.2144C17.8827 13.2144 16.104 14.8064 15.8701 16.9108L15.6603 18.7993C15.5447 19.8395 15.2061 20.8426 14.6676 21.7401L14.1859 22.543C14.0314 22.8006 13.927 22.9749 13.8564 23.1102C13.7843 23.2482 13.7726 23.2997 13.7708 23.3134C13.7404 23.5363 13.8625 23.752 14.0693 23.8406C14.082 23.8461 14.1322 23.8626 14.2876 23.8718C14.44 23.8808 14.6431 23.881 14.9435 23.881H25.0565C25.3569 23.881 25.56 23.8808 25.7124 23.8718C25.8678 23.8626 25.918 23.8461 25.9307 23.8406C26.1375 23.752 26.2596 23.5363 26.2292 23.3134C26.2273 23.2997 26.2157 23.2482 26.1436 23.1102C26.073 22.9749 25.9686 22.8006 25.8141 22.543L25.3324 21.7401C24.7939 20.8426 24.4553 19.8395 24.3397 18.7993L24.1299 16.9108C23.896 14.8064 22.1173 13.2144 20 13.2144Z" fill="#FCFCFC"/>
<path d="M17.5852 24.9349C17.7276 25.7323 18.0415 26.4369 18.4781 26.9394C18.9147 27.442 19.4497 27.7144 20 27.7144C20.5503 27.7144 21.0853 27.442 21.5219 26.9394C21.9585 26.4369 22.2724 25.7323 22.4148 24.9349" stroke="#FCFCFC" stroke-linecap="round"/>
<rect x="0.5" y="0.714355" width="39" height="39" rx="7.5" stroke="#FCFCFC" stroke-opacity="0.2"/>
</svg>
