<svg width="24" height="24" viewBox="0 0 24 24" fill="none" xmlns="http://www.w3.org/2000/svg">
<path d="M13.6506 9.75433L9.34954 14.0554C8.79704 13.5029 8.45703 12.7464 8.45703 11.9048C8.45703 10.2218 9.81705 8.86182 11.5001 8.86182C12.3416 8.86182 13.0981 9.20182 13.6506 9.75433Z" stroke="#E74646" stroke-linecap="round" stroke-linejoin="round"/>
<path d="M16.447 6.60926C14.9595 5.48725 13.2595 4.87524 11.5 4.87524C8.49942 4.87524 5.70289 6.64326 3.75637 9.7033C2.99137 10.9018 2.99137 12.9163 3.75637 14.1148C4.42788 15.1689 5.20989 16.0784 6.0599 16.8094" stroke="#E74646" stroke-linecap="round" stroke-linejoin="round"/>
<path d="M8.45703 18.3055C9.42604 18.7135 10.4546 18.9345 11.5001 18.9345C14.5006 18.9345 17.2971 17.1665 19.2436 14.1065C20.0087 12.908 20.0087 10.8935 19.2436 9.69495C18.9631 9.25294 18.6571 8.83644 18.3426 8.44543" stroke="#E74646" stroke-linecap="round" stroke-linejoin="round"/>
<path d="M14.4836 12.5C14.2626 13.6985 13.2851 14.676 12.0865 14.897" stroke="#E74646" stroke-linecap="round" stroke-linejoin="round"/>
<path d="M9.34957 14.0552L3 20.4047" stroke="#E74646" stroke-linecap="round" stroke-linejoin="round"/>
<path d="M20 3.40479L13.6504 9.75435" stroke="#E74646" stroke-linecap="round" stroke-linejoin="round"/>
</svg>
