<svg width="24" height="25" viewBox="0 0 24 25" fill="none" xmlns="http://www.w3.org/2000/svg">
<path d="M14.61 13.002C14.61 14.7219 13.2201 16.1118 11.5001 16.1118C9.78014 16.1118 8.39026 14.7219 8.39026 13.002C8.39026 11.282 9.78014 9.89209 11.5001 9.89209C13.2201 9.89209 14.61 11.282 14.61 13.002Z" stroke="#E74646" stroke-linecap="round" stroke-linejoin="round"/>
<path d="M11.5 20.1862C14.5664 20.1862 17.4244 18.3793 19.4136 15.2521C20.1955 14.0273 20.1955 11.9685 19.4136 10.7437C17.4244 7.61642 14.5664 5.80957 11.5 5.80957C8.43357 5.80957 5.57563 7.61642 3.58636 10.7437C2.80455 11.9685 2.80455 14.0273 3.58636 15.2521C5.57563 18.3793 8.43357 20.1862 11.5 20.1862Z" stroke="#E74646" stroke-linecap="round" stroke-linejoin="round"/>
</svg>
