<svg width="15" height="15" viewBox="0 0 15 15" fill="none" xmlns="http://www.w3.org/2000/svg">
<path d="M5.725 14.5H9.775C13.15 14.5 14.5 13.15 14.5 9.775V5.725C14.5 2.35 13.15 1 9.775 1H5.725C2.35 1 1 2.35 1 5.725V9.775C1 13.15 2.35 14.5 5.725 14.5Z" stroke="#FCFCFC" stroke-opacity="0.5" stroke-linecap="round" stroke-linejoin="round"/>
<path d="M5.725 6.39995C6.47058 6.39995 7.075 5.79554 7.075 5.04995C7.075 4.30437 6.47058 3.69995 5.725 3.69995C4.97942 3.69995 4.375 4.30437 4.375 5.04995C4.375 5.79554 4.97942 6.39995 5.725 6.39995Z" stroke="#FCFCFC" stroke-opacity="0.5" stroke-linecap="round" stroke-linejoin="round"/>
<path d="M1.45221 12.4412L4.77996 10.207C5.31321 9.84923 6.08271 9.88973 6.56196 10.3015L6.78471 10.4972C7.31121 10.9495 8.16171 10.9495 8.68821 10.4972L11.4962 8.08748C12.0227 7.63523 12.8732 7.63523 13.3997 8.08748L14.5 9.03248" stroke="#FCFCFC" stroke-opacity="0.5" stroke-linecap="round" stroke-linejoin="round"/>
</svg>
