<svg width="12" height="12" viewBox="0 0 12 12" fill="none" xmlns="http://www.w3.org/2000/svg">
<g clip-path="url(#clip0_165_9857)">
<path d="M9.07214 0.804369C7.94897 0.17356 6.59863 -0.0926086 5.26584 0.0516878C4.96165 -0.0682342 4.61943 0.0516878 4.48683 0.107261C4.07442 -0.00778568 3.81702 0.260333 3.71173 0.467027C2.71725 0.797544 1.74813 1.63212 1.04517 2.76699C0.296387 3.97694 -0.0321795 5.32923 0.117967 6.58402C-0.091653 6.90674 0.0185192 7.20606 0.137466 7.36206C0.109192 7.76277 0.311987 8.00554 0.382185 8.07769C1.99577 11.1645 4.21384 11.7114 6.37244 11.8362C6.50991 11.8811 6.6503 11.8976 6.78192 11.8976C7.05004 11.8976 7.27916 11.8304 7.36301 11.8021C8.03282 11.8606 8.34091 11.533 8.42768 11.4189C10.2606 10.4206 11.1235 8.89374 11.5262 7.78519C11.9425 6.63862 11.9629 5.71532 11.9639 5.59247C12.1433 4.47125 11.5983 3.73807 11.4842 3.59865C11.0708 2.43745 10.2158 1.4459 9.07214 0.805344V0.804369ZM4.29866 0.370505C4.27916 0.423154 4.25771 0.481652 4.23334 0.546975C4.22456 0.570375 4.21481 0.595724 4.20604 0.621074C4.17484 0.602549 4.14364 0.585 4.11049 0.5772C4.06954 0.568425 4.02664 0.56745 3.98374 0.57135C4.02957 0.491402 4.12804 0.370505 4.29866 0.370505ZM0.317837 7.09979C0.279813 7.00814 0.263238 6.86872 0.38316 6.70785L0.418259 6.66105L0.410459 6.60255C0.131616 4.46638 1.57653 1.43323 3.85992 0.723446L3.9272 0.702972L3.9311 0.692247C3.93987 0.695172 3.94865 0.699072 3.95742 0.701997C4.00032 0.715646 4.04224 0.726371 4.08612 0.730271C4.11244 0.732221 4.13974 0.728321 4.16704 0.724421C4.14462 0.783894 4.12024 0.848243 4.09489 0.916491C4.09392 0.916491 4.09197 0.915516 4.09099 0.914541C4.05102 0.893092 4.00812 0.878467 3.96327 0.878467C3.9194 0.876517 3.87455 0.881392 3.83165 0.892117C3.81215 0.897967 3.79265 0.904791 3.77315 0.913566C3.76925 0.888217 3.7517 0.865792 3.71855 0.865792C3.64445 0.865792 3.64445 0.981815 3.71855 0.981815C3.72343 0.981815 3.72635 0.979865 3.73025 0.979865C3.76632 0.994489 3.80045 1.00326 3.83457 1.01204C3.87357 1.02081 3.91257 1.02861 3.9506 1.03349C3.98277 1.03934 4.01592 1.03739 4.05102 1.03251C4.02664 1.09686 4.00032 1.16413 3.97302 1.23336C3.96425 1.22848 3.95645 1.22263 3.94767 1.21776C3.9116 1.19631 3.8726 1.18558 3.83165 1.18168C3.79167 1.17778 3.74975 1.17681 3.70783 1.18168C3.67175 1.18753 3.6347 1.19631 3.59863 1.21483C3.53916 1.22946 3.54306 1.32793 3.61228 1.32793C3.64348 1.32793 3.66103 1.30746 3.6659 1.28406C3.67565 1.28796 3.68443 1.29186 3.69418 1.29673C3.73025 1.31136 3.76632 1.32306 3.80337 1.33281C3.84042 1.34353 3.87747 1.34841 3.91745 1.34451C3.92135 1.34451 3.92525 1.34451 3.92915 1.34353C3.90477 1.40593 3.87942 1.4693 3.8531 1.53463C3.81897 1.51513 3.77997 1.50733 3.74098 1.50538C3.68735 1.50245 3.63178 1.5122 3.584 1.53755C3.57523 1.52878 3.56256 1.52195 3.54598 1.52195C3.47188 1.52195 3.47188 1.63797 3.54598 1.63797C3.56646 1.63797 3.5801 1.6292 3.58985 1.61652C3.6035 1.62042 3.61813 1.62432 3.6308 1.62822L3.71953 1.6526C3.74585 1.65942 3.7712 1.66722 3.7985 1.67112C3.7517 1.78519 3.70198 1.90414 3.6503 2.02699C3.63275 2.01626 3.6152 2.00749 3.59765 1.99774L3.51771 1.95582C3.50113 1.94704 3.48456 1.93729 3.46701 1.92657C3.46701 1.89732 3.44848 1.86807 3.41143 1.86807C3.33734 1.86807 3.33734 1.98409 3.41143 1.98409C3.41436 1.98409 3.41728 1.98311 3.42021 1.98214C3.42508 1.99774 3.42996 2.01334 3.43776 2.02796C3.45726 2.06306 3.48261 2.09426 3.51283 2.11961C3.53623 2.13911 3.56158 2.15666 3.58888 2.16836C3.54501 2.26976 3.49918 2.3731 3.45141 2.4784C3.44068 2.46768 3.42898 2.45793 3.41826 2.44818C3.39388 2.42673 3.36756 2.40625 3.34124 2.38578L3.29151 2.34678C3.31491 2.31363 3.30126 2.25318 3.24666 2.25318C3.17744 2.25318 3.17354 2.35263 3.23399 2.36628C3.23399 2.39455 3.23984 2.42185 3.24861 2.44818C3.26226 2.48718 3.28371 2.5213 3.30809 2.5525C3.32954 2.5798 3.35586 2.60417 3.38608 2.62172C3.31199 2.78357 3.23301 2.95029 3.15014 3.11896C3.14137 3.10921 3.13259 3.09946 3.12479 3.08874C3.09457 3.04584 3.07409 2.99611 3.04679 2.95907C3.01852 2.92104 2.98634 2.88887 2.95612 2.85279C2.93662 2.82939 2.91712 2.80697 2.89665 2.78064C2.9064 2.77479 2.91517 2.76699 2.92102 2.7553C2.9532 2.69582 2.87325 2.6422 2.8323 2.68315C2.7894 2.70167 2.77965 2.77089 2.83035 2.78747C2.8245 2.82939 2.83035 2.87327 2.84205 2.91324C2.86155 2.96881 2.89177 3.02049 2.93175 3.06046C2.97269 3.10141 3.02924 3.12189 3.07799 3.14529C3.09457 3.15309 3.11017 3.16186 3.12479 3.17063C3.03607 3.35003 2.94345 3.53235 2.84595 3.71565C2.8362 3.70395 2.82645 3.69225 2.81962 3.6786C2.79915 3.64057 2.78647 3.60255 2.76503 3.57232L2.6997 3.47775C2.68508 3.45825 2.67143 3.43778 2.65583 3.41535C2.71335 3.39975 2.70848 3.30323 2.64023 3.30323H2.60123C2.53201 3.30323 2.52811 3.40268 2.58758 3.41633C2.57978 3.45045 2.57783 3.48555 2.5827 3.52065C2.58855 3.57037 2.60903 3.61912 2.63633 3.66105C2.6646 3.70395 2.71238 3.73125 2.7582 3.75075C2.7777 3.75855 2.79622 3.76635 2.81377 3.77414C2.74065 3.91064 2.6646 4.04811 2.58563 4.18656C2.57101 4.17583 2.55833 4.16316 2.54761 4.14951C2.52226 4.11734 2.50568 4.08419 2.48423 4.06079C2.46181 4.03739 2.44133 4.01301 2.41988 3.98474C2.40428 3.96621 2.39063 3.94477 2.37504 3.91942C2.37699 3.91162 2.37796 3.90479 2.37796 3.89602C2.37796 3.89504 2.37991 3.89407 2.38088 3.89114C2.39941 3.86579 2.38478 3.82679 2.36041 3.81217C2.33116 3.79462 2.29996 3.80729 2.28144 3.83264C2.26291 3.85799 2.26194 3.88627 2.26681 3.91552C2.27071 3.93502 2.28729 3.94769 2.30581 3.95354C2.30191 3.97694 2.30094 4.00131 2.30581 4.02471C2.31264 4.07541 2.33604 4.12514 2.37016 4.16219C2.40428 4.20118 2.45401 4.22068 2.50178 4.23043C2.52128 4.23433 2.53883 4.23823 2.55638 4.24116C2.44523 4.4342 2.32921 4.62822 2.20734 4.81932C2.19174 4.78812 2.18491 4.75107 2.17614 4.71987C2.16542 4.68185 2.14982 4.64577 2.13422 4.60677C2.12642 4.58922 2.12057 4.57167 2.11179 4.55315C2.14397 4.53073 2.15567 4.48003 2.11179 4.4576C2.10497 4.45468 2.09912 4.45078 2.09229 4.44785C2.02599 4.41373 1.9675 4.51415 2.03379 4.5473C2.03867 4.55023 2.04452 4.55218 2.04939 4.5551C2.04647 4.5785 2.04549 4.6019 2.04744 4.62627C2.05037 4.64967 2.05232 4.67307 2.06012 4.6955C2.06597 4.7189 2.07572 4.74035 2.08839 4.76082C2.11374 4.79982 2.15079 4.82809 2.18394 4.85734C2.08157 5.01821 1.97529 5.17713 1.8661 5.33411C1.86512 5.33118 1.86317 5.32923 1.8622 5.32728C1.8427 5.28243 1.84465 5.23173 1.83977 5.18591C1.8349 5.14009 1.82612 5.09524 1.81637 5.04844C1.8115 5.02504 1.8076 5.00164 1.80077 4.97726C1.80077 4.97726 1.80077 4.97726 1.80077 4.97629C1.8583 4.95972 1.85342 4.86417 1.7842 4.86417C1.72765 4.86417 1.714 4.93144 1.74423 4.96264C1.74325 4.96751 1.7413 4.97142 1.73935 4.97629C1.7335 5.00164 1.72863 5.02796 1.7257 5.05429C1.7257 5.08061 1.72278 5.10694 1.72668 5.13326C1.72863 5.15959 1.73448 5.18591 1.74423 5.21126C1.76373 5.26196 1.79882 5.30486 1.82807 5.34776C1.83295 5.35458 1.83782 5.36238 1.8427 5.3692C1.75593 5.49205 1.6672 5.61392 1.57653 5.73385C1.57166 5.72702 1.56776 5.7202 1.56386 5.71337C1.54143 5.67047 1.54046 5.61782 1.53656 5.57102C1.53266 5.52423 1.51998 5.47938 1.50828 5.43258C1.50243 5.40918 1.49658 5.38578 1.48878 5.36238C1.48878 5.35946 1.48683 5.35556 1.48586 5.35263C1.53948 5.33411 1.53363 5.24051 1.46636 5.24051C1.40688 5.24051 1.39518 5.31363 1.43126 5.34386C1.42248 5.37603 1.41858 5.40918 1.41761 5.4433C1.41761 5.49498 1.42248 5.54958 1.44686 5.59735C1.47123 5.6461 1.50633 5.68705 1.53266 5.73092L1.55313 5.76505C1.46343 5.88302 1.37179 5.99806 1.27721 6.11116C1.27429 6.08581 1.27429 6.06046 1.27234 6.03511C1.27039 5.99319 1.25674 5.95517 1.24699 5.91422C1.23919 5.89082 1.23236 5.86644 1.22359 5.84207C1.25674 5.81087 1.24406 5.74165 1.18556 5.74165C1.11829 5.74165 1.11244 5.83427 1.16509 5.85279C1.15924 5.87619 1.15632 5.90057 1.15534 5.92494C1.15534 5.97077 1.16022 6.01854 1.18069 6.06046C1.19726 6.09361 1.22066 6.12189 1.24016 6.15211C1.17289 6.23303 1.10367 6.31201 1.03347 6.39C1.02957 6.36075 1.02664 6.33248 1.02079 6.30616C1.01397 6.27593 1.00617 6.24571 1.00032 6.21353C0.99837 6.20671 0.997395 6.19891 0.99642 6.19208C1.05492 6.17746 1.05102 6.07899 0.981795 6.07899C0.932071 6.07899 0.916472 6.12969 0.933046 6.16381C0.926221 6.17941 0.921347 6.19598 0.918422 6.21256C0.909647 6.25058 0.911597 6.29153 0.920372 6.32956C0.928171 6.36855 0.953521 6.40268 0.979845 6.43095C0.98277 6.43388 0.985695 6.4368 0.98862 6.43973C0.920372 6.51383 0.852123 6.58695 0.781925 6.6591C0.779975 6.63667 0.779975 6.61522 0.779 6.59475C0.7751 6.55283 0.76535 6.51285 0.757551 6.4719C0.751701 6.44753 0.746826 6.42315 0.741951 6.39683C0.816049 6.39683 0.816049 6.28081 0.741951 6.28081C0.689302 6.28081 0.674678 6.33833 0.696127 6.37148C0.679553 6.40365 0.669803 6.43875 0.666878 6.47483C0.662978 6.52358 0.665903 6.57427 0.686377 6.61912C0.700027 6.65032 0.720502 6.67665 0.739026 6.70395C0.681503 6.76245 0.623004 6.81899 0.563531 6.87554C0.561581 6.84239 0.565481 6.81022 0.563531 6.77902C0.560606 6.74197 0.558656 6.70492 0.553781 6.66592C0.551831 6.64642 0.550856 6.62692 0.546956 6.60645C0.545981 6.59377 0.544031 6.5811 0.541106 6.56843C0.603505 6.55673 0.60058 6.45533 0.529406 6.45533C0.464083 6.45533 0.456283 6.54503 0.506982 6.56647C0.489432 6.59572 0.477733 6.62692 0.468958 6.6591C0.459208 6.702 0.454333 6.74587 0.461158 6.79072C0.467008 6.83557 0.490407 6.87749 0.515757 6.91357C0.516732 6.91552 0.517707 6.91649 0.519657 6.91844C0.480658 6.95549 0.440684 6.99156 0.401685 7.02666C0.405584 7.00521 0.409484 6.98474 0.410459 6.96426C0.414359 6.92527 0.413384 6.88627 0.413384 6.84532C0.411434 6.80437 0.412409 6.76244 0.401685 6.71662L0.389985 6.7137C0.360736 6.74977 0.342211 6.78974 0.327586 6.83167C0.313937 6.87359 0.306137 6.91747 0.307112 6.96329C0.310037 7.00326 0.323687 7.04226 0.341236 7.07834C0.334411 7.08419 0.326611 7.09101 0.319787 7.09686L0.317837 7.09979ZM2.40136 4.74327C2.40136 4.74327 2.39258 4.7579 2.37698 4.78519C2.36139 4.81152 2.33896 4.84857 2.31166 4.89342C2.28339 4.93729 2.25219 4.98994 2.21709 5.04454C2.18199 5.09914 2.14397 5.15764 2.10594 5.21613C2.06694 5.27366 2.02794 5.33216 1.99187 5.38578C1.95482 5.4394 1.91972 5.48913 1.8895 5.53203C1.85927 5.57395 1.83295 5.61002 1.8154 5.6344C1.79687 5.65877 1.78712 5.67242 1.78712 5.67242C1.78712 5.67242 1.7959 5.6578 1.8115 5.6305C1.8271 5.60417 1.84952 5.56712 1.87682 5.52228C1.90412 5.4784 1.93727 5.42575 1.9714 5.37115C2.00649 5.31656 2.04452 5.25806 2.08254 5.19956C2.12154 5.14204 2.16054 5.08354 2.19661 5.02991C2.23269 4.97531 2.26876 4.92657 2.29899 4.88367C2.32921 4.84174 2.35554 4.80567 2.37309 4.78129C2.39161 4.75692 2.40233 4.74327 2.40233 4.74327H2.40136ZM0.38121 7.25968C0.358786 7.27723 0.346111 7.28698 0.346111 7.28698C0.346111 7.28698 0.357811 7.27528 0.37731 7.25481C0.397785 7.23433 0.426059 7.20606 0.460183 7.17193C0.495282 7.13781 0.535256 7.09784 0.578155 7.05591C0.621054 7.01301 0.667853 6.96816 0.713677 6.92234C0.760476 6.87749 0.806299 6.83167 0.850173 6.78974C0.894047 6.74782 0.934021 6.70785 0.96912 6.67372C1.00422 6.64057 1.03347 6.6123 1.05394 6.5928C1.07442 6.5733 1.08612 6.56257 1.08612 6.56257C1.08612 6.56257 1.07539 6.57525 1.05784 6.5967C1.03932 6.61815 1.01397 6.64935 0.98082 6.68542C0.947671 6.7215 0.910622 6.76342 0.867723 6.80729C0.824824 6.85019 0.779 6.89699 0.734151 6.94282C0.687352 6.98766 0.639579 7.03154 0.595705 7.07346C0.550856 7.11441 0.507957 7.15146 0.470908 7.18363C0.433859 7.21581 0.40266 7.24116 0.380235 7.25871L0.38121 7.25968ZM6.77023 11.5515C6.74975 11.5681 6.72928 11.5837 6.7088 11.6051C6.62203 11.6003 6.53331 11.5856 6.44848 11.5554L6.42898 11.5486H6.40851C3.99934 11.4111 2.09424 10.7433 0.627879 7.92267L0.614229 7.89829L0.59473 7.88074C0.58693 7.87392 0.415334 7.71597 0.425084 7.41373C0.432884 7.4459 0.441659 7.47808 0.455308 7.5083C0.478708 7.55803 0.513807 7.60287 0.554756 7.63992C0.595705 7.676 0.644453 7.70622 0.700027 7.71597L0.705877 7.70622C0.646403 7.61945 0.606429 7.53853 0.568405 7.45663C0.549881 7.41568 0.528431 7.37375 0.513807 7.32891C0.512832 7.32501 0.510882 7.32208 0.509907 7.31818C0.543056 7.28893 0.57718 7.25968 0.610329 7.22946C0.621054 7.26358 0.633729 7.29771 0.651278 7.32891C0.678578 7.37668 0.713677 7.4186 0.754626 7.45565C0.7946 7.49075 0.838474 7.52098 0.890147 7.54048C0.853098 7.5902 0.874548 7.68282 0.956446 7.68282C1.06857 7.68282 1.06857 7.50928 0.956446 7.50928C0.933046 7.50928 0.914522 7.51708 0.900872 7.52975C0.878448 7.48198 0.855048 7.4381 0.831649 7.3952C0.807274 7.35133 0.785825 7.30843 0.761451 7.26748C0.738051 7.23043 0.716602 7.19241 0.696127 7.15341C0.742926 7.11051 0.789725 7.06566 0.835549 7.02081C0.847248 7.06079 0.862848 7.10076 0.886247 7.13586C0.913547 7.17584 0.945721 7.21191 0.98277 7.24213C1.01982 7.27138 1.06077 7.29771 1.10854 7.31136L1.11537 7.30258C1.09489 7.25968 1.07247 7.22166 1.05199 7.18363L0.99252 7.07249C0.97302 7.03641 0.951571 7.00229 0.934021 6.96524C0.930121 6.95647 0.926221 6.94672 0.921347 6.93794C0.97692 6.88237 1.03152 6.82582 1.08612 6.76829C1.09294 6.78487 1.09977 6.80144 1.10757 6.81704C1.13194 6.86482 1.16899 6.90382 1.20896 6.93794C1.24991 6.97109 1.29574 6.99936 1.34936 7.01301L1.35619 7.00326C1.33279 6.95549 1.30841 6.91357 1.28404 6.87262C1.25966 6.83167 1.23919 6.79169 1.21384 6.75367C1.19726 6.7293 1.18264 6.70395 1.16802 6.6786C1.24016 6.6006 1.31134 6.51968 1.38348 6.43778C1.40688 6.468 1.43223 6.49628 1.46343 6.51773C1.49951 6.54308 1.53753 6.56452 1.57848 6.58012C1.61943 6.59475 1.66135 6.60742 1.70718 6.6084L1.71205 6.59767C1.6555 6.52943 1.597 6.4758 1.54143 6.42315C1.51511 6.3978 1.48586 6.37635 1.45856 6.35198C1.54826 6.24473 1.63795 6.13456 1.72668 6.02049C1.75203 6.04584 1.7803 6.06729 1.8115 6.08581C1.85537 6.11116 1.90412 6.12871 1.95385 6.13846C1.99772 6.14626 2.04354 6.14919 2.08839 6.13944C2.08839 6.16868 2.10692 6.19793 2.14397 6.19793C2.21806 6.19793 2.21806 6.08191 2.14397 6.08191C2.11667 6.08191 2.10009 6.09751 2.09229 6.11701C2.01234 6.07216 1.94312 6.02926 1.87682 5.98149C1.85147 5.96297 1.82515 5.94444 1.7998 5.92592C1.88755 5.81087 1.97432 5.6929 2.06012 5.57102C2.10594 5.5954 2.15372 5.61685 2.20344 5.63147C2.25414 5.64512 2.30679 5.65292 2.36041 5.65487C2.40721 5.65487 2.45498 5.65292 2.50178 5.63927C2.51056 5.65487 2.52518 5.66657 2.54956 5.66657C2.62365 5.66657 2.62365 5.55055 2.54956 5.55055C2.51153 5.55055 2.49301 5.58175 2.49398 5.611C2.40623 5.57395 2.32434 5.54275 2.24049 5.51253C2.20344 5.49888 2.16444 5.48815 2.12642 5.47645C2.23269 5.32338 2.33799 5.16543 2.44133 5.00164C2.48228 5.01139 2.52226 5.02211 2.56321 5.02991C2.6412 5.04259 2.7192 5.04941 2.80207 5.06014C2.80207 5.08841 2.82157 5.11669 2.85765 5.11669C2.93175 5.11669 2.93175 5.00066 2.85765 5.00066C2.83522 5.00066 2.81962 5.01236 2.81085 5.02699C2.78452 4.99871 2.75235 4.97726 2.72018 4.95971C2.67825 4.93632 2.6334 4.91974 2.58758 4.90804C2.56126 4.90219 2.53493 4.89829 2.50763 4.89634C2.62463 4.70817 2.74065 4.51318 2.85472 4.31233C2.86935 4.31623 2.883 4.32013 2.89762 4.32403L2.97659 4.34743C3.02924 4.36206 3.08384 4.36888 3.14137 4.37473C3.19304 4.38058 3.24666 4.3835 3.30419 4.38155C3.31004 4.40398 3.32759 4.4225 3.35684 4.4225C3.43093 4.4225 3.43093 4.30648 3.35684 4.30648C3.33246 4.30648 3.31686 4.31916 3.30906 4.33573C3.27494 4.29381 3.23399 4.26163 3.19011 4.23433C3.13649 4.20118 3.07702 4.17681 3.01462 4.16608C2.99024 4.16219 2.9649 4.16023 2.93955 4.15926C3.00584 4.04031 3.07117 3.91942 3.13649 3.79559H3.17647L3.26031 3.79754C3.31589 3.79852 3.37146 3.79267 3.42898 3.78877C3.47383 3.78487 3.52063 3.77902 3.56938 3.77122C3.57523 3.83947 3.68443 3.83849 3.68443 3.76635V3.74685C3.68443 3.68737 3.61033 3.67567 3.58108 3.71272C3.54111 3.68055 3.49626 3.65812 3.44946 3.64155C3.38706 3.61912 3.32076 3.60742 3.25446 3.6123C3.24666 3.6123 3.23789 3.61425 3.23009 3.61522C3.29931 3.4797 3.36659 3.34613 3.43093 3.21353C3.48846 3.20281 3.54793 3.19988 3.60448 3.19111C3.662 3.18136 3.71953 3.16868 3.779 3.15309C3.8336 3.13944 3.89015 3.12384 3.94962 3.10336C3.9545 3.12774 3.97205 3.14821 4.00324 3.14821C4.07734 3.14821 4.07734 3.03219 4.00324 3.03219C3.974 3.03219 3.95645 3.05071 3.9506 3.07216C3.89502 3.03804 3.83555 3.02049 3.77607 3.00976C3.70978 2.99806 3.6425 2.99611 3.57718 3.00684C3.55963 3.00976 3.54306 3.01366 3.52648 3.01756C3.59083 2.88107 3.65323 2.74652 3.7127 2.61587C3.72148 2.61587 3.73025 2.61587 3.73903 2.61587C3.80825 2.6227 3.8726 2.61587 3.93695 2.6188C4.00129 2.62075 4.06369 2.61392 4.12804 2.60515L4.22651 2.59052L4.31719 2.5759C4.32011 2.60222 4.33766 2.62757 4.37179 2.62757C4.44588 2.62757 4.44588 2.51155 4.37179 2.51155C4.34741 2.51155 4.33181 2.52423 4.32304 2.5408C4.31426 2.53105 4.30451 2.52423 4.29476 2.51643C4.27916 2.50473 4.26161 2.49498 4.24504 2.4862C4.21091 2.46865 4.17484 2.45695 4.13877 2.4472C4.06662 2.42868 3.99154 2.42575 3.9194 2.44135C3.88332 2.44818 3.84822 2.4589 3.81312 2.46865C3.7985 2.47353 3.78485 2.48035 3.7712 2.4862C3.82287 2.3692 3.87357 2.25416 3.92037 2.14301C3.93402 2.14301 3.94767 2.14399 3.9623 2.14594C3.99837 2.15081 4.03444 2.15666 4.06954 2.15958L4.17387 2.16446C4.24309 2.17031 4.30939 2.16446 4.37764 2.15569C4.43906 2.14691 4.50048 2.13619 4.56775 2.11961C4.57458 2.12351 4.58335 2.12546 4.5931 2.12546C4.6672 2.12546 4.6672 2.00944 4.5931 2.00944C4.56093 2.00944 4.54338 2.03089 4.53948 2.05526C4.49171 2.02601 4.43906 2.00749 4.38641 1.99481C4.31231 1.97726 4.23626 1.97531 4.16217 1.98994C4.12512 1.99676 4.08904 2.00359 4.05297 2.01431C4.02079 2.02309 3.98959 2.03869 3.95937 2.05234C4.02274 1.90317 4.08124 1.75887 4.13584 1.62237C4.13682 1.62237 4.13877 1.62237 4.13974 1.62237C4.17484 1.62237 4.21091 1.6292 4.24504 1.62822C4.27916 1.62822 4.31231 1.62627 4.34644 1.62822C4.41371 1.63017 4.47903 1.62237 4.54631 1.61067C4.5892 1.6019 4.63308 1.59312 4.67793 1.58045C4.68573 1.59995 4.7023 1.61457 4.72863 1.61457H4.74813C4.82222 1.61457 4.82222 1.49855 4.74813 1.49855H4.72863C4.71985 1.49855 4.71205 1.5005 4.70523 1.50343C4.6555 1.47613 4.60188 1.46053 4.54826 1.4498C4.47513 1.43518 4.39908 1.43518 4.32694 1.4537C4.29086 1.4615 4.25479 1.47223 4.21969 1.48295C4.20799 1.48783 4.19726 1.4927 4.18556 1.49855C4.21189 1.43128 4.23724 1.36693 4.26161 1.30356C4.26259 1.30356 4.26356 1.30356 4.26454 1.30356C4.33474 1.30941 4.40103 1.29966 4.46831 1.29576C4.53558 1.29088 4.59993 1.27528 4.66525 1.25481C4.71888 1.23726 4.77348 1.21678 4.82807 1.18851C4.83685 1.20118 4.85147 1.20996 4.87195 1.20996C4.94605 1.20996 4.94605 1.09394 4.87195 1.09394C4.84172 1.09394 4.82515 1.11246 4.8193 1.13489C4.76275 1.11441 4.70523 1.10466 4.64868 1.09979C4.57751 1.09491 4.50633 1.09881 4.43808 1.11831C4.39811 1.13001 4.35716 1.14171 4.31816 1.15731C4.33864 1.10369 4.35911 1.05104 4.37764 1.00131C4.38933 1.00131 4.40103 1.00131 4.41273 1.00326C4.47903 1.00521 4.54241 0.998389 4.60578 0.995464C4.66915 0.991564 4.73058 0.97889 4.79297 0.964265C4.8505 0.94964 4.909 0.932091 4.9714 0.907716C4.98017 0.915516 4.99187 0.921366 5.00844 0.921366C5.08254 0.921366 5.08254 0.805344 5.00844 0.805344C4.9714 0.805344 4.95385 0.833618 4.95287 0.861893C4.90022 0.833618 4.84367 0.818994 4.7881 0.809244C4.71888 0.799494 4.6477 0.798519 4.58043 0.813144C4.54631 0.820944 4.51316 0.830693 4.48001 0.841418C4.46343 0.846293 4.44783 0.852143 4.43126 0.857993C4.44783 0.813144 4.46343 0.77122 4.47903 0.730271C4.50341 0.730271 4.52681 0.730271 4.55021 0.728321C4.60285 0.721496 4.6555 0.720521 4.70718 0.714671C4.75885 0.706871 4.80955 0.696147 4.8622 0.682497C4.90802 0.670797 4.95482 0.656173 5.00454 0.638623C5.01039 0.661048 5.02794 0.679572 5.05817 0.679572C5.13227 0.679572 5.13227 0.56355 5.05817 0.56355C5.03184 0.56355 5.01527 0.578175 5.00747 0.596699C4.96165 0.566475 4.91192 0.548925 4.8622 0.538201C4.8037 0.525526 4.74228 0.521626 4.68378 0.529426C4.63503 0.537226 4.58725 0.552825 4.54046 0.570375C4.57068 0.490427 4.59603 0.421204 4.6165 0.36758C4.7218 0.323706 4.98699 0.233033 5.18979 0.327606L5.22684 0.345155L5.26779 0.340281C7.85732 0.044863 10.2977 1.37765 11.1576 3.52943C11.1128 3.53235 11.0621 3.53723 11.0055 3.54308C11.0036 3.50505 10.9958 3.468 10.9772 3.4368C10.9568 3.4017 10.9285 3.3705 10.8973 3.34418C10.8846 3.33346 10.871 3.32468 10.8563 3.31591C10.8671 3.28178 10.8495 3.23888 10.8037 3.23888C10.7384 3.23888 10.7306 3.32663 10.7793 3.34906C10.7852 3.37343 10.792 3.39488 10.7988 3.41633C10.8115 3.45143 10.8261 3.4836 10.8427 3.51383C10.8515 3.5304 10.8632 3.54503 10.8758 3.55965C10.8047 3.57037 10.7277 3.58305 10.6438 3.6006C10.6419 3.5577 10.6419 3.51188 10.6263 3.4719C10.6087 3.42803 10.5775 3.39098 10.5444 3.35881C10.518 3.33541 10.4898 3.31493 10.4556 3.30031C10.4576 3.29836 10.4595 3.29641 10.4615 3.29446C10.5141 3.24181 10.4322 3.15991 10.3796 3.21256L10.3728 3.21938C10.3347 3.25741 10.3669 3.31006 10.4069 3.31688C10.4098 3.33541 10.4127 3.35296 10.4176 3.36953C10.4225 3.39195 10.4303 3.41243 10.4371 3.4329C10.4527 3.4719 10.4683 3.50993 10.4917 3.54308C10.5102 3.5694 10.5375 3.59182 10.5619 3.61815C10.4615 3.64057 10.3542 3.66787 10.2411 3.702C10.2411 3.70005 10.2392 3.6981 10.2382 3.69517C10.2187 3.64642 10.2168 3.58695 10.1992 3.53333C10.1807 3.48068 10.1436 3.43973 10.1027 3.40365C10.0705 3.37538 10.0335 3.35198 9.98959 3.33541C9.99447 3.30323 9.97692 3.26716 9.935 3.26716C9.8609 3.26716 9.8609 3.38318 9.935 3.38318C9.94085 3.38318 9.94572 3.38123 9.95059 3.38025C9.95449 3.3939 9.95937 3.4056 9.96424 3.41828C9.97204 3.4446 9.98472 3.46605 9.99544 3.48945C10.0198 3.53333 10.0413 3.57622 10.0783 3.61035C10.1154 3.64447 10.1631 3.67372 10.1875 3.71857C10.0812 3.75172 9.97009 3.79072 9.85505 3.83557C9.84237 3.81022 9.83165 3.78389 9.82482 3.75465C9.818 3.7254 9.8141 3.6942 9.80532 3.66397C9.79752 3.63375 9.78485 3.60547 9.76632 3.58012C9.74683 3.55673 9.72635 3.5343 9.701 3.51578C9.66493 3.48653 9.62105 3.46508 9.57425 3.45533C9.5762 3.45338 9.57718 3.45045 9.57913 3.4485C9.59668 3.42315 9.584 3.38415 9.55865 3.36953C9.53038 3.35296 9.49723 3.36466 9.47968 3.39C9.47481 3.39683 9.46993 3.40463 9.46506 3.41145C9.44751 3.4368 9.46018 3.4758 9.48553 3.49043C9.50113 3.4992 9.51771 3.50018 9.53233 3.49433C9.55378 3.54015 9.57718 3.57623 9.5996 3.61327C9.62885 3.65617 9.65615 3.69712 9.701 3.7293C9.74683 3.76147 9.7907 3.80144 9.80532 3.85409C9.6737 3.90772 9.53721 3.96914 9.39778 4.04031C9.39388 4.03251 9.38901 4.02471 9.38608 4.01691C9.36073 3.96427 9.35293 3.89992 9.32759 3.84142C9.30321 3.78292 9.25544 3.74002 9.20474 3.70395C9.17256 3.68152 9.13552 3.66397 9.09652 3.65325C9.11114 3.61912 9.09457 3.57037 9.04582 3.57037H9.03899C8.96684 3.57037 8.9649 3.6786 9.03314 3.68445C9.05752 3.7293 9.08482 3.76634 9.11017 3.80339C9.14332 3.84532 9.17159 3.88919 9.21546 3.92332C9.25934 3.95744 9.31199 3.99059 9.33831 4.04031C9.34319 4.04811 9.34611 4.05591 9.35001 4.06469C9.21839 4.13391 9.08384 4.21191 8.94832 4.29966C8.94345 4.29478 8.9376 4.28991 8.93272 4.28503C8.9103 4.26163 8.88982 4.23628 8.87325 4.20801C8.85667 4.17973 8.84302 4.14756 8.8284 4.11734C8.8128 4.08614 8.79427 4.05786 8.77087 4.03446C8.7465 4.01204 8.72018 3.99156 8.6919 3.97304C8.64608 3.94379 8.59343 3.92234 8.53688 3.91357C8.55443 3.86384 8.48716 3.80827 8.44133 3.85409C8.43938 3.85604 8.43646 3.85897 8.43451 3.86092C8.38576 3.90967 8.45206 3.98181 8.50373 3.95159C8.53396 4.00229 8.56711 4.04324 8.60123 4.08321C8.6217 4.10564 8.64218 4.12806 8.6646 4.14854C8.68703 4.16901 8.71433 4.18461 8.7426 4.20021C8.77185 4.21483 8.8011 4.23043 8.82645 4.24993C8.8518 4.26943 8.87227 4.29381 8.88982 4.32013C8.89275 4.32403 8.8947 4.32891 8.89762 4.33378C8.76697 4.42055 8.63535 4.5161 8.50373 4.6214C8.46766 4.58727 8.44328 4.53658 8.40916 4.49953C8.37406 4.4615 8.32824 4.43908 8.28046 4.41958C8.25024 4.40788 8.21806 4.3991 8.18394 4.3952C8.20149 4.36108 8.18589 4.30843 8.13617 4.30843H8.12934C8.05817 4.30843 8.05524 4.41373 8.12154 4.4225C8.14689 4.46735 8.17614 4.50148 8.20831 4.53365C8.24439 4.5668 8.28046 4.59995 8.32726 4.61847C8.36821 4.63505 8.41598 4.64187 8.45596 4.6604C8.32141 4.77057 8.18686 4.89147 8.05232 5.02406C8.03282 5.01529 8.01429 5.00651 7.99674 4.99579C7.94604 4.96751 7.90607 4.91779 7.8583 4.87977C7.8115 4.83979 7.753 4.82614 7.69548 4.81249C7.65063 4.80469 7.60383 4.80079 7.55508 4.80664C7.55508 4.77739 7.53656 4.74815 7.49951 4.74815C7.42541 4.74815 7.42541 4.86417 7.49951 4.86417C7.51218 4.86417 7.52096 4.86027 7.52973 4.85539C7.54436 4.87002 7.55995 4.88367 7.57555 4.89439C7.59895 4.91292 7.62333 4.92852 7.6477 4.94217C7.69743 4.96946 7.7452 4.99579 7.80272 5.00359C7.85927 5.01236 7.92167 5.01236 7.9714 5.04064C7.98504 5.04746 7.99772 5.05624 8.01039 5.06501C7.8505 5.22686 7.69158 5.40528 7.53656 5.60222C7.53363 5.60125 7.52973 5.60027 7.52681 5.59832C7.48098 5.57785 7.45076 5.53008 7.42248 5.48815C7.39421 5.44525 7.35423 5.42185 7.31426 5.39455C7.28599 5.37798 7.25771 5.36238 7.22554 5.34776C7.22846 5.34678 7.23139 5.34581 7.23431 5.34483C7.30451 5.32143 7.27429 5.20931 7.20311 5.23368L7.18166 5.24148C7.13584 5.25708 7.13292 5.31071 7.15729 5.33898C7.16217 5.4004 7.18654 5.45305 7.21871 5.49693C7.25186 5.5408 7.29184 5.58077 7.34644 5.59637C7.40103 5.61392 7.45856 5.6188 7.50243 5.64512C7.45953 5.7007 7.41566 5.75822 7.37276 5.81672C7.29769 5.92007 7.22651 6.02341 7.15729 6.12676C7.11147 6.11701 7.07149 6.08386 7.03639 6.05461C6.99739 6.01854 6.95157 6.00391 6.90477 5.98246C6.8804 5.97369 6.857 5.96199 6.8297 5.95517C6.81117 5.94834 6.7907 5.94249 6.76827 5.93762C6.77412 5.92494 6.77607 5.90934 6.77413 5.89472C6.77413 5.89959 6.77413 5.90544 6.77413 5.91032C6.79167 5.88497 6.779 5.84597 6.75365 5.83134C6.7244 5.81477 6.69223 5.82647 6.67468 5.85182C6.65908 5.87522 6.6581 5.89862 6.662 5.92494C6.66688 5.95614 6.70588 5.97271 6.73318 5.96492C6.73513 5.96492 6.7361 5.96297 6.73708 5.96297C6.7556 6.01659 6.78777 6.06144 6.82775 6.09849C6.8726 6.13846 6.92525 6.17259 6.98764 6.17746C7.03347 6.18136 7.07832 6.17746 7.12122 6.17746C7.00032 6.36271 6.8882 6.54698 6.7868 6.73125C6.77607 6.73417 6.76535 6.7371 6.75463 6.73905C6.69808 6.75075 6.6386 6.73125 6.58498 6.71175C6.53136 6.69127 6.48066 6.69225 6.42898 6.68737L6.30711 6.6786C6.31589 6.64545 6.29834 6.6045 6.25349 6.6045C6.17939 6.6045 6.17939 6.72052 6.25349 6.72052C6.25836 6.72052 6.26129 6.71857 6.26519 6.71857C6.29541 6.76635 6.34221 6.80144 6.39291 6.82387C6.45433 6.84824 6.51966 6.86092 6.58205 6.84337C6.6425 6.82777 6.69613 6.80047 6.75268 6.79364C6.65908 6.96719 6.57425 7.14074 6.49821 7.31233C6.48651 7.31233 6.47383 7.31233 6.46213 7.31136C6.40558 7.30843 6.35489 7.27333 6.30711 7.24116C6.26031 7.20801 6.20766 7.19728 6.15502 7.18363C6.11992 7.17681 6.08482 7.17096 6.04679 7.16803C6.05362 7.13586 6.03607 7.09686 5.99317 7.09686C5.92005 7.09686 5.91907 7.20801 5.99024 7.21191C6.02144 7.25481 6.05947 7.28796 6.10237 7.31331C6.15404 7.34451 6.21156 7.36888 6.27494 7.36596C6.33734 7.36401 6.39973 7.35133 6.45628 7.36303C6.46311 7.36303 6.46896 7.36595 6.47578 7.36693C6.39583 7.55218 6.32661 7.73547 6.26811 7.91682C6.25934 7.91682 6.25056 7.91877 6.24179 7.91877C6.18816 7.91877 6.13649 7.88854 6.08872 7.86807C6.04094 7.84759 5.99219 7.84272 5.94247 7.83492C5.90737 7.83102 5.87325 7.82614 5.83425 7.82322C5.84302 7.77544 5.78062 7.72767 5.73773 7.77057C5.73578 7.77252 5.73285 7.77544 5.7309 7.77739C5.68508 7.82322 5.74163 7.89244 5.79232 7.87294C5.80207 7.88659 5.8128 7.90024 5.82547 7.90999C5.84692 7.93242 5.87227 7.94899 5.89957 7.96361C5.9532 7.98994 6.01169 8.01236 6.07214 8.00456C6.13259 7.99774 6.19011 7.97336 6.24569 7.97044C6.24861 7.97044 6.25056 7.97044 6.25349 7.97044C6.19694 8.15276 6.15112 8.33313 6.11602 8.51155C6.10139 8.51643 6.08677 8.51935 6.07214 8.5213C6.02632 8.5252 5.97952 8.51448 5.93565 8.5096C5.89177 8.5057 5.84887 8.50765 5.80402 8.5057C5.78062 8.5057 5.7582 8.5057 5.7348 8.5057C5.73773 8.4745 5.72018 8.44135 5.6802 8.44135C5.6061 8.44135 5.6061 8.55737 5.6802 8.55737C5.68898 8.55737 5.6958 8.55543 5.70263 8.5525C5.72993 8.57005 5.75918 8.5837 5.79037 8.59345C5.83815 8.60905 5.88982 8.61587 5.93955 8.60905C5.99024 8.60222 6.03704 8.57785 6.08287 8.56127C6.09164 8.55835 6.10042 8.55543 6.11017 8.5525C6.07897 8.72215 6.05654 8.88887 6.04582 9.05266C6.02339 9.06241 6.00097 9.07021 5.97757 9.07411C5.92492 9.08386 5.86935 9.07704 5.8167 9.07704C5.76405 9.07606 5.71335 9.08484 5.6607 9.08874C5.63925 9.09166 5.61683 9.09459 5.5944 9.09751C5.5866 9.07801 5.57003 9.06241 5.54273 9.06241C5.46863 9.06241 5.46863 9.17843 5.54273 9.17843C5.56028 9.17843 5.57295 9.17161 5.5827 9.16186C5.60805 9.16966 5.6334 9.17453 5.65875 9.17843C5.7153 9.18623 5.77282 9.18623 5.8284 9.17356C5.88397 9.15991 5.93565 9.13066 5.98732 9.11116C6.00584 9.10434 6.02437 9.09849 6.04289 9.09264C6.03217 9.27398 6.03412 9.45045 6.04972 9.62302C6.03022 9.63375 6.01072 9.6435 5.99024 9.65032C5.9376 9.6708 5.87812 9.66787 5.82255 9.663C5.76697 9.6591 5.71433 9.66592 5.65973 9.6708C5.63048 9.6747 5.60025 9.67762 5.57003 9.68055C5.56126 9.6747 5.55151 9.66982 5.53786 9.66982C5.51641 9.66982 5.50276 9.67957 5.49301 9.69225H5.49106V9.6981C5.47253 9.73222 5.48813 9.78389 5.53786 9.78389C5.56516 9.78389 5.58271 9.76829 5.58953 9.7488C5.61195 9.75562 5.63535 9.7605 5.65875 9.76342C5.71823 9.77024 5.77965 9.77025 5.83717 9.74782C5.8947 9.72637 5.94637 9.6981 6.00292 9.68347C6.02047 9.67762 6.03802 9.67372 6.05557 9.66885C6.06337 9.74392 6.07312 9.81802 6.08579 9.89114C6.09262 9.93404 6.10139 9.97596 6.11017 10.0179C6.08677 10.0393 6.06044 10.0588 6.03217 10.0725C5.97854 10.1017 5.91517 10.1066 5.85667 10.1066C5.7972 10.1066 5.74163 10.1164 5.6841 10.1193C5.65193 10.1232 5.61975 10.1251 5.5866 10.1271C5.58758 10.0969 5.56906 10.0666 5.53103 10.0666C5.45693 10.0666 5.45693 10.1827 5.53103 10.1827C5.53981 10.1827 5.54858 10.1807 5.55541 10.1778C5.59538 10.1953 5.63828 10.208 5.68118 10.2129C5.74553 10.2217 5.81377 10.2178 5.8752 10.1914C5.93662 10.1661 5.99024 10.129 6.04777 10.1047C6.07214 10.093 6.09652 10.0822 6.12187 10.0705C6.15112 10.1944 6.18719 10.3153 6.23009 10.4323C6.22814 10.4342 6.22521 10.4362 6.22326 10.4371C6.18036 10.4674 6.13259 10.4908 6.08189 10.5005C6.03022 10.5103 5.97659 10.5025 5.9259 10.5005C5.8752 10.4995 5.82547 10.5044 5.77477 10.5093C5.7504 10.5112 5.72603 10.5132 5.70068 10.5171C5.6958 10.4927 5.67825 10.4722 5.64705 10.4722C5.57295 10.4722 5.57295 10.5882 5.64705 10.5882C5.66168 10.5882 5.6724 10.5834 5.68118 10.5756C5.6841 10.5765 5.68703 10.5785 5.68995 10.5795C5.71628 10.5882 5.74358 10.5941 5.77087 10.5999C5.82547 10.6068 5.88202 10.6107 5.93565 10.597C5.99024 10.5843 6.03997 10.5541 6.09067 10.5385C6.14137 10.521 6.19401 10.5083 6.24764 10.4966C6.24959 10.4966 6.25154 10.4956 6.25349 10.4947C6.28371 10.5707 6.31686 10.6448 6.35391 10.7179C6.34221 10.7364 6.32954 10.754 6.31589 10.7706C6.29541 10.793 6.27299 10.8125 6.24764 10.8281C6.22229 10.8427 6.19304 10.8534 6.16379 10.8603C6.10529 10.8729 6.05264 10.8924 5.99999 10.9139C5.9649 10.9295 5.92882 10.9422 5.89177 10.9578C5.86252 10.9217 5.7894 10.9334 5.7894 10.9929V11.0075C5.7894 11.0806 5.89957 11.0816 5.90445 11.0114C5.9454 11.0163 5.98732 11.0153 6.02729 11.0075C6.05947 11.0026 6.08969 10.9909 6.11992 10.9782C6.14819 10.9626 6.17549 10.9441 6.19889 10.9217C6.22326 10.9002 6.24471 10.8768 6.26909 10.8583C6.29249 10.8388 6.31784 10.8213 6.34416 10.8027C6.35781 10.794 6.37146 10.7852 6.38511 10.7754C6.41923 10.8388 6.45531 10.9022 6.49528 10.9626C6.48358 10.9977 6.46798 11.0358 6.44458 11.067C6.42703 11.0904 6.40558 11.1099 6.38121 11.1245C6.35586 11.1381 6.32759 11.1469 6.29931 11.1508C6.28566 11.1537 6.27104 11.1547 6.25836 11.1557C6.24471 11.1557 6.23204 11.1606 6.21839 11.1606C6.20474 11.1615 6.19206 11.1645 6.17939 11.1674L6.13942 11.1713C6.11212 11.1762 6.08482 11.1752 6.05557 11.1791C6.02729 11.181 5.99804 11.181 5.96587 11.1869C5.95904 11.1674 5.9415 11.1518 5.9142 11.1518C5.8401 11.1518 5.8401 11.2678 5.9142 11.2678C5.95417 11.2678 5.97172 11.2347 5.9688 11.2044C5.99219 11.221 6.01754 11.2366 6.04387 11.2473C6.07507 11.2561 6.10627 11.2688 6.13942 11.2688C6.20474 11.2776 6.27591 11.259 6.32856 11.2181C6.35586 11.1986 6.37926 11.1762 6.40363 11.1567C6.41533 11.1459 6.42703 11.1362 6.43971 11.1264C6.45141 11.1157 6.46311 11.106 6.47578 11.0962C6.49821 11.0767 6.52258 11.0572 6.54403 11.0348C6.59278 11.106 6.64543 11.1752 6.70198 11.2415C6.6932 11.2571 6.68345 11.2727 6.67078 11.2854C6.6347 11.3263 6.5801 11.3458 6.52648 11.3517C6.50016 11.3546 6.47481 11.3585 6.44946 11.3643C6.42508 11.3721 6.39973 11.376 6.37438 11.3838C6.34904 11.3907 6.32271 11.3955 6.29639 11.4043C6.29346 11.4043 6.29054 11.4063 6.28761 11.4063C6.28469 11.3799 6.26714 11.3565 6.23301 11.3565C6.15892 11.3565 6.15892 11.4726 6.23301 11.4726C6.24666 11.4726 6.25641 11.4677 6.26519 11.4618C6.27591 11.4657 6.28761 11.4687 6.29834 11.4716C6.32759 11.4755 6.35781 11.4804 6.38706 11.4784C6.44653 11.4765 6.50796 11.4638 6.55768 11.4258C6.6074 11.3877 6.64933 11.3487 6.69613 11.3136C6.7088 11.3029 6.72245 11.2932 6.73513 11.2824C6.79265 11.3487 6.85505 11.4131 6.9194 11.4745C6.90477 11.4843 6.88917 11.4911 6.8726 11.496C6.83652 11.5057 6.81215 11.5242 6.78485 11.5447L6.77023 11.5515ZM10.4868 3.80632C10.4868 3.80632 10.4517 3.81607 10.3903 3.83362C10.3591 3.84142 10.323 3.85312 10.2801 3.86677C10.2382 3.87944 10.1904 3.89504 10.1388 3.91259C10.0354 3.94574 9.91745 3.99254 9.7907 4.04324C9.66493 4.09589 9.53331 4.15634 9.40461 4.22263C9.27591 4.28893 9.14917 4.36011 9.03412 4.43128C8.91907 4.5044 8.8128 4.57265 8.72505 4.63797C8.6802 4.66917 8.64023 4.6994 8.60513 4.72572C8.57003 4.75205 8.53883 4.77544 8.51446 4.79592C8.46473 4.83589 8.43646 4.85832 8.43646 4.85832C8.43646 4.85832 8.46376 4.83394 8.51153 4.79202C8.53493 4.77057 8.56515 4.7462 8.59928 4.71792C8.6334 4.68965 8.6724 4.65747 8.71628 4.6253C8.80305 4.55802 8.90737 4.4849 9.02144 4.4108C9.13747 4.33768 9.26324 4.26553 9.39291 4.19728C9.52356 4.13196 9.65615 4.07151 9.7829 4.02081C9.90965 3.97109 10.0305 3.92917 10.1349 3.89797C10.1865 3.88139 10.2353 3.86774 10.2782 3.85702C10.3211 3.84532 10.3581 3.83557 10.3893 3.82874C10.4517 3.81509 10.4868 3.80632 10.4868 3.80632ZM7.02664 6.60157C7.00617 6.63765 6.99447 6.65715 6.99447 6.65715C6.99447 6.65715 7.00422 6.6357 7.02177 6.59865C7.04029 6.5616 7.06564 6.50798 7.09977 6.44655C7.13389 6.38415 7.17386 6.31298 7.22164 6.23791C7.26941 6.16284 7.32206 6.08484 7.37666 6.00781C7.43321 5.93177 7.49171 5.85767 7.54825 5.78942C7.6048 5.72215 7.66135 5.66072 7.7101 5.61002C7.75885 5.55835 7.80175 5.51838 7.831 5.48913C7.86122 5.46085 7.87877 5.44525 7.87877 5.44525C7.87877 5.44525 7.86317 5.4628 7.8349 5.49303C7.80662 5.52325 7.7686 5.56713 7.7218 5.62075C7.675 5.6734 7.62333 5.73775 7.56776 5.80502C7.51218 5.87327 7.45563 5.94834 7.40103 6.02439C7.34546 6.10044 7.29184 6.17746 7.24406 6.25058C7.19629 6.32468 7.15144 6.39293 7.11537 6.45435C7.07929 6.5148 7.04907 6.5655 7.02859 6.6006L7.02664 6.60157ZM7.03444 6.93307C7.05004 6.94867 7.06564 6.96524 7.07929 6.98084C7.09294 6.99644 7.10464 7.01301 7.11439 7.02569C7.12414 7.03934 7.13097 7.05201 7.13682 7.05981C7.14169 7.06859 7.14462 7.07346 7.14462 7.07346L7.13292 7.06371C7.12609 7.05689 7.11537 7.04811 7.10269 7.03641C7.09099 7.02471 7.07637 7.01204 7.06174 6.99839C7.04712 6.98376 7.03152 6.96914 7.01494 6.95452C6.99934 6.93892 6.98374 6.92429 6.96814 6.91064C6.95352 6.89699 6.9389 6.88334 6.9272 6.87164C6.9155 6.85994 6.90575 6.85019 6.89795 6.84337C6.89112 6.83654 6.88722 6.83264 6.88722 6.83264C6.88722 6.83264 6.8921 6.83459 6.90087 6.83947C6.90965 6.84434 6.92232 6.85019 6.93597 6.85897C6.94962 6.86774 6.96717 6.87847 6.98277 6.89114C6.99934 6.90382 7.01592 6.91844 7.03347 6.93307H7.03444ZM6.76242 7.48295C6.779 7.49563 6.7946 7.50928 6.80922 7.52195C6.82385 7.53463 6.83555 7.54925 6.84627 7.55998C6.857 7.57167 6.86382 7.5824 6.86967 7.5902C6.87455 7.598 6.87747 7.6019 6.87747 7.6019C6.87747 7.6019 6.87357 7.59897 6.86577 7.5941C6.85895 7.58922 6.84822 7.58142 6.83555 7.57265C6.82385 7.56387 6.80922 7.55315 6.79362 7.54145C6.779 7.52975 6.76243 7.51805 6.74585 7.50635C6.73025 7.49368 6.71368 7.48198 6.69808 7.47125C6.68248 7.46053 6.66785 7.4498 6.65615 7.44103C6.64445 7.43225 6.63373 7.42445 6.62593 7.4186C6.6191 7.41275 6.61423 7.40983 6.61423 7.40983C6.61423 7.40983 6.6191 7.4108 6.62788 7.41373C6.63665 7.41665 6.64933 7.42055 6.66298 7.4264C6.67663 7.43323 6.69418 7.44005 6.71075 7.4498C6.72733 7.45955 6.74488 7.47125 6.76242 7.48295ZM6.64445 6.80242C6.64445 6.80242 6.64055 6.80242 6.63373 6.80339C6.6269 6.80339 6.61715 6.80534 6.60643 6.80437C6.59473 6.80437 6.58205 6.80437 6.56841 6.80242C6.55476 6.80047 6.54013 6.79754 6.52453 6.79559C6.50991 6.79169 6.49528 6.78682 6.48261 6.78292C6.46896 6.77902 6.45726 6.77317 6.44653 6.76829C6.43581 6.76439 6.42801 6.75855 6.42216 6.75562C6.41631 6.75172 6.41338 6.74977 6.41338 6.74977C6.41338 6.74977 6.41728 6.74977 6.42411 6.74977C6.43093 6.74977 6.44068 6.74977 6.45141 6.7527C6.46213 6.75465 6.47578 6.75562 6.48943 6.75854C6.50308 6.76147 6.51771 6.7644 6.53233 6.76635C6.54696 6.77025 6.56061 6.77317 6.57425 6.77707C6.5879 6.77999 6.5996 6.78487 6.61033 6.78779C6.62105 6.79072 6.62983 6.79462 6.63568 6.79754C6.64153 6.80047 6.64543 6.80144 6.64543 6.80144L6.64445 6.80242ZM6.50991 8.00554C6.53233 8.01236 6.5567 8.02016 6.5801 8.02796C6.6035 8.03771 6.62593 8.04844 6.64738 8.05916C6.66883 8.06989 6.68735 8.08159 6.70295 8.09134C6.71855 8.10109 6.73123 8.11181 6.74 8.11766C6.74878 8.12449 6.75365 8.12839 6.75365 8.12839C6.75365 8.12839 6.7478 8.12644 6.73708 8.12254C6.72733 8.11864 6.7127 8.11279 6.69515 8.10499C6.6776 8.09816 6.6581 8.08939 6.63665 8.08061C6.6152 8.07184 6.59278 8.06209 6.56938 8.05429C6.54696 8.04454 6.52356 8.03576 6.50211 8.02796C6.48066 8.02016 6.46018 8.01236 6.44263 8.00651C6.42508 8.00066 6.41046 7.99481 6.39973 7.99091C6.38901 7.98701 6.38316 7.98506 6.38316 7.98506C6.38316 7.98506 6.38901 7.98506 6.40071 7.98506C6.41143 7.98604 6.42703 7.98701 6.44556 7.98994C6.46408 7.99384 6.48553 7.99676 6.50893 8.00359L6.50991 8.00554ZM6.29834 7.30356C6.29834 7.30356 6.29541 7.30356 6.28956 7.30453C6.28371 7.30453 6.27494 7.30551 6.26519 7.30453C6.25544 7.30453 6.24374 7.30453 6.23204 7.30063C6.22034 7.29771 6.20766 7.29478 6.19499 7.29186C6.18231 7.28698 6.17061 7.28308 6.15892 7.27821C6.14722 7.27333 6.13747 7.26748 6.12869 7.26261C6.11992 7.25773 6.11309 7.25286 6.10822 7.24896C6.10334 7.24506 6.10139 7.24311 6.10139 7.24311C6.10139 7.24311 6.10432 7.24311 6.11114 7.24311C6.11699 7.24408 6.12577 7.24408 6.13454 7.24603C6.14429 7.24798 6.15502 7.24896 6.16672 7.25286C6.17841 7.25578 6.19109 7.25871 6.20279 7.26261C6.21449 7.26651 6.22716 7.27041 6.23789 7.27431C6.24959 7.27723 6.25934 7.28308 6.26909 7.28601C6.27786 7.28893 6.28566 7.29381 6.29054 7.29576C6.29541 7.29868 6.29834 7.30063 6.29834 7.30063V7.30356ZM6.30224 10.1758C6.32174 10.2412 6.34904 10.3162 6.37731 10.3962C6.40656 10.4761 6.44166 10.56 6.47968 10.6419C6.51673 10.7247 6.55768 10.8057 6.59863 10.8807C6.64055 10.9548 6.67858 11.025 6.71563 11.0826C6.7517 11.1401 6.78192 11.1888 6.80435 11.221C6.82677 11.2542 6.83945 11.2727 6.83945 11.2727C6.83945 11.2727 6.82482 11.2551 6.80045 11.2239C6.77607 11.1927 6.74098 11.1479 6.70198 11.0904C6.66298 11.0338 6.62008 10.9665 6.57718 10.8924C6.53526 10.8174 6.49333 10.7364 6.45433 10.6536C6.41728 10.5697 6.38316 10.4849 6.35489 10.404C6.32661 10.3231 6.30419 10.246 6.28761 10.1797C6.27006 10.1134 6.25934 10.0569 6.25154 10.0179C6.24471 9.97889 6.24081 9.95647 6.24081 9.95647C6.24081 9.95647 6.24666 9.97889 6.25739 10.0169C6.26714 10.0559 6.28371 10.1105 6.30321 10.1749L6.30224 10.1758ZM6.14624 7.96264C6.14624 7.96264 6.14234 7.96361 6.13649 7.96556C6.13064 7.96654 6.12089 7.96946 6.11017 7.97044C6.09944 7.97044 6.08579 7.97141 6.07214 7.97044C6.05849 7.96849 6.04387 7.96557 6.02924 7.96167C6.01559 7.95679 6.00194 7.94997 5.98927 7.94412C5.97659 7.93729 5.96685 7.92949 5.95807 7.92267C5.9493 7.91584 5.94345 7.90804 5.93955 7.90414C5.93565 7.89927 5.9337 7.89634 5.9337 7.89634C5.9337 7.89634 5.9376 7.89732 5.94345 7.90024C5.9493 7.90219 5.95807 7.90609 5.96782 7.90999C5.97757 7.91487 5.98927 7.91779 6.00097 7.92267C6.01267 7.92754 6.02534 7.93144 6.03899 7.93534C6.05167 7.94022 6.06434 7.94412 6.07702 7.94704C6.08969 7.94997 6.10139 7.95387 6.11114 7.95581C6.12089 7.95874 6.13064 7.96069 6.13649 7.96167C6.14234 7.96362 6.14624 7.96459 6.14624 7.96459V7.96264ZM6.18036 9.44948C6.18134 9.4953 6.18231 9.53235 6.18329 9.55965C6.18329 9.58597 6.18426 9.60157 6.18426 9.60157C6.18426 9.60157 6.18134 9.58695 6.17744 9.56063C6.17354 9.5343 6.16769 9.49628 6.16379 9.45143C6.15989 9.4056 6.15599 9.35295 6.15404 9.29543C6.15404 9.23791 6.15404 9.17746 6.15697 9.11604C6.16087 9.05559 6.16769 8.99416 6.17451 8.93762C6.18231 8.88107 6.19206 8.82842 6.20181 8.78357C6.21059 8.73872 6.22131 8.70167 6.22814 8.67632C6.23594 8.65097 6.23984 8.63635 6.23984 8.63635C6.23984 8.63635 6.23789 8.65097 6.23399 8.6773C6.22911 8.70362 6.22521 8.74067 6.21839 8.78649C6.21156 8.83134 6.20669 8.88399 6.20084 8.94054C6.19499 8.99709 6.19011 9.05754 6.18719 9.11701C6.18329 9.17746 6.18134 9.23791 6.18036 9.29446C6.18036 9.35101 6.17939 9.40365 6.18036 9.44948ZM6.87455 11.6051C6.88917 11.5934 6.90185 11.5798 6.9116 11.5632C6.92135 11.5457 6.93012 11.5281 6.9389 11.5125C6.96717 11.5379 6.99544 11.5632 7.02372 11.5886C6.97692 11.5964 6.9272 11.6022 6.87357 11.6061L6.87455 11.6051ZM11.494 4.53365L11.5086 4.54243C11.5457 4.5356 11.5739 4.52195 11.5954 4.50538C11.6022 4.5005 11.6081 4.49465 11.6139 4.4888C11.6978 4.77447 11.7455 5.13619 11.6763 5.5564L11.6744 5.5681V5.5798C11.6744 5.58955 11.6734 6.53528 11.2502 7.6955C10.8622 8.7592 10.0286 10.2275 8.25999 11.1801L8.22489 11.1996L8.20441 11.2347C8.20441 11.2347 8.00649 11.5545 7.42346 11.5155C7.46636 11.4843 7.49658 11.4375 7.49561 11.3829L7.48586 11.377C7.43808 11.3936 7.40298 11.4043 7.37081 11.4121C7.34449 11.417 7.32011 11.4267 7.29281 11.4345C7.26259 11.4111 7.23334 11.3868 7.20506 11.3624C7.25576 11.3302 7.29964 11.2776 7.29964 11.2132L7.28891 11.2083C7.26259 11.2239 7.23626 11.2327 7.21384 11.2415C7.19044 11.2503 7.16704 11.2561 7.14462 11.262C7.13194 11.2659 7.11829 11.2688 7.10562 11.2727C7.07344 11.2425 7.04322 11.2122 7.01299 11.181C7.02079 11.1771 7.02859 11.1752 7.03639 11.1713C7.07637 11.1498 7.11439 11.1235 7.14657 11.0923C7.16802 11.0718 7.18751 11.0494 7.20409 11.0241C7.21286 11.0319 7.22456 11.0367 7.23919 11.0367C7.31329 11.0367 7.31329 10.9207 7.23919 10.9207C7.19824 10.9207 7.18069 10.9558 7.18459 10.988C7.11634 11.0153 7.05297 11.0416 6.98959 11.0611L6.92427 11.0816C6.88332 11.0348 6.8453 10.986 6.80825 10.9363C6.84627 10.9188 6.88332 10.8963 6.91647 10.8681C6.94865 10.8408 6.97789 10.8076 6.99252 10.7657C6.99739 10.7667 7.00129 10.7686 7.00714 10.7686C7.08124 10.7686 7.08124 10.6526 7.00714 10.6526C6.94572 10.6526 6.93597 10.7296 6.97497 10.7579C6.94182 10.7754 6.90867 10.7871 6.87552 10.7988C6.83847 10.8105 6.8024 10.8213 6.76437 10.8291C6.7556 10.831 6.74683 10.8339 6.73708 10.8359C6.70588 10.7891 6.67663 10.7413 6.64835 10.6926C6.66103 10.6896 6.67273 10.6877 6.6854 10.6838C6.74488 10.6672 6.80337 10.6477 6.85992 10.6185C6.86675 10.6214 6.87455 10.6233 6.88235 10.6233C6.95644 10.6233 6.95644 10.5073 6.88235 10.5073C6.84335 10.5073 6.8258 10.5385 6.82677 10.5688C6.77217 10.5658 6.71953 10.5668 6.66688 10.5697C6.64055 10.5707 6.61423 10.5736 6.5879 10.5775C6.57523 10.5522 6.56353 10.5259 6.55183 10.4995C6.6308 10.4956 6.71173 10.4849 6.78875 10.4566C6.79752 10.4644 6.80922 10.4703 6.82482 10.4703C6.89892 10.4703 6.89892 10.3543 6.82482 10.3543C6.78972 10.3543 6.77217 10.3796 6.77023 10.4059C6.68833 10.3913 6.60935 10.3825 6.52941 10.3757C6.51966 10.3757 6.50991 10.3757 6.50016 10.3757C6.46506 10.286 6.43483 10.1934 6.40948 10.0978C6.43288 10.1017 6.45531 10.1047 6.47871 10.1056C6.53233 10.1086 6.58595 10.1056 6.64055 10.0998C6.6698 10.0949 6.70003 10.0891 6.72928 10.0793C6.7595 10.1144 6.83165 10.1027 6.83165 10.0432V10.0364C6.83165 9.96524 6.7283 9.96329 6.71758 10.0267C6.69223 10.0228 6.66688 10.0179 6.64153 10.013L6.49236 9.98571C6.45433 9.97889 6.41631 9.97402 6.37828 9.97011C6.36951 9.93014 6.36171 9.88919 6.35489 9.84824C6.34806 9.80924 6.34319 9.77122 6.33734 9.73125C6.35879 9.7371 6.38121 9.741 6.40363 9.74295C6.45336 9.7488 6.50406 9.7488 6.55378 9.74295C6.58888 9.73807 6.62398 9.73125 6.65713 9.7176C6.66688 9.7293 6.68053 9.73807 6.70003 9.73807C6.77412 9.73807 6.77412 9.62205 6.70003 9.62205C6.66493 9.62205 6.6464 9.64837 6.64445 9.67567C6.56841 9.6591 6.49626 9.64155 6.42313 9.62302C6.38998 9.61425 6.35586 9.6084 6.32174 9.60157C6.31004 9.46703 6.30614 9.32956 6.31199 9.18916C6.34319 9.20378 6.37438 9.21646 6.40753 9.22523C6.46311 9.24083 6.52258 9.24863 6.58205 9.24863C6.623 9.24766 6.66493 9.24278 6.70393 9.23011C6.71075 9.25058 6.7283 9.26813 6.75658 9.26813C6.83067 9.26813 6.83067 9.15211 6.75658 9.15211C6.73025 9.15211 6.71368 9.16673 6.70588 9.18623C6.66785 9.17843 6.6308 9.16868 6.59473 9.15796C6.54403 9.14236 6.49431 9.12481 6.44361 9.10726L6.31784 9.06729C6.32759 8.93274 6.34416 8.79527 6.36854 8.65585C6.39193 8.6695 6.41533 8.6812 6.43971 8.69192C6.48748 8.7124 6.53916 8.72605 6.59083 8.73482C6.62008 8.7397 6.6503 8.74262 6.68053 8.74165C6.68638 8.76407 6.70393 8.78259 6.73318 8.78259C6.80727 8.78259 6.80727 8.66657 6.73318 8.66657C6.71368 8.66657 6.70003 8.67437 6.69028 8.68607C6.623 8.64805 6.55671 8.61002 6.48846 8.57785C6.45628 8.56323 6.42313 8.54957 6.38901 8.5369C6.41826 8.39163 6.45628 8.24343 6.50113 8.09426C6.53721 8.11961 6.57425 8.14301 6.6152 8.15958C6.66395 8.17908 6.71465 8.19371 6.7673 8.20248C6.81995 8.21028 6.87455 8.21516 6.93207 8.20443L6.93792 8.18786C6.8999 8.14496 6.85992 8.11084 6.81995 8.07964C6.77997 8.04844 6.73903 8.02016 6.69613 7.99481C6.6542 7.96946 6.60838 7.95094 6.56158 7.93242C6.55866 7.93144 6.55573 7.93047 6.55281 7.92949C6.59473 7.80664 6.64055 7.6838 6.69223 7.559C6.71368 7.58045 6.73708 7.60092 6.76242 7.61847C6.80435 7.64675 6.85115 7.66917 6.89892 7.68672C6.92525 7.6955 6.95352 7.7033 6.98179 7.7072C6.98764 7.72962 7.00519 7.74717 7.03444 7.74717C7.10854 7.74717 7.10854 7.63115 7.03444 7.63115C7.02762 7.63115 7.02274 7.6331 7.01787 7.63505C7.00227 7.61555 6.98667 7.59605 6.97107 7.57752C6.93987 7.54243 6.90867 7.5083 6.87747 7.47613C6.84627 7.44395 6.8102 7.41665 6.77413 7.38935C6.77218 7.3874 6.77023 7.38545 6.7673 7.38448C6.82092 7.26553 6.87942 7.14561 6.9428 7.02471C6.94865 7.03349 6.9545 7.04129 6.96132 7.04909C6.99642 7.09199 7.04127 7.12709 7.08807 7.15439C7.13292 7.17778 7.18069 7.19631 7.23334 7.19923C7.23139 7.20118 7.22846 7.20411 7.22651 7.20606C7.17386 7.25871 7.25576 7.34061 7.30841 7.28796C7.31036 7.28601 7.31329 7.28308 7.31524 7.28113C7.36106 7.23531 7.30549 7.16803 7.25576 7.18558C7.22651 7.13879 7.20019 7.09881 7.17679 7.05884C7.15242 7.01984 7.13097 6.98181 7.10952 6.94379C7.09002 6.90674 7.06662 6.87359 7.04419 6.83654C7.13194 6.6786 7.22749 6.52065 7.33084 6.36173C7.34839 6.3939 7.36789 6.42413 7.39323 6.45143C7.42833 6.48945 7.47026 6.5226 7.51608 6.54893C7.56288 6.5733 7.61358 6.59377 7.6711 6.5928L7.6789 6.5772L7.60578 6.4524C7.58238 6.4134 7.56093 6.37538 7.53656 6.33931C7.51316 6.30226 7.48683 6.26813 7.45856 6.23401C7.45076 6.22426 7.44296 6.21451 7.43613 6.20476C7.48586 6.13164 7.53656 6.05851 7.5892 5.98636C7.61748 5.94737 7.64575 5.91032 7.67403 5.87229C7.6906 5.89667 7.70913 5.92007 7.73058 5.94152C7.76178 5.97271 7.79785 6.00001 7.83587 6.02536C7.8739 6.04974 7.91777 6.06826 7.95579 6.08679L7.97237 6.08289C7.97724 6.05169 7.96652 6.02731 7.95969 6.00391C7.9519 5.98052 7.94312 5.96004 7.93435 5.93859C7.91485 5.89764 7.89437 5.85962 7.87 5.82452C7.8466 5.78942 7.81735 5.7592 7.78712 5.72995C7.8895 5.60222 7.99382 5.48425 8.09814 5.37311C8.10399 5.39358 8.10984 5.41405 8.11862 5.43355C8.13811 5.48133 8.16249 5.52813 8.19076 5.57297C8.21416 5.60807 8.23854 5.64317 8.26779 5.67535C8.22781 5.70265 8.23756 5.78064 8.29899 5.78064C8.36821 5.78064 8.37211 5.68315 8.31361 5.66755C8.31946 5.61977 8.31849 5.57492 8.31654 5.53105C8.31264 5.4784 8.30484 5.42673 8.29216 5.37603C8.27949 5.32533 8.25999 5.27756 8.23756 5.23076C8.36236 5.10694 8.48813 4.99481 8.61293 4.89244C8.62755 4.93144 8.6373 4.97142 8.6529 5.01139C8.68703 5.09426 8.72408 5.18006 8.78452 5.27463H8.80207C8.82937 5.22198 8.83912 5.16933 8.844 5.11474C8.8479 5.06111 8.844 5.00651 8.82937 4.95387C8.81475 4.90122 8.78647 4.85149 8.75332 4.80567C8.74942 4.80079 8.74553 4.79592 8.74163 4.79104C8.83425 4.71987 8.92687 4.65357 9.01754 4.59312C9.02047 4.59897 9.02534 4.60385 9.02827 4.61067L9.08482 4.71792C9.10334 4.75497 9.12382 4.79397 9.14332 4.83492C9.15599 4.86124 9.16964 4.88952 9.18426 4.91779C9.14721 4.94704 9.15794 5.02114 9.21741 5.02114C9.27689 5.02114 9.28956 4.94022 9.24666 4.91389C9.25739 4.88074 9.26324 4.84662 9.26519 4.81249C9.26811 4.75985 9.26421 4.70622 9.24959 4.65455C9.23594 4.59702 9.20474 4.5434 9.16476 4.4966C9.26031 4.43713 9.35391 4.3835 9.44556 4.33476L9.45141 4.34646C9.47091 4.38643 9.48651 4.4264 9.50308 4.46735C9.51966 4.5083 9.53623 4.55218 9.5528 4.59897L9.59375 4.72377C9.56548 4.73645 9.545 4.76959 9.56353 4.80469C9.56645 4.80957 9.5684 4.81444 9.57133 4.81932C9.60545 4.88562 9.7049 4.82712 9.67078 4.76082C9.66785 4.75595 9.6659 4.75107 9.66298 4.7462C9.65713 4.7345 9.64933 4.72865 9.64055 4.72377C9.66493 4.68282 9.67858 4.637 9.68638 4.59117C9.69613 4.53268 9.6932 4.47125 9.67858 4.4108C9.66493 4.35426 9.6347 4.30258 9.59668 4.25773C9.69125 4.21093 9.7829 4.16999 9.87065 4.13391C9.87357 4.13879 9.8765 4.14464 9.87942 4.14951L9.93012 4.24603C9.94767 4.27821 9.96619 4.31233 9.98277 4.35036L10.0218 4.43908C10.012 4.44883 10.0042 4.4615 10.0042 4.48003V4.48685C10.0042 4.56095 10.1202 4.56095 10.1202 4.48685V4.48003C10.1202 4.45175 10.1037 4.4342 10.0822 4.42738C10.0959 4.39813 10.1037 4.36693 10.1085 4.33573C10.1144 4.28601 10.1115 4.23336 10.0978 4.18363C10.0871 4.14269 10.0676 4.10271 10.0413 4.06859C10.052 4.06469 10.0627 4.06079 10.0734 4.05689C10.1339 4.03544 10.1924 4.01594 10.2499 3.99839C10.2499 4.00131 10.2519 4.00326 10.2528 4.00619C10.2636 4.04714 10.2694 4.08906 10.2811 4.13099C10.2928 4.17291 10.3055 4.21678 10.3201 4.26261C10.3328 4.29966 10.3464 4.33866 10.363 4.37863H10.3591C10.285 4.37863 10.285 4.49465 10.3591 4.49465H10.3659C10.4254 4.49465 10.4361 4.4225 10.402 4.39228C10.4293 4.34938 10.4449 4.30453 10.4556 4.25773C10.4673 4.20508 10.4693 4.15049 10.4625 4.09589C10.4556 4.04616 10.4361 3.99741 10.4118 3.95159C10.4859 3.93112 10.557 3.91357 10.6243 3.89894C10.6243 3.90382 10.6253 3.90869 10.6263 3.91259C10.635 3.95744 10.635 4.00229 10.6419 4.04714C10.6487 4.09199 10.6584 4.13781 10.6711 4.18656C10.6828 4.22946 10.6955 4.27333 10.714 4.32111C10.7091 4.36693 10.7696 4.41178 10.8115 4.36888C10.8134 4.36693 10.8164 4.36401 10.8183 4.36206C10.8554 4.32501 10.8251 4.27333 10.7861 4.26553C10.7978 4.24018 10.8066 4.21483 10.8134 4.18948C10.8281 4.13586 10.8329 4.07931 10.8261 4.02276C10.8193 3.96914 10.7978 3.91747 10.7744 3.86872C10.8495 3.85507 10.9187 3.84434 10.9802 3.83654C10.9802 3.84337 10.9802 3.84922 10.9802 3.85604C10.9802 3.88139 10.9841 3.90674 10.986 3.93112C10.987 3.95549 10.988 3.98084 10.988 4.00521C10.9899 4.05396 10.9987 4.10271 11.0075 4.15439C11.0153 4.19436 11.024 4.23628 11.0367 4.28016C10.9938 4.30551 11.0026 4.3874 11.066 4.3874C11.1293 4.3874 11.1371 4.31331 11.1001 4.28406C11.1274 4.24701 11.1449 4.20703 11.1576 4.16511C11.1752 4.10661 11.182 4.04519 11.1713 3.98376C11.1664 3.95354 11.1566 3.92332 11.1469 3.89504C11.1371 3.86969 11.1274 3.84532 11.1128 3.82192C11.1664 3.81704 11.2112 3.81412 11.2463 3.81314C11.2639 3.82679 11.2853 3.84142 11.2941 3.85994C11.3 3.87262 11.3009 3.88529 11.3009 3.89894C11.3 3.91259 11.2941 3.92722 11.2873 3.94087C11.2824 3.95452 11.2727 3.96817 11.2678 3.98084C11.2619 3.99351 11.26 4.00619 11.2561 4.01886C11.2502 4.04421 11.2415 4.06859 11.2424 4.09296C11.2454 4.14366 11.258 4.19533 11.297 4.26163L11.3136 4.26651C11.3487 4.24701 11.3731 4.22166 11.3906 4.19533C11.4092 4.16804 11.4209 4.13879 11.4267 4.10954C11.4296 4.09199 11.4287 4.07444 11.4267 4.05689C11.4608 4.12026 11.495 4.19436 11.5281 4.27626C11.5223 4.28113 11.5174 4.28503 11.5135 4.28991C11.5047 4.29868 11.4998 4.30843 11.493 4.31721C11.4803 4.33573 11.4667 4.35328 11.4618 4.37375C11.453 4.41665 11.455 4.46248 11.4803 4.52975L11.494 4.53365Z" fill="#E74646"/>
<path d="M11.0182 7.0763C10.8495 7.53552 10.6536 7.98303 10.4225 8.41104C10.3952 8.46564 10.363 8.51732 10.3338 8.56996C10.3045 8.62359 10.2733 8.67526 10.2421 8.72694C10.2109 8.77861 10.1807 8.83126 10.1475 8.88293L10.0491 9.036C9.91355 9.23782 9.77413 9.43672 9.62106 9.62684C9.31784 10.009 8.97075 10.3561 8.59928 10.6896C8.81865 10.5716 9.03217 10.4361 9.23009 10.281C9.33149 10.206 9.42411 10.1212 9.52063 10.0393C9.56841 9.99733 9.61228 9.95248 9.6581 9.90861C9.70393 9.86473 9.74878 9.82086 9.79168 9.77406C10.1427 9.40942 10.4371 8.99213 10.6789 8.54754C10.9187 8.10198 11.1059 7.62911 11.2356 7.1426C11.3019 6.89983 11.3507 6.65316 11.3877 6.40454C11.4209 6.15592 11.4452 5.90536 11.4355 5.65576C11.3263 6.14227 11.1849 6.61416 11.0201 7.07533L11.0182 7.0763Z" fill="#E74646"/>
<path d="M7.52389 0.855108C7.63211 0.889232 7.73838 0.930181 7.84465 0.96918C7.94995 1.01208 8.05525 1.05303 8.1586 1.1008C8.36627 1.19147 8.57004 1.29385 8.76698 1.40694C8.9649 1.51809 9.15697 1.64094 9.34319 1.77061C9.52941 1.90126 9.70978 2.04068 9.88235 2.18985C10.0559 2.33805 10.2207 2.49599 10.3728 2.66759C10.1027 2.29612 9.76243 1.97633 9.39584 1.69749C9.02827 1.41864 8.62756 1.18173 8.20442 0.995505C7.78226 0.807334 7.33864 0.668888 6.88528 0.580165C6.43289 0.492417 5.97075 0.456343 5.51251 0.469018C5.96978 0.500217 6.42314 0.566515 6.86675 0.667913C7.08807 0.722512 7.30842 0.77906 7.52291 0.854133L7.52389 0.855108Z" fill="#E74646"/>
<path d="M5.16542 11.067C5.07085 10.8925 5.0182 10.6887 5.01527 10.4791C4.9441 10.3387 4.88267 10.2002 4.831 10.0628C4.7998 10.2246 4.79883 10.3952 4.83295 10.5639C4.73838 10.3377 4.70815 10.0793 4.7491 9.82486C4.68963 9.63279 4.64673 9.44462 4.61943 9.26328C4.55313 9.42025 4.51803 9.59477 4.52583 9.77319C4.46734 9.52847 4.48878 9.25938 4.58921 9.01271C4.57361 8.83722 4.56971 8.66952 4.57653 8.50962C4.43224 8.68707 4.33376 8.90839 4.30159 9.14628C4.29184 8.84306 4.39421 8.5301 4.59213 8.27758C4.60773 8.11573 4.63211 7.96461 4.66136 7.82714C4.47319 7.97729 4.30549 8.15668 4.16899 8.36143C4.29769 8.08063 4.48391 7.82129 4.71595 7.6029C4.74715 7.48785 4.7803 7.38645 4.81248 7.29968C4.60773 7.39328 4.41859 7.53562 4.27137 7.71794C4.41079 7.4664 4.62626 7.24996 4.89047 7.10468C4.92947 7.01499 4.95677 6.96721 4.95677 6.96721C4.87585 6.86776 4.80565 6.75467 4.74423 6.63182C4.68378 6.75272 4.64381 6.88824 4.62918 7.02961C4.59213 6.84047 4.60091 6.63572 4.66038 6.43878C4.60578 6.29838 4.56191 6.14726 4.52681 5.99029C4.46344 6.15018 4.42054 6.31983 4.40006 6.49435C4.37666 6.24183 4.40201 5.98054 4.47611 5.72802C4.44491 5.534 4.42444 5.33315 4.41274 5.13231C4.24894 5.37703 4.14559 5.66854 4.12512 5.97274C4.09879 5.60225 4.19434 5.21713 4.40201 4.88954C4.39616 4.68967 4.39811 4.49175 4.40494 4.30163C4.38251 4.326 4.35911 4.35233 4.33864 4.37768C4.27527 4.4547 4.21872 4.53952 4.17192 4.6302C4.07637 4.81057 4.01592 5.01141 3.9974 5.22006C3.98765 5.01141 4.01885 4.79692 4.09197 4.5951C4.12804 4.4937 4.17484 4.39523 4.23237 4.3026C4.26162 4.2558 4.28989 4.21193 4.32694 4.16513C4.34936 4.13783 4.37861 4.10956 4.41566 4.08616C4.42444 3.92529 4.43711 3.77222 4.44979 3.62987C4.41664 3.66594 4.38251 3.70202 4.35131 3.74004C4.26454 3.84241 4.18264 3.94966 4.10659 4.06178C4.15729 3.93601 4.21482 3.81219 4.28014 3.69129C4.31231 3.63085 4.34644 3.57137 4.38251 3.5119L4.43711 3.42415C4.44784 3.40953 4.45954 3.38905 4.47806 3.36955C4.52388 2.97761 4.57166 2.72217 4.57166 2.72217C3.39194 5.00459 2.47449 6.3403 1.85245 7.10566C1.87195 7.25873 1.91582 7.41278 1.987 7.55902C1.89437 7.46445 1.81345 7.35428 1.74618 7.23435C1.68671 7.30455 1.63113 7.36988 1.57848 7.42935C1.62333 7.60387 1.69158 7.77547 1.78225 7.93731C1.66818 7.81837 1.56678 7.68382 1.48001 7.53757C1.43711 7.5834 1.39714 7.6263 1.35911 7.66529C1.58336 8.21811 1.9051 8.73679 2.30971 9.18821C1.88073 8.78847 1.51706 8.3117 1.23919 7.78522C1.20117 7.82227 1.16607 7.85444 1.13389 7.88271C1.70133 9.06146 2.64121 10.0686 3.79655 10.7189C2.62658 10.1242 1.63796 9.16286 1.00227 7.99484C0.939874 8.04456 0.9077 8.06406 0.9077 8.06406C2.50861 11.1684 5.55541 11.3039 5.55541 11.3039C5.38869 11.0953 5.24829 10.8876 5.13032 10.6828C5.12349 10.8086 5.13519 10.9373 5.16834 11.0631L5.16542 11.067Z" fill="#E74646"/>
<path d="M0.637631 6.05554C0.68053 5.22974 0.895025 4.41953 1.25869 3.69025C0.970098 4.38249 0.817027 5.12542 0.803377 5.86542C0.974973 5.66068 1.20994 5.35356 1.47319 4.93335C2.00845 4.08024 1.35716 3.06724 2.97757 1.33179C1.96555 1.94017 0.620082 3.47283 0.518684 6.17742C0.518684 6.17742 0.561583 6.13744 0.636656 6.05554H0.637631Z" fill="#E74646"/>
<path d="M0.740983 7.75879C0.703934 7.75879 0.703934 7.81631 0.740983 7.81631C0.778032 7.81631 0.778032 7.75879 0.740983 7.75879Z" fill="#E74646"/>
<path d="M1.19434 7.40191C1.26844 7.40191 1.26844 7.28589 1.19434 7.28589C1.12025 7.28589 1.12025 7.40191 1.19434 7.40191Z" fill="#E74646"/>
<path d="M1.38641 7.19049C1.46051 7.19049 1.46051 7.07446 1.38641 7.07446C1.31232 7.07446 1.31232 7.19049 1.38641 7.19049Z" fill="#E74646"/>
<path d="M1.77251 6.73712C1.84661 6.73712 1.84661 6.62109 1.77251 6.62109C1.69841 6.62109 1.69841 6.73712 1.77251 6.73712Z" fill="#E74646"/>
<path d="M6.98375 8.18774C6.90965 8.18774 6.90965 8.30377 6.98375 8.30377C7.05785 8.30377 7.05785 8.18774 6.98375 8.18774Z" fill="#E74646"/>
<path d="M8.0611 6.14907V6.14224C8.0611 6.06815 7.94508 6.06815 7.94508 6.14224V6.14907C7.94508 6.22317 8.0611 6.22317 8.0611 6.14907Z" fill="#E74646"/>
<path d="M8.77283 5.3867C8.82548 5.43935 8.90738 5.35745 8.85473 5.3048C8.85278 5.30285 8.84985 5.29993 8.8479 5.29798C8.79525 5.24533 8.71336 5.32723 8.76601 5.37987C8.76796 5.38182 8.77088 5.38475 8.77283 5.3867Z" fill="#E74646"/>
<path d="M4.93533 5.50172C4.94215 5.55632 4.94898 5.60799 4.9558 5.65772C4.9636 5.70744 4.9714 5.75424 4.9792 5.79811C4.99285 5.88586 5.0065 5.96288 5.02015 6.02528C5.0455 6.15008 5.06012 6.22223 5.06012 6.22223C5.06012 6.22223 5.0494 6.15008 5.03087 6.02333C5.02015 5.95996 5.0104 5.88391 5.00065 5.79519C4.99577 5.75132 4.98992 5.70452 4.98407 5.65479C4.9792 5.60507 4.97432 5.5534 4.96945 5.4988C4.94703 5.28138 4.93435 5.02691 4.92655 4.75392C4.92655 4.61742 4.92265 4.47605 4.9285 4.33273C4.92948 4.1894 4.9402 4.04413 4.94703 3.89886C4.9597 3.75359 4.96847 3.60832 4.987 3.46597C5.00162 3.32363 5.0221 3.1842 5.0416 3.04868C5.08547 2.77959 5.13227 2.52805 5.18394 2.3155C5.19662 2.26188 5.20832 2.21118 5.21904 2.16243C5.23172 2.11466 5.24342 2.06883 5.25512 2.02496C5.27657 1.93916 5.29704 1.86409 5.31557 1.80266C5.35066 1.67982 5.37114 1.60962 5.37114 1.60962C5.37114 1.60962 5.34677 1.67884 5.30484 1.79876C5.28339 1.85921 5.25999 1.93331 5.23464 2.01813C5.22197 2.06103 5.20734 2.10588 5.19272 2.15366C5.18004 2.2024 5.16639 2.2531 5.15177 2.30575C5.09327 2.51732 5.04062 2.76789 4.99187 3.03796C4.9714 3.17348 4.94702 3.31388 4.9324 3.4572C4.91388 3.60052 4.90315 3.74677 4.89048 3.89204C4.88365 4.03828 4.8739 4.18453 4.8739 4.32883C4.87 4.47312 4.8739 4.61449 4.87683 4.75197C4.88853 5.02593 4.90705 5.28235 4.93728 5.49977L4.93533 5.50172Z" fill="#E74646"/>
<path d="M5.15567 3.7165C5.15762 3.61607 5.15859 3.53222 5.16152 3.47373C5.16249 3.41523 5.16347 3.3811 5.16347 3.3811C5.16347 3.3811 5.15859 3.41425 5.14982 3.47275C5.14299 3.53125 5.1313 3.61412 5.12252 3.71455C5.11277 3.81497 5.10497 3.93196 5.09912 4.05774C5.09717 4.12111 5.09522 4.18546 5.09425 4.25176C5.09425 4.31806 5.09425 4.38533 5.09425 4.4526C5.0962 4.51987 5.09815 4.58715 5.1001 4.65345C5.10205 4.71975 5.10692 4.78409 5.11082 4.84747C5.1196 4.97324 5.13032 5.09024 5.14299 5.18968C5.15469 5.29011 5.16834 5.37298 5.17712 5.4305C5.18687 5.48803 5.19272 5.52118 5.19272 5.52118C5.19272 5.52118 5.19077 5.48705 5.18784 5.42855C5.18394 5.37005 5.18102 5.28621 5.17517 5.18578C5.17127 5.08536 5.16639 4.96836 5.16054 4.84357C5.15859 4.78117 5.15664 4.71585 5.15469 4.65052C5.15372 4.5852 5.15177 4.51793 5.15079 4.45163C5.15079 4.38435 5.14982 4.31806 5.14884 4.25176C5.14884 4.18643 5.14884 4.12111 5.14884 4.05871C5.15079 3.93294 5.15274 3.81692 5.15372 3.71552L5.15567 3.7165Z" fill="#E74646"/>
<path d="M5.35554 5.0386C5.35359 5.00058 5.35261 4.96255 5.35066 4.92355C5.34969 4.88553 5.34774 4.84653 5.34676 4.80851C5.34579 4.77048 5.34481 4.73343 5.34286 4.69736C5.34091 4.62521 5.33994 4.55794 5.33799 4.49944C5.33604 4.44192 5.33506 4.39317 5.33409 4.35904C5.33311 4.32492 5.33214 4.30542 5.33214 4.30542C5.33214 4.30542 5.32921 4.32492 5.32336 4.35807C5.31849 4.39219 5.31069 4.43997 5.30484 4.49749C5.29899 4.55501 5.29411 4.62326 5.29216 4.69638C5.29216 4.73246 5.29119 4.77048 5.29021 4.80851C5.29021 4.84653 5.29119 4.88553 5.29216 4.92453C5.29411 4.96353 5.29704 5.00253 5.29899 5.04055C5.30094 5.07858 5.30581 5.1166 5.30874 5.15267C5.31654 5.22482 5.32629 5.2921 5.33701 5.34962C5.34676 5.40714 5.35846 5.45394 5.36626 5.48807C5.37504 5.52121 5.37894 5.53974 5.37894 5.53974C5.37894 5.53974 5.37894 5.52024 5.37699 5.48612C5.37504 5.45199 5.37309 5.40324 5.37016 5.34572C5.36724 5.28722 5.36334 5.21995 5.35944 5.14877C5.35749 5.1127 5.35651 5.07565 5.35456 5.03763L5.35554 5.0386Z" fill="#E74646"/>
<path d="M5.59733 5.01431C5.59636 4.98701 5.59441 4.96068 5.59343 4.93436C5.59051 4.88268 5.58564 4.83394 5.58174 4.79201C5.57784 4.75009 5.57199 4.71596 5.56906 4.69159C5.56516 4.66721 5.56224 4.65356 5.56224 4.65356C5.56224 4.65356 5.56029 4.66721 5.55736 4.69159C5.55541 4.71596 5.55054 4.75106 5.54859 4.79201C5.54566 4.83394 5.54371 4.88268 5.54274 4.93436C5.54274 4.96068 5.54274 4.98701 5.54274 5.01431C5.54274 5.0416 5.54274 5.0689 5.54274 5.09718C5.54274 5.12448 5.54469 5.15275 5.54566 5.18005C5.54566 5.20735 5.54859 5.23368 5.54956 5.26C5.55249 5.31167 5.55639 5.36042 5.56126 5.40235C5.56516 5.44427 5.57101 5.47839 5.57394 5.50277C5.57784 5.52714 5.58076 5.54079 5.58076 5.54079C5.58076 5.54079 5.58271 5.52714 5.58564 5.50277C5.58759 5.47839 5.59246 5.44329 5.59441 5.40235C5.59733 5.36042 5.59928 5.31167 5.60026 5.26C5.60026 5.23368 5.60123 5.20735 5.60026 5.18005C5.60026 5.15275 5.60026 5.12545 5.60026 5.09718C5.60026 5.06988 5.59831 5.0416 5.59733 5.01431Z" fill="#E74646"/>
<path d="M5.76211 5.32333C5.76113 5.30285 5.76016 5.2814 5.75918 5.26093C5.75821 5.24045 5.75626 5.219 5.75528 5.19853C5.75333 5.17805 5.75236 5.15758 5.75041 5.13808C5.74748 5.09908 5.74358 5.06203 5.74066 5.03083C5.73676 4.99963 5.73286 4.97233 5.73091 4.95381C5.72798 4.93529 5.72603 4.92456 5.72603 4.92456C5.72603 4.92456 5.72311 4.93529 5.71921 4.95381C5.71628 4.97233 5.71043 4.99866 5.70751 5.03083C5.70361 5.06301 5.70068 5.10006 5.69971 5.14003C5.69971 5.1605 5.69971 5.18098 5.69971 5.20145C5.69971 5.2229 5.70068 5.24338 5.70166 5.26483C5.70361 5.28628 5.70556 5.30773 5.70653 5.3282C5.70751 5.34868 5.71141 5.36915 5.71433 5.38962C5.72018 5.4296 5.72701 5.46567 5.73481 5.49687C5.74163 5.52807 5.75041 5.55342 5.75528 5.57194C5.76113 5.58949 5.76503 5.60022 5.76503 5.60022C5.76503 5.60022 5.76601 5.58949 5.76698 5.57097C5.76698 5.55244 5.76893 5.52515 5.76796 5.49395C5.76796 5.46177 5.76796 5.4257 5.76601 5.38572C5.76601 5.36622 5.76406 5.34575 5.76308 5.32528L5.76211 5.32333Z" fill="#E74646"/>
<path d="M5.94345 5.14202C5.94248 5.12934 5.93955 5.11764 5.93858 5.10984C5.9376 5.10204 5.93565 5.09717 5.93565 5.09717C5.93565 5.09717 5.93273 5.10107 5.92785 5.10789C5.92395 5.11472 5.91615 5.12447 5.91128 5.13617C5.90543 5.14787 5.89958 5.16347 5.89568 5.17907C5.89373 5.18687 5.89275 5.19564 5.8908 5.20442L5.88788 5.23074V5.25706C5.88788 5.26584 5.88885 5.27461 5.88983 5.28241C5.89178 5.29899 5.89568 5.31361 5.89958 5.32726C5.90348 5.33994 5.90933 5.35066 5.91323 5.35749C5.91713 5.36431 5.92005 5.36821 5.92005 5.36821C5.92005 5.36821 5.922 5.36334 5.92493 5.35651C5.92688 5.34871 5.93078 5.33799 5.9337 5.32531C5.93663 5.31264 5.93955 5.29801 5.9415 5.28241C5.9415 5.27461 5.94443 5.26681 5.94443 5.25901L5.94638 5.23464V5.21027C5.94638 5.20247 5.94638 5.19369 5.94638 5.18589C5.94638 5.17029 5.9454 5.15567 5.94345 5.14299V5.14202Z" fill="#E74646"/>
<path d="M8.13812 10.591C8.11667 10.6017 8.09132 10.6144 8.06597 10.63C8.0533 10.6378 8.03965 10.6456 8.02697 10.6544C8.0143 10.6632 8.00065 10.6719 7.987 10.6807C7.97432 10.6905 7.96165 10.6992 7.948 10.709C7.93532 10.7187 7.92362 10.7285 7.91192 10.7373C7.88853 10.7558 7.86708 10.7743 7.84953 10.7909C7.83198 10.8075 7.81833 10.8231 7.80858 10.8328C7.79883 10.8435 7.79395 10.8494 7.79395 10.8494C7.79395 10.8494 7.80175 10.8474 7.8154 10.8416C7.82808 10.8357 7.84758 10.8289 7.86903 10.8182C7.89048 10.8075 7.91582 10.7948 7.94117 10.7792C7.95385 10.7714 7.9675 10.7636 7.98017 10.7548C7.99285 10.746 8.0065 10.7373 8.02015 10.7285C8.03282 10.7187 8.0455 10.71 8.05915 10.7012C8.07182 10.6924 8.08352 10.6817 8.09522 10.6729C8.11862 10.6544 8.14007 10.6359 8.15762 10.6193C8.17517 10.6027 8.18882 10.5871 8.19857 10.5774C8.20832 10.5666 8.21319 10.5608 8.21319 10.5608C8.21319 10.5608 8.20539 10.5627 8.19174 10.5686C8.17907 10.5744 8.15957 10.5813 8.13812 10.592V10.591Z" fill="#E74646"/>
<path d="M8.89763 10.0821C8.95807 10.0275 9.02535 9.96123 9.09555 9.8881C9.12967 9.85105 9.16574 9.81206 9.20182 9.77306C9.23692 9.73308 9.27299 9.69213 9.30809 9.65118C9.34221 9.60926 9.37634 9.56734 9.41046 9.52541C9.44459 9.48446 9.47481 9.44157 9.50601 9.40062C9.56646 9.31872 9.62008 9.24072 9.66396 9.17247C9.70881 9.10422 9.74195 9.04573 9.76633 9.00478C9.78973 8.96383 9.8024 8.93945 9.8024 8.93945C9.8024 8.93945 9.78583 8.9609 9.75658 8.99795C9.7283 9.03598 9.68638 9.08862 9.63666 9.15297C9.58596 9.21635 9.52844 9.29044 9.46506 9.36942C9.43289 9.40842 9.39974 9.44936 9.36659 9.49031C9.33246 9.53126 9.29834 9.57221 9.26422 9.61414C9.22912 9.65509 9.19402 9.69603 9.15989 9.73601C9.12479 9.77598 9.09067 9.81498 9.05752 9.853C8.99025 9.92808 8.92688 9.99828 8.87325 10.0587C8.81865 10.1182 8.7738 10.1689 8.74163 10.203C8.70946 10.2381 8.69191 10.2586 8.69191 10.2586C8.69191 10.2586 8.71336 10.241 8.74943 10.2118C8.7855 10.1806 8.83815 10.1377 8.89665 10.0821H8.89763Z" fill="#E74646"/>
<path d="M10.0666 8.59821C10.0959 8.55531 10.1271 8.50266 10.1592 8.44612C10.1748 8.41784 10.1904 8.38762 10.206 8.35739C10.2207 8.32717 10.2363 8.29597 10.2519 8.26477C10.2655 8.2326 10.2792 8.2014 10.2928 8.1702C10.3065 8.139 10.3172 8.10682 10.3299 8.0766C10.3523 8.01518 10.3718 7.95765 10.3854 7.90793C10.4001 7.85821 10.4088 7.81531 10.4166 7.78606C10.4225 7.75681 10.4264 7.73926 10.4264 7.73926C10.4264 7.73926 10.4186 7.75486 10.4059 7.78216C10.3932 7.80946 10.3757 7.84943 10.3542 7.89623C10.3328 7.944 10.3084 7.9986 10.2831 8.0571C10.2694 8.08635 10.2558 8.11657 10.2421 8.14777C10.2285 8.178 10.2138 8.2092 10.1992 8.2404C10.1846 8.27159 10.17 8.30279 10.1563 8.33302C10.1417 8.36324 10.128 8.39347 10.1144 8.42272C10.0871 8.48024 10.0608 8.53484 10.0383 8.58164C10.0169 8.62844 9.9974 8.66743 9.98473 8.69473C9.97205 8.72203 9.96523 8.73861 9.96523 8.73861C9.96523 8.73861 9.97595 8.72496 9.99447 8.70058C10.012 8.67621 10.0383 8.64111 10.0666 8.59821Z" fill="#E74646"/>
<path d="M9.42704 2.07671C9.35391 2.00651 9.26422 1.92948 9.16477 1.85051C9.11407 1.81249 9.0624 1.77154 9.00682 1.73546C8.95222 1.69647 8.8947 1.66137 8.83815 1.62432C8.77965 1.59019 8.72213 1.55509 8.66266 1.5239C8.60416 1.49172 8.54566 1.46345 8.48814 1.43517C8.37309 1.38155 8.26389 1.33572 8.16834 1.30258C8.07377 1.26748 7.99187 1.24505 7.93532 1.22848C7.87878 1.21385 7.84563 1.20508 7.84563 1.20508C7.84563 1.20508 7.87683 1.21775 7.93142 1.2392C7.98602 1.25968 8.06402 1.29283 8.15567 1.33377C8.24829 1.37375 8.35359 1.42542 8.46474 1.48197C8.52031 1.51122 8.57783 1.54047 8.63438 1.57459C8.69191 1.60579 8.74845 1.64187 8.80598 1.67599C8.86253 1.71207 8.91907 1.74619 8.97367 1.78421C9.02827 1.82029 9.08092 1.85831 9.13259 1.89439C9.23302 1.96848 9.32661 2.03966 9.40364 2.10401C9.48164 2.16738 9.54501 2.22198 9.58888 2.26195C9.63276 2.30095 9.65811 2.32338 9.65811 2.32338C9.65811 2.32338 9.63568 2.29803 9.59668 2.25415C9.55671 2.21125 9.50016 2.14788 9.42606 2.07866L9.42704 2.07671Z" fill="#E74646"/>
<path d="M9.39584 2.40828C9.36464 2.36733 9.32661 2.32248 9.28274 2.27666C9.26032 2.25423 9.23789 2.22986 9.21352 2.20743C9.18914 2.18403 9.16379 2.16161 9.13844 2.13919C9.11212 2.11774 9.08579 2.09629 9.05947 2.07581C9.03315 2.05534 9.00585 2.03681 8.9805 2.01829C8.92785 1.98221 8.87715 1.95101 8.8323 1.92762C8.78843 1.90227 8.74943 1.88569 8.72213 1.87302C8.69483 1.86132 8.67923 1.85449 8.67923 1.85449C8.67923 1.85449 8.69288 1.86522 8.71628 1.88277C8.74065 1.89934 8.7738 1.92567 8.81378 1.95589C8.85375 1.98611 8.89957 2.02219 8.9493 2.06021C8.97367 2.07971 8.99902 2.09921 9.02437 2.12066C9.04972 2.14113 9.07507 2.16258 9.10042 2.18403C9.12577 2.20548 9.15112 2.22693 9.17549 2.24936C9.19987 2.27081 9.22424 2.29323 9.24667 2.31371C9.29151 2.3566 9.33441 2.39658 9.37146 2.43168C9.40754 2.46678 9.43874 2.49505 9.45921 2.5165C9.48066 2.53698 9.49236 2.54867 9.49236 2.54867C9.49236 2.54867 9.48359 2.53405 9.46799 2.50968C9.45141 2.4853 9.42801 2.44923 9.39681 2.40925L9.39584 2.40828Z" fill="#E74646"/>
</g>
<defs>
<clipPath id="clip0_165_9857">
<rect width="12" height="11.8976" fill="white"/>
</clipPath>
</defs>
</svg>
