<svg width="119" height="137" viewBox="0 0 119 137" fill="none" xmlns="http://www.w3.org/2000/svg">
<g clip-path="url(#clip0_1265_13269)">
<path d="M57.1417 21.6212C57.5217 21.2861 57.7301 20.7959 57.9548 20.3505C58.4491 19.3618 58.8986 18.3526 59.303 17.3272C59.5073 16.8042 59.7034 16.2812 59.8832 15.7501C60.0589 15.2435 60.1937 14.7205 60.3816 14.218C60.4715 13.9769 60.6023 13.7727 60.7657 13.5725C60.7739 13.5602 60.7861 13.5479 60.7943 13.5357C60.7943 13.5112 60.7943 13.4907 60.8106 13.4662C61.0067 13.1476 61.1783 12.8248 61.3009 12.4693C61.3499 12.3263 61.3949 12.1793 61.4316 12.0322C61.4562 11.8279 61.4725 11.6236 61.4807 11.4275C61.5665 9.35609 60.7657 7.3623 60.827 5.29497C60.4715 5.12746 59.9976 5.36443 59.6871 5.55237C59.4256 5.71171 59.1723 5.87104 58.8822 5.97319C58.6003 6.07124 58.298 6.12027 57.9997 6.12435C56.8803 6.14887 55.8262 5.67085 54.768 5.37668C54.1878 5.21326 53.5954 5.0866 52.9989 4.99263C52.4555 4.90684 51.8222 4.77201 51.287 4.96812C51.0909 5.04166 50.903 5.1724 50.7927 5.35625C50.6701 5.55645 50.666 5.7975 50.6987 6.0263C50.7681 6.53292 50.9438 7.01502 50.7681 7.52164C50.6701 7.79946 50.5312 8.06094 50.4086 8.32651C50.2779 8.60842 50.1471 8.89033 50.0123 9.16815C49.8816 9.44189 49.7508 9.71562 49.6242 9.98936C49.4893 10.2754 49.3627 10.5736 49.1748 10.8269C49.138 10.8759 49.0808 10.88 49.0399 10.8555C48.9868 10.8719 48.9255 10.8678 48.8683 10.8228C48.6845 10.6676 48.5619 10.4633 48.423 10.2713C48.3045 10.1078 48.1533 9.93216 47.945 9.89131C47.7407 9.84636 47.6018 10.0139 47.4833 10.1569C47.3485 10.3162 47.2096 10.4796 47.1033 10.6594C46.8664 11.0557 46.8664 11.5092 46.9236 11.9505C46.9808 12.4244 47.0747 12.8983 47.185 13.3641C47.2382 13.5929 47.2994 13.8217 47.3648 14.0505C47.4098 14.1935 47.467 14.3365 47.565 14.4509C47.61 14.3487 47.7775 14.361 47.7897 14.4958C47.8102 14.7818 47.8306 15.0678 47.8551 15.3538C47.9041 15.9299 47.9491 16.51 48.0349 17.082C48.0716 17.3476 48.1207 17.6131 48.2105 17.8665C48.2963 18.1034 48.4271 18.32 48.5823 18.5161C48.8847 18.896 49.2565 19.227 49.6201 19.5457C49.9919 19.8684 50.3759 20.1748 50.7804 20.4567C51.5689 21.0042 52.4269 21.4618 53.338 21.7642C54.1837 22.0461 55.1357 22.2544 56.0264 22.1033C56.4308 22.0338 56.8394 21.8908 57.154 21.6171L57.1417 21.6212Z" fill="white"/>
<path d="M45.9798 13.0087C46.1391 13.5521 46.3516 14.075 46.5354 14.6062C46.6825 15.0352 46.7888 15.4682 46.7479 15.9136C46.8419 15.6153 46.9318 15.313 46.993 15.0066C47.0502 14.7247 47.0748 14.4387 47.0748 14.1527C47.0748 14.1404 47.0666 14.1282 47.0625 14.1159C46.9726 13.8258 46.8991 13.5317 46.8296 13.2334C46.7111 12.7145 46.5967 12.1793 46.564 11.6482C46.5518 11.3908 46.564 11.1293 46.6417 10.8801C46.7152 10.6431 46.8378 10.4307 46.9849 10.2346C47.1279 10.0425 47.279 9.83008 47.467 9.68708C47.659 9.54408 47.896 9.5114 48.1207 9.5972C48.3495 9.68299 48.5211 9.8505 48.6641 10.0425C48.7907 10.21 48.901 10.3857 49.0522 10.5287C49.1421 10.2672 49.2687 10.0139 49.3831 9.76062C49.5343 9.42968 49.6814 9.09466 49.8326 8.76373C49.9756 8.44505 50.1226 8.13046 50.2656 7.81178C50.3964 7.5217 50.5149 7.25204 50.4903 6.92928C50.4536 6.42675 50.2166 5.92421 50.3759 5.4176C50.5394 4.91506 51.0337 4.62907 51.5363 4.55961C51.8386 4.51876 52.1409 4.53918 52.4433 4.57595C52.7579 4.61273 53.0725 4.66175 53.3871 4.71487C53.9958 4.82109 54.6005 4.96409 55.1929 5.13977C55.7485 5.3032 56.2919 5.49522 56.8558 5.63005C57.3828 5.75262 57.9425 5.83024 58.4777 5.71585C58.7474 5.65865 58.9925 5.55242 59.2254 5.40942C59.4665 5.26643 59.6993 5.10709 59.9608 4.99678C60.2509 4.87421 60.6104 4.84152 60.9128 4.95183C61.0231 4.89055 61.1906 4.93549 61.1824 5.09483C61.1824 5.09892 61.1824 5.103 61.1824 5.10709C61.2151 5.13569 61.2478 5.16429 61.2764 5.19697C61.3785 5.31954 61.2887 5.47888 61.1743 5.50748C61.1743 5.63822 61.1743 5.76896 61.1824 5.8997C61.2519 7.37461 61.6686 8.84135 61.7994 10.3122C61.8729 10.0058 61.9546 9.69934 62.0649 9.40517C62.1916 9.06606 62.3632 8.75147 62.5593 8.44913C62.7758 8.1182 62.9965 7.79543 63.1681 7.43998C63.4908 6.77402 63.6788 6.01001 63.5725 5.27051C63.4786 4.60047 63.1558 3.99171 62.7186 3.48509C62.7064 3.47692 62.6941 3.47283 62.6859 3.46058C62.5225 3.30124 62.355 3.1419 62.1834 2.99482C60.7494 1.7487 58.9885 0.923401 57.154 0.461725C56.2388 0.232929 55.2991 0.0899324 54.3553 0.0327335C53.3421 -0.0285509 52.3084 -0.00812277 51.3034 0.143046C50.2779 0.294214 49.2606 0.592465 48.374 1.14403C47.6059 1.62204 46.9399 2.28392 46.5314 3.09696C46.2903 3.57906 46.1718 4.10202 46.0615 4.62498C45.943 5.19697 45.8164 5.76896 45.7755 6.34912C45.7388 6.91702 45.8327 7.47675 45.8041 8.04466C45.7878 8.33474 45.7306 8.60847 45.6325 8.88221C45.5426 9.14369 45.4446 9.40517 45.4242 9.68299C45.3833 10.2427 45.4895 10.827 45.5835 11.3785C45.6775 11.9301 45.8082 12.4735 45.9675 13.0087H45.9798Z" fill="#565656"/>
<path d="M47.4628 14.7042C47.426 14.6837 47.3974 14.6633 47.3648 14.6388C47.328 15.3048 47.091 15.9625 46.8949 16.5917C46.6579 17.3598 46.4169 18.1238 46.1758 18.8919C46.0574 19.276 45.9348 19.66 45.8163 20.04C45.7591 20.2279 45.6978 20.4159 45.6406 20.6038C45.5875 20.7754 45.5099 20.9633 45.5467 21.1472C45.5793 21.3025 45.6856 21.4332 45.7836 21.5558C45.8817 21.6783 45.9797 21.7968 46.0819 21.9112C46.2902 22.1441 46.5149 22.3647 46.7478 22.569C47.6916 23.3984 48.8192 23.999 49.9918 24.4402C50.5924 24.6649 51.2093 24.8488 51.8304 25.004C52.5004 25.1675 53.1868 25.3145 53.8773 25.3881C54.2654 25.4289 54.6576 25.4412 55.0498 25.4003C55.1479 25.3922 55.25 25.3758 55.3481 25.3595C55.3971 25.3513 55.4788 25.3431 55.5115 25.3023C55.5524 25.2533 55.5278 25.1389 55.5238 25.0776C55.5156 24.9877 55.5115 24.8978 55.5033 24.8079C55.4502 24.0439 55.3971 23.2799 55.344 22.5159C55.3277 22.5159 55.3113 22.5159 55.295 22.5159C54.3226 22.4914 53.3543 22.2095 52.4636 21.8254C51.5403 21.4291 50.6905 20.8898 49.9019 20.2688C49.5056 19.9542 49.1216 19.6151 48.762 19.2596C48.3903 18.896 48.0471 18.4956 47.8632 18.0054C47.7692 17.748 47.7202 17.4742 47.6834 17.2005C47.6426 16.9022 47.6099 16.604 47.5813 16.3057C47.5323 15.7746 47.5118 15.2435 47.5323 14.7123C47.5078 14.7123 47.4832 14.7123 47.4587 14.7001L47.4628 14.7042Z" fill="white"/>
<path d="M3.61998 75.3595C3.93457 75.1633 4.241 74.955 4.53516 74.7384C5.13575 74.2972 5.70365 73.811 6.25521 73.3085C6.52895 73.0592 6.80269 72.8019 7.06825 72.5445C7.33382 72.2912 7.58713 72.0011 7.89355 71.8009C8.01203 71.7233 8.17137 71.8785 8.08966 71.997C7.95483 72.1931 7.78324 72.3524 7.61573 72.5159C7.4523 72.6752 7.28479 72.8345 7.12137 72.9939C6.79452 73.3044 6.46358 73.6149 6.12039 73.9131C5.50754 74.4525 4.87018 74.9632 4.19197 75.4167C4.00811 75.5392 3.82018 75.6577 3.62815 75.7721C3.54235 76.0132 3.59547 76.2869 3.77115 76.4789C3.98769 76.7159 4.32271 76.7894 4.63322 76.7853C5.29917 76.7772 5.91202 76.4544 6.46358 76.1112C7.04782 75.7435 7.61573 75.3472 8.17137 74.9386C8.74336 74.5178 9.29901 74.0766 9.8424 73.619C10.108 73.3943 10.3735 73.1655 10.6268 72.9285C10.7494 72.8141 10.8679 72.6956 10.9782 72.569C11.0763 72.4505 11.1539 72.3238 11.2765 72.2258C11.3541 72.1645 11.5175 72.1931 11.5052 72.3197C11.4807 72.5363 11.3541 72.6956 11.2152 72.855C11.0885 73.0021 10.9455 73.1328 10.8025 73.2635C10.4757 73.5577 10.1447 73.8437 9.80562 74.1215C9.38889 74.4688 8.95581 74.7997 8.52274 75.1266C8.62896 75.3227 8.87002 75.4248 9.08247 75.4371C9.39298 75.4534 9.6994 75.3513 9.99356 75.2696C10.4593 75.1388 10.9292 74.9877 11.3459 74.7303C11.7912 74.4525 12.0977 74.048 12.351 73.5986C12.6206 73.1164 12.8617 72.6139 13.0864 72.1114C13.2049 71.8458 13.3152 71.5803 13.4255 71.3147C13.5358 71.045 13.6298 70.7713 13.7687 70.518C13.7728 70.5098 13.7809 70.5057 13.785 70.4976C14.0833 69.6763 14.4346 68.8715 14.8269 68.0952C15.3008 67.1514 15.8524 66.2567 16.5183 65.4355C17.172 64.6306 17.9115 63.9034 18.6388 63.1679C19.3537 62.4448 20.0932 61.7094 20.6734 60.8718C20.8082 60.6757 20.9431 60.4469 20.9104 60.1977C20.894 60.0588 20.8287 59.928 20.7469 59.8055C20.6857 59.83 20.6162 59.8218 20.5835 59.7442C20.5345 59.6339 20.4895 59.5317 20.4364 59.4255C20.1218 59.0741 19.7827 58.7432 19.4763 58.3837C19.4273 58.3265 19.4232 58.2611 19.4477 58.208C19.0841 57.9016 18.6796 57.6237 18.2465 57.4317C17.6746 57.1743 17.0658 57.207 16.4611 57.3132C16.0158 57.3909 15.3662 57.5747 15.0679 57.0967C15.0311 57.0354 15.0066 56.9741 14.9903 56.9047C14.9086 56.9537 14.8555 57.0558 14.835 57.1539C14.7942 57.3337 14.8064 57.5175 14.7411 57.6932C14.6185 58.02 14.3448 58.2611 14.1078 58.5062C13.1599 59.495 12.2529 60.5204 11.3827 61.5786C10.9496 62.1057 10.5247 62.645 10.1161 63.1884C10.0058 63.3354 9.89551 63.4866 9.7852 63.6337C9.70348 63.7481 9.62177 63.9074 9.49512 63.981C9.36846 64.0545 9.20504 64.0055 9.15192 63.8829C9.03344 63.9197 8.91496 63.9605 8.80056 64.0096C8.53499 64.124 8.28168 64.2588 8.04063 64.4141C7.53401 64.7409 7.08459 65.1536 6.63518 65.5539C4.90287 67.082 3.16647 68.61 1.43008 70.1339C1.23806 70.3015 1.03377 70.4649 0.866264 70.6528C0.739609 70.7958 0.608869 70.9919 0.666068 71.1921C0.715095 71.3678 0.882606 71.474 1.05012 71.5149C1.27891 71.5721 1.51996 71.5026 1.73242 71.4168C2.20635 71.2207 2.65577 70.9429 3.08476 70.6651C3.3013 70.5221 3.51375 70.375 3.72212 70.2197C3.72212 70.2197 3.73029 70.2116 3.73438 70.2116C3.73438 70.1911 3.74255 70.1748 3.75889 70.1625C3.87737 70.0481 4.02446 69.9664 4.16745 69.8806C4.22465 69.8398 4.28185 69.7948 4.33905 69.754C4.35948 69.7417 4.37991 69.7335 4.40033 69.7295C4.51473 69.6518 4.62913 69.5742 4.73944 69.4884C4.89878 69.3658 5.04995 69.2351 5.19295 69.0921C5.2624 69.0226 5.33186 68.9532 5.40131 68.8796C5.47077 68.8061 5.52797 68.7203 5.63828 68.704C5.71182 68.6917 5.78536 68.7326 5.78536 68.8184C5.78536 68.9409 5.70365 69.0186 5.62602 69.1044C5.55657 69.182 5.48303 69.2555 5.4054 69.325C5.25423 69.468 5.09081 69.6028 4.9233 69.7335C4.77213 69.8479 4.61279 69.9542 4.44936 70.0481C4.25325 70.2483 4.02446 70.4158 3.79975 70.5834C3.54644 70.7713 3.28904 70.947 3.02348 71.1145C2.84371 71.2248 2.66394 71.331 2.48009 71.4332C2.48009 71.4454 2.47192 71.4536 2.46375 71.4659C2.32483 71.6456 2.14507 71.7927 1.97347 71.9398C1.80187 72.0869 1.62211 72.2299 1.44234 72.3688C1.09914 72.6384 0.723267 72.8795 0.392331 73.1614C0.19622 73.3289 -0.0979451 73.619 0.0287094 73.905C0.147193 74.1746 0.510814 74.191 0.751866 74.1256C1.10732 74.0275 1.44234 73.811 1.7651 73.6312C2.09604 73.4474 2.42289 73.2513 2.74565 73.0511C3.38301 72.6507 3.99994 72.2217 4.59645 71.76C5.19703 71.2943 5.74859 70.7672 6.34918 70.2974C6.48809 70.1911 6.66377 70.3546 6.54529 70.4935C6.23887 70.8489 5.88342 71.1553 5.52388 71.4577C5.1766 71.7518 4.81707 72.0338 4.45345 72.3075C3.81609 72.7814 3.1583 73.2227 2.476 73.6312C2.46783 73.6517 2.45149 73.6721 2.42697 73.6844C2.09604 73.856 1.7937 74.0888 1.55265 74.3707C1.31977 74.6445 1.09506 75.0203 1.12774 75.3962C1.15634 75.6904 1.39331 75.8988 1.66296 75.9846C1.98981 76.0867 2.32892 76.0091 2.63943 75.8783C2.97854 75.7353 3.3013 75.5392 3.61589 75.3431L3.61998 75.3595Z" fill="white"/>
<path d="M15.7257 57.0478C15.9749 57.0559 16.2159 56.9824 16.4611 56.9415C16.7593 56.8925 17.0576 56.8557 17.3599 56.8639C17.9401 56.8802 18.4589 57.0968 18.9411 57.4032C19.366 57.6729 19.7745 57.9915 20.1136 58.3674C20.3097 58.584 20.5018 58.8332 20.6448 59.1028C20.7387 59.205 20.8327 59.3112 20.9226 59.4215C21.0002 59.3521 21.0738 59.2785 21.1555 59.2131C22.2096 58.3184 23.2269 57.3828 24.187 56.39C25.1471 55.4012 26.0501 54.3594 26.8958 53.2686C27.7088 52.2185 28.4851 51.1318 29.4084 50.1757C29.8824 49.6854 30.3972 49.2401 30.9487 48.8438C31.533 48.423 32.1213 48.0267 32.6565 47.5487C33.2122 47.0502 33.7351 46.5191 34.2663 45.9961C34.7606 45.514 35.2509 45.0319 35.7453 44.5498C35.6349 44.464 35.5246 44.3741 35.4184 44.2883C34.8219 43.8144 34.2172 43.3527 33.5921 42.9115C32.3501 42.0331 31.0345 41.2282 29.6209 40.6562C29.2736 40.5173 28.9182 40.3866 28.5627 40.2762C28.244 40.1782 27.9172 40.1006 27.6026 39.9862C27.431 39.9249 27.2512 39.8391 27.0878 39.7369C27.0878 39.7574 27.0796 39.7737 27.0715 39.7941C26.5362 41.0403 25.7804 42.1679 24.9551 43.2342C23.4884 45.13 21.7847 46.8541 20.5753 48.9378C20.2321 49.5302 19.9625 50.1635 19.5988 50.7436C19.2148 51.3606 18.7572 51.9366 18.3282 52.5209C17.8788 53.1337 17.4294 53.7507 16.9759 54.3635C16.5877 54.8905 16.2078 55.4298 15.7869 55.9283C15.7869 55.9487 15.7869 55.9651 15.7869 55.9855C15.7502 56.1448 15.6153 56.2225 15.5132 56.3409C15.4315 56.4349 15.362 56.5493 15.3457 56.676C15.313 56.9252 15.4969 57.0478 15.7216 57.0518L15.7257 57.0478Z" fill="white"/>
<path d="M18.5038 102.545C17.4906 102.153 16.698 101.136 16.9227 100.012C17.0371 99.4443 17.368 98.9214 17.7194 98.4679C18.0667 98.0225 18.4711 97.6262 18.9001 97.2667C19.8316 96.4822 20.849 95.7877 21.8908 95.1626C22.4138 94.848 22.949 94.5252 23.521 94.3005C23.9132 94.1493 24.3504 94.0595 24.763 94.1412C24.6568 93.9369 24.5301 93.7408 24.383 93.5651C23.9418 93.034 23.3371 92.6295 22.6753 92.4252C21.9358 92.1964 21.1881 92.2618 20.4649 92.511C19.6437 92.797 18.8879 93.2587 18.1075 93.6386C17.2945 94.035 16.4651 94.4027 15.6235 94.7418C13.9483 95.4118 12.2283 95.9552 10.4715 96.3678C8.82905 96.7519 7.08857 96.9889 5.6872 97.998C4.45334 98.8887 3.61578 100.221 2.96617 101.569C2.80274 101.912 2.64749 102.255 2.50449 102.607C2.34107 102.999 2.1613 103.403 2.09184 103.824C2.03464 104.196 2.10819 104.56 2.32881 104.866C2.52083 105.136 2.80274 105.336 3.08874 105.491C3.40333 105.663 3.74244 105.781 4.08563 105.879C4.52688 106.002 4.9763 106.1 5.4298 106.145C6.32047 106.239 7.1948 106.149 8.04869 105.891C9.68295 105.393 11.1415 104.457 12.8003 104.028C14.5653 103.571 16.4038 103.554 18.2137 103.469C19.1126 103.424 20.0441 103.407 20.9184 103.162C21.5068 102.999 22.0665 102.692 22.4465 102.214C21.1922 102.631 19.7949 103.048 18.5038 102.545Z" fill="#565656"/>
<path d="M44.1126 101.209C43.9778 101.07 43.8961 100.895 43.8266 100.715C43.4916 99.8692 43.3894 98.9418 43.3731 98.0389C43.3568 97.0992 43.4303 96.1636 43.4834 95.2239C43.5406 94.2433 43.6101 93.2668 43.7163 92.2945C43.7694 91.8083 43.8307 91.3221 43.9083 90.8359C43.9778 90.4028 44.0472 89.9697 44.1698 89.553C42.8787 89.1199 41.5386 88.8012 40.17 88.9197C39.5326 88.9769 38.9157 89.1404 38.3192 89.3814C37.7145 89.6265 37.1425 89.9371 36.5623 90.2271C35.3081 90.8563 34.0047 91.3711 32.7096 91.9104C31.394 92.4579 30.0785 93.0013 28.767 93.5488C27.5331 94.0595 26.2706 94.5661 24.9224 94.6437C24.7998 94.6519 24.7426 94.5538 24.7508 94.4558C24.2728 94.3822 23.7907 94.5456 23.3494 94.7622C22.7733 95.0441 22.2218 95.3791 21.6784 95.7223C20.7183 96.3229 19.7704 96.9766 18.9288 97.7324C18.5406 98.0797 18.1729 98.4556 17.8706 98.8805C17.5723 99.3054 17.2741 99.8079 17.2496 100.339C17.2291 100.817 17.4334 101.279 17.7521 101.626C18.0953 102.002 18.557 102.231 19.0513 102.341C19.9706 102.545 20.898 102.337 21.7846 102.059C21.7397 102.01 21.7397 101.912 21.8255 101.883C22.0012 101.818 22.185 101.769 22.3648 101.72C23.0798 101.532 23.8315 101.516 24.571 101.528C25.3636 101.544 26.1603 101.569 26.9529 101.593C28.5545 101.642 30.1602 101.691 31.7617 101.74C33.3633 101.794 34.969 101.847 36.5705 101.896C38.1312 101.945 39.6919 102.022 41.2527 102.043C42.4906 102.055 43.7776 101.981 44.9134 101.467C44.8317 101.467 44.75 101.467 44.6682 101.463C44.4599 101.446 44.2678 101.377 44.1208 101.222L44.1126 101.209Z" fill="#E6E6E6"/>
<path d="M54.4779 92.7357C53.0765 91.939 51.6874 91.081 50.1471 90.5867C48.5047 90.0596 46.703 90.1454 45.1259 89.4059C45.1055 89.3978 45.0891 89.3855 45.0687 89.3773C45.0074 89.4263 44.9339 89.4631 44.8726 89.5121C44.8685 89.5121 44.8644 89.5203 44.8603 89.5244C44.8481 89.5326 44.8522 89.5285 44.8726 89.5162C44.8644 89.5162 44.8563 89.5285 44.8481 89.5326C44.8317 89.5448 44.8154 89.5612 44.7991 89.5734C44.7705 89.602 44.7378 89.6265 44.7092 89.6551C44.6806 89.6837 44.652 89.7164 44.6234 89.7491C44.6111 89.7655 44.5948 89.7818 44.5825 89.7981C44.5784 89.8063 44.5703 89.8145 44.5662 89.8186C44.5376 89.8594 44.5008 89.8962 44.4722 89.9371C44.46 89.9493 44.4477 89.9738 44.4314 89.982C44.4232 89.9902 44.4191 90.0024 44.4109 90.0106C44.4028 90.0229 44.3905 90.0351 44.3782 90.0474C44.3742 90.076 44.3701 90.1046 44.366 90.1332C44.2189 91.0729 44.0963 92.0085 44.0146 92.9563C43.9329 93.896 43.8757 94.8357 43.8226 95.7795C43.7736 96.6743 43.7123 97.5772 43.7572 98.4719C43.7817 98.9091 43.8308 99.3463 43.9288 99.7753C43.9778 99.9918 44.035 100.2 44.1086 100.409C44.1658 100.58 44.2271 100.76 44.3415 100.903C44.46 101.058 44.6193 101.087 44.8072 101.083C45.0401 101.083 45.2771 101.07 45.51 101.062C45.9839 101.042 46.4578 101.013 46.9318 100.972C47.8674 100.891 48.803 100.764 49.7263 100.592C50.1921 100.507 50.6579 100.409 51.1195 100.302C51.5567 100.2 52.002 100.098 52.4269 99.9469C52.8151 99.8079 53.1787 99.6077 53.4892 99.3381C53.7915 99.0807 54.053 98.7743 54.2859 98.4556C54.8089 97.7447 55.2664 96.9766 55.7118 96.2126C56.1367 95.4772 56.533 94.7295 56.913 93.9696C56.819 93.9287 56.725 93.8879 56.6351 93.847C55.8956 93.5202 55.1888 93.132 54.4861 92.7316L54.4779 92.7357Z" fill="white"/>
<path d="M71.7069 97.1195C70.9878 97.908 70.2892 98.7211 69.4271 99.3584C69.2147 99.5137 68.99 99.6608 68.7571 99.7915C68.8878 99.7793 69.0186 99.7629 69.1452 99.7466C69.9828 99.6322 70.804 99.4361 71.6007 99.146C71.997 99.003 72.381 98.8355 72.7569 98.6475C72.9408 98.5536 73.1246 98.4555 73.3085 98.3534C73.4923 98.2471 73.6721 98.1164 73.8641 98.0265C73.8886 98.0143 73.9091 98.0102 73.9336 98.0102C73.8927 97.8999 73.8559 97.7855 73.8151 97.6752C73.6884 97.3238 73.5618 96.9724 73.4392 96.6211C73.3779 96.4413 73.3126 96.2615 73.2513 96.0818C73.2104 95.9633 73.1532 95.8366 73.1328 95.71C72.6384 96.1553 72.1645 96.6251 71.711 97.1195H71.7069Z" fill="#565656"/>
<path d="M86.0721 135.051C85.6676 134.736 85.1896 134.519 84.7116 134.352C84.2131 134.176 83.7065 134.045 83.1958 133.903C82.6892 133.76 82.1826 133.6 81.6882 133.42C80.6954 133.053 79.7312 132.607 78.8119 132.08C77.8885 131.553 77.0061 130.945 76.1889 130.262C75.9928 130.103 75.8008 129.935 75.666 129.715C75.523 129.478 75.4903 129.208 75.4739 128.938C75.4617 128.706 75.4658 128.456 75.3514 128.244C75.2697 128.093 75.1103 127.909 74.9183 127.937C74.8734 127.946 74.8366 127.933 74.8039 127.909C74.5138 127.901 74.2319 127.766 73.9745 127.635C73.6313 127.464 73.2922 127.288 72.9531 127.108C72.2749 126.753 71.5967 126.393 70.894 126.095C70.1953 125.797 69.464 125.56 68.7081 125.437C68.3404 125.38 67.9686 125.355 67.5928 125.359C67.2373 125.368 66.89 125.429 66.5387 125.47C66.4733 125.543 66.4161 125.617 66.3793 125.707C66.3507 125.78 66.3344 125.866 66.3671 125.94C66.3957 126.013 66.4324 126.07 66.4447 126.148C66.4733 126.324 66.4161 126.503 66.3262 126.651C66.2363 126.798 66.1097 126.916 65.9953 127.043C65.9422 127.104 65.8972 127.169 65.8564 127.243C65.8155 127.321 65.7665 127.386 65.6684 127.386C65.6521 127.386 65.6357 127.386 65.6194 127.378C65.076 128.023 64.6348 128.742 64.2793 129.515C63.8789 130.393 63.5929 131.32 63.3437 132.248C63.217 132.71 63.0986 133.175 62.9883 133.645C62.8902 134.078 62.8003 134.552 62.8861 134.997C62.9678 135.435 63.2293 135.778 63.642 135.953C64.0587 136.133 64.5285 136.146 64.9698 136.154C65.5663 136.162 66.1628 136.141 66.7593 136.096C67.3558 136.052 67.9441 135.966 68.5365 135.904C68.6183 135.896 68.6714 135.953 68.6877 136.019C68.7204 136.019 68.7531 136.011 68.7858 136.007C71.1799 135.77 73.5946 135.815 75.9928 135.978C78.4115 136.146 80.8179 136.44 83.2244 136.705C83.8331 136.771 84.446 136.832 85.0588 136.775C85.5164 136.734 86.0476 136.603 86.3213 136.199C86.4398 136.023 86.5133 135.806 86.4684 135.594C86.4193 135.361 86.2437 135.185 86.0639 135.042L86.0721 135.051Z" fill="#565656"/>
<path d="M86.5623 101.422C86.4438 101.348 86.3212 101.275 86.1987 101.201C86.1946 101.201 86.1905 101.197 86.1864 101.193C86.0843 101.132 85.9821 101.074 85.88 101.017C83.9556 99.9631 81.778 99.383 79.5881 99.3176C78.4932 99.2849 77.3941 99.3789 76.3196 99.6077C76.054 99.6649 75.7885 99.7302 75.527 99.8038C75.2655 99.8773 75.0081 99.9672 74.7875 100.131C74.3789 100.429 74.1992 100.94 74.0643 101.405C73.7089 102.635 73.3943 103.881 73.0593 105.115C72.7202 106.365 72.3811 107.616 72.0746 108.878C71.7641 110.14 71.4904 111.415 71.1962 112.682C70.9102 113.924 70.5915 115.158 70.2361 116.383C69.8888 117.589 69.5007 118.782 69.0758 119.962C68.8674 120.547 68.6468 121.123 68.418 121.699C68.1851 122.287 67.9277 122.859 67.6703 123.435C67.654 123.468 67.6254 123.484 67.5968 123.488C67.5682 123.554 67.5396 123.619 67.511 123.684C67.3435 124.068 67.176 124.456 66.9921 124.836C66.9472 124.934 66.89 125.024 66.8328 125.114C67.1147 125.053 67.4129 125.037 67.6907 125.033C68.1156 125.024 68.5406 125.069 68.9573 125.143C70.4608 125.408 71.8254 126.123 73.1614 126.822C73.4964 126.994 73.8274 127.169 74.1665 127.333C74.4279 127.464 74.7997 127.664 75.0817 127.468C75.2696 127.337 75.3636 127.104 75.482 126.916C75.6005 126.72 75.7517 126.524 75.9764 126.446C75.9887 126.43 76.0009 126.409 76.0091 126.393C76.099 126.25 76.1848 126.107 76.2747 125.964C76.4503 125.678 76.6301 125.392 76.8058 125.106C76.9856 124.816 77.1694 124.522 77.3533 124.232C77.4431 124.089 77.5371 123.95 77.6311 123.811C77.6638 123.766 77.7005 123.721 77.7332 123.676C78.0723 122.977 78.436 122.291 78.7914 121.597C79.1755 120.849 79.5513 120.097 79.9231 119.341C80.6667 117.834 81.3899 116.318 82.0844 114.786C82.7708 113.266 83.4327 111.73 84.0455 110.177C84.6625 108.625 85.2344 107.06 85.7574 105.475C86.0189 104.678 86.2681 103.877 86.5051 103.072C86.6195 102.68 86.787 102.263 86.787 101.851C86.787 101.716 86.7502 101.557 86.6726 101.43C86.6358 101.434 86.599 101.43 86.5582 101.405L86.5623 101.422Z" fill="#E6E6E6"/>
<path d="M86.1823 93.3159C85.8228 92.6867 85.4142 92.0616 85.1487 91.3874C85.1487 91.3793 85.1446 91.3711 85.1446 91.3588C85.0628 91.3384 84.9811 91.318 84.9035 91.3016C84.2988 91.1709 83.6574 91.2404 83.0445 91.3016C81.97 91.416 80.9037 91.6326 79.8659 91.9472C77.7782 92.5723 75.8007 93.5855 74.0725 94.9133C73.8192 95.1095 73.5741 95.3137 73.333 95.5221C73.3984 95.5875 73.427 95.6774 73.4597 95.7632C73.4923 95.849 73.5291 95.9348 73.5618 96.0206C73.6272 96.1921 73.6885 96.3637 73.7538 96.5353C73.8846 96.8867 74.0153 97.234 74.142 97.5853C74.3789 98.2309 74.62 98.8723 74.8488 99.5179C74.906 99.5301 74.9509 99.571 74.955 99.6322C75.1103 99.5587 75.2778 99.5015 75.4494 99.4525C75.9846 99.3013 76.5321 99.1869 77.0836 99.1052C78.1949 98.9418 79.3225 98.905 80.4379 99.0071C82.444 99.1869 84.4091 99.7793 86.166 100.764C86.3131 100.118 86.5255 99.4933 86.7298 98.8641C86.93 98.2472 87.1261 97.6221 87.2078 96.9766C87.2895 96.3433 87.2487 95.71 87.0485 95.1013C86.8442 94.468 86.5092 93.8879 86.1782 93.3118L86.1823 93.3159Z" fill="white"/>
<path d="M63.9647 96.1798C64.218 96.711 64.5408 97.2053 64.8922 97.6752C65.2353 98.1369 65.6071 98.5822 65.983 99.0234C66.2976 99.3952 66.6694 99.816 67.1842 99.8732C67.7276 99.9345 68.2873 99.6485 68.7408 99.383C69.1861 99.1215 69.5865 98.7946 69.9624 98.4392C70.7346 97.716 71.4006 96.8866 72.1482 96.139C72.9082 95.379 73.7375 94.6886 74.62 94.0757C76.3728 92.8582 78.3461 91.9553 80.4135 91.416C81.4594 91.1423 82.5298 90.9666 83.6084 90.8889C83.9189 90.8685 84.2294 90.8563 84.5399 90.8808C84.7115 90.8971 84.8791 90.9216 85.0466 90.9584C85.1937 90.9911 85.3366 91.036 85.4837 91.0524C85.6553 91.0687 85.9781 91.0238 85.9944 90.7909C86.0026 90.6724 85.9086 90.558 85.8719 90.4477C85.831 90.3251 85.8392 90.2107 85.8923 90.0922C85.9005 90.0718 85.9168 90.0555 85.9332 90.0432C85.6022 88.4866 84.7156 87.1302 84.0946 85.6838C83.7433 84.8626 83.4613 84.0087 83.1222 83.1834C82.8158 82.4358 82.4563 81.7044 82.0681 80.9935C81.2796 79.5513 80.3522 78.1908 79.3553 76.8834C78.8609 76.2338 78.3502 75.6005 77.8313 74.9713C77.3043 74.334 76.7446 73.717 76.2584 73.047C75.7804 72.3892 75.4086 71.6497 75.3269 70.8326C75.286 70.4363 75.3269 70.0277 75.4576 69.6477C75.5271 69.4516 75.6169 69.2596 75.6169 69.0472C75.6169 68.9287 75.5842 68.8102 75.5311 68.704C75.4167 69.0594 75.2206 69.3863 74.9428 69.6396C74.4198 70.1176 73.713 70.3055 73.0389 70.4485C71.5395 70.7672 69.991 70.7836 68.4671 70.6201C65.3497 70.2892 62.3836 69.2392 59.3439 68.5283C57.8158 68.1687 56.2633 67.895 54.6903 67.8582C53.1255 67.8215 51.5648 68.0135 50.0368 68.3444C49.2769 68.5079 48.521 68.7081 47.7774 68.9246C47.3975 69.0349 47.0257 69.1616 46.6457 69.276C46.3556 69.3618 46.0492 69.4312 45.7469 69.3822C45.5344 69.3454 45.3792 69.2514 45.2648 69.1248C45.1545 69.2555 45.1218 69.4598 45.1095 69.6191C45.0768 70.0481 45.1095 70.4853 45.1095 70.9143C45.1095 71.3923 45.1177 71.8744 45.1177 72.3524C45.1259 73.3044 45.13 74.2523 45.1381 75.2042C45.1504 77.1122 45.1545 79.0243 45.1626 80.9323C45.1626 81.398 45.179 81.8638 45.1586 82.3295C45.1463 82.5461 45.1259 82.7667 45.0768 82.9832C45.0278 83.1916 44.9379 83.3836 44.8807 83.5879C44.7622 84.0006 45.0278 84.3642 45.1708 84.7319C45.3261 85.1282 45.3628 85.5654 45.3342 85.9862C45.3016 86.4233 45.2076 86.8523 45.0932 87.2732C44.991 87.649 44.8276 88.0453 44.8154 88.4376C44.8113 88.6173 44.848 88.7889 44.987 88.9074C45.13 89.03 45.3261 89.1076 45.5017 89.1771C45.8899 89.3364 46.2984 89.4508 46.7111 89.5366C47.5364 89.7123 48.378 89.794 49.2074 89.9615C49.9919 90.1208 50.7477 90.3864 51.479 90.7092C52.9172 91.3506 54.2409 92.2168 55.63 92.9522C56.1244 93.2137 56.6269 93.4588 57.1417 93.6713C57.1907 93.6713 57.2398 93.6917 57.2765 93.7285C57.4481 93.7938 57.6156 93.8592 57.7913 93.9164C58.0773 94.0104 58.4369 94.1125 58.731 93.9899C59.0701 93.8469 59.0742 93.3853 59.2254 93.0993C59.4133 92.7479 59.7279 92.4864 60.0221 92.229C60.3162 91.9676 60.6063 91.7061 60.8923 91.4364C61.4643 90.9053 62.024 90.3578 62.5633 89.7899C63.6379 88.6623 64.6307 87.4529 65.4641 86.1333C66.2853 84.83 66.939 83.4204 67.3272 81.9292C67.3844 81.7044 67.7358 81.7984 67.6745 82.0231C67.5764 82.399 67.462 82.7708 67.3313 83.1385C66.8001 84.6338 66.0239 86.0311 65.0964 87.3181C64.2139 88.5438 63.2089 89.6714 62.1384 90.7337C62.2692 90.9461 62.3795 91.1627 62.4775 91.3874C62.9188 92.4129 63.1108 93.5201 63.3968 94.5946C63.5398 95.1339 63.7114 95.665 63.9525 96.1717L63.9647 96.1798Z" fill="#565656"/>
<path d="M26.9039 39.1812C27.051 39.3855 27.292 39.5121 27.5208 39.6061C27.7987 39.7246 28.0969 39.7899 28.387 39.8676C29.0938 40.0637 29.7802 40.3292 30.4461 40.6316C31.7903 41.2485 33.0405 42.0493 34.2294 42.9236C34.8259 43.3608 35.402 43.8225 35.9822 44.28C36.0149 44.3086 36.0516 44.3372 36.0884 44.3618C36.117 44.374 36.1415 44.3904 36.1619 44.4149C36.3785 44.5701 36.6318 44.709 36.8974 44.6804C37.2405 44.6437 37.5184 44.3413 37.7594 44.1248C38.8625 43.1361 39.888 42.0575 40.8196 40.9053C41.2812 40.3333 41.7225 39.745 42.1392 39.1362C42.3476 38.8339 42.5478 38.5275 42.7439 38.2211C42.9441 37.9065 43.1279 37.5796 43.3322 37.2732C43.4548 37.0934 43.7163 37.2487 43.6223 37.4407C43.5365 37.6164 43.4425 37.7798 43.3404 37.9473C42.5478 39.2588 41.6489 40.5049 40.6561 41.6693C40.1618 42.2536 39.6429 42.8133 39.1036 43.3526C38.9851 43.4711 38.8585 43.5855 38.7359 43.704C38.9157 44.2024 39.169 44.6559 39.4876 45.0849C39.8349 45.5507 40.2271 45.9878 40.603 46.4332C41.3303 47.2952 42.0534 48.1614 42.7807 49.0235C43.4875 49.8692 44.2106 50.6986 44.8929 51.5647C45.5262 52.3696 46.09 53.2194 46.4455 54.1877C46.7968 55.1397 46.9807 56.2019 46.8908 57.2151C46.8826 57.3255 46.7968 57.3786 46.711 57.3868C46.8459 58.8821 46.7682 60.4019 46.5558 61.8809C46.4496 62.6204 46.3066 63.3518 46.1268 64.0749C45.9429 64.8144 45.7019 65.5417 45.5262 66.2853C45.3628 66.9757 45.228 67.7357 45.3505 68.4466C45.3669 68.5446 45.3955 68.6345 45.4322 68.7162C45.5344 68.7285 45.5916 68.8265 45.5752 68.9082C45.6529 68.9736 45.755 69.0185 45.8817 69.0308C46.1963 69.0553 46.5068 68.9368 46.8009 68.8429C48.2472 68.3812 49.714 67.993 51.2134 67.7479C52.7047 67.5069 54.2163 67.4211 55.7199 67.5477C57.2234 67.6744 58.7024 67.9849 60.165 68.3526C63.1067 69.0921 66.0156 70.0808 69.0594 70.3096C70.5384 70.4199 72.0542 70.3586 73.4883 69.9623C74.1011 69.7948 74.6976 69.5211 75.0245 68.945C75.2982 68.4629 75.3636 67.8051 75.147 67.2862C75.1225 67.229 75.1389 67.1841 75.1675 67.1514C75.1593 67.1065 75.1511 67.0615 75.147 67.0166C74.7957 64.5734 74.4239 62.1383 74.0194 59.7033C73.6149 57.2683 73.1655 54.8414 72.6752 52.4227C72.189 50.0163 71.662 47.6139 71.0941 45.2238C70.5344 42.8664 69.9828 40.4927 69.1412 38.217C68.7408 37.1343 68.275 36.072 67.7561 35.0424C67.2413 34.0251 66.653 33.0527 66.0524 32.0844C65.9339 31.8924 66.224 31.729 66.3507 31.9088C66.51 32.1416 66.6653 32.3786 66.8123 32.6156C67.5886 33.8739 68.275 35.1936 68.8633 36.55C69.1003 36.55 69.3332 36.5296 69.5661 36.4887C70.0114 36.4152 70.4649 36.2845 70.8694 36.0802C71.041 35.9944 71.2126 35.8841 71.327 35.7288C71.4495 35.5613 71.5027 35.3489 71.5272 35.1487C71.5885 34.6543 71.6048 34.1477 71.6334 33.6533C71.6661 33.1385 71.6906 32.6197 71.7151 32.1049C71.76 31.0875 71.7846 30.0661 71.7968 29.0488C71.805 28.056 71.8254 27.0509 71.7355 26.0622C71.6906 25.5924 71.613 25.1266 71.4781 24.6731C71.3678 24.2972 71.2412 23.8682 70.8163 23.762C70.5916 23.7048 70.3546 23.7007 70.1217 23.6844C69.8643 23.668 69.611 23.6517 69.3536 23.6394C68.8388 23.6149 68.3281 23.6027 67.8133 23.5945C65.7746 23.5659 63.7318 23.6231 61.7012 23.4025C60.6962 23.2922 59.6993 23.1246 58.7024 22.9653C57.7504 22.8141 56.7944 22.6711 55.8465 22.4873C55.7975 22.4914 55.7485 22.4995 55.6953 22.5036C55.7076 22.6834 55.7199 22.8673 55.7321 23.047C55.7607 23.4597 55.7893 23.8723 55.8179 24.285C55.8302 24.4892 55.8465 24.6894 55.8588 24.8937C55.871 25.0735 55.9119 25.2819 55.8261 25.4494C55.7485 25.6005 55.585 25.6741 55.4257 25.7027C55.2255 25.7435 55.0171 25.764 54.8128 25.7721C54.4084 25.7926 53.9998 25.764 53.5953 25.7109C52.2348 25.5311 50.8661 25.1838 49.5914 24.6731C48.3657 24.1828 47.2013 23.521 46.2412 22.6058C46.0042 22.3811 45.7836 22.14 45.5793 21.8908C45.4036 21.6783 45.2361 21.4618 45.183 21.2003C45.1667 21.2044 45.1544 21.2126 45.1381 21.2126C44.9093 21.2289 44.6805 21.2493 44.4517 21.282C42.6377 21.5353 40.9503 22.2708 39.4876 23.3657C38.0577 24.4321 36.8565 25.7721 35.6594 27.0877C34.446 28.4278 33.2325 29.7679 32.1131 31.1938C31.0018 32.6115 29.9886 34.115 29.2041 35.737C28.8487 36.4683 28.579 37.265 28.0806 37.9187C27.9621 38.074 27.8354 38.217 27.6883 38.3477C27.5372 38.4785 27.3697 38.5847 27.2062 38.695C27.0755 38.7808 26.908 38.8952 26.8876 39.0668C26.8835 39.1036 26.8876 39.1403 26.8876 39.1771L26.9039 39.1812Z" fill="#E8E8E8"/>
<path d="M92.127 20.1585C91.9922 20.0196 91.8492 19.8848 91.698 19.7581C91.5469 19.6274 91.3875 19.4925 91.2037 19.4068C91.0116 19.3169 90.7992 19.3373 90.5949 19.3659C90.3579 19.3986 90.121 19.4353 89.884 19.4721C88.9239 19.6233 87.9638 19.8031 87.0118 20.0033C85.1447 20.3955 83.2898 20.8531 81.439 21.3229C80.5728 21.5435 79.7067 21.7805 78.8691 22.091C78.0275 22.4056 77.2431 22.8101 76.4831 23.2881C76.0991 23.5292 75.7109 23.7579 75.2901 23.9377C74.8979 24.1052 74.4893 24.236 74.0685 24.3218C73.3127 24.477 72.5323 24.5015 71.7683 24.3708C71.8868 24.714 71.9644 25.0735 72.0216 25.429C72.0992 25.9233 72.136 26.4218 72.1524 26.9202C72.185 27.958 72.1687 28.9998 72.1524 30.0376C72.1319 31.0957 72.0911 32.1498 72.0339 33.208C72.0094 33.6288 71.9808 34.0537 71.9522 34.4746C72.1891 34.45 72.422 34.4419 72.659 34.401C72.8959 34.3602 73.1288 34.303 73.3576 34.2253C74.2033 33.9434 74.9592 33.4532 75.6905 32.9506C76.0582 32.6973 76.4218 32.4358 76.7977 32.1907C76.9897 32.0681 77.1818 31.9496 77.3779 31.8352C77.5699 31.7249 77.7742 31.6146 77.9989 31.5901C78.0438 31.586 78.0765 31.6064 78.0969 31.6432C78.3584 31.5492 78.6199 31.4553 78.8773 31.3613C79.4861 31.1325 80.0989 30.9078 80.7077 30.6749C82.8771 29.8415 85.0262 28.959 87.1507 28.0152C88.1966 27.5535 89.2385 27.0836 90.264 26.5811C90.7706 26.336 91.269 26.0745 91.7593 25.8008C92.2373 25.5311 92.6908 25.2206 93.1648 24.951C93.2914 24.8406 93.4017 24.7181 93.4875 24.5792C93.9574 23.8274 93.7 22.8755 93.3976 22.1114C93.1116 21.3883 92.6745 20.7182 92.1311 20.1626L92.127 20.1585Z" fill="white"/>
<path d="M114.14 13.2947C114.014 13.1272 113.744 13.2212 113.585 13.2661C113.344 13.3356 113.103 13.405 112.861 13.4745C112.379 13.6175 111.901 13.7687 111.427 13.9239C110.463 14.2426 109.511 14.6062 108.539 14.9004C108.441 14.929 108.375 14.7778 108.469 14.7329C109.548 14.1854 110.712 13.7973 111.86 13.4214C112.175 13.3192 112.494 13.2171 112.812 13.1191C112.923 13.0292 113.053 12.9597 113.172 12.8862C113.311 12.8004 113.45 12.7146 113.585 12.6288C113.715 12.5471 113.871 12.4735 113.985 12.3714C114.059 12.306 114.091 12.2325 114.042 12.1385C113.928 11.9056 113.65 11.926 113.442 11.9955C113.18 12.0854 112.931 12.2366 112.682 12.3591C112.159 12.6124 111.628 12.8453 111.084 13.0578C110.002 13.4827 108.89 13.8259 107.746 14.0506C107.616 14.0751 107.558 13.8831 107.689 13.8504C108.388 13.6624 109.078 13.45 109.765 13.2171C110.369 13.0087 110.966 12.7799 111.55 12.5226C111.848 12.3918 112.142 12.2529 112.437 12.114C112.714 11.9792 112.984 11.8198 113.274 11.7054C113.299 11.6973 113.323 11.685 113.352 11.6768C113.352 11.6646 113.352 11.6523 113.352 11.6401C113.372 11.4399 113.209 11.2969 113.025 11.2519C112.792 11.1947 112.535 11.3091 112.326 11.4031C110.484 12.2366 108.563 12.9189 106.602 13.4132C106.467 13.4459 106.423 13.258 106.545 13.213C107.121 12.9965 107.701 12.8004 108.281 12.6002C109.315 12.2447 110.345 11.8811 111.35 11.448C111.603 11.3377 111.852 11.2233 112.102 11.1089C112.24 11.0436 112.383 10.9823 112.531 10.9414C112.502 10.8148 112.379 10.733 112.253 10.6963C112.065 10.6472 111.848 10.729 111.677 10.8025C111.252 10.9904 110.831 11.1784 110.39 11.3295C109.617 11.5992 108.825 11.7994 108.028 11.9955C107.199 12.1998 106.373 12.4163 105.548 12.6492C104.768 12.8698 103.93 13.0251 103.281 13.5317C102.799 13.9076 102.386 14.3652 101.932 14.7778C101.924 14.8023 101.908 14.8309 101.883 14.8514C101.246 15.4029 100.576 15.93 99.816 16.3018C99.097 16.6531 98.3207 16.8002 97.5485 16.98C96.7559 17.1638 95.9674 17.3804 95.187 17.6255C94.4026 17.8706 93.6386 18.1648 92.8664 18.4467C92.6784 18.5162 92.4905 18.5775 92.2903 18.6101C92.0942 18.6428 91.8981 18.6428 91.702 18.6428C91.4528 18.6428 91.0565 18.7041 90.9829 18.9819C91.0319 18.9819 91.081 18.9901 91.1259 18.9983C91.3343 19.0391 91.5181 19.1576 91.6856 19.2843C91.8491 19.4068 92.0043 19.5376 92.1555 19.6806C92.4578 19.9625 92.7275 20.273 92.9726 20.6039C93.4506 21.2617 93.8061 22.0216 93.994 22.8102C94.1043 23.2759 94.1493 23.7744 94.0185 24.2401C93.9613 24.4363 93.8755 24.6242 93.7652 24.7917C94.0676 24.8448 94.3862 24.7386 94.566 24.473C94.6763 24.3055 94.7907 24.1543 94.9746 24.0645C95.1748 23.9705 95.3872 23.901 95.5915 23.8193C97.0828 23.2269 98.5495 22.5773 99.9754 21.8419C101.405 21.1024 102.799 20.2893 104.151 19.4068C104.212 19.366 104.269 19.3742 104.314 19.3987C104.694 19.2557 105.087 19.1413 105.475 19.0146C105.94 18.8635 106.41 18.7205 106.876 18.5734C107.673 18.3241 108.473 18.0708 109.254 17.7685C109.634 17.6214 110.01 17.4621 110.377 17.2823C110.569 17.1883 110.757 17.0944 110.945 16.9922C111.096 16.9105 111.264 16.8247 111.374 16.6899C111.452 16.5918 111.513 16.4325 111.444 16.314C111.366 16.1833 111.154 16.2078 111.027 16.2241C110.61 16.2813 110.198 16.3671 109.789 16.4611C108.947 16.649 108.118 16.8942 107.305 17.1802C107.158 17.2333 107.072 17.0903 107.101 16.9718C107.072 16.8983 107.08 16.8084 107.162 16.7512C108.024 16.1506 108.952 15.6399 109.928 15.2477C110.361 15.072 110.802 14.9208 111.256 14.7982C111.64 14.692 112.028 14.6062 112.412 14.4959C112.78 14.3897 113.143 14.263 113.474 14.0628C113.638 13.9648 113.789 13.8504 113.924 13.7156C114.014 13.6257 114.246 13.4214 114.144 13.2825L114.14 13.2947Z" fill="white"/>
<path d="M99.9386 122.79C99.9549 122.508 99.9917 122.222 99.9876 121.94C100.261 121.936 100.498 121.695 100.699 121.543C100.972 121.335 101.246 121.127 101.52 120.918C102.071 120.498 102.623 120.077 103.174 119.652C103.424 119.46 103.697 119.28 103.918 119.055C103.983 118.986 104.036 118.912 104.081 118.839C104.175 118.888 104.265 118.937 104.363 118.974C104.482 119.019 104.604 119.063 104.727 119.104C104.976 119.194 105.221 119.284 105.466 119.378C105.924 119.55 106.378 119.729 106.819 119.934C106.749 120.751 106.708 121.568 106.692 122.385C106.684 122.81 106.68 123.239 106.688 123.664C106.688 123.876 106.696 124.089 106.704 124.305C106.708 124.416 106.713 124.526 106.721 124.636C106.725 124.71 106.737 124.775 106.753 124.841C106.643 124.898 106.541 125.012 106.451 125.09C106.329 125.192 106.206 125.298 106.083 125.4C105.834 125.609 105.581 125.817 105.328 126.021C104.894 126.373 104.445 126.708 104.016 127.067C103.885 126.99 103.722 126.941 103.587 126.887C103.407 126.814 103.228 126.744 103.048 126.671C102.688 126.528 102.333 126.381 101.973 126.238C101.614 126.095 101.254 125.948 100.899 125.805C100.564 125.67 100.229 125.527 99.8896 125.413C99.8732 124.857 99.8732 124.297 99.8896 123.742C99.8977 123.427 99.9141 123.112 99.9304 122.798L99.9386 122.79Z" fill="white"/>
<path d="M105.536 126.254C105.785 126.054 106.034 125.854 106.28 125.654C106.402 125.552 106.525 125.449 106.647 125.347C106.713 125.294 106.79 125.237 106.86 125.176C106.937 125.27 107.084 125.323 107.187 125.376C107.342 125.453 107.501 125.527 107.66 125.596C107.979 125.739 108.298 125.874 108.625 125.997C109.274 126.246 109.94 126.459 110.61 126.638C110.802 126.691 110.998 126.74 111.19 126.785C111.358 126.826 111.538 126.875 111.709 126.896C111.701 127.018 111.722 127.141 111.742 127.263C111.762 127.398 111.787 127.537 111.807 127.672C111.852 127.95 111.897 128.232 111.946 128.51C112.036 129.057 112.134 129.6 112.232 130.148C111.775 130.27 111.427 130.659 111.076 130.961C110.631 131.349 110.181 131.737 109.736 132.125C109.487 132.342 109.242 132.558 108.992 132.779C108.788 132.959 108.576 133.134 108.388 133.335C108.318 133.29 108.228 133.273 108.151 133.249C108.073 133.228 108 133.204 107.922 133.183C107.763 133.139 107.607 133.09 107.448 133.04C107.125 132.938 106.807 132.832 106.492 132.718C106.181 132.607 105.871 132.489 105.565 132.366C105.405 132.301 105.246 132.236 105.087 132.17C105.017 132.142 104.939 132.101 104.858 132.068C104.858 132.027 104.85 131.986 104.825 131.958C104.678 131.177 104.555 130.389 104.457 129.6C104.408 129.2 104.363 128.796 104.323 128.391C104.302 128.191 104.286 127.987 104.265 127.786C104.249 127.611 104.245 127.423 104.2 127.251C104.666 126.945 105.103 126.602 105.54 126.254H105.536Z" fill="white"/>
<path d="M106.978 124.845C106.99 124.779 106.999 124.71 107.003 124.636C107.003 124.526 107.003 124.416 107.003 124.305C107.003 124.101 107.003 123.893 107.003 123.688C107.003 123.255 107.007 122.822 107.019 122.389C107.039 121.556 107.093 120.722 107.158 119.893C107.321 119.856 107.481 119.787 107.636 119.733C107.824 119.668 108.016 119.607 108.204 119.541C108.572 119.423 108.943 119.309 109.311 119.194C110.046 118.965 110.79 118.757 111.534 118.561C111.603 118.655 111.681 118.741 111.758 118.831C111.873 118.965 111.983 119.1 112.093 119.235C112.306 119.497 112.514 119.762 112.714 120.036C113.119 120.583 113.499 121.147 113.858 121.727C114.05 122.038 114.234 122.352 114.41 122.671C114.001 123.357 113.572 124.036 113.131 124.706C112.902 125.053 112.669 125.392 112.432 125.735C112.232 126.021 112.02 126.299 111.836 126.597C111.681 126.544 111.513 126.524 111.354 126.487C111.182 126.446 111.015 126.409 110.847 126.364C110.516 126.279 110.185 126.189 109.859 126.087C109.205 125.886 108.563 125.649 107.934 125.384C107.763 125.31 107.591 125.237 107.419 125.159C107.33 125.118 107.244 125.077 107.154 125.041C107.109 125.02 107.06 125 107.011 124.988C107.031 124.935 107.011 124.881 106.978 124.849V124.845Z" fill="#565656"/>
<path d="M112.253 128.44C112.2 128.17 112.151 127.897 112.097 127.627C112.073 127.492 112.048 127.357 112.02 127.218C111.995 127.1 111.975 126.977 111.926 126.867C112.2 126.581 112.428 126.246 112.657 125.927C112.902 125.584 113.143 125.241 113.38 124.89C113.842 124.211 114.279 123.521 114.704 122.818C115.035 122.965 115.374 123.084 115.717 123.198C116.118 123.329 116.522 123.447 116.931 123.55C116.951 123.668 116.976 123.787 117 123.905C117.041 124.105 117.082 124.31 117.123 124.514C117.196 124.914 117.258 125.315 117.311 125.719C117.417 126.532 117.47 127.349 117.474 128.17C117.474 128.285 117.474 128.395 117.474 128.51C117.474 128.546 117.474 128.587 117.474 128.628C117.388 128.693 117.319 128.779 117.249 128.861C117.172 128.951 117.094 129.037 117.017 129.126C116.857 129.31 116.702 129.494 116.547 129.678C116.396 129.858 116.249 130.042 116.101 130.225C116.028 130.319 115.958 130.413 115.885 130.507C115.844 130.561 115.803 130.61 115.766 130.667C115.66 130.642 115.546 130.626 115.44 130.605L114.99 130.524C114.704 130.471 114.418 130.422 114.132 130.368L113.233 130.205C113.013 130.164 112.784 130.119 112.555 130.115C112.555 130.107 112.555 130.099 112.555 130.091C112.457 129.539 112.363 128.988 112.257 128.44H112.253Z" fill="white"/>
<path d="M116.048 131.055C116.044 130.978 116.04 130.888 115.983 130.835C115.983 130.827 115.983 130.822 115.983 130.814C116.016 130.778 116.044 130.737 116.077 130.696C116.15 130.602 116.224 130.512 116.298 130.418C116.445 130.234 116.592 130.05 116.743 129.866C116.89 129.69 117.041 129.515 117.193 129.339C117.27 129.249 117.348 129.163 117.426 129.073C117.475 129.016 117.532 128.963 117.585 128.902C117.675 128.971 117.806 128.971 117.904 128.902C117.462 130.075 116.813 131.145 115.999 132.065C116.012 131.963 116.024 131.865 116.032 131.762C116.044 131.611 116.052 131.456 116.056 131.301C116.056 131.219 116.056 131.137 116.056 131.055H116.048Z" fill="white"/>
<path d="M117.781 128.665C117.781 128.64 117.781 128.616 117.781 128.62C117.781 128.526 117.781 128.432 117.781 128.342C117.781 128.154 117.772 127.97 117.768 127.782C117.752 127.415 117.732 127.051 117.695 126.687C117.625 125.948 117.519 125.208 117.368 124.481C117.327 124.281 117.282 124.077 117.233 123.876C117.2 123.737 117.164 123.594 117.115 123.46C117.123 123.435 117.123 123.407 117.115 123.382C117.196 123.255 117.245 123.104 117.298 122.969C117.376 122.777 117.45 122.585 117.519 122.393C117.584 122.205 117.65 122.017 117.711 121.829C117.74 121.744 117.764 121.662 117.793 121.576C118.316 122.859 118.581 124.269 118.528 125.744C118.487 126.802 118.287 127.811 117.952 128.759C117.928 128.689 117.858 128.64 117.776 128.673L117.781 128.665Z" fill="#565656"/>
<path d="M117.646 121.217C117.597 121.29 117.576 121.372 117.552 121.458C117.523 121.548 117.495 121.633 117.466 121.723C117.405 121.911 117.339 122.099 117.274 122.287C117.209 122.475 117.139 122.663 117.066 122.847C117.017 122.978 116.947 123.112 116.91 123.255C116.543 123.165 116.179 123.067 115.815 122.957C115.456 122.847 115.104 122.72 114.745 122.61C114.733 122.585 114.712 122.561 114.688 122.544C114.026 121.351 113.254 120.22 112.387 119.17C112.265 119.019 112.138 118.871 112.012 118.724C111.914 118.61 111.816 118.483 111.697 118.385C111.697 118.369 111.693 118.357 111.689 118.34C111.779 118.152 111.836 117.948 111.905 117.752C111.942 117.638 111.983 117.527 112.028 117.417C112.048 117.36 112.069 117.307 112.093 117.25C112.101 117.229 112.11 117.213 112.114 117.192C112.151 117.192 112.187 117.192 112.224 117.192C112.408 117.172 112.592 117.115 112.776 117.074C113.127 116.992 113.478 116.914 113.83 116.833C115.497 117.891 116.829 119.419 117.646 121.225V121.217Z" fill="white"/>
<path d="M112.028 116.862C111.959 116.825 111.906 116.759 111.853 116.706C111.591 116.441 111.334 116.179 111.072 115.914C110.941 115.779 110.81 115.648 110.68 115.513C111.66 115.738 112.588 116.102 113.438 116.588L112.784 116.747C112.613 116.788 112.445 116.833 112.273 116.87C112.192 116.89 112.11 116.907 112.028 116.862Z" fill="white"/>
<path d="M110.222 115.423C110.3 115.534 110.406 115.627 110.496 115.721C110.639 115.873 110.778 116.02 110.921 116.167C111.19 116.449 111.448 116.747 111.734 117.013C111.775 117.053 111.82 117.082 111.869 117.111C111.865 117.127 111.861 117.139 111.852 117.156C111.832 117.217 111.807 117.274 111.787 117.335C111.746 117.446 111.709 117.56 111.673 117.674C111.611 117.858 111.55 118.042 111.526 118.234C111.526 118.234 111.517 118.234 111.513 118.234C110.745 118.43 109.977 118.651 109.221 118.888C108.845 119.006 108.474 119.137 108.102 119.268C107.914 119.333 107.726 119.403 107.534 119.472C107.375 119.529 107.199 119.582 107.052 119.664C107.019 119.656 106.982 119.66 106.95 119.668C106.488 119.492 106.034 119.309 105.573 119.137C105.332 119.047 105.091 118.957 104.85 118.876C104.727 118.835 104.609 118.79 104.486 118.753C104.38 118.72 104.278 118.7 104.171 118.684C104.229 118.549 104.269 118.406 104.298 118.255C104.453 117.491 104.613 116.731 104.764 115.967C106.018 115.476 107.387 115.223 108.813 115.276C109.295 115.292 109.765 115.346 110.222 115.431V115.423Z" fill="white"/>
<path d="M104.404 116.101C104.29 116.665 104.179 117.229 104.069 117.793C104.012 118.079 103.983 118.414 103.832 118.667C103.685 118.912 103.415 119.076 103.195 119.247C102.684 119.64 102.173 120.036 101.663 120.432C101.401 120.632 101.14 120.837 100.882 121.037C100.752 121.139 100.621 121.237 100.49 121.339C100.372 121.433 100.257 121.539 100.127 121.613C99.8978 121.744 99.7548 121.601 99.6077 121.429C99.5055 121.311 99.4075 121.184 99.2767 121.106C100.319 118.871 102.153 117.086 104.408 116.101H104.404Z" fill="#565656"/>
<path d="M99.1869 121.311C99.383 121.49 99.5137 121.764 99.7466 121.883C99.6894 122.16 99.6771 122.455 99.6567 122.736C99.6363 123.059 99.6159 123.378 99.6077 123.701C99.5832 124.338 99.5832 124.971 99.6036 125.609C99.6036 125.617 99.6036 125.621 99.6077 125.629C99.5832 125.694 99.5627 125.764 99.5382 125.825C99.4933 125.952 99.4443 126.078 99.3993 126.205C99.3094 126.458 99.2277 126.716 99.1501 126.973C99.0725 127.222 98.9989 127.476 98.9254 127.725C98.8886 127.856 98.8518 127.982 98.8192 128.113C98.8069 128.162 98.7865 128.215 98.7701 128.272C98.4596 127.239 98.3044 126.136 98.3493 124.996C98.3983 123.688 98.6966 122.446 99.195 121.319L99.1869 121.311Z" fill="white"/>
<path d="M98.8805 128.624C98.9091 128.624 98.9418 128.616 98.9663 128.587C99.0562 128.489 99.0684 128.346 99.1011 128.224C99.1338 128.093 99.1706 127.962 99.2073 127.835C99.2809 127.578 99.3544 127.321 99.4361 127.063C99.5138 126.814 99.5955 126.565 99.6772 126.316C99.718 126.189 99.7589 126.058 99.8038 125.932C99.8284 125.858 99.857 125.784 99.8815 125.707C100.176 125.842 100.482 125.96 100.78 126.083C101.14 126.23 101.495 126.377 101.855 126.52C102.214 126.667 102.57 126.81 102.929 126.957C103.109 127.031 103.289 127.104 103.469 127.174L103.718 127.276C103.746 127.288 103.775 127.3 103.804 127.312C103.812 127.382 103.881 127.447 103.959 127.411C103.959 127.545 103.971 127.684 103.979 127.815C103.992 128.015 104.008 128.219 104.024 128.42C104.057 128.832 104.102 129.241 104.151 129.654C104.245 130.438 104.367 131.218 104.51 131.995C104.314 132.064 104.118 132.146 103.922 132.211C103.648 132.305 103.375 132.395 103.097 132.473C102.827 132.55 102.553 132.62 102.276 132.677C102.137 132.705 102.002 132.734 101.863 132.763C101.794 132.775 101.7 132.779 101.622 132.799C100.388 131.668 99.4402 130.234 98.8887 128.62L98.8805 128.624Z" fill="#565656"/>
<path d="M101.932 133.081C102.063 133.057 102.194 133.032 102.325 133.004C102.606 132.942 102.884 132.869 103.162 132.791C103.44 132.709 103.714 132.624 103.983 132.522C104.196 132.444 104.412 132.358 104.617 132.264C104.707 132.35 104.858 132.395 104.96 132.444C105.115 132.517 105.274 132.583 105.434 132.648C105.752 132.779 106.071 132.906 106.394 133.02C106.717 133.138 107.043 133.249 107.37 133.351C107.534 133.404 107.697 133.453 107.865 133.502C107.995 133.539 108.143 133.6 108.286 133.604C108.314 133.629 108.359 133.641 108.396 133.621C108.404 133.621 108.408 133.612 108.416 133.608C108.445 133.67 108.482 133.727 108.514 133.784C108.567 133.874 108.616 133.964 108.665 134.054C108.764 134.225 108.866 134.401 108.96 134.573C109.058 134.748 109.152 134.92 109.25 135.095C109.299 135.185 109.348 135.275 109.397 135.369C109.405 135.386 109.413 135.402 109.421 135.418C108.98 135.459 108.527 135.48 108.069 135.459C105.728 135.373 103.599 134.491 101.936 133.085L101.932 133.081Z" fill="white"/>
<path d="M109.748 135.377C109.728 135.324 109.695 135.271 109.667 135.218C109.618 135.128 109.568 135.038 109.519 134.948C109.421 134.769 109.319 134.589 109.217 134.409C109.115 134.229 109.009 134.054 108.903 133.878C108.821 133.743 108.739 133.58 108.629 133.461C108.78 133.347 108.927 133.22 109.07 133.098C109.291 132.91 109.511 132.722 109.732 132.538C110.173 132.162 110.61 131.786 111.047 131.41C111.26 131.226 111.476 131.043 111.689 130.859C111.869 130.708 112.048 130.524 112.281 130.462C112.531 130.393 112.8 130.446 113.049 130.491C113.335 130.544 113.621 130.593 113.907 130.646C114.222 130.703 114.533 130.761 114.847 130.818L115.337 130.908C115.484 130.936 115.636 130.969 115.787 130.981C115.787 131.002 115.783 131.026 115.783 131.047C115.779 131.128 115.775 131.21 115.77 131.292C115.762 131.447 115.75 131.598 115.73 131.749C115.713 131.901 115.689 132.048 115.66 132.195C115.652 132.252 115.627 132.354 115.632 132.44C114.083 134.013 112.024 135.079 109.744 135.373L109.748 135.377Z" fill="#565656"/>
</g>
<defs>
<clipPath id="clip0_1265_13269">
<rect width="118.54" height="136.803" fill="white"/>
</clipPath>
</defs>
</svg>
