<svg width="30" height="30" viewBox="0 0 30 30" fill="none" xmlns="http://www.w3.org/2000/svg">
<g filter="url(#filter0_b_276_15966)">
<rect width="30" height="30" rx="5" fill="#FCFCFC" fill-opacity="0.1"/>
</g>
<g clip-path="url(#clip0_276_15966)">
<path d="M18.4378 9.01405C17.0217 8.21875 15.3193 7.88318 13.6389 8.0651C13.2554 7.91391 12.824 8.0651 12.6568 8.13517C12.1369 7.99012 11.8123 8.32815 11.6796 8.58874C10.4258 9.00544 9.20397 10.0576 8.31771 11.4884C7.37368 13.0139 6.95944 14.7188 7.14874 16.3008C6.88446 16.7076 7.02336 17.085 7.17332 17.2817C7.13767 17.7869 7.39335 18.093 7.48185 18.1839C9.51619 22.0756 12.3126 22.7652 15.0341 22.9225C15.2074 22.9791 15.3844 23 15.5504 23C15.8884 23 16.1773 22.9151 16.283 22.8795C17.1274 22.9532 17.5159 22.5402 17.6253 22.3964C19.9362 21.1377 21.024 19.2128 21.5317 17.8152C22.0565 16.3696 22.0824 15.2056 22.0836 15.0507C22.3098 13.6371 21.6226 12.7127 21.4788 12.537C20.9576 11.073 19.8796 9.82287 18.4378 9.01528V9.01405ZM12.4196 8.46705C12.395 8.53343 12.3679 8.60718 12.3372 8.68954C12.3262 8.71904 12.3139 8.751 12.3028 8.78296C12.2635 8.7596 12.2241 8.73748 12.1823 8.72764C12.1307 8.71658 12.0766 8.71535 12.0225 8.72027C12.0803 8.61947 12.2045 8.46705 12.4196 8.46705ZM7.40072 16.951C7.35278 16.8355 7.33189 16.6597 7.48308 16.4569L7.52733 16.3979L7.5175 16.3241C7.16594 13.6309 8.98763 9.80689 11.8664 8.91202L11.9512 8.88621L11.9562 8.87269C11.9672 8.87638 11.9783 8.88129 11.9893 8.88498C12.0434 8.90219 12.0963 8.91571 12.1516 8.92063C12.1848 8.92309 12.2192 8.91817 12.2536 8.91325C12.2254 8.98824 12.1946 9.06936 12.1627 9.15541C12.1614 9.15541 12.159 9.15418 12.1577 9.15295C12.1074 9.12591 12.0533 9.10747 11.9967 9.10747C11.9414 9.10501 11.8849 9.11116 11.8308 9.12468C11.8062 9.13205 11.7816 9.14066 11.757 9.15172C11.7521 9.11976 11.73 9.09149 11.6882 9.09149C11.5948 9.09149 11.5948 9.23776 11.6882 9.23776C11.6943 9.23776 11.698 9.23531 11.7029 9.23531C11.7484 9.25374 11.7914 9.26481 11.8345 9.27587C11.8836 9.28693 11.9328 9.29677 11.9807 9.30291C12.0213 9.31029 12.0631 9.30783 12.1074 9.30168C12.0766 9.38281 12.0434 9.46763 12.009 9.5549C11.998 9.54875 11.9881 9.54138 11.9771 9.53523C11.9316 9.50819 11.8824 9.49467 11.8308 9.48975C11.7804 9.48483 11.7275 9.48361 11.6747 9.48975C11.6292 9.49713 11.5825 9.50819 11.537 9.53154C11.462 9.54998 11.4669 9.67413 11.5542 9.67413C11.5935 9.67413 11.6157 9.64832 11.6218 9.61882C11.6341 9.62374 11.6452 9.62865 11.6575 9.6348C11.7029 9.65324 11.7484 9.66799 11.7951 9.68028C11.8418 9.6938 11.8886 9.69995 11.939 9.69503C11.9439 9.69503 11.9488 9.69503 11.9537 9.6938C11.923 9.77247 11.891 9.85237 11.8578 9.93472C11.8148 9.91014 11.7656 9.90031 11.7165 9.89785C11.6489 9.89416 11.5788 9.90645 11.5186 9.93841C11.5075 9.92735 11.4915 9.91874 11.4706 9.91874C11.3772 9.91874 11.3772 10.065 11.4706 10.065C11.4964 10.065 11.5136 10.054 11.5259 10.038C11.5431 10.0429 11.5616 10.0478 11.5776 10.0527L11.6894 10.0835C11.7226 10.0921 11.7546 10.1019 11.789 10.1068C11.73 10.2506 11.6673 10.4006 11.6021 10.5555C11.58 10.542 11.5579 10.5309 11.5358 10.5186L11.435 10.4657C11.4141 10.4547 11.3932 10.4424 11.3711 10.4289C11.3711 10.392 11.3477 10.3551 11.301 10.3551C11.2076 10.3551 11.2076 10.5014 11.301 10.5014C11.3047 10.5014 11.3084 10.5002 11.3121 10.4989C11.3182 10.5186 11.3243 10.5383 11.3342 10.5567C11.3588 10.601 11.3907 10.6403 11.4288 10.6722C11.4583 10.6968 11.4903 10.719 11.5247 10.7337C11.4694 10.8615 11.4116 10.9918 11.3514 11.1246C11.3379 11.1111 11.3231 11.0988 11.3096 11.0865C11.2789 11.0594 11.2457 11.0336 11.2125 11.0078L11.1498 10.9587C11.1793 10.9169 11.1621 10.8406 11.0933 10.8406C11.006 10.8406 11.0011 10.966 11.0773 10.9832C11.0773 11.0189 11.0847 11.0533 11.0957 11.0865C11.1129 11.1357 11.14 11.1787 11.1707 11.218C11.1977 11.2524 11.2309 11.2832 11.269 11.3053C11.1756 11.5093 11.076 11.7195 10.9716 11.9322C10.9605 11.9199 10.9494 11.9076 10.9396 11.8941C10.9015 11.84 10.8757 11.7773 10.8413 11.7306C10.8056 11.6827 10.7651 11.6421 10.727 11.5966C10.7024 11.5671 10.6778 11.5388 10.652 11.5056C10.6643 11.4983 10.6753 11.4884 10.6827 11.4737C10.7233 11.3987 10.6225 11.3311 10.5708 11.3827C10.5168 11.4061 10.5045 11.4934 10.5684 11.5143C10.561 11.5671 10.5684 11.6224 10.5831 11.6728C10.6077 11.7429 10.6458 11.808 10.6962 11.8584C10.7478 11.9101 10.8191 11.9359 10.8806 11.9654C10.9015 11.9752 10.9212 11.9863 10.9396 11.9973C10.8277 12.2235 10.711 12.4534 10.5881 12.6845C10.5758 12.6697 10.5635 12.655 10.5549 12.6377C10.5291 12.5898 10.5131 12.5419 10.486 12.5038L10.4037 12.3845C10.3852 12.3599 10.368 12.3341 10.3484 12.3059C10.4209 12.2862 10.4147 12.1645 10.3287 12.1645H10.2795C10.1922 12.1645 10.1873 12.2899 10.2623 12.3071C10.2525 12.3501 10.25 12.3944 10.2562 12.4386C10.2635 12.5013 10.2894 12.5628 10.3238 12.6156C10.3594 12.6697 10.4197 12.7041 10.4774 12.7287C10.502 12.7385 10.5254 12.7484 10.5475 12.7582C10.4553 12.9303 10.3594 13.1036 10.2599 13.2782C10.2414 13.2646 10.2254 13.2487 10.2119 13.2315C10.18 13.1909 10.1591 13.1491 10.132 13.1196C10.1037 13.0901 10.0779 13.0594 10.0509 13.0237C10.0312 13.0004 10.014 12.9733 9.99435 12.9414C9.99681 12.9315 9.99803 12.9229 9.99803 12.9119C9.99803 12.9106 10.0005 12.9094 10.0017 12.9057C10.0251 12.8738 10.0066 12.8246 9.97591 12.8061C9.93903 12.784 9.8997 12.8 9.87634 12.832C9.85299 12.8639 9.85176 12.8996 9.8579 12.9364C9.86282 12.961 9.88372 12.977 9.90707 12.9844C9.90216 13.0139 9.90093 13.0446 9.90707 13.0741C9.91568 13.138 9.94518 13.2007 9.9882 13.2474C10.0312 13.2966 10.0939 13.3212 10.1541 13.3335C10.1787 13.3384 10.2009 13.3433 10.223 13.347C10.0828 13.5904 9.93657 13.835 9.78292 14.0759C9.76326 14.0366 9.75465 13.9899 9.74359 13.9505C9.73007 13.9026 9.7104 13.8571 9.69073 13.808C9.6809 13.7858 9.67352 13.7637 9.66246 13.7403C9.70303 13.7121 9.71778 13.6482 9.66246 13.6199C9.65386 13.6162 9.64648 13.6113 9.63788 13.6076C9.55429 13.5646 9.48054 13.6912 9.56412 13.733C9.57027 13.7367 9.57765 13.7391 9.58379 13.7428C9.5801 13.7723 9.57888 13.8018 9.58133 13.8325C9.58502 13.862 9.58748 13.8915 9.59731 13.9198C9.60469 13.9493 9.61698 13.9764 9.63296 14.0022C9.66492 14.0513 9.71163 14.087 9.75342 14.1239C9.62436 14.3267 9.49037 14.527 9.3527 14.7249C9.35147 14.7213 9.34901 14.7188 9.34778 14.7163C9.3232 14.6598 9.32566 14.5959 9.31951 14.5381C9.31337 14.4803 9.3023 14.4238 9.29001 14.3648C9.28387 14.3353 9.27895 14.3058 9.27034 14.2751C9.27034 14.2751 9.27034 14.2751 9.27034 14.2738C9.34287 14.2529 9.33672 14.1325 9.24945 14.1325C9.17815 14.1325 9.16095 14.2173 9.19905 14.2566C9.19782 14.2628 9.19536 14.2677 9.1929 14.2738C9.18553 14.3058 9.17938 14.339 9.1757 14.3722C9.1757 14.4053 9.17201 14.4385 9.17692 14.4717C9.17938 14.5049 9.18676 14.5381 9.19905 14.5701C9.22363 14.634 9.26789 14.6881 9.30476 14.7421C9.31091 14.7508 9.31705 14.7606 9.3232 14.7692C9.2138 14.9241 9.10194 15.0777 8.98763 15.2289C8.98148 15.2203 8.97656 15.2117 8.97165 15.2031C8.94338 15.149 8.94215 15.0826 8.93723 15.0236C8.93231 14.9646 8.91633 14.9081 8.90158 14.8491C8.89421 14.8196 8.88683 14.7901 8.877 14.7606C8.877 14.7569 8.87454 14.752 8.87331 14.7483C8.94092 14.7249 8.93354 14.6069 8.84873 14.6069C8.77375 14.6069 8.759 14.6991 8.80448 14.7372C8.79341 14.7778 8.7885 14.8196 8.78727 14.8626C8.78727 14.9278 8.79341 14.9966 8.82414 15.0568C8.85487 15.1183 8.89912 15.1699 8.93231 15.2252L8.95813 15.2682C8.84504 15.417 8.72949 15.562 8.61026 15.7046C8.60657 15.6727 8.60657 15.6407 8.60412 15.6087C8.60166 15.5559 8.58445 15.5079 8.57216 15.4563C8.56232 15.4268 8.55372 15.3961 8.54265 15.3654C8.58445 15.326 8.56847 15.2387 8.49472 15.2387C8.4099 15.2387 8.40253 15.3555 8.4689 15.3789C8.46153 15.4084 8.45784 15.4391 8.45661 15.4698C8.45661 15.5276 8.46276 15.5878 8.48857 15.6407C8.50947 15.6825 8.53897 15.7181 8.56355 15.7562C8.47874 15.8583 8.39146 15.9578 8.30296 16.0562C8.29804 16.0193 8.29436 15.9836 8.28698 15.9505C8.27838 15.9124 8.26854 15.8742 8.26117 15.8337C8.25871 15.8251 8.25748 15.8152 8.25625 15.8066C8.33 15.7882 8.32509 15.6641 8.23781 15.6641C8.17512 15.6641 8.15545 15.728 8.17635 15.771C8.16775 15.7907 8.1616 15.8116 8.15791 15.8325C8.14685 15.8804 8.14931 15.932 8.16037 15.98C8.17021 16.0291 8.20216 16.0721 8.23535 16.1078C8.23904 16.1115 8.24273 16.1152 8.24642 16.1189C8.16037 16.2123 8.07433 16.3045 7.98582 16.3954C7.98337 16.3672 7.98337 16.3401 7.98214 16.3143C7.97722 16.2614 7.96493 16.2111 7.95509 16.1594C7.94772 16.1287 7.94157 16.098 7.93543 16.0648C8.02885 16.0648 8.02885 15.9185 7.93543 15.9185C7.86905 15.9185 7.85061 15.991 7.87765 16.0328C7.85676 16.0734 7.84447 16.1176 7.84078 16.1631C7.83586 16.2246 7.83955 16.2885 7.86536 16.345C7.88257 16.3844 7.90838 16.4176 7.93174 16.452C7.85922 16.5257 7.78546 16.597 7.71048 16.6683C7.70802 16.6265 7.71294 16.586 7.71048 16.5466C7.70679 16.4999 7.70434 16.4532 7.69819 16.404C7.69573 16.3795 7.6945 16.3549 7.68959 16.3291C7.68836 16.3131 7.6859 16.2971 7.68221 16.2811C7.76088 16.2664 7.75719 16.1385 7.66746 16.1385C7.5851 16.1385 7.57527 16.2516 7.63919 16.2787C7.61706 16.3155 7.60231 16.3549 7.59125 16.3954C7.57896 16.4495 7.57281 16.5048 7.58142 16.5614C7.58879 16.6179 7.61829 16.6708 7.65025 16.7163C7.65148 16.7187 7.65271 16.7199 7.65517 16.7224C7.606 16.7691 7.5556 16.8146 7.50643 16.8588C7.51135 16.8318 7.51627 16.806 7.5175 16.7802C7.52241 16.731 7.52118 16.6818 7.52118 16.6302C7.51873 16.5786 7.51996 16.5257 7.50643 16.468L7.49168 16.4643C7.45481 16.5097 7.43145 16.5601 7.41301 16.613C7.39581 16.6659 7.38597 16.7212 7.3872 16.7789C7.39089 16.8293 7.4081 16.8785 7.43022 16.924C7.42162 16.9314 7.41179 16.94 7.40318 16.9473L7.40072 16.951ZM10.0275 13.98C10.0275 13.98 10.0165 13.9985 9.99681 14.0329C9.97714 14.0661 9.94887 14.1128 9.91445 14.1693C9.8788 14.2247 9.83947 14.291 9.79522 14.3599C9.75096 14.4287 9.70303 14.5025 9.65509 14.5762C9.60592 14.6487 9.55675 14.7225 9.51127 14.7901C9.46456 14.8577 9.42031 14.9204 9.3822 14.9745C9.3441 15.0273 9.31091 15.0728 9.28878 15.1035C9.26543 15.1343 9.25314 15.1515 9.25314 15.1515C9.25314 15.1515 9.2642 15.133 9.28387 15.0986C9.30353 15.0654 9.3318 15.0187 9.36622 14.9622C9.40064 14.9069 9.44243 14.8405 9.48546 14.7716C9.52971 14.7028 9.57765 14.6291 9.62559 14.5553C9.67475 14.4828 9.72392 14.409 9.7694 14.3414C9.81488 14.2726 9.86036 14.2111 9.89847 14.157C9.93657 14.1042 9.96976 14.0587 9.99189 14.028C10.0152 13.9973 10.0288 13.98 10.0288 13.98H10.0275ZM7.48062 17.1526C7.45235 17.1747 7.43637 17.187 7.43637 17.187C7.43637 17.187 7.45112 17.1723 7.4757 17.1465C7.50152 17.1207 7.53716 17.085 7.58019 17.042C7.62444 16.999 7.67484 16.9486 7.72892 16.8957C7.78301 16.8416 7.84201 16.7851 7.89978 16.7273C7.95878 16.6708 8.01655 16.613 8.07187 16.5601C8.12718 16.5073 8.17758 16.4569 8.22183 16.4139C8.26608 16.3721 8.30296 16.3364 8.32877 16.3118C8.35459 16.2873 8.36934 16.2737 8.36934 16.2737C8.36934 16.2737 8.35582 16.2897 8.33369 16.3168C8.31033 16.3438 8.27838 16.3831 8.23658 16.4286C8.19479 16.4741 8.14808 16.527 8.09399 16.5823C8.03991 16.6364 7.98214 16.6954 7.92559 16.7531C7.86659 16.8097 7.80636 16.865 7.75105 16.9178C7.6945 16.9695 7.64042 17.0162 7.59371 17.0567C7.547 17.0973 7.50766 17.1293 7.47939 17.1514L7.48062 17.1526ZM15.5356 22.5636C15.5098 22.5845 15.484 22.6041 15.4582 22.6312C15.3488 22.625 15.2369 22.6066 15.13 22.5685L15.1054 22.5599H15.0796C12.0422 22.3866 9.64034 21.5446 7.79161 17.9885L7.7744 17.9578L7.74982 17.9356C7.73998 17.927 7.52364 17.7279 7.53594 17.3468C7.54577 17.3874 7.55683 17.428 7.57404 17.4661C7.60354 17.5288 7.64779 17.5853 7.69942 17.632C7.75105 17.6775 7.81251 17.7156 7.88257 17.7279L7.88995 17.7156C7.81496 17.6062 7.76457 17.5042 7.71663 17.4009C7.69327 17.3493 7.66623 17.2964 7.64779 17.2399C7.64656 17.235 7.64411 17.2313 7.64288 17.2264C7.68467 17.1895 7.72769 17.1526 7.76948 17.1145C7.78301 17.1575 7.79899 17.2006 7.82111 17.2399C7.85553 17.3001 7.89978 17.353 7.95141 17.3997C8.0018 17.4439 8.05712 17.482 8.12227 17.5066C8.07556 17.5693 8.1026 17.6861 8.20585 17.6861C8.34721 17.6861 8.34721 17.4673 8.20585 17.4673C8.17635 17.4673 8.153 17.4771 8.13579 17.4931C8.10752 17.4329 8.07801 17.3776 8.04851 17.3235C8.01778 17.2682 7.99074 17.2141 7.96001 17.1625C7.93051 17.1157 7.90347 17.0678 7.87765 17.0186C7.93666 16.9646 7.99566 16.908 8.05343 16.8515C8.06818 16.9019 8.08785 16.9523 8.11735 16.9965C8.15177 17.0469 8.19233 17.0924 8.23904 17.1305C8.28575 17.1674 8.33738 17.2006 8.39761 17.2178L8.40621 17.2067C8.3804 17.1526 8.35213 17.1047 8.32631 17.0567L8.25133 16.9166C8.22675 16.8711 8.19971 16.8281 8.17758 16.7814C8.17266 16.7703 8.16775 16.758 8.1616 16.747C8.23167 16.6769 8.3005 16.6056 8.36934 16.5331C8.37794 16.554 8.38655 16.5749 8.39638 16.5946C8.42711 16.6548 8.47382 16.704 8.52422 16.747C8.57584 16.7888 8.63362 16.8244 8.70122 16.8416L8.70983 16.8293C8.68033 16.7691 8.6496 16.7163 8.61887 16.6646C8.58814 16.613 8.56232 16.5626 8.53036 16.5147C8.50947 16.4839 8.49103 16.452 8.47259 16.42C8.56355 16.3217 8.65328 16.2197 8.74424 16.1164C8.77375 16.1545 8.8057 16.1902 8.84504 16.2172C8.89052 16.2492 8.93846 16.2762 8.99009 16.2959C9.04171 16.3143 9.09457 16.3303 9.15234 16.3315L9.15849 16.318C9.08719 16.2319 9.01344 16.1643 8.94338 16.098C8.91019 16.066 8.87331 16.039 8.83889 16.0082C8.95198 15.873 9.06507 15.7341 9.17692 15.5903C9.20888 15.6223 9.24453 15.6493 9.28387 15.6727C9.33918 15.7046 9.40064 15.7267 9.46333 15.739C9.51864 15.7489 9.57642 15.7526 9.63296 15.7403C9.63296 15.7771 9.65632 15.814 9.70303 15.814C9.79644 15.814 9.79644 15.6677 9.70303 15.6677C9.66861 15.6677 9.64771 15.6874 9.63788 15.712C9.53708 15.6554 9.44981 15.6014 9.36622 15.5411C9.33426 15.5178 9.30107 15.4944 9.26912 15.4711C9.37974 15.326 9.48914 15.1773 9.59731 15.0236C9.65509 15.0544 9.71532 15.0814 9.77801 15.0998C9.84193 15.1171 9.9083 15.1269 9.97591 15.1293C10.0349 15.1293 10.0951 15.1269 10.1541 15.1097C10.1652 15.1293 10.1836 15.1441 10.2144 15.1441C10.3078 15.1441 10.3078 14.9978 10.2144 14.9978C10.1664 14.9978 10.1431 15.0372 10.1443 15.074C10.0337 15.0273 9.93043 14.988 9.82472 14.9499C9.77801 14.9327 9.72884 14.9192 9.6809 14.9044C9.81488 14.7114 9.94764 14.5123 10.0779 14.3058C10.1296 14.3181 10.18 14.3316 10.2316 14.3414C10.3299 14.3574 10.4283 14.366 10.5327 14.3795C10.5327 14.4152 10.5573 14.4508 10.6028 14.4508C10.6962 14.4508 10.6962 14.3046 10.6028 14.3046C10.5745 14.3046 10.5549 14.3193 10.5438 14.3377C10.5106 14.3021 10.47 14.2751 10.4295 14.2529C10.3766 14.2234 10.3201 14.2025 10.2623 14.1878C10.2291 14.1804 10.1959 14.1755 10.1615 14.173C10.309 13.9358 10.4553 13.6899 10.5991 13.4367C10.6176 13.4416 10.6348 13.4466 10.6532 13.4515L10.7528 13.481C10.8191 13.4994 10.888 13.508 10.9605 13.5154C11.0257 13.5228 11.0933 13.5265 11.1658 13.524C11.1732 13.5523 11.1953 13.5756 11.2322 13.5756C11.3256 13.5756 11.3256 13.4294 11.2322 13.4294C11.2014 13.4294 11.1818 13.4453 11.1719 13.4662C11.1289 13.4134 11.0773 13.3728 11.022 13.3384C10.9544 13.2966 10.8794 13.2659 10.8007 13.2524C10.77 13.2474 10.738 13.245 10.7061 13.2437C10.7896 13.0938 10.872 12.9414 10.9544 12.7853H11.0048L11.1105 12.7877C11.1805 12.7889 11.2506 12.7816 11.3231 12.7766C11.3797 12.7717 11.4387 12.7644 11.5001 12.7545C11.5075 12.8406 11.6452 12.8393 11.6452 12.7484V12.7238C11.6452 12.6488 11.5518 12.6341 11.5149 12.6808C11.4645 12.6402 11.4079 12.6119 11.3489 12.591C11.2703 12.5628 11.1867 12.548 11.1031 12.5542C11.0933 12.5542 11.0822 12.5566 11.0724 12.5579C11.1596 12.387 11.2444 12.2186 11.3256 12.0514C11.3981 12.0379 11.4731 12.0342 11.5444 12.0231C11.6169 12.0109 11.6894 11.9949 11.7644 11.9752C11.8332 11.958 11.9045 11.9383 11.9795 11.9125C11.9857 11.9432 12.0078 11.9691 12.0471 11.9691C12.1405 11.9691 12.1405 11.8228 12.0471 11.8228C12.0102 11.8228 11.9881 11.8461 11.9807 11.8732C11.9107 11.8302 11.8357 11.808 11.7607 11.7945C11.6771 11.7798 11.5923 11.7773 11.51 11.7908C11.4878 11.7945 11.4669 11.7994 11.446 11.8043C11.5272 11.6323 11.6058 11.4626 11.6808 11.2979C11.6919 11.2979 11.7029 11.2979 11.714 11.2979C11.8013 11.3065 11.8824 11.2979 11.9635 11.3016C12.0447 11.3041 12.1233 11.2955 12.2045 11.2844L12.3286 11.266L12.4429 11.2475C12.4466 11.2807 12.4687 11.3127 12.5118 11.3127C12.6052 11.3127 12.6052 11.1664 12.5118 11.1664C12.481 11.1664 12.4614 11.1824 12.4503 11.2033C12.4392 11.191 12.4269 11.1824 12.4147 11.1725C12.395 11.1578 12.3729 11.1455 12.352 11.1344C12.3089 11.1123 12.2635 11.0976 12.218 11.0853C12.127 11.0619 12.0324 11.0582 11.9414 11.0779C11.8959 11.0865 11.8517 11.1 11.8074 11.1123C11.789 11.1184 11.7718 11.1271 11.7546 11.1344C11.8197 10.9869 11.8836 10.8419 11.9426 10.7017C11.9598 10.7017 11.9771 10.703 11.9955 10.7054C12.041 10.7116 12.0865 10.719 12.1307 10.7226L12.2622 10.7288C12.3495 10.7362 12.4331 10.7288 12.5191 10.7177C12.5966 10.7067 12.674 10.6931 12.7588 10.6722C12.7674 10.6772 12.7785 10.6796 12.7908 10.6796C12.8842 10.6796 12.8842 10.5333 12.7908 10.5333C12.7502 10.5333 12.7281 10.5604 12.7232 10.5911C12.663 10.5542 12.5966 10.5309 12.5302 10.5149C12.4368 10.4928 12.3409 10.4903 12.2475 10.5088C12.2008 10.5174 12.1553 10.526 12.1098 10.5395C12.0692 10.5506 12.0299 10.5702 11.9918 10.5874C12.0717 10.3994 12.1455 10.2174 12.2143 10.0454C12.2155 10.0454 12.218 10.0454 12.2192 10.0454C12.2635 10.0454 12.3089 10.054 12.352 10.0527C12.395 10.0527 12.4368 10.0503 12.4798 10.0527C12.5646 10.0552 12.647 10.0454 12.7318 10.0306C12.7859 10.0195 12.8412 10.0085 12.8977 9.9925C12.9076 10.0171 12.9285 10.0355 12.9617 10.0355H12.9862C13.0797 10.0355 13.0797 9.88924 12.9862 9.88924H12.9617C12.9506 9.88924 12.9408 9.8917 12.9321 9.89539C12.8695 9.86097 12.8019 9.8413 12.7342 9.82778C12.6421 9.80935 12.5462 9.80935 12.4552 9.8327C12.4097 9.84253 12.3643 9.85606 12.32 9.86958C12.3053 9.87572 12.2917 9.88187 12.277 9.88924C12.3102 9.80443 12.3421 9.7233 12.3729 9.6434C12.3741 9.6434 12.3753 9.6434 12.3765 9.6434C12.4651 9.65078 12.5486 9.63849 12.6335 9.63357C12.7183 9.62742 12.7994 9.60776 12.8818 9.58194C12.9494 9.55982 13.0182 9.534 13.087 9.49836C13.0981 9.51434 13.1165 9.5254 13.1423 9.5254C13.2358 9.5254 13.2358 9.37912 13.1423 9.37912C13.1042 9.37912 13.0833 9.40248 13.076 9.43075C13.0047 9.40494 12.9321 9.39264 12.8609 9.3865C12.7711 9.38035 12.6814 9.38527 12.5953 9.40985C12.5449 9.4246 12.4933 9.43935 12.4442 9.45902C12.47 9.39142 12.4958 9.32504 12.5191 9.26235C12.5339 9.26235 12.5486 9.26235 12.5634 9.26481C12.647 9.26727 12.7269 9.25866 12.8068 9.25497C12.8867 9.25006 12.9641 9.23408 13.0428 9.21564C13.1153 9.1972 13.1891 9.17508 13.2677 9.14434C13.2788 9.15418 13.2935 9.16155 13.3144 9.16155C13.4079 9.16155 13.4079 9.01528 13.3144 9.01528C13.2677 9.01528 13.2456 9.05093 13.2444 9.08657C13.178 9.05093 13.1067 9.03249 13.0366 9.0202C12.9494 9.0079 12.8596 9.00667 12.7748 9.02511C12.7318 9.03495 12.69 9.04724 12.6482 9.06076C12.6273 9.0669 12.6076 9.07428 12.5867 9.08166C12.6076 9.02511 12.6273 8.97226 12.647 8.92063C12.6777 8.92063 12.7072 8.92063 12.7367 8.91817C12.8031 8.90957 12.8695 8.90834 12.9346 8.90096C12.9998 8.89113 13.0637 8.87761 13.1301 8.8604C13.1878 8.84565 13.2468 8.82721 13.3095 8.80508C13.3169 8.83336 13.339 8.85671 13.3771 8.85671C13.4705 8.85671 13.4705 8.71044 13.3771 8.71044C13.3439 8.71044 13.323 8.72887 13.3132 8.75223C13.2554 8.71412 13.1927 8.692 13.1301 8.67848C13.0563 8.6625 12.9789 8.65758 12.9051 8.66741C12.8436 8.67725 12.7834 8.69691 12.7244 8.71904C12.7625 8.61824 12.7945 8.53097 12.8203 8.46336C12.953 8.40805 13.2874 8.29373 13.5431 8.41297L13.5898 8.43509L13.6414 8.42895C16.9062 8.0565 19.9829 9.73682 21.067 12.4497C21.0105 12.4534 20.9466 12.4595 20.8753 12.4669C20.8728 12.4189 20.863 12.3722 20.8396 12.3329C20.8138 12.2887 20.7782 12.2493 20.7388 12.2161C20.7229 12.2026 20.7056 12.1915 20.6872 12.1805C20.7007 12.1375 20.6786 12.0834 20.6208 12.0834C20.5385 12.0834 20.5286 12.194 20.5901 12.2223C20.5975 12.253 20.6061 12.28 20.6147 12.3071C20.6307 12.3513 20.6491 12.3919 20.67 12.43C20.6811 12.4509 20.6958 12.4693 20.7118 12.4878C20.6221 12.5013 20.525 12.5173 20.4192 12.5394C20.4168 12.4853 20.4168 12.4276 20.3971 12.3772C20.375 12.3218 20.3357 12.2751 20.2939 12.2346C20.2607 12.2051 20.225 12.1793 20.182 12.1608C20.1845 12.1584 20.1869 12.1559 20.1894 12.1534C20.2558 12.0871 20.1525 11.9838 20.0861 12.0502L20.0775 12.0588C20.0296 12.1067 20.0701 12.1731 20.1205 12.1817C20.1242 12.2051 20.1279 12.2272 20.1341 12.2481C20.1402 12.2764 20.15 12.3022 20.1587 12.328C20.1783 12.3772 20.198 12.4251 20.2275 12.4669C20.2508 12.5001 20.2853 12.5283 20.316 12.5615C20.1894 12.5898 20.0542 12.6242 19.9116 12.6672C19.9116 12.6648 19.9091 12.6623 19.9079 12.6586C19.8833 12.5972 19.8809 12.5222 19.8587 12.4546C19.8354 12.3882 19.7887 12.3366 19.737 12.2911C19.6965 12.2555 19.6498 12.226 19.5944 12.2051C19.6006 12.1645 19.5785 12.119 19.5256 12.119C19.4322 12.119 19.4322 12.2653 19.5256 12.2653C19.533 12.2653 19.5391 12.2628 19.5453 12.2616C19.5502 12.2788 19.5563 12.2936 19.5625 12.3096C19.5723 12.3427 19.5883 12.3698 19.6018 12.3993C19.6326 12.4546 19.6596 12.5087 19.7063 12.5517C19.753 12.5947 19.8132 12.6316 19.844 12.6881C19.71 12.7299 19.5699 12.7791 19.4248 12.8357C19.4088 12.8037 19.3953 12.7705 19.3867 12.7336C19.3781 12.6968 19.3732 12.6574 19.3621 12.6193C19.3523 12.5812 19.3363 12.5456 19.313 12.5136C19.2884 12.4841 19.2626 12.4558 19.2306 12.4325C19.1851 12.3956 19.1298 12.3686 19.0708 12.3563C19.0733 12.3538 19.0745 12.3501 19.077 12.3477C19.0991 12.3157 19.0831 12.2665 19.0511 12.2481C19.0155 12.2272 18.9737 12.2419 18.9516 12.2739C18.9454 12.2825 18.9393 12.2923 18.9331 12.3009C18.911 12.3329 18.927 12.3821 18.9589 12.4005C18.9786 12.4116 18.9995 12.4128 19.0179 12.4054C19.045 12.4632 19.0745 12.5087 19.1028 12.5554C19.1396 12.6095 19.1741 12.6611 19.2306 12.7017C19.2884 12.7422 19.3437 12.7926 19.3621 12.859C19.1962 12.9266 19.0241 13.0041 18.8483 13.0938C18.8434 13.084 18.8373 13.0741 18.8336 13.0643C18.8016 12.9979 18.7918 12.9168 18.7598 12.843C18.7291 12.7693 18.6689 12.7152 18.6049 12.6697C18.5644 12.6414 18.5177 12.6193 18.4685 12.6058C18.4869 12.5628 18.466 12.5013 18.4046 12.5013H18.396C18.305 12.5013 18.3026 12.6377 18.3886 12.6451C18.4193 12.7017 18.4537 12.7484 18.4857 12.7951C18.5275 12.8479 18.5631 12.9033 18.6185 12.9463C18.6738 12.9893 18.7401 13.0311 18.7733 13.0938C18.7795 13.1036 18.7832 13.1135 18.7881 13.1245C18.6221 13.2118 18.4525 13.3101 18.2817 13.4208C18.2755 13.4146 18.2681 13.4085 18.262 13.4023C18.2337 13.3728 18.2079 13.3409 18.187 13.3052C18.1661 13.2696 18.1489 13.229 18.1305 13.1909C18.1108 13.1516 18.0874 13.1159 18.0579 13.0864C18.0272 13.0581 17.994 13.0323 17.9584 13.009C17.9006 12.9721 17.8342 12.945 17.7629 12.934C17.7851 12.8713 17.7002 12.8012 17.6425 12.859C17.64 12.8615 17.6363 12.8652 17.6339 12.8676C17.5724 12.9291 17.656 13.02 17.7211 12.9819C17.7592 13.0458 17.801 13.0975 17.8441 13.1479C17.8699 13.1761 17.8957 13.2044 17.924 13.2302C17.9522 13.256 17.9866 13.2757 18.0223 13.2954C18.0592 13.3138 18.096 13.3335 18.128 13.3581C18.16 13.3826 18.1858 13.4134 18.2079 13.4466C18.2116 13.4515 18.214 13.4576 18.2177 13.4638C18.053 13.5732 17.8871 13.6936 17.7211 13.8264C17.6757 13.7834 17.6449 13.7194 17.6019 13.6727C17.5577 13.6248 17.4999 13.5965 17.4396 13.5719C17.4015 13.5572 17.361 13.5461 17.318 13.5412C17.3401 13.4982 17.3204 13.4318 17.2577 13.4318H17.2491C17.1594 13.4318 17.1557 13.5646 17.2393 13.5756C17.2712 13.6322 17.3081 13.6752 17.3487 13.7158C17.3942 13.7576 17.4396 13.7993 17.4986 13.8227C17.5503 13.8436 17.6105 13.8522 17.6609 13.8756C17.4913 14.0145 17.3216 14.1669 17.152 14.3341C17.1274 14.323 17.1041 14.3119 17.0819 14.2984C17.018 14.2628 16.9676 14.2001 16.9074 14.1521C16.8484 14.1017 16.7746 14.0845 16.7021 14.0673C16.6456 14.0575 16.5866 14.0526 16.5251 14.0599C16.5251 14.0231 16.5018 13.9862 16.4551 13.9862C16.3616 13.9862 16.3616 14.1325 16.4551 14.1325C16.471 14.1325 16.4821 14.1275 16.4932 14.1214C16.5116 14.1398 16.5313 14.157 16.5509 14.1706C16.5804 14.1939 16.6112 14.2136 16.6419 14.2308C16.7046 14.2652 16.7648 14.2984 16.8373 14.3082C16.9086 14.3193 16.9873 14.3193 17.05 14.3549C17.0672 14.3636 17.0832 14.3746 17.0992 14.3857C16.8976 14.5897 16.6972 14.8147 16.5018 15.063C16.4981 15.0617 16.4932 15.0605 16.4895 15.0581C16.4317 15.0322 16.3936 14.972 16.3579 14.9192C16.3223 14.8651 16.2719 14.8356 16.2215 14.8012C16.1859 14.7803 16.1502 14.7606 16.1096 14.7421C16.1133 14.7409 16.117 14.7397 16.1207 14.7385C16.2092 14.709 16.1711 14.5676 16.0814 14.5983L16.0543 14.6082C15.9966 14.6278 15.9929 14.6954 16.0236 14.7311C16.0297 14.8085 16.0605 14.8749 16.101 14.9302C16.1428 14.9855 16.1932 15.0359 16.2621 15.0556C16.3309 15.0777 16.4034 15.0839 16.4587 15.1171C16.4047 15.1871 16.3493 15.2596 16.2953 15.3334C16.2006 15.4637 16.1109 15.594 16.0236 15.7243C15.9658 15.712 15.9154 15.6702 15.8712 15.6333C15.822 15.5878 15.7642 15.5694 15.7052 15.5424C15.6745 15.5313 15.645 15.5165 15.6106 15.5079C15.5872 15.4993 15.5614 15.492 15.5331 15.4858C15.5405 15.4698 15.543 15.4502 15.5405 15.4317C15.5405 15.4379 15.5405 15.4453 15.5405 15.4514C15.5627 15.4194 15.5467 15.3703 15.5147 15.3518C15.4778 15.3309 15.4373 15.3457 15.4151 15.3776C15.3955 15.4071 15.3942 15.4367 15.3992 15.4698C15.4053 15.5092 15.4545 15.5301 15.4889 15.5202C15.4914 15.5202 15.4926 15.5178 15.4938 15.5178C15.5172 15.5854 15.5577 15.6419 15.6081 15.6886C15.6647 15.739 15.7311 15.7821 15.8097 15.7882C15.8675 15.7931 15.924 15.7882 15.9781 15.7882C15.8257 16.0218 15.6843 16.2541 15.5565 16.4864C15.543 16.4901 15.5295 16.4938 15.5159 16.4962C15.4446 16.511 15.3697 16.4864 15.3021 16.4618C15.2345 16.436 15.1705 16.4372 15.1054 16.4311L14.9517 16.42C14.9628 16.3782 14.9407 16.3266 14.8841 16.3266C14.7907 16.3266 14.7907 16.4729 14.8841 16.4729C14.8903 16.4729 14.894 16.4704 14.8989 16.4704C14.937 16.5306 14.996 16.5749 15.0599 16.6032C15.1373 16.6339 15.2197 16.6499 15.2984 16.6278C15.3746 16.6081 15.4422 16.5737 15.5135 16.5651C15.3955 16.7839 15.2885 17.0027 15.1927 17.219C15.1779 17.219 15.1619 17.219 15.1472 17.2178C15.0759 17.2141 15.012 17.1698 14.9517 17.1293C14.8927 17.0875 14.8264 17.074 14.76 17.0567C14.7157 17.0481 14.6715 17.0408 14.6235 17.0371C14.6321 16.9965 14.61 16.9473 14.5559 16.9473C14.4637 16.9473 14.4625 17.0875 14.5522 17.0924C14.5916 17.1465 14.6395 17.1883 14.6936 17.2202C14.7587 17.2596 14.8313 17.2903 14.9112 17.2866C14.9898 17.2841 15.0685 17.2682 15.1398 17.2829C15.1484 17.2829 15.1558 17.2866 15.1644 17.2878C15.0636 17.5214 14.9763 17.7525 14.9026 17.9811C14.8915 17.9811 14.8804 17.9836 14.8694 17.9836C14.8018 17.9836 14.7366 17.9455 14.6764 17.9196C14.6162 17.8938 14.5547 17.8877 14.492 17.8779C14.4478 17.8729 14.4047 17.8668 14.3556 17.8631C14.3666 17.8029 14.288 17.7426 14.2339 17.7967C14.2314 17.7992 14.2277 17.8029 14.2253 17.8053C14.1675 17.8631 14.2388 17.9504 14.3027 17.9258C14.315 17.943 14.3285 17.9602 14.3445 17.9725C14.3715 18.0008 14.4035 18.0217 14.4379 18.0401C14.5055 18.0733 14.5793 18.1016 14.6555 18.0917C14.7317 18.0831 14.8042 18.0524 14.8743 18.0487C14.878 18.0487 14.8804 18.0487 14.8841 18.0487C14.8128 18.2786 14.7551 18.506 14.7108 18.7309C14.6924 18.7371 14.6739 18.7408 14.6555 18.7432C14.5977 18.7481 14.5387 18.7346 14.4834 18.7285C14.4281 18.7235 14.374 18.726 14.3175 18.7235C14.288 18.7235 14.2597 18.7235 14.2302 18.7235C14.2339 18.6842 14.2118 18.6424 14.1614 18.6424C14.0679 18.6424 14.0679 18.7887 14.1614 18.7887C14.1724 18.7887 14.181 18.7862 14.1896 18.7825C14.224 18.8047 14.2609 18.8219 14.3003 18.8342C14.3605 18.8538 14.4256 18.8624 14.4883 18.8538C14.5522 18.8452 14.6112 18.8145 14.669 18.7936C14.6801 18.7899 14.6911 18.7862 14.7034 18.7825C14.6641 18.9964 14.6358 19.2066 14.6223 19.4131C14.594 19.4254 14.5658 19.4353 14.5363 19.4402C14.4699 19.4525 14.3998 19.4439 14.3334 19.4439C14.2671 19.4426 14.2031 19.4537 14.1368 19.4586C14.1097 19.4623 14.0815 19.466 14.0532 19.4697C14.0434 19.4451 14.0225 19.4254 13.988 19.4254C13.8946 19.4254 13.8946 19.5717 13.988 19.5717C14.0102 19.5717 14.0261 19.5631 14.0384 19.5508C14.0704 19.5606 14.1024 19.5668 14.1343 19.5717C14.2056 19.5815 14.2781 19.5815 14.3482 19.5656C14.4183 19.5483 14.4834 19.5115 14.5486 19.4869C14.5719 19.4783 14.5953 19.4709 14.6186 19.4635C14.6051 19.6922 14.6076 19.9146 14.6272 20.1322C14.6026 20.1457 14.5781 20.158 14.5522 20.1666C14.4859 20.1924 14.4109 20.1888 14.3408 20.1826C14.2708 20.1777 14.2044 20.1863 14.1355 20.1924C14.0987 20.1974 14.0606 20.2011 14.0225 20.2047C14.0114 20.1974 13.9991 20.1912 13.9819 20.1912C13.9548 20.1912 13.9376 20.2035 13.9253 20.2195H13.9229V20.2269C13.8995 20.2699 13.9192 20.335 13.9819 20.335C14.0163 20.335 14.0384 20.3154 14.047 20.2908C14.0753 20.2994 14.1048 20.3055 14.1343 20.3092C14.2093 20.3178 14.2867 20.3178 14.3593 20.2896C14.4318 20.2625 14.4969 20.2269 14.5682 20.2084C14.5903 20.2011 14.6125 20.1961 14.6346 20.19C14.6444 20.2846 14.6567 20.3781 14.6727 20.4702C14.6813 20.5243 14.6924 20.5772 14.7034 20.63C14.6739 20.6571 14.6407 20.6817 14.6051 20.6989C14.5375 20.7358 14.4576 20.7419 14.3838 20.7419C14.3089 20.7419 14.2388 20.7542 14.1663 20.7579C14.1257 20.7628 14.0851 20.7653 14.0434 20.7677C14.0446 20.7296 14.0212 20.6915 13.9733 20.6915C13.8799 20.6915 13.8799 20.8378 13.9733 20.8378C13.9843 20.8378 13.9954 20.8353 14.004 20.8316C14.0544 20.8538 14.1085 20.8697 14.1626 20.8759C14.2437 20.8869 14.3298 20.882 14.4072 20.8488C14.4846 20.8169 14.5522 20.7702 14.6248 20.7394C14.6555 20.7247 14.6862 20.7112 14.7182 20.6964C14.7551 20.8525 14.8005 21.005 14.8546 21.1525C14.8522 21.1549 14.8485 21.1574 14.846 21.1586C14.7919 21.1967 14.7317 21.2262 14.6678 21.2385C14.6026 21.2508 14.535 21.241 14.4711 21.2385C14.4072 21.2373 14.3445 21.2434 14.2806 21.2496C14.2499 21.252 14.2191 21.2545 14.1872 21.2594C14.181 21.2287 14.1589 21.2029 14.1196 21.2029C14.0261 21.2029 14.0261 21.3491 14.1196 21.3491C14.138 21.3491 14.1515 21.343 14.1626 21.3332C14.1663 21.3344 14.17 21.3368 14.1736 21.3381C14.2068 21.3491 14.2413 21.3565 14.2757 21.3639C14.3445 21.3725 14.4158 21.3774 14.4834 21.3602C14.5522 21.3442 14.6149 21.3061 14.6789 21.2864C14.7428 21.2643 14.8091 21.2483 14.8768 21.2336C14.8792 21.2336 14.8817 21.2324 14.8841 21.2311C14.9222 21.327 14.964 21.4204 15.0107 21.5126C14.996 21.536 14.98 21.5581 14.9628 21.579C14.937 21.6073 14.9087 21.6318 14.8768 21.6515C14.8448 21.67 14.8079 21.6835 14.771 21.6921C14.6973 21.7081 14.6309 21.7326 14.5645 21.7597C14.5203 21.7794 14.4748 21.7953 14.4281 21.815C14.3912 21.7695 14.299 21.7843 14.299 21.8593V21.8777C14.299 21.9699 14.4379 21.9711 14.4441 21.8826C14.4957 21.8888 14.5486 21.8875 14.599 21.8777C14.6395 21.8715 14.6776 21.8568 14.7157 21.8408C14.7514 21.8211 14.7858 21.7978 14.8153 21.7695C14.846 21.7425 14.8731 21.713 14.9038 21.6896C14.9333 21.665 14.9653 21.6429 14.9984 21.6196C15.0157 21.6085 15.0329 21.5974 15.0501 21.5851C15.0931 21.665 15.1386 21.7449 15.189 21.8211C15.1742 21.8654 15.1546 21.9133 15.1251 21.9527C15.1029 21.9822 15.0759 22.0068 15.0452 22.0252C15.0132 22.0424 14.9775 22.0535 14.9419 22.0584C14.9247 22.0621 14.9063 22.0633 14.8903 22.0645C14.8731 22.0645 14.8571 22.0707 14.8399 22.0707C14.8227 22.0719 14.8067 22.0756 14.7907 22.0793L14.7403 22.0842C14.7059 22.0903 14.6715 22.0891 14.6346 22.094C14.599 22.0965 14.5621 22.0965 14.5215 22.1039C14.5129 22.0793 14.4908 22.0596 14.4564 22.0596C14.3629 22.0596 14.3629 22.2059 14.4564 22.2059C14.5068 22.2059 14.5289 22.1641 14.5252 22.126C14.5547 22.1469 14.5867 22.1666 14.6198 22.1801C14.6592 22.1911 14.6985 22.2071 14.7403 22.2071C14.8227 22.2182 14.9124 22.1948 14.9788 22.1432C15.0132 22.1186 15.0427 22.0903 15.0734 22.0658C15.0882 22.0522 15.1029 22.0399 15.1189 22.0277C15.1337 22.0141 15.1484 22.0018 15.1644 21.9895C15.1927 21.965 15.2234 21.9404 15.2504 21.9121C15.3119 22.0018 15.3783 22.0891 15.4496 22.1727C15.4385 22.1924 15.4262 22.212 15.4102 22.228C15.3647 22.2796 15.2959 22.3042 15.2283 22.3116C15.1951 22.3153 15.1632 22.3202 15.1312 22.3276C15.1005 22.3374 15.0685 22.3423 15.0365 22.3522C15.0046 22.3608 14.9714 22.3669 14.9382 22.378C14.9345 22.378 14.9308 22.3804 14.9272 22.3804C14.9235 22.3472 14.9013 22.3177 14.8583 22.3177C14.7649 22.3177 14.7649 22.464 14.8583 22.464C14.8755 22.464 14.8878 22.4579 14.8989 22.4505C14.9124 22.4554 14.9272 22.4591 14.9407 22.4628C14.9775 22.4677 15.0157 22.4739 15.0525 22.4714C15.1275 22.4689 15.205 22.453 15.2676 22.405C15.3303 22.3571 15.3832 22.3079 15.4422 22.2637C15.4582 22.2501 15.4754 22.2378 15.4914 22.2243C15.5639 22.3079 15.6425 22.389 15.7237 22.4665C15.7052 22.4788 15.6856 22.4874 15.6647 22.4935C15.6192 22.5058 15.5885 22.5292 15.554 22.555L15.5356 22.5636ZM20.2213 12.7988C20.2213 12.7988 20.1771 12.8111 20.0996 12.8332C20.0603 12.843 20.0148 12.8578 19.9607 12.875C19.9079 12.891 19.8477 12.9106 19.7825 12.9328C19.6522 12.9746 19.5035 13.0336 19.3437 13.0975C19.1851 13.1638 19.0192 13.2401 18.8569 13.3236C18.6947 13.4072 18.5349 13.497 18.3898 13.5867C18.2448 13.6789 18.1108 13.7649 18.0002 13.8473C17.9436 13.8866 17.8932 13.9247 17.849 13.9579C17.8047 13.9911 17.7654 14.0206 17.7347 14.0464C17.672 14.0968 17.6363 14.1251 17.6363 14.1251C17.6363 14.1251 17.6707 14.0944 17.731 14.0415C17.7605 14.0145 17.7986 13.9837 17.8416 13.9481C17.8846 13.9124 17.9338 13.8719 17.9891 13.8313C18.0985 13.7465 18.23 13.6543 18.3738 13.5609C18.5201 13.4687 18.6787 13.3777 18.8422 13.2917C19.0069 13.2093 19.1741 13.1331 19.3339 13.0692C19.4937 13.0065 19.6461 12.9537 19.7776 12.9143C19.8427 12.8934 19.9042 12.8762 19.9583 12.8627C20.0124 12.8479 20.0591 12.8357 20.0984 12.827C20.1771 12.8098 20.2213 12.7988 20.2213 12.7988ZM15.8589 16.3229C15.8331 16.3684 15.8183 16.393 15.8183 16.393C15.8183 16.393 15.8306 16.3659 15.8527 16.3192C15.8761 16.2725 15.9081 16.2049 15.9511 16.1275C15.9941 16.0488 16.0445 15.9591 16.1047 15.8644C16.165 15.7698 16.2313 15.6714 16.3002 15.5743C16.3715 15.4784 16.4452 15.385 16.5165 15.299C16.5878 15.2142 16.6591 15.1367 16.7206 15.0728C16.782 15.0077 16.8361 14.9573 16.873 14.9204C16.9111 14.8847 16.9332 14.8651 16.9332 14.8651C16.9332 14.8651 16.9135 14.8872 16.8779 14.9253C16.8423 14.9634 16.7943 15.0187 16.7353 15.0863C16.6763 15.1527 16.6112 15.2338 16.5411 15.3186C16.471 15.4047 16.3997 15.4993 16.3309 15.5952C16.2608 15.6911 16.1932 15.7882 16.133 15.8804C16.0728 15.9738 16.0162 16.0599 15.9707 16.1373C15.9253 16.2135 15.8872 16.2774 15.8613 16.3217L15.8589 16.3229ZM15.8687 16.7408C15.8884 16.7605 15.9081 16.7814 15.9253 16.8011C15.9425 16.8207 15.9572 16.8416 15.9695 16.8576C15.9818 16.8748 15.9904 16.8908 15.9978 16.9006C16.0039 16.9117 16.0076 16.9178 16.0076 16.9178L15.9929 16.9056C15.9843 16.8969 15.9707 16.8859 15.9548 16.8711C15.94 16.8564 15.9216 16.8404 15.9031 16.8232C15.8847 16.8048 15.865 16.7863 15.8441 16.7679C15.8245 16.7482 15.8048 16.7298 15.7851 16.7126C15.7667 16.6954 15.7483 16.6781 15.7335 16.6634C15.7188 16.6486 15.7065 16.6364 15.6966 16.6278C15.688 16.6191 15.6831 16.6142 15.6831 16.6142C15.6831 16.6142 15.6893 16.6167 15.7003 16.6228C15.7114 16.629 15.7274 16.6364 15.7446 16.6474C15.7618 16.6585 15.7839 16.672 15.8036 16.688C15.8245 16.704 15.8454 16.7224 15.8675 16.7408H15.8687ZM15.5258 17.4341C15.5467 17.4501 15.5663 17.4673 15.5848 17.4833C15.6032 17.4993 15.618 17.5177 15.6315 17.5312C15.645 17.546 15.6536 17.5595 15.661 17.5693C15.6671 17.5792 15.6708 17.5841 15.6708 17.5841C15.6708 17.5841 15.6659 17.5804 15.6561 17.5742C15.6475 17.5681 15.6339 17.5583 15.618 17.5472C15.6032 17.5361 15.5848 17.5226 15.5651 17.5079C15.5467 17.4931 15.5258 17.4784 15.5049 17.4636C15.4852 17.4476 15.4643 17.4329 15.4446 17.4194C15.425 17.4058 15.4065 17.3923 15.3918 17.3813C15.377 17.3702 15.3635 17.3604 15.3537 17.353C15.3451 17.3456 15.3389 17.3419 15.3389 17.3419C15.3389 17.3419 15.3451 17.3431 15.3561 17.3468C15.3672 17.3505 15.3832 17.3554 15.4004 17.3628C15.4176 17.3714 15.4397 17.38 15.4606 17.3923C15.4815 17.4046 15.5036 17.4194 15.5258 17.4341ZM15.377 16.5761C15.377 16.5761 15.3721 16.5761 15.3635 16.5774C15.3549 16.5774 15.3426 16.5798 15.3291 16.5786C15.3144 16.5786 15.2984 16.5786 15.2812 16.5761C15.264 16.5737 15.2455 16.57 15.2258 16.5675C15.2074 16.5626 15.189 16.5565 15.173 16.5515C15.1558 16.5466 15.141 16.5392 15.1275 16.5331C15.114 16.5282 15.1042 16.5208 15.0968 16.5171C15.0894 16.5122 15.0857 16.5097 15.0857 16.5097C15.0857 16.5097 15.0906 16.5097 15.0992 16.5097C15.1078 16.5097 15.1201 16.5097 15.1337 16.5134C15.1472 16.5159 15.1644 16.5171 15.1816 16.5208C15.1988 16.5245 15.2172 16.5282 15.2357 16.5306C15.2541 16.5356 15.2713 16.5392 15.2885 16.5442C15.3057 16.5479 15.3205 16.554 15.334 16.5577C15.3475 16.5614 15.3586 16.5663 15.366 16.57C15.3734 16.5737 15.3783 16.5749 15.3783 16.5749L15.377 16.5761ZM15.2074 18.093C15.2357 18.1016 15.2664 18.1114 15.2959 18.1212C15.3254 18.1335 15.3537 18.147 15.3807 18.1606C15.4078 18.1741 15.4311 18.1888 15.4508 18.2011C15.4705 18.2134 15.4864 18.2269 15.4975 18.2343C15.5086 18.2429 15.5147 18.2478 15.5147 18.2478C15.5147 18.2478 15.5073 18.2454 15.4938 18.2405C15.4815 18.2356 15.4631 18.2282 15.441 18.2183C15.4188 18.2097 15.3942 18.1987 15.3672 18.1876C15.3402 18.1765 15.3119 18.1643 15.2824 18.1544C15.2541 18.1421 15.2246 18.1311 15.1976 18.1212C15.1705 18.1114 15.1447 18.1016 15.1226 18.0942C15.1005 18.0868 15.082 18.0794 15.0685 18.0745C15.055 18.0696 15.0476 18.0672 15.0476 18.0672C15.0476 18.0672 15.055 18.0672 15.0697 18.0672C15.0833 18.0684 15.1029 18.0696 15.1263 18.0733C15.1496 18.0782 15.1767 18.0819 15.2062 18.0905L15.2074 18.093ZM14.9407 17.2079C14.9407 17.2079 14.937 17.2079 14.9296 17.2092C14.9222 17.2092 14.9112 17.2104 14.8989 17.2092C14.8866 17.2092 14.8718 17.2092 14.8571 17.2042C14.8423 17.2006 14.8264 17.1969 14.8104 17.1932C14.7944 17.187 14.7796 17.1821 14.7649 17.176C14.7501 17.1698 14.7379 17.1625 14.7268 17.1563C14.7157 17.1502 14.7071 17.144 14.701 17.1391C14.6948 17.1342 14.6924 17.1317 14.6924 17.1317C14.6924 17.1317 14.6961 17.1317 14.7047 17.1317C14.712 17.133 14.7231 17.133 14.7342 17.1354C14.7465 17.1379 14.76 17.1391 14.7747 17.144C14.7895 17.1477 14.8055 17.1514 14.8202 17.1563C14.835 17.1612 14.8509 17.1661 14.8645 17.1711C14.8792 17.1747 14.8915 17.1821 14.9038 17.1858C14.9149 17.1895 14.9247 17.1956 14.9308 17.1981C14.937 17.2018 14.9407 17.2042 14.9407 17.2042V17.2079ZM14.9456 20.8292C14.9702 20.9115 15.0046 21.0062 15.0402 21.107C15.0771 21.2078 15.1214 21.3135 15.1693 21.4167C15.216 21.5212 15.2676 21.6232 15.3193 21.7179C15.3721 21.8113 15.4201 21.8998 15.4668 21.9723C15.5123 22.0449 15.5504 22.1063 15.5786 22.1469C15.6069 22.1887 15.6229 22.212 15.6229 22.212C15.6229 22.212 15.6044 22.1899 15.5737 22.1506C15.543 22.1112 15.4987 22.0547 15.4496 21.9822C15.4004 21.9109 15.3463 21.8261 15.2922 21.7326C15.2394 21.638 15.1865 21.536 15.1373 21.4315C15.0906 21.3258 15.0476 21.2188 15.012 21.1168C14.9763 21.0148 14.948 20.9177 14.9272 20.8341C14.905 20.7505 14.8915 20.6792 14.8817 20.63C14.8731 20.5809 14.8681 20.5526 14.8681 20.5526C14.8681 20.5526 14.8755 20.5809 14.889 20.6288C14.9013 20.678 14.9222 20.7468 14.9468 20.8279L14.9456 20.8292ZM14.7489 18.0389C14.7489 18.0389 14.744 18.0401 14.7366 18.0426C14.7292 18.0438 14.717 18.0475 14.7034 18.0487C14.6899 18.0487 14.6727 18.0499 14.6555 18.0487C14.6383 18.0463 14.6198 18.0426 14.6014 18.0377C14.5842 18.0315 14.567 18.0229 14.551 18.0155C14.535 18.0069 14.5227 17.9971 14.5117 17.9885C14.5006 17.9799 14.4932 17.97 14.4883 17.9651C14.4834 17.959 14.4809 17.9553 14.4809 17.9553C14.4809 17.9553 14.4859 17.9565 14.4932 17.9602C14.5006 17.9627 14.5117 17.9676 14.524 17.9725C14.5363 17.9786 14.551 17.9823 14.5658 17.9885C14.5805 17.9946 14.5965 17.9995 14.6137 18.0045C14.6297 18.0106 14.6457 18.0155 14.6616 18.0192C14.6776 18.0229 14.6924 18.0278 14.7047 18.0303C14.717 18.034 14.7292 18.0364 14.7366 18.0377C14.744 18.0401 14.7489 18.0413 14.7489 18.0413V18.0389ZM14.7919 19.9134C14.7932 19.9712 14.7944 20.0179 14.7956 20.0523C14.7956 20.0855 14.7969 20.1052 14.7969 20.1052C14.7969 20.1052 14.7932 20.0867 14.7883 20.0535C14.7833 20.0204 14.776 19.9724 14.771 19.9159C14.7661 19.8581 14.7612 19.7917 14.7587 19.7192C14.7587 19.6467 14.7587 19.5705 14.7624 19.493C14.7674 19.4168 14.776 19.3394 14.7846 19.2681C14.7944 19.1968 14.8067 19.1304 14.819 19.0739C14.83 19.0173 14.8436 18.9706 14.8522 18.9387C14.862 18.9067 14.8669 18.8883 14.8669 18.8883C14.8669 18.8883 14.8645 18.9067 14.8595 18.9399C14.8534 18.9731 14.8485 19.0198 14.8399 19.0776C14.8313 19.1341 14.8251 19.2005 14.8178 19.2718C14.8104 19.3431 14.8042 19.4193 14.8005 19.4943C14.7956 19.5705 14.7932 19.6467 14.7919 19.718C14.7919 19.7893 14.7907 19.8556 14.7919 19.9134ZM15.6671 22.6312C15.6856 22.6164 15.7016 22.5992 15.7138 22.5783C15.7261 22.5562 15.7372 22.5341 15.7483 22.5144C15.7839 22.5464 15.8196 22.5783 15.8552 22.6103C15.7962 22.6201 15.7335 22.6275 15.6659 22.6324L15.6671 22.6312ZM21.4911 13.7158L21.5095 13.7268C21.5563 13.7182 21.5919 13.701 21.6189 13.6801C21.6276 13.674 21.6349 13.6666 21.6423 13.6592C21.748 14.0194 21.8082 14.4754 21.721 15.0052L21.7185 15.0199V15.0347C21.7185 15.047 21.7173 16.2393 21.1838 17.7021C20.6946 19.0431 19.6436 20.8943 17.4138 22.0953L17.3696 22.1198L17.3438 22.1641C17.3438 22.1641 17.0942 22.5673 16.3592 22.5181C16.4133 22.4788 16.4514 22.4198 16.4501 22.3509L16.4378 22.3436C16.3776 22.3645 16.3334 22.378 16.2928 22.3878C16.2596 22.394 16.2289 22.4062 16.1945 22.4161C16.1564 22.3866 16.1195 22.3559 16.0838 22.3251C16.1478 22.2846 16.2031 22.2182 16.2031 22.1371L16.1895 22.1309C16.1564 22.1506 16.1232 22.1616 16.0949 22.1727C16.0654 22.1838 16.0359 22.1911 16.0076 22.1985C15.9916 22.2034 15.9744 22.2071 15.9585 22.212C15.9179 22.1739 15.8798 22.1358 15.8417 22.0965C15.8515 22.0916 15.8613 22.0891 15.8712 22.0842C15.9216 22.0572 15.9695 22.024 16.0101 21.9846C16.0371 21.9588 16.0617 21.9305 16.0826 21.8986C16.0937 21.9084 16.1084 21.9146 16.1269 21.9146C16.2203 21.9146 16.2203 21.7683 16.1269 21.7683C16.0752 21.7683 16.0531 21.8125 16.058 21.8531C15.972 21.8875 15.8921 21.9207 15.8122 21.9453L15.7298 21.9711C15.6782 21.9121 15.6303 21.8506 15.5835 21.788C15.6315 21.7658 15.6782 21.7376 15.72 21.7019C15.7606 21.6675 15.7974 21.6257 15.8159 21.5728C15.822 21.5741 15.8269 21.5765 15.8343 21.5765C15.9277 21.5765 15.9277 21.4303 15.8343 21.4303C15.7569 21.4303 15.7446 21.5274 15.7937 21.563C15.7519 21.5851 15.7102 21.5999 15.6684 21.6146C15.6217 21.6294 15.5762 21.6429 15.5282 21.6527C15.5172 21.6552 15.5061 21.6589 15.4938 21.6613C15.4545 21.6023 15.4176 21.5421 15.382 21.4807C15.3979 21.477 15.4127 21.4745 15.4287 21.4696C15.5036 21.4487 15.5774 21.4241 15.6487 21.3872C15.6573 21.3909 15.6671 21.3934 15.677 21.3934C15.7704 21.3934 15.7704 21.2471 15.677 21.2471C15.6278 21.2471 15.6057 21.2864 15.6069 21.3245C15.5381 21.3209 15.4717 21.3221 15.4053 21.3258C15.3721 21.327 15.3389 21.3307 15.3057 21.3356C15.2898 21.3036 15.275 21.2705 15.2603 21.2373C15.3598 21.2324 15.4619 21.2188 15.559 21.1832C15.57 21.193 15.5848 21.2004 15.6044 21.2004C15.6979 21.2004 15.6979 21.0541 15.6044 21.0541C15.5602 21.0541 15.5381 21.0861 15.5356 21.1193C15.4324 21.1008 15.3328 21.0898 15.232 21.0812C15.2197 21.0812 15.2074 21.0812 15.1951 21.0812C15.1509 20.9681 15.1128 20.8513 15.0808 20.7308C15.1103 20.7358 15.1386 20.7394 15.1681 20.7407C15.2357 20.7444 15.3033 20.7407 15.3721 20.7333C15.409 20.7272 15.4471 20.7198 15.484 20.7075C15.5221 20.7517 15.613 20.737 15.613 20.662V20.6534C15.613 20.5637 15.4828 20.5612 15.4692 20.6411C15.4373 20.6362 15.4053 20.63 15.3734 20.6239L15.1853 20.5895C15.1373 20.5809 15.0894 20.5747 15.0415 20.5698C15.0304 20.5194 15.0206 20.4678 15.012 20.4162C15.0034 20.367 14.9972 20.3191 14.9898 20.2687C15.0169 20.276 15.0452 20.281 15.0734 20.2834C15.1361 20.2908 15.2 20.2908 15.2627 20.2834C15.307 20.2773 15.3512 20.2687 15.393 20.2514C15.4053 20.2662 15.4225 20.2773 15.4471 20.2773C15.5405 20.2773 15.5405 20.131 15.4471 20.131C15.4029 20.131 15.3795 20.1642 15.377 20.1986C15.2812 20.1777 15.1902 20.1556 15.098 20.1322C15.0562 20.1212 15.0132 20.1138 14.9702 20.1052C14.9554 19.9355 14.9505 19.7622 14.9579 19.5852C14.9972 19.6037 15.0365 19.6196 15.0783 19.6307C15.1484 19.6504 15.2234 19.6602 15.2984 19.6602C15.35 19.659 15.4029 19.6528 15.452 19.6368C15.4606 19.6627 15.4828 19.6848 15.5184 19.6848C15.6118 19.6848 15.6118 19.5385 15.5184 19.5385C15.4852 19.5385 15.4643 19.5569 15.4545 19.5815C15.4065 19.5717 15.3598 19.5594 15.3144 19.5459C15.2504 19.5262 15.1877 19.5041 15.1238 19.482L14.9653 19.4316C14.9775 19.2619 14.9984 19.0886 15.0292 18.9128C15.0587 18.9301 15.0882 18.9448 15.1189 18.9583C15.1791 18.9841 15.2443 19.0013 15.3094 19.0124C15.3463 19.0186 15.3844 19.0222 15.4225 19.021C15.4299 19.0493 15.452 19.0726 15.4889 19.0726C15.5823 19.0726 15.5823 18.9264 15.4889 18.9264C15.4643 18.9264 15.4471 18.9362 15.4348 18.9509C15.35 18.903 15.2664 18.8551 15.1804 18.8145C15.1398 18.7961 15.098 18.7789 15.055 18.7629C15.0919 18.5797 15.1398 18.3929 15.1963 18.2048C15.2418 18.2368 15.2885 18.2663 15.3402 18.2872C15.4016 18.3118 15.4655 18.3302 15.5319 18.3413C15.5983 18.3511 15.6671 18.3572 15.7397 18.3437L15.747 18.3228C15.6991 18.2687 15.6487 18.2257 15.5983 18.1864C15.5479 18.147 15.4963 18.1114 15.4422 18.0794C15.3893 18.0475 15.3316 18.0241 15.2726 18.0008C15.2689 17.9995 15.2652 17.9983 15.2615 17.9971C15.3144 17.8422 15.3721 17.6873 15.4373 17.53C15.4643 17.557 15.4938 17.5828 15.5258 17.605C15.5786 17.6406 15.6376 17.6689 15.6979 17.691C15.7311 17.7021 15.7667 17.7119 15.8023 17.7168C15.8097 17.7451 15.8318 17.7672 15.8687 17.7672C15.9621 17.7672 15.9621 17.6209 15.8687 17.6209C15.8601 17.6209 15.854 17.6234 15.8478 17.6259C15.8282 17.6013 15.8085 17.5767 15.7888 17.5533C15.7495 17.5091 15.7102 17.4661 15.6708 17.4255C15.6315 17.3849 15.586 17.3505 15.5405 17.3161C15.5381 17.3136 15.5356 17.3112 15.5319 17.31C15.5995 17.16 15.6733 17.0088 15.7532 16.8564C15.7606 16.8674 15.7679 16.8773 15.7765 16.8871C15.8208 16.9412 15.8773 16.9854 15.9363 17.0199C15.9929 17.0494 16.0531 17.0727 16.1195 17.0764C16.117 17.0789 16.1133 17.0826 16.1109 17.085C16.0445 17.1514 16.1478 17.2546 16.2141 17.1883C16.2166 17.1858 16.2203 17.1821 16.2227 17.1797C16.2805 17.1219 16.2104 17.0371 16.1478 17.0592C16.1109 17.0002 16.0777 16.9498 16.0482 16.8994C16.0175 16.8502 15.9904 16.8023 15.9634 16.7544C15.9388 16.7076 15.9093 16.6659 15.881 16.6191C15.9916 16.42 16.1121 16.2209 16.2424 16.0205C16.2645 16.0611 16.2891 16.0992 16.3211 16.1336C16.3653 16.1815 16.4182 16.2233 16.4759 16.2565C16.535 16.2873 16.5989 16.3131 16.6714 16.3118L16.6812 16.2922L16.589 16.1348C16.5595 16.0857 16.5325 16.0377 16.5018 15.9923C16.4723 15.9455 16.4391 15.9025 16.4034 15.8595C16.3936 15.8472 16.3838 15.8349 16.3752 15.8226C16.4378 15.7304 16.5018 15.6382 16.5681 15.5473C16.6038 15.4981 16.6394 15.4514 16.6751 15.4035C16.696 15.4342 16.7193 15.4637 16.7464 15.4907C16.7857 15.5301 16.8312 15.5645 16.8791 15.5964C16.9271 15.6272 16.9824 15.6505 17.0303 15.6739L17.0512 15.669C17.0574 15.6296 17.0438 15.5989 17.0352 15.5694C17.0254 15.5399 17.0143 15.5141 17.0033 15.487C16.9787 15.4354 16.9529 15.3875 16.9222 15.3432C16.8927 15.299 16.8558 15.2609 16.8177 15.224C16.9467 15.063 17.0783 14.9142 17.2098 14.7741C17.2172 14.7999 17.2245 14.8257 17.2356 14.8503C17.2602 14.9106 17.2909 14.9696 17.3266 15.0261C17.3561 15.0703 17.3868 15.1146 17.4237 15.1552C17.3733 15.1896 17.3856 15.2879 17.463 15.2879C17.5503 15.2879 17.5552 15.165 17.4814 15.1453C17.4888 15.0851 17.4876 15.0286 17.4851 14.9732C17.4802 14.9069 17.4704 14.8417 17.4544 14.7778C17.4384 14.7139 17.4138 14.6536 17.3856 14.5946C17.5429 14.4385 17.7015 14.2972 17.8588 14.1681C17.8772 14.2173 17.8895 14.2677 17.9092 14.3181C17.9522 14.4226 17.9989 14.5307 18.0751 14.65H18.0973C18.1317 14.5836 18.144 14.5172 18.1501 14.4484C18.155 14.3808 18.1501 14.3119 18.1317 14.2456C18.1133 14.1792 18.0776 14.1165 18.0358 14.0587C18.0309 14.0526 18.026 14.0464 18.0211 14.0403C18.1378 13.9505 18.2546 13.867 18.3689 13.7907C18.3726 13.7981 18.3788 13.8043 18.3824 13.8129L18.4537 13.9481C18.4771 13.9948 18.5029 14.044 18.5275 14.0956C18.5435 14.1288 18.5607 14.1644 18.5791 14.2001C18.5324 14.2369 18.5459 14.3304 18.6209 14.3304C18.6959 14.3304 18.7119 14.2283 18.6578 14.1952C18.6713 14.1534 18.6787 14.1103 18.6811 14.0673C18.6848 14.0009 18.6799 13.9333 18.6615 13.8682C18.6443 13.7957 18.6049 13.7281 18.5545 13.6691C18.675 13.5941 18.793 13.5265 18.9085 13.465L18.9159 13.4798C18.9405 13.5302 18.9602 13.5805 18.9811 13.6322C19.002 13.6838 19.0229 13.7391 19.0438 13.7981L19.0954 13.9555C19.0597 13.9714 19.0339 14.0132 19.0573 14.0575C19.061 14.0636 19.0634 14.0698 19.0671 14.0759C19.1101 14.1595 19.2355 14.0858 19.1925 14.0022C19.1888 13.996 19.1863 13.9899 19.1827 13.9837C19.1753 13.969 19.1655 13.9616 19.1544 13.9555C19.1851 13.9038 19.2023 13.8461 19.2122 13.7883C19.2245 13.7145 19.2208 13.6371 19.2023 13.5609C19.1851 13.4896 19.147 13.4244 19.0991 13.3679C19.2183 13.3089 19.3339 13.2573 19.4445 13.2118C19.4482 13.2179 19.4519 13.2253 19.4555 13.2315L19.5195 13.3531C19.5416 13.3937 19.5649 13.4367 19.5858 13.4847L19.635 13.5965C19.6227 13.6088 19.6129 13.6248 19.6129 13.6482V13.6568C19.6129 13.7502 19.7592 13.7502 19.7592 13.6568V13.6482C19.7592 13.6125 19.7383 13.5904 19.7112 13.5818C19.7284 13.5449 19.7383 13.5056 19.7444 13.4662C19.7518 13.4035 19.7481 13.3372 19.7309 13.2745C19.7174 13.2229 19.6928 13.1725 19.6596 13.1294C19.6731 13.1245 19.6866 13.1196 19.7002 13.1147C19.7764 13.0876 19.8501 13.0631 19.9226 13.0409C19.9226 13.0446 19.9251 13.0471 19.9263 13.0508C19.9399 13.1024 19.9472 13.1552 19.962 13.2081C19.9767 13.261 19.9927 13.3163 20.0111 13.374C20.0271 13.4208 20.0443 13.4699 20.0652 13.5203H20.0603C19.9669 13.5203 19.9669 13.6666 20.0603 13.6666H20.0689C20.1439 13.6666 20.1574 13.5756 20.1144 13.5375C20.1488 13.4834 20.1685 13.4269 20.182 13.3679C20.1968 13.3015 20.1992 13.2327 20.1906 13.1638C20.182 13.1012 20.1574 13.0397 20.1267 12.9819C20.2201 12.9561 20.3098 12.934 20.3947 12.9155C20.3947 12.9217 20.3959 12.9278 20.3971 12.9328C20.4082 12.9893 20.4082 13.0458 20.4168 13.1024C20.4254 13.1589 20.4377 13.2167 20.4537 13.2782C20.4684 13.3322 20.4844 13.3876 20.5077 13.4478C20.5016 13.5056 20.5778 13.5621 20.6307 13.508C20.6331 13.5056 20.6368 13.5019 20.6393 13.4994C20.686 13.4527 20.6479 13.3876 20.5987 13.3777C20.6135 13.3458 20.6245 13.3138 20.6331 13.2819C20.6516 13.2142 20.6577 13.143 20.6491 13.0717C20.6405 13.0041 20.6135 12.9389 20.584 12.8774C20.6786 12.8602 20.7659 12.8467 20.8433 12.8369C20.8433 12.8455 20.8433 12.8529 20.8433 12.8615C20.8433 12.8934 20.8482 12.9254 20.8507 12.9561C20.8519 12.9868 20.8532 13.0188 20.8532 13.0495C20.8556 13.111 20.8667 13.1725 20.8777 13.2376C20.8876 13.288 20.8986 13.3409 20.9146 13.3962C20.8605 13.4281 20.8716 13.5314 20.9515 13.5314C21.0314 13.5314 21.0412 13.438 20.9945 13.4011C21.0289 13.3544 21.0511 13.304 21.067 13.2511C21.0892 13.1774 21.0978 13.0999 21.0842 13.0225C21.0781 12.9844 21.0658 12.9463 21.0535 12.9106C21.0412 12.8787 21.0289 12.8479 21.0105 12.8184C21.0781 12.8123 21.1346 12.8086 21.1789 12.8074C21.201 12.8246 21.2281 12.843 21.2391 12.8664C21.2465 12.8824 21.2477 12.8983 21.2477 12.9155C21.2465 12.9328 21.2391 12.9512 21.2305 12.9684C21.2244 12.9856 21.2121 13.0028 21.2059 13.0188C21.1986 13.0348 21.1961 13.0508 21.1912 13.0667C21.1838 13.0987 21.1727 13.1294 21.174 13.1602C21.1777 13.2241 21.1936 13.2892 21.2428 13.3728L21.2637 13.379C21.308 13.3544 21.3387 13.3224 21.3608 13.2892C21.3842 13.2548 21.3989 13.2179 21.4063 13.1811C21.41 13.1589 21.4088 13.1368 21.4063 13.1147C21.4493 13.1946 21.4923 13.288 21.5341 13.3913C21.5268 13.3974 21.5206 13.4023 21.5157 13.4085C21.5046 13.4195 21.4985 13.4318 21.4899 13.4429C21.4739 13.4662 21.4567 13.4884 21.4505 13.5142C21.4395 13.5683 21.4419 13.626 21.4739 13.7108L21.4911 13.7158Z" fill="#E74646"/>
<path d="M20.8912 16.9216C20.6786 17.5005 20.4315 18.0647 20.1402 18.6044C20.1058 18.6732 20.0652 18.7383 20.0283 18.8047C19.9915 18.8723 19.9521 18.9375 19.9128 19.0026C19.8735 19.0678 19.8354 19.1341 19.7936 19.1993L19.6694 19.3923C19.4986 19.6467 19.3228 19.8975 19.1298 20.1372C18.7475 20.619 18.3099 21.0566 17.8416 21.477C18.1182 21.3283 18.3874 21.1574 18.6369 20.962C18.7647 20.8673 18.8815 20.7604 19.0032 20.6571C19.0634 20.6043 19.1187 20.5477 19.1765 20.4924C19.2343 20.4371 19.2908 20.3818 19.3449 20.3228C19.7874 19.8631 20.1586 19.337 20.4635 18.7764C20.7659 18.2147 21.0019 17.6185 21.1654 17.0052C21.2489 16.6991 21.3104 16.3881 21.3571 16.0746C21.3989 15.7612 21.4296 15.4453 21.4173 15.1306C21.2797 15.744 21.1014 16.3389 20.8937 16.9203L20.8912 16.9216Z" fill="#E74646"/>
<path d="M16.4858 9.07801C16.6222 9.12103 16.7562 9.17266 16.8902 9.22183C17.0229 9.27591 17.1557 9.32754 17.286 9.38777C17.5478 9.50208 17.8047 9.63115 18.053 9.77374C18.3025 9.91387 18.5447 10.0687 18.7795 10.2322C19.0142 10.3969 19.2417 10.5727 19.4592 10.7608C19.678 10.9476 19.8858 11.1468 20.0775 11.3631C19.737 10.8948 19.308 10.4916 18.8458 10.14C18.3824 9.78849 17.8772 9.48979 17.3438 9.25501C16.8115 9.01778 16.2522 8.84323 15.6806 8.73137C15.1103 8.62074 14.5276 8.57526 13.9499 8.59124C14.5264 8.63058 15.098 8.71416 15.6573 8.842C15.9363 8.91084 16.2141 8.98213 16.4845 9.07678L16.4858 9.07801Z" fill="#E74646"/>
<path d="M13.5123 21.9527C13.3931 21.7326 13.3267 21.4757 13.323 21.2114C13.2333 21.0344 13.1559 20.8599 13.0907 20.6866C13.0514 20.8906 13.0501 21.1057 13.0932 21.3184C12.9739 21.0332 12.9358 20.7075 12.9875 20.3867C12.9125 20.1445 12.8584 19.9073 12.824 19.6786C12.7404 19.8765 12.6961 20.0966 12.706 20.3215C12.6322 20.013 12.6593 19.6737 12.7859 19.3627C12.7662 19.1415 12.7613 18.93 12.7699 18.7285C12.588 18.9522 12.4638 19.2312 12.4232 19.5311C12.411 19.1488 12.54 18.7543 12.7895 18.4359C12.8092 18.2319 12.8399 18.0413 12.8768 17.868C12.6396 18.0573 12.4282 18.2835 12.2561 18.5416C12.4183 18.1876 12.6531 17.8606 12.9457 17.5853C12.985 17.4402 13.0268 17.3124 13.0673 17.203C12.8092 17.321 12.5707 17.5005 12.3851 17.7303C12.5609 17.4132 12.8326 17.1403 13.1657 16.9572C13.2149 16.8441 13.2493 16.7838 13.2493 16.7838C13.1472 16.6585 13.0587 16.5159 12.9813 16.361C12.9051 16.5134 12.8547 16.6843 12.8363 16.8625C12.7895 16.6241 12.8006 16.3659 12.8756 16.1176C12.8068 15.9406 12.7514 15.7501 12.7072 15.5522C12.6273 15.7538 12.5732 15.9677 12.5474 16.1877C12.5179 15.8693 12.5499 15.5399 12.6433 15.2215C12.6039 14.9769 12.5781 14.7237 12.5634 14.4705C12.3569 14.779 12.2266 15.1465 12.2008 15.5301C12.1676 15.063 12.288 14.5774 12.5499 14.1644C12.5425 13.9124 12.5449 13.6629 12.5535 13.4232C12.5253 13.4539 12.4958 13.4871 12.47 13.5191C12.3901 13.6162 12.3188 13.7231 12.2598 13.8374C12.1393 14.0648 12.0631 14.3181 12.0397 14.5811C12.0274 14.3181 12.0668 14.0476 12.159 13.7932C12.2044 13.6654 12.2634 13.5412 12.336 13.4244C12.3728 13.3654 12.4085 13.3101 12.4552 13.2511C12.4835 13.2167 12.5204 13.181 12.5671 13.1515C12.5781 12.9487 12.5941 12.7557 12.6101 12.5763C12.5683 12.6218 12.5253 12.6672 12.4859 12.7152C12.3765 12.8442 12.2733 12.9795 12.1774 13.1208C12.2413 12.9622 12.3138 12.8061 12.3962 12.6537C12.4368 12.5775 12.4798 12.5025 12.5253 12.4275L12.5941 12.3169C12.6076 12.2985 12.6224 12.2727 12.6457 12.2481C12.7035 11.7539 12.7637 11.4319 12.7637 11.4319C11.2764 14.3095 10.1197 15.9935 9.33548 16.9584C9.36006 17.1514 9.41538 17.3456 9.50511 17.53C9.38833 17.4107 9.28631 17.2718 9.2015 17.1206C9.12651 17.2092 9.05645 17.2915 8.99007 17.3665C9.04662 17.5865 9.13266 17.8029 9.24698 18.0069C9.10316 17.8569 8.97532 17.6873 8.86592 17.5029C8.81184 17.5607 8.76144 17.6148 8.7135 17.664C8.99622 18.3609 9.40186 19.0149 9.91198 19.584C9.37113 19.08 8.91263 18.4789 8.56231 17.8152C8.51437 17.8619 8.47012 17.9024 8.42955 17.9381C9.14495 19.4242 10.3299 20.694 11.7865 21.5138C10.3115 20.764 9.06505 19.552 8.26361 18.0794C8.18494 18.1421 8.14438 18.1667 8.14438 18.1667C10.1627 22.0805 14.004 22.2514 14.004 22.2514C13.7938 21.9883 13.6168 21.7265 13.4681 21.4684C13.4595 21.6269 13.4742 21.7892 13.516 21.9477L13.5123 21.9527Z" fill="#E74646"/>
<path d="M7.80389 15.6345C7.85798 14.5933 8.1284 13.5718 8.5869 12.6524C8.22305 13.5251 8.03007 14.4618 8.01286 15.3948C8.2292 15.1366 8.52544 14.7494 8.85732 14.2196C9.53216 13.1441 8.71105 11.8669 10.754 9.67896C9.47807 10.446 7.78177 12.3783 7.65393 15.7881C7.65393 15.7881 7.70802 15.7377 7.80266 15.6345H7.80389Z" fill="#E74646"/>
<path d="M7.9342 17.782C7.88749 17.782 7.88749 17.8545 7.9342 17.8545C7.98091 17.8545 7.98091 17.782 7.9342 17.782Z" fill="#E74646"/>
<path d="M8.50576 17.3321C8.59918 17.3321 8.59918 17.1858 8.50576 17.1858C8.41234 17.1858 8.41234 17.3321 8.50576 17.3321Z" fill="#E74646"/>
<path d="M8.74792 17.0655C8.84134 17.0655 8.84134 16.9192 8.74792 16.9192C8.6545 16.9192 8.6545 17.0655 8.74792 17.0655Z" fill="#E74646"/>
<path d="M9.23471 16.4937C9.32813 16.4937 9.32813 16.3474 9.23471 16.3474C9.14129 16.3474 9.14129 16.4937 9.23471 16.4937Z" fill="#E74646"/>
<path d="M15.8048 18.3228C15.7114 18.3228 15.7114 18.469 15.8048 18.469C15.8982 18.469 15.8982 18.3228 15.8048 18.3228Z" fill="#E74646"/>
<path d="M17.1631 15.7525V15.7439C17.1631 15.6505 17.0168 15.6505 17.0168 15.7439V15.7525C17.0168 15.8459 17.1631 15.8459 17.1631 15.7525Z" fill="#E74646"/>
<path d="M18.0604 14.7915C18.1268 14.8578 18.23 14.7546 18.1636 14.6882C18.1612 14.6857 18.1575 14.6821 18.155 14.6796C18.0887 14.6132 17.9854 14.7165 18.0518 14.7829C18.0542 14.7853 18.0579 14.789 18.0604 14.7915Z" fill="#E74646"/>
<path d="M13.2222 14.9363C13.2308 15.0051 13.2394 15.0703 13.2481 15.133C13.2579 15.1956 13.2677 15.2547 13.2776 15.31C13.2948 15.4206 13.312 15.5177 13.3292 15.5964C13.3611 15.7537 13.3796 15.8447 13.3796 15.8447C13.3796 15.8447 13.3661 15.7537 13.3427 15.5939C13.3292 15.514 13.3169 15.4181 13.3046 15.3063C13.2985 15.251 13.2911 15.192 13.2837 15.1293C13.2776 15.0666 13.2714 15.0014 13.2653 14.9326C13.237 14.6585 13.221 14.3377 13.2112 13.9935C13.2112 13.8214 13.2063 13.6432 13.2136 13.4625C13.2149 13.2818 13.2284 13.0986 13.237 12.9155C13.253 12.7323 13.264 12.5492 13.2874 12.3697C13.3058 12.1902 13.3316 12.0145 13.3562 11.8436C13.4115 11.5043 13.4705 11.1872 13.5357 10.9192C13.5517 10.8516 13.5664 10.7877 13.5799 10.7263C13.5959 10.666 13.6107 10.6083 13.6254 10.5529C13.6525 10.4448 13.6783 10.3501 13.7016 10.2727C13.7459 10.1178 13.7717 10.0293 13.7717 10.0293C13.7717 10.0293 13.741 10.1166 13.6881 10.2678C13.6611 10.344 13.6316 10.4374 13.5996 10.5443C13.5836 10.5984 13.5652 10.655 13.5467 10.7152C13.5308 10.7767 13.5136 10.8406 13.4951 10.9069C13.4214 11.1737 13.355 11.4896 13.2935 11.8301C13.2677 12.0009 13.237 12.1779 13.2186 12.3586C13.1952 12.5393 13.1817 12.7237 13.1657 12.9069C13.1571 13.0912 13.1448 13.2756 13.1448 13.4576C13.1399 13.6395 13.1448 13.8177 13.1485 13.991C13.1632 14.3364 13.1866 14.6597 13.2247 14.9338L13.2222 14.9363Z" fill="#E74646"/>
<path d="M13.5 12.6858C13.5025 12.5592 13.5037 12.4535 13.5074 12.3797C13.5087 12.306 13.5099 12.2629 13.5099 12.2629C13.5099 12.2629 13.5037 12.3047 13.4927 12.3785C13.4841 12.4522 13.4693 12.5567 13.4583 12.6833C13.446 12.8099 13.4361 12.9574 13.4288 13.116C13.4263 13.1959 13.4238 13.277 13.4226 13.3606C13.4226 13.4442 13.4226 13.529 13.4226 13.6138C13.4251 13.6987 13.4275 13.7835 13.43 13.8671C13.4324 13.9506 13.4386 14.0318 13.4435 14.1117C13.4546 14.2702 13.4681 14.4177 13.4841 14.5431C13.4988 14.6697 13.516 14.7742 13.5271 14.8467C13.5394 14.9193 13.5468 14.961 13.5468 14.961C13.5468 14.961 13.5443 14.918 13.5406 14.8443C13.5357 14.7705 13.532 14.6648 13.5246 14.5382C13.5197 14.4116 13.5136 14.2641 13.5062 14.1067C13.5037 14.0281 13.5013 13.9457 13.4988 13.8634C13.4976 13.781 13.4951 13.6962 13.4939 13.6126C13.4939 13.5278 13.4927 13.4442 13.4914 13.3606C13.4914 13.2783 13.4914 13.1959 13.4914 13.1172C13.4939 12.9587 13.4964 12.8124 13.4976 12.6846L13.5 12.6858Z" fill="#E74646"/>
<path d="M13.752 14.3526C13.7496 14.3046 13.7483 14.2567 13.7459 14.2075C13.7447 14.1596 13.7422 14.1104 13.741 14.0625C13.7397 14.0146 13.7385 13.9678 13.7361 13.9224C13.7336 13.8314 13.7324 13.7466 13.7299 13.6728C13.7275 13.6003 13.7262 13.5389 13.725 13.4958C13.7238 13.4528 13.7225 13.4282 13.7225 13.4282C13.7225 13.4282 13.7188 13.4528 13.7115 13.4946C13.7053 13.5376 13.6955 13.5979 13.6881 13.6704C13.6807 13.7429 13.6746 13.8289 13.6721 13.9211C13.6721 13.9666 13.6709 14.0146 13.6697 14.0625C13.6697 14.1104 13.6709 14.1596 13.6721 14.2088C13.6746 14.2579 13.6783 14.3071 13.6807 14.355C13.6832 14.403 13.6893 14.4509 13.693 14.4964C13.7029 14.5874 13.7152 14.6722 13.7287 14.7447C13.741 14.8172 13.7557 14.8762 13.7656 14.9192C13.7766 14.961 13.7815 14.9844 13.7815 14.9844C13.7815 14.9844 13.7815 14.9598 13.7791 14.9168C13.7766 14.8738 13.7742 14.8123 13.7705 14.7398C13.7668 14.666 13.7619 14.5812 13.757 14.4915C13.7545 14.446 13.7533 14.3993 13.7508 14.3514L13.752 14.3526Z" fill="#E74646"/>
<path d="M14.0569 14.3217C14.0556 14.2873 14.0532 14.2541 14.052 14.221C14.0483 14.1558 14.0421 14.0943 14.0372 14.0415C14.0323 13.9886 14.0249 13.9456 14.0212 13.9149C14.0163 13.8842 14.0126 13.8669 14.0126 13.8669C14.0126 13.8669 14.0102 13.8842 14.0065 13.9149C14.004 13.9456 13.9979 13.9899 13.9954 14.0415C13.9917 14.0943 13.9893 14.1558 13.988 14.221C13.988 14.2541 13.988 14.2873 13.988 14.3217C13.988 14.3562 13.988 14.3906 13.988 14.4262C13.988 14.4606 13.9905 14.4963 13.9917 14.5307C13.9917 14.5651 13.9954 14.5983 13.9966 14.6315C14.0003 14.6967 14.0052 14.7581 14.0114 14.811C14.0163 14.8638 14.0237 14.9069 14.0274 14.9376C14.0323 14.9683 14.036 14.9855 14.036 14.9855C14.036 14.9855 14.0384 14.9683 14.0421 14.9376C14.0446 14.9069 14.0507 14.8626 14.0532 14.811C14.0569 14.7581 14.0593 14.6967 14.0606 14.6315C14.0606 14.5983 14.0618 14.5651 14.0606 14.5307C14.0606 14.4963 14.0606 14.4619 14.0606 14.4262C14.0606 14.3918 14.0581 14.3562 14.0569 14.3217Z" fill="#E74646"/>
<path d="M14.2646 14.7115C14.2634 14.6857 14.2622 14.6586 14.2609 14.6328C14.2597 14.607 14.2572 14.58 14.256 14.5541C14.2535 14.5283 14.2523 14.5025 14.2499 14.4779C14.2462 14.4288 14.2413 14.3821 14.2376 14.3427C14.2327 14.3034 14.2277 14.269 14.2253 14.2456C14.2216 14.2223 14.2191 14.2087 14.2191 14.2087C14.2191 14.2087 14.2154 14.2223 14.2105 14.2456C14.2068 14.269 14.1995 14.3022 14.1958 14.3427C14.1909 14.3833 14.1872 14.43 14.1859 14.4804C14.1859 14.5062 14.1859 14.532 14.1859 14.5578C14.1859 14.5849 14.1872 14.6107 14.1884 14.6377C14.1909 14.6648 14.1933 14.6918 14.1945 14.7176C14.1958 14.7434 14.2007 14.7693 14.2044 14.7951C14.2118 14.8455 14.2204 14.8909 14.2302 14.9303C14.2388 14.9696 14.2499 15.0016 14.256 15.0249C14.2634 15.0471 14.2683 15.0606 14.2683 15.0606C14.2683 15.0606 14.2695 15.0471 14.2708 15.0237C14.2708 15.0003 14.2732 14.9659 14.272 14.9266C14.272 14.886 14.272 14.8406 14.2695 14.7902C14.2695 14.7656 14.2671 14.7398 14.2658 14.7139L14.2646 14.7115Z" fill="#E74646"/>
<path d="M14.4933 14.4828C14.492 14.4668 14.4883 14.4521 14.4871 14.4422C14.4859 14.4324 14.4834 14.4263 14.4834 14.4263C14.4834 14.4263 14.4797 14.4312 14.4736 14.4398C14.4687 14.4484 14.4588 14.4607 14.4527 14.4754C14.4453 14.4902 14.4379 14.5099 14.433 14.5295C14.4306 14.5394 14.4293 14.5504 14.4269 14.5615L14.4232 14.5947V14.6279C14.4232 14.6389 14.4244 14.65 14.4256 14.6598C14.4281 14.6807 14.433 14.6992 14.4379 14.7164C14.4429 14.7323 14.4502 14.7459 14.4551 14.7545C14.4601 14.7631 14.4638 14.768 14.4638 14.768C14.4638 14.768 14.4662 14.7618 14.4699 14.7532C14.4724 14.7434 14.4773 14.7299 14.481 14.7139C14.4846 14.6979 14.4883 14.6795 14.4908 14.6598C14.4908 14.65 14.4945 14.6402 14.4945 14.6303L14.4969 14.5996V14.5689C14.4969 14.559 14.4969 14.548 14.4969 14.5381C14.4969 14.5185 14.4957 14.5 14.4933 14.484V14.4828Z" fill="#E74646"/>
<path d="M17.2602 21.3528C17.2331 21.3663 17.2012 21.3823 17.1692 21.402C17.1532 21.4118 17.136 21.4216 17.12 21.4327C17.1041 21.4438 17.0869 21.4548 17.0696 21.4659C17.0537 21.4782 17.0377 21.4892 17.0205 21.5015C17.0045 21.5138 16.9897 21.5261 16.975 21.5372C16.9455 21.5605 16.9185 21.5839 16.8963 21.6048C16.8742 21.6257 16.857 21.6454 16.8447 21.6576C16.8324 21.6712 16.8263 21.6785 16.8263 21.6785C16.8263 21.6785 16.8361 21.6761 16.8533 21.6687C16.8693 21.6613 16.8939 21.6527 16.9209 21.6392C16.948 21.6257 16.9799 21.6097 17.0119 21.59C17.0279 21.5802 17.0451 21.5704 17.061 21.5593C17.077 21.5482 17.0942 21.5372 17.1114 21.5261C17.1274 21.5138 17.1434 21.5028 17.1606 21.4917C17.1766 21.4806 17.1913 21.4671 17.2061 21.4561C17.2356 21.4327 17.2626 21.4093 17.2848 21.3884C17.3069 21.3676 17.3241 21.3479 17.3364 21.3356C17.3487 21.3221 17.3548 21.3147 17.3548 21.3147C17.3548 21.3147 17.345 21.3172 17.3278 21.3245C17.3118 21.3319 17.2872 21.3405 17.2602 21.354V21.3528Z" fill="#E74646"/>
<path d="M18.2177 20.7111C18.2939 20.6423 18.3788 20.5587 18.4673 20.4665C18.5103 20.4198 18.5558 20.3706 18.6012 20.3215C18.6455 20.2711 18.691 20.2195 18.7352 20.1678C18.7783 20.115 18.8213 20.0621 18.8643 20.0093C18.9073 19.9576 18.9454 19.9035 18.9848 19.8519C19.061 19.7487 19.1286 19.6503 19.1839 19.5643C19.2404 19.4782 19.2822 19.4045 19.313 19.3529C19.3425 19.3012 19.3584 19.2705 19.3584 19.2705C19.3584 19.2705 19.3375 19.2976 19.3007 19.3443C19.265 19.3922 19.2122 19.4586 19.1495 19.5397C19.0856 19.6196 19.013 19.713 18.9331 19.8126C18.8926 19.8618 18.8508 19.9134 18.809 19.965C18.766 20.0166 18.7229 20.0683 18.6799 20.1211C18.6357 20.1727 18.5914 20.2244 18.5484 20.2748C18.5041 20.3252 18.4611 20.3743 18.4193 20.4223C18.3345 20.5169 18.2546 20.6054 18.187 20.6816C18.1182 20.7566 18.0616 20.8205 18.0211 20.8636C17.9805 20.9078 17.9584 20.9336 17.9584 20.9336C17.9584 20.9336 17.9854 20.9115 18.0309 20.8746C18.0764 20.8353 18.1428 20.7812 18.2165 20.7111H18.2177Z" fill="#E74646"/>
<path d="M19.6916 18.8403C19.7284 18.7862 19.7678 18.7198 19.8083 18.6485C19.828 18.6129 19.8477 18.5747 19.8673 18.5366C19.8858 18.4985 19.9054 18.4592 19.9251 18.4199C19.9423 18.3793 19.9595 18.34 19.9767 18.3006C19.9939 18.2613 20.0075 18.2207 20.0234 18.1826C20.0517 18.1052 20.0763 18.0327 20.0935 17.97C20.1119 17.9073 20.123 17.8532 20.1328 17.8163C20.1402 17.7795 20.1451 17.7573 20.1451 17.7573C20.1451 17.7573 20.1353 17.777 20.1193 17.8114C20.1033 17.8458 20.0812 17.8962 20.0542 17.9552C20.0271 18.0155 19.9964 18.0843 19.9644 18.158C19.9472 18.1949 19.93 18.233 19.9128 18.2724C19.8956 18.3105 19.8772 18.3498 19.8587 18.3891C19.8403 18.4285 19.8219 18.4678 19.8046 18.5059C19.7862 18.544 19.769 18.5821 19.7518 18.619C19.7174 18.6915 19.6842 18.7604 19.6559 18.8194C19.6289 18.8784 19.6043 18.9275 19.5883 18.9619C19.5723 18.9964 19.5637 19.0173 19.5637 19.0173C19.5637 19.0173 19.5772 19.0001 19.6006 18.9693C19.6227 18.9386 19.6559 18.8943 19.6916 18.8403Z" fill="#E74646"/>
<path d="M18.8852 10.6182C18.793 10.5297 18.6799 10.4326 18.5545 10.333C18.4906 10.2851 18.4255 10.2335 18.3554 10.188C18.2866 10.1388 18.214 10.0946 18.1428 10.0478C18.069 10.0048 17.9965 9.96057 17.9215 9.92124C17.8477 9.88067 17.774 9.84503 17.7015 9.80938C17.5564 9.74177 17.4187 9.684 17.2983 9.64221C17.1791 9.59796 17.0758 9.56968 17.0045 9.54879C16.9332 9.53035 16.8914 9.51929 16.8914 9.51929C16.8914 9.51929 16.9308 9.53527 16.9996 9.56231C17.0684 9.58812 17.1668 9.62992 17.2823 9.68154C17.3991 9.73194 17.5318 9.79709 17.672 9.86838C17.742 9.90526 17.8146 9.94213 17.8858 9.98516C17.9584 10.0245 18.0297 10.07 18.1022 10.113C18.1735 10.1585 18.2448 10.2015 18.3136 10.2494C18.3824 10.2949 18.4488 10.3429 18.514 10.3883C18.6406 10.4818 18.7586 10.5715 18.8557 10.6526C18.954 10.7325 19.0339 10.8013 19.0892 10.8517C19.1446 10.9009 19.1765 10.9292 19.1765 10.9292C19.1765 10.9292 19.1482 10.8972 19.0991 10.8419C19.0487 10.7878 18.9774 10.7079 18.884 10.6207L18.8852 10.6182Z" fill="#E74646"/>
<path d="M18.8458 11.0361C18.8065 10.9845 18.7586 10.9279 18.7033 10.8701C18.675 10.8419 18.6467 10.8111 18.616 10.7829C18.5853 10.7534 18.5533 10.7251 18.5213 10.6968C18.4882 10.6698 18.455 10.6427 18.4218 10.6169C18.3886 10.5911 18.3542 10.5678 18.3222 10.5444C18.2558 10.4989 18.1919 10.4596 18.1354 10.4301C18.0801 10.3981 18.0309 10.3772 17.9965 10.3612C17.9621 10.3465 17.9424 10.3379 17.9424 10.3379C17.9424 10.3379 17.9596 10.3514 17.9891 10.3735C18.0198 10.3944 18.0616 10.4276 18.112 10.4657C18.1624 10.5038 18.2202 10.5493 18.2829 10.5973C18.3136 10.6218 18.3456 10.6464 18.3775 10.6735C18.4095 10.6993 18.4414 10.7263 18.4734 10.7534C18.5054 10.7804 18.5373 10.8074 18.568 10.8357C18.5988 10.8628 18.6295 10.891 18.6578 10.9168C18.7143 10.9709 18.7684 11.0213 18.8151 11.0656C18.8606 11.1098 18.8999 11.1455 18.9257 11.1725C18.9528 11.1983 18.9675 11.2131 18.9675 11.2131C18.9675 11.2131 18.9565 11.1946 18.9368 11.1639C18.9159 11.1332 18.8864 11.0877 18.8471 11.0373L18.8458 11.0361Z" fill="#E74646"/>
</g>
<defs>
<filter id="filter0_b_276_15966" x="-30" y="-30" width="90" height="90" filterUnits="userSpaceOnUse" color-interpolation-filters="sRGB">
<feFlood flood-opacity="0" result="BackgroundImageFix"/>
<feGaussianBlur in="BackgroundImageFix" stdDeviation="15"/>
<feComposite in2="SourceAlpha" operator="in" result="effect1_backgroundBlur_276_15966"/>
<feBlend mode="normal" in="SourceGraphic" in2="effect1_backgroundBlur_276_15966" result="shape"/>
</filter>
<clipPath id="clip0_276_15966">
<rect width="15.1291" height="15" fill="white" transform="translate(7 8)"/>
</clipPath>
</defs>
</svg>
