<svg width="15" height="15" viewBox="0 0 15 15" fill="none" xmlns="http://www.w3.org/2000/svg">
<path d="M14.5 9.775V5.725C14.5 2.35 13.15 1 9.775 1H5.725C2.35 1 1 2.35 1 5.725V9.775C1 13.15 2.35 14.5 5.725 14.5H9.775C13.15 14.5 14.5 13.15 14.5 9.775Z" stroke="#E74646" stroke-linecap="round" stroke-linejoin="round"/>
<path d="M1.35101 4.44922H14.149" stroke="#E74646" stroke-linecap="round" stroke-linejoin="round"/>
<path d="M5.401 1.07422V4.35472" stroke="#E74646" stroke-linecap="round" stroke-linejoin="round"/>
<path d="M10.099 1.07422V4.05097" stroke="#E74646" stroke-linecap="round" stroke-linejoin="round"/>
<path d="M6.2312 9.40358V8.59358C6.2312 7.55408 6.96695 7.12883 7.8647 7.64858L8.5667 8.05358L9.2687 8.45858C10.1665 8.97833 10.1665 9.82883 9.2687 10.3486L8.5667 10.7536L7.8647 11.1586C6.96695 11.6783 6.2312 11.2531 6.2312 10.2136V9.40358V9.40358Z" stroke="#E74646" stroke-miterlimit="10" stroke-linecap="round" stroke-linejoin="round"/>
</svg>
