<svg width="16" height="16" viewBox="0 0 16 16" fill="none" xmlns="http://www.w3.org/2000/svg">
<path d="M14.5154 12.0667C14.5154 12.31 14.4613 12.5601 14.3464 12.8035C14.2315 13.0469 14.0827 13.2767 13.8867 13.493C13.5554 13.8581 13.1904 14.1217 12.778 14.2907C12.3724 14.4597 11.933 14.5476 11.4598 14.5476C10.7703 14.5476 10.0334 14.3854 9.25599 14.0541C8.47858 13.7229 7.70116 13.2767 6.9305 12.7156C6.15309 12.1478 5.41623 11.5191 4.71318 10.8228C4.01688 10.1197 3.38819 9.38288 2.8271 8.61222C2.27277 7.84157 1.8266 7.07091 1.50211 6.30701C1.17762 5.53636 1.01538 4.7995 1.01538 4.09645C1.01538 3.63676 1.0965 3.19735 1.25875 2.79174C1.42099 2.37937 1.67787 2.0008 2.03616 1.6628C2.46881 1.23691 2.94202 1.02734 3.44227 1.02734C3.63156 1.02734 3.82084 1.0679 3.98984 1.14903C4.16561 1.23015 4.32109 1.35183 4.44277 1.52759L6.01113 3.73816C6.13281 3.90716 6.22069 4.06265 6.28153 4.21137C6.34237 4.35333 6.37617 4.4953 6.37617 4.62374C6.37617 4.78598 6.32885 4.94822 6.23421 5.10371C6.14633 5.25919 6.01788 5.42143 5.85564 5.58368L5.34187 6.11773C5.26751 6.19209 5.23371 6.27997 5.23371 6.38814C5.23371 6.44222 5.24047 6.48954 5.25399 6.54362C5.27427 6.5977 5.29455 6.63826 5.30807 6.67882C5.42975 6.9019 5.63932 7.19259 5.93676 7.54412C6.24097 7.89565 6.56546 8.25393 6.91698 8.61222C7.28203 8.97051 7.63356 9.30175 7.99185 9.60596C8.34337 9.90341 8.63406 10.1062 8.8639 10.2279C8.8977 10.2414 8.93827 10.2617 8.98559 10.282C9.03967 10.3023 9.09375 10.309 9.15459 10.309C9.26951 10.309 9.35739 10.2685 9.43176 10.1941L9.94553 9.68708C10.1145 9.51808 10.2768 9.38964 10.4323 9.30852C10.5877 9.21387 10.7432 9.16655 10.9122 9.16655C11.0407 9.16655 11.1759 9.19359 11.3246 9.25443C11.4733 9.31528 11.6288 9.40316 11.7978 9.51808L14.0354 11.1067C14.2112 11.2284 14.3329 11.3704 14.4072 11.5394C14.4748 11.7084 14.5154 11.8774 14.5154 12.0667Z" stroke="#E74646" stroke-miterlimit="10"/>
</svg>
