<svg width="24" height="24" viewBox="0 0 24 24" fill="none" xmlns="http://www.w3.org/2000/svg">
<g clip-path="url(#clip0_40_3042)">
<path d="M24 11.9989C24 18.6262 18.6283 24 12.0011 24C5.37384 24 0 18.6262 0 11.9989C0 5.37169 5.37169 0 11.9989 0C18.6262 0 23.9978 5.37169 23.9978 11.9989H24Z" fill="black"/>
<path d="M23.6117 11.8846C23.6117 18.1472 18.4126 23.2234 11.9989 23.2234C5.58525 23.2234 0.388306 18.1472 0.388306 11.8846C0.388306 5.62194 5.58525 0.547958 11.9989 0.547958C18.4126 0.547958 23.6117 5.62409 23.6117 11.8867V11.8846Z" fill="#D16B07"/>
<g style="mix-blend-mode:screen" opacity="0.7">
<path d="M11.8307 0.731323C11.8307 0.731323 0.176903 1.83155 1.57915 15.4938C1.57915 15.4938 -1.97177 2.29105 11.8307 0.731323Z" fill="#D16B07"/>
</g>
<path d="M19.7113 7.18167C18.5981 6.4676 17.2175 6.09223 15.9684 5.69528C15.1292 5.42994 14.2663 5.09771 13.5263 4.61879C13.2826 4.46131 13.0949 4.28441 12.946 4.09672C13.7658 3.94571 14.5985 3.8551 15.4312 3.83785C17.5885 3.79039 20.1859 4.06221 21.8276 5.67587C21.9053 5.75137 22.0153 5.61115 21.9722 5.53349C21.5515 4.75686 20.557 4.41385 19.7998 4.02553C18.637 3.42796 17.3146 3.43659 16.0396 3.4258C14.8984 3.41717 13.796 3.52504 12.713 3.72998C12.2039 2.65133 12.8511 1.31596 13.7981 0.576004C13.8132 0.565217 13.8046 0.532858 13.7852 0.545801C12.8381 1.07866 12.288 1.91353 12.0594 2.97277C11.9925 3.28342 12.0292 3.5725 12.137 3.84216C11.7681 3.92414 11.4014 4.02337 11.0368 4.12908C10.2429 2.97277 9.29801 2.15731 8.07051 1.16495C8.05756 1.15416 8.03599 1.16063 8.0252 1.17358C8.00147 1.20162 7.9799 1.23182 7.95617 1.25987C7.94323 1.27713 7.96048 1.2987 7.97774 1.2836C8.27329 1.04845 10.2861 3.67389 10.6657 4.24126C9.90853 4.47857 9.15994 4.7547 8.41352 5.08477C8.29702 5.13654 8.187 5.19695 8.07482 5.25088C7.79437 4.37502 7.12561 3.62212 6.18287 3.59191C5.04812 3.55524 3.12812 4.0471 2.51545 5.11497C2.49603 5.14733 2.53918 5.16675 2.56075 5.14086C3.00516 4.62095 4.15284 4.3103 4.75689 4.18301C6.25621 3.86805 7.05442 4.61879 7.2723 5.67371C5.52273 6.68549 4.09675 8.09852 2.94907 9.79848C2.27167 10.8016 1.76902 11.8975 1.34835 13.0301C1.01828 13.9168 1.13262 14.7344 0.942775 15.5865C0.934146 15.6254 0.983764 15.6189 0.99455 15.5908C1.28147 14.7667 1.22538 13.9599 1.57055 13.1143C2.01064 12.0356 2.59743 11.0044 3.2403 10.0336C4.31033 8.4178 5.71257 7.19245 7.33271 6.22382C7.34349 6.70706 7.2572 7.2205 7.07599 7.71236C6.41154 9.49861 5.36956 11.1835 4.60803 12.9374C3.95653 14.441 3.59626 15.9554 3.65235 17.5971C3.67608 18.2465 3.71707 19.2388 4.03851 19.8213C4.32111 20.3369 4.78493 20.7123 5.09343 21.2128C5.1301 21.2732 5.20992 21.1955 5.18619 21.1416C5.0546 20.8611 4.88201 20.6346 4.7008 20.3844C4.15284 19.625 3.98242 19.0663 3.90475 18.089C3.77747 16.4624 4.06871 15.0321 4.68785 13.522C5.63275 11.2158 7.35212 9.28935 8.11797 6.90769C8.2323 6.55173 8.25172 6.14832 8.19347 5.74706C8.31428 5.6845 8.43078 5.61978 8.55374 5.55937C9.30664 5.18832 10.0919 4.88198 10.8923 4.62742C11.8652 6.34679 12.5555 8.23012 13.0129 10.1436C14.0225 14.359 15.2802 18.5118 14.7107 22.9063C14.7042 22.9516 14.7625 22.9494 14.7711 22.9106C15.565 19.0188 14.7474 14.8142 13.7075 11.0497C13.1747 9.1254 12.6979 7.296 11.8242 5.48818C11.6516 5.13007 11.4726 4.80432 11.2849 4.5023C11.6365 4.4009 11.9903 4.30598 12.3484 4.22616C12.7411 4.80432 13.4292 5.25304 13.9729 5.53996C15.5693 6.38346 17.4699 6.50212 19.131 7.20324C21.3962 8.15893 23.1457 10.8599 23.3313 13.2437C23.3377 13.3343 23.4586 13.2933 23.4607 13.2178C23.478 10.7434 21.7392 8.48252 19.7199 7.18814L19.7113 7.18167Z" fill="black"/>
<g style="mix-blend-mode:multiply" opacity="0.7">
<path d="M11.9989 0.547958C5.58525 0.547958 0.388306 5.62409 0.388306 11.8846C0.388306 18.1451 5.58741 23.2234 12.0011 23.2234C18.4147 23.2234 23.6138 18.1472 23.6138 11.8846C23.6138 5.62194 18.4126 0.547958 11.9989 0.547958ZM14.9695 1.16279C16.2337 1.32674 18.9346 2.60603 18.583 3.072C18.2314 3.53798 17.5583 3.05474 15.8152 3.072C14.0721 3.08926 12.7432 3.61564 12.795 2.91021C12.8985 1.51012 13.6751 0.99452 14.9695 1.16279ZM8.90318 1.30086C9.00026 0.899599 11.2137 0.612677 12.1089 0.761531C13.0021 0.910385 11.63 1.20809 11.7487 2.55425C11.8673 3.90041 11.0885 3.86158 10.711 3.27695C10.3335 2.69016 8.79532 1.74526 8.90318 1.30086ZM7.7706 1.5511C8.20422 1.44971 9.18579 2.44207 9.77905 3.45816C10.3723 4.47425 8.72413 4.8 7.7706 4.04063C6.97455 3.40638 6.35541 3.01376 5.35658 3.37834C4.35774 3.74292 5.61329 2.05807 7.7706 1.5511ZM1.29653 8.06832C1.96961 6.28639 2.9404 4.85825 4.39873 4.59074C5.85707 4.32324 6.96161 5.3911 5.61114 6.19146C4.26067 6.99182 1.95667 9.99263 1.29653 12.1154C0.636396 14.236 0.509115 10.1587 1.29653 8.06832ZM3.29204 17.6424C3.47756 19.5883 0.530688 16.4818 2.40323 11.9169C3.48188 9.28504 5.83118 7.17735 6.55388 7.06517C7.27442 6.95299 5.74273 9.73591 4.88197 11.3302C4.0212 12.9222 3.10867 15.6965 3.29204 17.6424ZM9.17069 21.6895C3.15828 19.6983 4.88197 14.1627 5.98867 11.8867C7.0932 9.60863 8.1546 9.23758 8.5235 6.55821C8.68529 5.3911 10.7067 4.8863 11.2244 6.15048C11.74 7.4125 13.2609 12.2578 13.8089 15.1162C14.3568 17.9725 15.1852 23.6807 9.17069 21.6917V21.6895ZM22.2181 16.1086C20.4404 20.4189 15.6685 21.5299 15.6577 19.858C15.6448 18.1861 14.2662 10.0293 13.0085 7.19461C12.1823 5.3307 12.2535 4.63821 13.0085 5.36953C13.7636 6.10086 14.8789 6.6143 17.3706 7.30463C19.8623 7.99497 23.9957 11.7983 22.2181 16.1086ZM22.6495 9.49429C21.6938 7.47074 17.8991 5.69528 15.8497 5.1236C13.8003 4.55191 13.7636 4.05789 15.5002 4.032C17.5216 3.99964 20.6066 4.64036 21.5471 5.72117C22.9321 7.3111 23.603 11.5178 22.6495 9.49429Z" fill="#BF610D"/>
</g>
</g>
<defs>
<clipPath id="clip0_40_3042">
<rect width="24" height="24" fill="white"/>
</clipPath>
</defs>
</svg>
