<svg width="24" height="24" viewBox="0 0 24 24" fill="none" xmlns="http://www.w3.org/2000/svg">
<path d="M24 12C24 18.6278 18.6278 24 12 24C5.37215 24 0 18.6278 0 12C0 5.37215 5.37215 0 12 0C18.6278 0 24 5.37215 24 12Z" fill="url(#paint0_radial_40_2822)"/>
<path d="M20.595 6.58973C20.595 5.42297 20.4574 4.28798 20.199 3.19957C19.4854 1.96506 18.6808 1.42509 17.0609 1.13711C17.3616 2.30598 17.1159 3.29698 17.1159 4.55902C17.1159 12.6353 10.6427 19.3986 2.56643 19.3986C2.54102 19.3986 2.99629 20.5844 4.23292 21.1075C4.80465 21.1752 5.38485 21.2112 5.97353 21.2112C14.0498 21.2112 20.5971 14.6638 20.5971 6.58761L20.595 6.58973Z" fill="#EE484C"/>
<path d="M20.595 6.58973C20.595 5.42297 20.4574 4.28798 20.199 3.19957C19.4854 1.96506 18.6808 1.42509 17.0609 1.13711C17.3616 2.30598 17.1159 3.29698 17.1159 4.55902C17.1159 12.6353 10.6427 19.3986 2.56643 19.3986C2.54102 19.3986 2.99629 20.5844 4.23292 21.1075C4.80465 21.1752 5.38485 21.2112 5.97353 21.2112C14.0498 21.2112 20.5971 14.6638 20.5971 6.58761L20.595 6.58973Z" fill="url(#paint1_radial_40_2822)"/>
<mask id="mask0_40_2822" style="mask-type:luminance" maskUnits="userSpaceOnUse" x="0" y="0" width="24" height="25">
<path d="M20.2118 3.2504C20.2075 3.23346 20.2054 3.21863 20.2012 3.20169C19.4981 1.98624 18.7104 1.44627 17.1413 1.15405C15.5828 0.415034 13.8401 0 12 0C5.37215 0 0 5.37215 0 12C0 14.8036 0.961355 17.3806 2.57067 19.424C2.61726 19.5807 3.06829 20.5717 4.13976 21.0694C6.24457 22.8947 8.99312 24.0021 12 24.0021C18.6278 24.0021 24 18.63 24 12.0021C24 8.55056 22.5431 5.43992 20.2096 3.2504H20.2118Z" fill="white"/>
</mask>
<g mask="url(#mask0_40_2822)">
<path d="M3.05343 20.5506C2.84168 20.5506 2.62781 20.5463 2.41394 20.5378V20.4659C2.62781 20.4743 2.84168 20.4786 3.05343 20.4786C8.19901 20.4786 13.1837 18.0942 16.1863 14.1599C19.0196 10.45 19.767 5.83165 18.2954 1.1604L18.3652 1.13922C19.8454 5.83589 19.0915 10.4754 16.2435 14.2065C13.2281 18.1577 8.22019 20.5527 3.05343 20.5527V20.5506Z" fill="black"/>
<path d="M12.9952 13.2578C14.2276 11.7395 15.1297 9.89942 15.676 7.79036C16.2244 5.67284 16.434 3.21228 16.2964 0.47644L16.0783 0.487028C16.6119 11.189 11.856 17.1498 1.53516 18.7147L1.56692 18.9307C4.13759 18.541 6.39487 17.874 8.27735 16.9465C10.1852 16.0064 11.7713 14.7655 12.9931 13.2599L12.9952 13.2578Z" fill="white"/>
<path d="M2.632 19.9449L2.64894 20.1609C2.76964 20.1503 2.89034 20.1398 3.01104 20.1292L2.98986 19.9132C2.87128 19.9238 2.75058 19.9344 2.62988 19.9449H2.632Z" fill="white"/>
<path d="M11.9364 16.8407C11.7437 16.9741 11.5446 17.1053 11.3456 17.2282L11.4599 17.4124C11.6632 17.2853 11.8644 17.1541 12.0592 17.0185L11.9364 16.8385V16.8407Z" fill="white"/>
<path d="M17.9439 4.69878H18.162C18.162 4.46162 18.1535 4.22022 18.1429 3.98094L17.9248 3.99153C17.9354 4.22869 17.9417 4.46585 17.9439 4.69878Z" fill="white"/>
<path d="M10.1132 17.9248C9.90569 18.0307 9.69182 18.1345 9.47583 18.2319L9.56688 18.4288C9.78499 18.3293 10.001 18.2255 10.2127 18.1175L10.1132 17.9248Z" fill="white"/>
<path d="M16.8512 11.3266L16.6521 11.2377C16.5568 11.4516 16.4531 11.6654 16.3451 11.8729L16.5378 11.9725C16.6458 11.7607 16.7517 11.5426 16.8491 11.3266H16.8512Z" fill="white"/>
<path d="M16.182 12.1842C16.0698 12.3896 15.9491 12.595 15.8263 12.7941L16.0105 12.9084C16.1355 12.7072 16.2583 12.4976 16.3726 12.288L16.182 12.1842Z" fill="white"/>
<path d="M11.0428 17.4145C10.8417 17.5331 10.6363 17.6495 10.4266 17.7618L10.5283 17.9545C10.74 17.8401 10.9497 17.7237 11.1529 17.603L11.0407 17.4166L11.0428 17.4145Z" fill="white"/>
<path d="M9.23869 18.5749L9.15187 18.3759C8.938 18.469 8.71778 18.558 8.49756 18.6448L8.57591 18.8481C8.79825 18.7612 9.0227 18.6702 9.23869 18.577V18.5749Z" fill="white"/>
<path d="M17.2557 10.3293L17.0503 10.2552C16.9698 10.4775 16.8851 10.6977 16.7941 10.9137L16.9952 10.9984C17.0863 10.7803 17.1752 10.5537 17.2557 10.3293Z" fill="white"/>
<path d="M17.5818 9.30439L17.3721 9.2451C17.3086 9.47168 17.2409 9.69825 17.1667 9.92059L17.3721 9.98835C17.4463 9.76389 17.5161 9.53309 17.5818 9.30228V9.30439Z" fill="white"/>
<path d="M18.1619 5.05453H17.9438C17.9417 5.28957 17.9353 5.52885 17.9226 5.75966L18.1407 5.77025C18.1513 5.5352 18.1598 5.29381 18.1619 5.05453Z" fill="white"/>
<path d="M7.49597 18.9984L7.56161 19.2059C7.79031 19.1318 8.01688 19.0535 8.23922 18.973L8.16511 18.7697C7.94489 18.8502 7.72043 18.9264 7.49597 18.9984Z" fill="white"/>
<path d="M14.3356 14.7591C14.1768 14.9307 14.0138 15.1022 13.8444 15.2673L13.9968 15.4219C14.1662 15.2546 14.3356 15.081 14.4944 14.9052L14.3335 14.7591H14.3356Z" fill="white"/>
<path d="M17.838 6.81842L18.054 6.84172C18.0794 6.60667 18.1027 6.36739 18.1175 6.12811L17.9015 6.11329C17.8846 6.34833 17.8634 6.5855 17.838 6.81842Z" fill="white"/>
<path d="M17.6855 7.86659L17.8994 7.90471C17.9418 7.67178 17.9778 7.43462 18.0095 7.19745L17.7935 7.16781C17.7618 7.40285 17.7258 7.6379 17.6855 7.86659Z" fill="white"/>
<path d="M17.8126 2.57702L18.0286 2.55161C18.0032 2.31868 17.9714 2.0794 17.9375 1.84224L17.7216 1.874C17.7554 2.10905 17.7851 2.34621 17.8126 2.57702Z" fill="white"/>
<path d="M4.39587 19.7353L4.42975 19.9492C4.66692 19.9111 4.90408 19.8687 5.13489 19.8242L5.09466 19.6104C4.86596 19.6548 4.63092 19.6951 4.39587 19.7332V19.7353Z" fill="white"/>
<path d="M5.44202 19.5426L5.48648 19.7544C5.72153 19.7057 5.95446 19.6527 6.18527 19.5955L6.13445 19.3838C5.90787 19.4389 5.67494 19.4918 5.44413 19.5405L5.44202 19.5426Z" fill="white"/>
<path d="M17.9058 3.63579L18.1239 3.62308C18.109 3.38804 18.09 3.14664 18.0667 2.90948L17.8507 2.93065C17.874 3.1657 17.8931 3.40286 17.9079 3.63579H17.9058Z" fill="white"/>
<path d="M17.8337 8.25834L17.6198 8.21599C17.5732 8.4468 17.5203 8.67761 17.4631 8.90418L17.6749 8.95712C17.7321 8.72631 17.7871 8.49127 17.8337 8.25834Z" fill="white"/>
<path d="M4.04652 19.7882C3.81571 19.8221 3.57855 19.8518 3.34351 19.8772L3.3668 20.0932C3.60396 20.0656 3.84324 20.036 4.07617 20.0021L4.04441 19.7861L4.04652 19.7882Z" fill="white"/>
<path d="M12.7876 16.2054C12.6055 16.3515 12.4171 16.4955 12.2244 16.6353L12.3514 16.811C12.5462 16.6691 12.7368 16.523 12.9231 16.3748L12.7876 16.2054Z" fill="white"/>
<path d="M15.8157 13.2112L15.6336 13.0926C15.5044 13.2874 15.3689 13.4823 15.2291 13.6707L15.4049 13.7999C15.5468 13.6072 15.6844 13.4103 15.8157 13.2112Z" fill="white"/>
<path d="M15.0174 13.9502C14.8734 14.1345 14.7231 14.3187 14.5685 14.4944L14.7336 14.6363C14.8903 14.4563 15.0428 14.27 15.1889 14.0836L15.0174 13.9502Z" fill="white"/>
<path d="M6.47746 19.297L6.53251 19.5066C6.76332 19.4452 6.99625 19.3796 7.22071 19.3118L7.15718 19.1043C6.93273 19.172 6.70403 19.2377 6.47534 19.297H6.47746Z" fill="white"/>
<path d="M13.5902 15.5108C13.4187 15.6697 13.2408 15.8285 13.0608 15.9809L13.2005 16.1461C13.3827 15.9915 13.5648 15.8306 13.7384 15.6697L13.5902 15.5108Z" fill="white"/>
<path d="M17.8803 1.48015C17.8612 1.36157 17.84 1.24087 17.8189 1.12017L17.605 1.15829C17.6262 1.27687 17.6452 1.39545 17.6643 1.51403L17.8781 1.48015H17.8803Z" fill="white"/>
<path d="M4.1228 20.775C4.0021 20.775 3.88352 20.7771 3.76282 20.7771V20.9952C3.88563 20.9952 4.00633 20.9952 4.12703 20.991L4.1228 20.7729V20.775Z" fill="white"/>
<path d="M20.0127 7.06193L19.7946 7.05135C19.7819 7.29486 19.7628 7.54049 19.7395 7.78189L19.9555 7.80307C19.9788 7.55955 19.9978 7.3118 20.0105 7.06193H20.0127Z" fill="white"/>
<path d="M17.7956 14.0603C17.929 13.8549 18.0603 13.6411 18.181 13.4272L17.9926 13.3192C17.8719 13.5288 17.7448 13.7385 17.6135 13.9418L17.7956 14.0603Z" fill="white"/>
<path d="M19.8009 5.58814L20.019 5.57967C20.0085 5.33616 19.9936 5.08629 19.9725 4.83854L19.7565 4.8576C19.7776 5.10111 19.7925 5.34674 19.8031 5.58814H19.8009Z" fill="white"/>
<path d="M19.9153 8.17152L19.6993 8.14399C19.6697 8.38539 19.6337 8.6289 19.5913 8.86818L19.8052 8.9063C19.8475 8.6649 19.8835 8.41715 19.9153 8.17152Z" fill="white"/>
<path d="M19.7205 4.49126L19.9365 4.46797C19.9111 4.22445 19.8793 3.9767 19.8433 3.73107L19.6273 3.76283C19.6633 4.00423 19.693 4.24986 19.7184 4.48914L19.7205 4.49126Z" fill="white"/>
<path d="M19.8157 6.25092C19.8157 6.39703 19.8157 6.54314 19.8093 6.68501L20.0274 6.69137C20.0317 6.54526 20.0338 6.39703 20.0338 6.25092C20.0338 6.1514 20.0338 6.04976 20.0317 5.95023L19.8136 5.95447C19.8136 6.05399 19.8157 6.15352 19.8157 6.25092Z" fill="white"/>
<path d="M19.3605 9.93965L19.5722 9.99259C19.6336 9.75542 19.6887 9.51191 19.7374 9.26839L19.5235 9.22604C19.4748 9.46532 19.4198 9.7046 19.3605 9.93965Z" fill="white"/>
<path d="M18.6956 12.4383L18.4986 12.3452C18.3949 12.5654 18.2848 12.7856 18.1704 12.9974L18.361 13.1011C18.4775 12.8851 18.5897 12.6607 18.6956 12.4383Z" fill="white"/>
<path d="M19.1276 11.4113L18.9243 11.3351C18.8396 11.5638 18.7464 11.7904 18.6511 12.0127L18.8502 12.0995C18.9476 11.8751 19.0429 11.6421 19.1276 11.4113Z" fill="white"/>
<path d="M19.5722 3.40285L19.786 3.36686C19.7458 3.12546 19.6992 2.87983 19.6505 2.63843L19.4366 2.6829C19.4853 2.92218 19.5319 3.16569 19.5722 3.40285Z" fill="white"/>
<path d="M19.4749 10.3526L19.2652 10.2933C19.1996 10.5262 19.1255 10.7612 19.0471 10.9921L19.2525 11.0619C19.333 10.829 19.4071 10.5918 19.4749 10.3526Z" fill="white"/>
<path d="M15.3838 16.8703L15.2398 16.7094C15.0598 16.8703 14.8714 17.0312 14.6808 17.1837L14.8163 17.3531C15.009 17.1985 15.1996 17.0355 15.3838 16.8724V16.8703Z" fill="white"/>
<path d="M16.1864 16.0953L16.0297 15.9449C15.8624 16.1207 15.6866 16.2943 15.5109 16.4616L15.6591 16.6204C15.8391 16.451 16.017 16.2753 16.1864 16.0974V16.0953Z" fill="white"/>
<path d="M12.6628 18.8015L12.5569 18.6109C12.3451 18.7295 12.127 18.8438 11.9089 18.9518L12.0063 19.1466C12.2287 19.0365 12.4489 18.9201 12.6628 18.8015Z" fill="white"/>
<path d="M11.6717 19.3097L11.5786 19.1128C11.3583 19.2165 11.1339 19.316 10.9094 19.4092L10.992 19.6104C11.2207 19.5151 11.4473 19.4156 11.6717 19.3097Z" fill="white"/>
<path d="M13.6156 18.2255L13.4971 18.0434C13.2938 18.1768 13.0863 18.306 12.8745 18.4288L12.9846 18.6173C13.1985 18.4923 13.4102 18.361 13.6156 18.2255Z" fill="white"/>
<path d="M10.649 19.748L10.5706 19.5447C10.3441 19.6337 10.1133 19.7184 9.88245 19.7967L9.95232 20.0021C10.1853 19.9216 10.4203 19.8369 10.649 19.748Z" fill="white"/>
<path d="M6.34409 20.8343L6.31656 20.6183C6.07517 20.6501 5.83165 20.6755 5.58813 20.6988L5.60719 20.9148C5.85283 20.8915 6.10058 20.8661 6.34409 20.8343Z" fill="white"/>
<path d="M7.44309 20.6607L7.40286 20.4468C7.1657 20.4913 6.92218 20.5315 6.68079 20.5675L6.71255 20.7835C6.95818 20.7475 7.20381 20.7051 7.44309 20.6607Z" fill="white"/>
<path d="M5.2387 20.9444L5.22387 20.7284C4.98248 20.7454 4.73684 20.7581 4.49121 20.7665L4.49968 20.9846C4.74743 20.9762 4.99518 20.9635 5.24081 20.9444H5.2387Z" fill="white"/>
<path d="M9.60081 20.1186L9.53517 19.9111C9.30436 19.9852 9.0672 20.0551 8.83215 20.1186L8.88933 20.3282C9.12861 20.2626 9.36789 20.1927 9.60081 20.1186Z" fill="white"/>
<path d="M16.9232 15.2589L16.7538 15.1212C16.6013 15.3097 16.4404 15.496 16.2773 15.676L16.4383 15.8221C16.6034 15.64 16.7665 15.4494 16.9232 15.2589Z" fill="white"/>
<path d="M17.5902 14.3674L17.4102 14.2446C17.2726 14.4436 17.1286 14.6427 16.9803 14.8354L17.1519 14.9688C17.3022 14.7718 17.4504 14.5707 17.5881 14.3674H17.5902Z" fill="white"/>
<path d="M8.52936 20.4214L8.47642 20.2096C8.24138 20.2689 8.0021 20.324 7.76282 20.3727L7.80729 20.5844C8.04868 20.5336 8.2922 20.4786 8.52936 20.4193V20.4214Z" fill="white"/>
<path d="M13.9226 18.018C14.1259 17.8782 14.3292 17.73 14.524 17.5818L14.3927 17.4081C14.2 17.5564 14.001 17.7004 13.7998 17.838L13.9226 18.018Z" fill="white"/>
<path d="M19.5701 2.26575C19.5426 2.14717 19.5151 2.02858 19.4854 1.91L19.2737 1.96294C19.3033 2.07941 19.3309 2.19799 19.3563 2.31445L19.568 2.26575H19.5701Z" fill="white"/>
<path d="M13.9841 13.7491C16.5484 10.5643 17.5458 6.24246 16.9465 0.904182L16.7305 0.927475C17.3213 6.20646 16.3409 10.4733 13.8147 13.6114C11.3266 16.703 7.30754 18.6151 2.19373 19.1466L2.21702 19.3626C4.77075 19.0979 7.05979 18.4966 9.0185 17.5733C11.0323 16.6268 12.703 15.3393 13.9841 13.747V13.7491Z" fill="white"/>
<path d="M16.7728 16.8576C18.4012 15.1953 19.5722 13.2345 20.254 11.0281C21.0079 8.59079 21.1392 5.91636 20.6437 3.08311L20.4298 3.12123C21.3594 8.42139 20.0042 13.2472 16.6161 16.7051C13.317 20.0762 8.36416 21.8211 3.99994 21.1498L3.96606 21.3637C4.59497 21.4611 5.23658 21.5077 5.88454 21.5077C9.79137 21.5077 13.8994 19.7882 16.7707 16.8555L16.7728 16.8576Z" fill="white"/>
<path d="M21.1519 3.51932L20.9381 3.55743C21.8677 8.85759 20.5124 13.6834 17.1265 17.1435C13.8274 20.5146 8.87454 22.2594 4.51032 21.5881L4.47644 21.802C5.10534 21.8994 5.74907 21.946 6.39492 21.946C10.3017 21.946 14.4097 20.2266 17.2811 17.2938C18.9095 15.6315 20.0805 13.6707 20.7623 11.4643C21.5161 9.02699 21.6474 6.35256 21.1519 3.51932Z" fill="white"/>
</g>
<path style="mix-blend-mode:multiply" opacity="0.7" d="M20.2118 3.2504C20.2075 3.23346 20.2033 3.21652 20.2012 3.20169C19.4981 1.98624 18.7104 1.44627 17.1413 1.15405C15.5828 0.415034 13.8401 0 12 0C5.37215 0 0 5.37215 0 12C0 14.8036 0.961355 17.3806 2.57067 19.424C2.61726 19.5807 3.06829 20.5717 4.13976 21.0694C6.24457 22.8947 8.99312 24.0021 12 24.0021C18.6278 24.0021 24 18.63 24 12.0021C24 8.55056 22.5431 5.44203 20.2118 3.25251V3.2504Z" fill="url(#paint2_radial_40_2822)"/>
<defs>
<radialGradient id="paint0_radial_40_2822" cx="0" cy="0" r="1" gradientUnits="userSpaceOnUse" gradientTransform="translate(7.27792 7.65696) scale(18.7655)">
<stop offset="0.15" stop-color="#FA232B"/>
<stop offset="0.31" stop-color="#F52129"/>
<stop offset="0.47" stop-color="#E91D26"/>
<stop offset="0.64" stop-color="#D51720"/>
<stop offset="0.8" stop-color="#B80E18"/>
<stop offset="0.97" stop-color="#94020D"/>
<stop offset="1" stop-color="#8C000B"/>
</radialGradient>
<radialGradient id="paint1_radial_40_2822" cx="0" cy="0" r="1" gradientUnits="userSpaceOnUse" gradientTransform="translate(11.5807 11.1763) scale(15.549)">
<stop offset="0.15" stop-color="#FA232B"/>
<stop offset="0.31" stop-color="#F52129"/>
<stop offset="0.47" stop-color="#E91D26"/>
<stop offset="0.64" stop-color="#D51720"/>
<stop offset="0.8" stop-color="#B80E18"/>
<stop offset="0.97" stop-color="#94020D"/>
<stop offset="1" stop-color="#8C000B"/>
</radialGradient>
<radialGradient id="paint2_radial_40_2822" cx="0" cy="0" r="1" gradientUnits="userSpaceOnUse" gradientTransform="translate(7.27792 7.65696) scale(18.7655)">
<stop offset="0.15" stop-color="white"/>
<stop offset="0.47" stop-color="#FDFDFD"/>
<stop offset="0.58" stop-color="#F6F6F6"/>
<stop offset="0.66" stop-color="#EAEAEA"/>
<stop offset="0.73" stop-color="#D9D9D9"/>
<stop offset="0.78" stop-color="#C3C3C3"/>
<stop offset="0.83" stop-color="#A8A8A8"/>
<stop offset="0.88" stop-color="#878787"/>
<stop offset="0.92" stop-color="#626262"/>
<stop offset="0.96" stop-color="#373737"/>
<stop offset="0.99" stop-color="#090909"/>
<stop offset="1"/>
</radialGradient>
<radialGradient id="paint3_radial_40_2822" cx="0" cy="0" r="1" gradientUnits="userSpaceOnUse" gradientTransform="translate(-16.1601 15.4549) rotate(-125.59) scale(3.1272 7.818)">
<stop offset="0.25" stop-color="white"/>
<stop offset="0.41" stop-color="#BCBCBC"/>
<stop offset="0.63" stop-color="#6C6C6C"/>
<stop offset="0.8" stop-color="#323232"/>
<stop offset="0.93" stop-color="#0D0D0D"/>
<stop offset="1"/>
</radialGradient>
<radialGradient id="paint4_radial_40_2822" cx="0" cy="0" r="1" gradientUnits="userSpaceOnUse" gradientTransform="translate(-16.6001 14.907) rotate(-125.59) scale(2.44591 6.11477)">
<stop offset="0.25" stop-color="white"/>
<stop offset="0.41" stop-color="#BCBCBC"/>
<stop offset="0.63" stop-color="#6C6C6C"/>
<stop offset="0.8" stop-color="#323232"/>
<stop offset="0.93" stop-color="#0D0D0D"/>
<stop offset="1"/>
</radialGradient>
<radialGradient id="paint5_radial_40_2822" cx="0" cy="0" r="1" gradientUnits="userSpaceOnUse" gradientTransform="translate(-17.0434 14.8276) rotate(-125.59) scale(1.8331 4.58274)">
<stop offset="0.25" stop-color="white"/>
<stop offset="0.41" stop-color="#BCBCBC"/>
<stop offset="0.63" stop-color="#6C6C6C"/>
<stop offset="0.8" stop-color="#323232"/>
<stop offset="0.93" stop-color="#0D0D0D"/>
<stop offset="1"/>
</radialGradient>
</defs>
</svg>
