<svg width="24" height="24" viewBox="0 0 24 24" fill="none" xmlns="http://www.w3.org/2000/svg">
<path d="M12 23.9719C18.6119 23.9719 23.972 18.6119 23.972 12C23.972 5.38808 18.6119 0.0280609 12 0.0280609C5.3881 0.0280609 0.0280762 5.38808 0.0280762 12C0.0280762 18.6119 5.3881 23.9719 12 23.9719Z" fill="#FCFCFA"/>
<path d="M21.6776 8.00936C20.9201 9.30216 19.9079 10.4482 18.5438 11.3892C18.5438 11.3892 18.5395 11.3914 18.5374 11.3935L14.0374 10.3683C14.033 10.3532 14.0266 10.3381 14.0223 10.323C14.0136 10.2993 14.0071 10.2734 13.9985 10.2475C13.8388 9.73597 13.6791 9.22446 13.5194 8.71295C13.4762 8.57267 13.4309 8.43022 13.3877 8.28777C13.3748 8.24461 13.3618 8.20144 13.3467 8.15828C13.1633 7.56259 12.9798 6.96907 12.8007 6.37554C12.7748 6.28921 12.7467 6.20072 12.7208 6.11223C12.7079 6.07338 12.6971 6.03454 12.6863 5.99569C13.6532 4.79785 14.892 3.45756 15.8525 2.69785C17.9071 2.959 19.31 3.25684 20.3525 3.72303L20.3676 3.70576C21.1273 5.18202 21.5784 6.50936 21.6712 7.96403V8.01151L21.6776 8.00936Z" fill="url(#paint0_radial_40_2773)"/>
<path d="M10.8842 13.7072L10.8993 13.7525L12.408 18.4748C12.408 18.4748 12.408 18.4748 12.408 18.477C11.2921 19.7612 10.2518 20.5187 9.10796 21.5029C9.10796 21.5029 9.10796 21.5029 9.10581 21.5029C7.45473 21.6734 6.18566 21.2158 4.79358 20.5727C4.78494 20.5683 4.77631 20.564 4.76983 20.5619C4.75689 20.5403 4.74609 20.5209 4.73314 20.4993C3.99501 19.2086 3.4166 17.8835 3.25041 16.1137C3.25041 16.0986 3.24825 16.0835 3.24609 16.0683C4.02307 14.9827 4.98782 13.9058 6.2094 12.8374C6.26768 12.7856 6.32595 12.736 6.38638 12.6842C7.62307 13.0101 9.00868 13.146 10.8864 13.7094L10.8842 13.7072Z" fill="url(#paint1_radial_40_2773)"/>
<path d="M18.5245 11.3482L18.5439 11.3914C19.213 12.7899 19.6856 14.2381 19.8842 15.7532C19.8842 15.7554 19.8842 15.7576 19.8842 15.7597C19.2605 16.9878 18.259 18.1252 16.7482 19.1417C15.1662 18.9842 13.8324 18.9928 12.4101 18.4748V18.4727C11.8166 16.9899 11.2986 15.4295 10.8971 13.7504C10.8928 13.7353 10.8907 13.7201 10.8864 13.705C11.4022 13.1309 11.9245 12.5633 12.4489 12.0022C12.4619 11.9892 12.4748 11.9741 12.4878 11.9611L12.5029 11.9439C12.5525 11.8899 12.6 11.8381 12.6497 11.7863C12.654 11.782 12.6561 11.7777 12.6605 11.7734C13.1158 11.2856 13.5712 10.8022 14.0223 10.3209C15.6022 10.5561 17.1151 10.8777 18.5223 11.346L18.5245 11.3482Z" fill="url(#paint2_radial_40_2773)"/>
<path d="M15.0432 0.394964C15.2547 1.12446 15.4986 1.84748 15.8051 2.58129C15.8202 2.62014 15.8375 2.65683 15.8526 2.69568C14.8921 3.4554 13.6533 4.79568 12.6864 5.99353C12.6821 5.98273 12.6799 5.96978 12.6756 5.95899C11.5274 5.46475 10.0986 4.90144 8.34179 4.72662C8.26625 4.71799 8.19071 4.71151 8.11517 4.70719C7.7828 3.55468 7.49359 2.25108 7.36841 0.934532C7.45474 0.897841 7.54323 0.861151 7.63172 0.828776C10.0576 -0.127339 12.6497 -0.233094 15.0432 0.394964Z" fill="url(#paint3_radial_40_2773)"/>
<path d="M12.7122 5.91151C12.7165 5.9223 13.1719 7.58417 13.3489 8.15611C13.3618 8.19928 13.3748 8.24244 13.3899 8.28561C13.4331 8.43021 13.4784 8.5705 13.5215 8.71079C13.6877 9.25035 13.8474 9.76402 14.0007 10.2453C14.0093 10.2712 14.0158 10.295 14.0244 10.3209C14.0287 10.336 14.0352 10.3511 14.0395 10.3662C13.5755 10.8194 13.1158 11.2899 12.6626 11.7734C12.6582 11.7777 12.6561 11.782 12.6518 11.7863C12.6021 11.8381 12.5525 11.8921 12.505 11.9439L12.4899 11.9611C12.4769 11.9741 12.464 11.9892 12.451 12.0022C11.9287 12.5655 11.4129 13.1504 10.9036 13.7504C10.9036 13.7504 10.9014 13.7504 10.8992 13.7504C9.19637 13.487 7.64889 13.1935 6.27191 12.8655C6.25464 12.8611 6.23953 12.8568 6.22227 12.8525L6.21148 12.8309C5.54673 11.4173 4.91004 9.85467 4.6532 8.3633C4.6532 8.35251 4.64889 8.34388 4.64673 8.33309C4.67047 8.30287 4.69421 8.2705 4.71795 8.24028C5.69349 6.95179 6.83738 5.78417 8.09997 4.70071C8.10644 4.70071 8.11292 4.70071 8.11723 4.70071C8.19277 4.70719 8.26831 4.71366 8.34385 4.72014C10.1028 4.89496 11.5662 5.41294 12.7144 5.90503L12.7122 5.91151Z" fill="url(#paint4_radial_40_2773)"/>
<path d="M7.3683 0.932373C7.49347 2.24892 7.78268 3.55252 8.11506 4.70503C8.10858 4.70503 8.10211 4.70503 8.09779 4.70503C6.8352 5.78849 5.69132 6.95611 4.71578 8.2446C4.69204 8.27482 4.6683 8.30719 4.64455 8.33741C4.64455 8.3482 4.64887 8.35683 4.65103 8.36762C3.18772 8.06331 2.07621 8.02014 0.632324 8.17338C0.722972 7.90575 0.822252 7.64245 0.930166 7.38129C1.96182 4.89496 3.8352 2.74316 6.39923 1.38993C6.71865 1.22158 7.0424 1.06834 7.3683 0.932373Z" fill="url(#paint5_radial_40_2773)"/>
<path d="M4.64893 8.36547C4.90361 9.85684 5.5403 11.4216 6.2072 12.8331C4.98778 13.9014 4.02087 14.9784 3.24389 16.064C2.14317 15.8245 1.25612 15.5978 0.494253 15.4122C-0.22661 12.9971 -0.144596 10.4676 0.628066 8.16907C2.07195 8.01583 3.18562 8.059 4.64677 8.36332L4.64893 8.36547Z" fill="url(#paint6_radial_40_2773)"/>
<path d="M9.10581 21.5029C9.12092 22.4223 9.23531 23.0871 9.44898 23.7237C7.53675 23.3072 5.73459 22.4266 4.21948 21.1381L4.79143 20.5727C6.18567 21.2158 7.45473 21.6734 9.10366 21.5029H9.10581Z" fill="url(#paint7_radial_40_2773)"/>
<path d="M23.0633 16.6424C22.0683 18.9734 20.3007 21.0799 17.9417 22.4223C17.9331 22.4266 17.9223 22.4331 17.9136 22.4396C17.51 21.1381 17.2985 20.4367 16.7482 19.1439C18.259 18.1273 19.2604 16.9899 19.8841 15.7619L23.0633 16.6446V16.6424Z" fill="url(#paint8_radial_40_2773)"/>
<path d="M21.6777 8.00935C21.5849 6.55252 21.0906 5.18849 20.3309 3.71223L20.3698 3.7036L20.5165 3.54388C21.3324 4.36619 22.0424 5.3223 22.6122 6.39928C22.8755 6.9 23.1194 7.46331 23.3072 7.97914L21.6777 8.00719V8.00935Z" fill="url(#paint9_radial_40_2773)"/>
<path d="M3.24826 16.1115C3.41445 17.8813 3.99286 19.2065 4.73099 20.4971C4.74178 20.5187 4.75473 20.5403 4.76768 20.5597C4.77632 20.564 4.78495 20.5683 4.79142 20.5705L4.21948 21.136C4.17632 21.0993 4.13099 21.0604 4.08783 21.0237C3.01517 20.0849 2.09358 18.9367 1.38999 17.6007C1.07919 17.0115 0.822359 16.4093 0.617323 15.7964C0.574158 15.6691 0.535309 15.5417 0.49646 15.4144C1.25617 15.6 2.14538 15.8266 3.2461 16.0662C3.2461 16.0813 3.24826 16.0964 3.25042 16.1115H3.24826Z" fill="url(#paint10_radial_40_2773)"/>
<path d="M16.7482 19.1439C17.2985 20.4388 17.5122 21.1403 17.9136 22.4396C17.81 22.4978 17.7064 22.5561 17.6007 22.6101C15.1165 23.9223 12.3798 24.2741 9.81579 23.7971C9.69276 23.7734 9.56974 23.7496 9.44888 23.7237C9.23305 23.0849 9.12082 22.4223 9.10571 21.5029C9.10571 21.5029 9.10571 21.5029 9.10787 21.5029C10.2518 20.5187 11.292 19.7611 12.4079 18.477C13.8323 18.995 15.1661 18.9863 16.746 19.1439H16.7482Z" fill="url(#paint11_radial_40_2773)"/>
<path d="M23.3051 7.9813C24.3346 10.8626 24.1921 13.9489 23.0634 16.6425C22.0792 16.377 21.2979 16.1806 19.8842 15.7511C19.6857 14.236 19.213 12.7899 18.5439 11.3892C19.9058 10.4482 20.918 9.30216 21.6778 8.00936C22.2216 7.98777 22.7655 7.97698 23.3073 7.9813H23.3051Z" fill="url(#paint12_radial_40_2773)"/>
<path d="M20.3526 3.72086C19.3101 3.25251 17.9072 2.95467 15.8526 2.69568C15.8353 2.65683 15.8202 2.62014 15.8051 2.58129C15.4986 1.84963 15.2569 1.12445 15.0432 0.394958C15.3022 0.461865 15.559 0.539563 15.8137 0.623735C17.5317 1.19784 19.1202 2.16043 20.4389 3.46618C20.4648 3.49208 20.4907 3.51798 20.5166 3.54388L20.3526 3.72086Z" fill="url(#paint13_radial_40_2773)"/>
<defs>
<radialGradient id="paint0_radial_40_2773" cx="0" cy="0" r="1" gradientUnits="userSpaceOnUse" gradientTransform="translate(16.3446 7.54749) scale(6.29353)">
<stop offset="0.15" stop-color="white"/>
<stop offset="0.45" stop-color="#FAFAFA"/>
<stop offset="0.74" stop-color="#EEEEEE"/>
<stop offset="1" stop-color="#DEDEDE"/>
</radialGradient>
<radialGradient id="paint1_radial_40_2773" cx="0" cy="0" r="1" gradientUnits="userSpaceOnUse" gradientTransform="translate(7.49142 16.3964) scale(5.59425)">
<stop offset="0.15" stop-color="white"/>
<stop offset="0.45" stop-color="#FAFAFA"/>
<stop offset="0.74" stop-color="#EEEEEE"/>
<stop offset="1" stop-color="#DEDEDE"/>
</radialGradient>
<radialGradient id="paint2_radial_40_2773" cx="0" cy="0" r="1" gradientUnits="userSpaceOnUse" gradientTransform="translate(14.3374 14.9849) scale(6.2482 6.2482)">
<stop offset="0.15" stop-color="white"/>
<stop offset="0.45" stop-color="#FAFAFA"/>
<stop offset="0.74" stop-color="#EEEEEE"/>
<stop offset="1" stop-color="#DEDEDE"/>
</radialGradient>
<radialGradient id="paint3_radial_40_2773" cx="0" cy="0" r="1" gradientUnits="userSpaceOnUse" gradientTransform="translate(11.6936 4.16978) scale(4.95324)">
<stop offset="0.15" stop-color="white"/>
<stop offset="0.45" stop-color="#FAFAFA"/>
<stop offset="0.74" stop-color="#EEEEEE"/>
<stop offset="1" stop-color="#DEDEDE"/>
</radialGradient>
<radialGradient id="paint4_radial_40_2773" cx="0" cy="0" r="1" gradientUnits="userSpaceOnUse" gradientTransform="translate(7.32946 9.10143) scale(7.03597 7.03597)">
<stop stop-color="#595959"/>
<stop offset="0.38" stop-color="#313131"/>
<stop offset="0.78" stop-color="#0D0D0D"/>
<stop offset="1"/>
</radialGradient>
<radialGradient id="paint5_radial_40_2773" cx="0" cy="0" r="1" gradientUnits="userSpaceOnUse" gradientTransform="translate(5.54671 5.65467) scale(5.27698)">
<stop offset="0.15" stop-color="white"/>
<stop offset="0.45" stop-color="#FAFAFA"/>
<stop offset="0.74" stop-color="#EEEEEE"/>
<stop offset="1" stop-color="#DEDEDE"/>
</radialGradient>
<radialGradient id="paint6_radial_40_2773" cx="0" cy="0" r="1" gradientUnits="userSpaceOnUse" gradientTransform="translate(4.44389 12.0324) scale(5.28993)">
<stop offset="0.15" stop-color="white"/>
<stop offset="0.45" stop-color="#FAFAFA"/>
<stop offset="0.74" stop-color="#EEEEEE"/>
<stop offset="1" stop-color="#DEDEDE"/>
</radialGradient>
<radialGradient id="paint7_radial_40_2773" cx="0" cy="0" r="1" gradientUnits="userSpaceOnUse" gradientTransform="translate(7.71373 19.9252) scale(3.56978)">
<stop offset="0.15" stop-color="white"/>
<stop offset="0.45" stop-color="#FAFAFA"/>
<stop offset="0.74" stop-color="#EEEEEE"/>
<stop offset="1" stop-color="#DEDEDE"/>
</radialGradient>
<radialGradient id="paint8_radial_40_2773" cx="0" cy="0" r="1" gradientUnits="userSpaceOnUse" gradientTransform="translate(18.1791 18.0086) scale(4.7741)">
<stop offset="0.15" stop-color="white"/>
<stop offset="0.45" stop-color="#FAFAFA"/>
<stop offset="0.74" stop-color="#EEEEEE"/>
<stop offset="1" stop-color="#DEDEDE"/>
</radialGradient>
<radialGradient id="paint9_radial_40_2773" cx="0" cy="0" r="1" gradientUnits="userSpaceOnUse" gradientTransform="translate(18.8655 7.64029) scale(4.97266)">
<stop offset="0.15" stop-color="white"/>
<stop offset="0.45" stop-color="#FAFAFA"/>
<stop offset="0.74" stop-color="#EEEEEE"/>
<stop offset="1" stop-color="#DEDEDE"/>
</radialGradient>
<radialGradient id="paint10_radial_40_2773" cx="0" cy="0" r="1" gradientUnits="userSpaceOnUse" gradientTransform="translate(0.569841 16.8302) scale(6.31295)">
<stop stop-color="#595959"/>
<stop offset="0.38" stop-color="#313131"/>
<stop offset="0.78" stop-color="#0D0D0D"/>
<stop offset="1"/>
</radialGradient>
<radialGradient id="paint11_radial_40_2773" cx="0" cy="0" r="1" gradientUnits="userSpaceOnUse" gradientTransform="translate(11.2467 19.4784) scale(5.31583)">
<stop stop-color="#595959"/>
<stop offset="0.38" stop-color="#313131"/>
<stop offset="0.78" stop-color="#0D0D0D"/>
<stop offset="1"/>
</radialGradient>
<radialGradient id="paint12_radial_40_2773" cx="0" cy="0" r="1" gradientUnits="userSpaceOnUse" gradientTransform="translate(16.7461 11.8705) scale(6.73166 6.73166)">
<stop stop-color="#595959"/>
<stop offset="0.38" stop-color="#313131"/>
<stop offset="0.78" stop-color="#0D0D0D"/>
<stop offset="1"/>
</radialGradient>
<radialGradient id="paint13_radial_40_2773" cx="0" cy="0" r="1" gradientUnits="userSpaceOnUse" gradientTransform="translate(15.7058 1.55611) scale(4.75468)">
<stop stop-color="#595959"/>
<stop offset="0.38" stop-color="#313131"/>
<stop offset="0.78" stop-color="#0D0D0D"/>
<stop offset="1"/>
</radialGradient>
</defs>
</svg>
