<svg width="20" height="20" viewBox="0 0 20 20" fill="none" xmlns="http://www.w3.org/2000/svg">
<path d="M9.66626 3.18604H8.18487C4.48139 3.18604 3 4.66743 3 8.37091V12.8151C3 16.5186 4.48139 18 8.18487 18H12.629C16.3325 18 17.8139 16.5186 17.8139 12.8151V11.3337" stroke="#FCFCFC" stroke-linecap="round" stroke-linejoin="round"/>
<path d="M13.3993 3.94159L7.56261 9.77828C7.3404 10.0005 7.11819 10.4375 7.07375 10.756L6.75525 12.9855C6.63674 13.7929 7.20707 14.3558 8.01443 14.2447L10.2439 13.9262C10.555 13.8817 10.992 13.6595 11.2216 13.4373L17.0583 7.60063C18.0657 6.59329 18.5397 5.42299 17.0583 3.94159C15.5769 2.4602 14.4066 2.93425 13.3993 3.94159Z" stroke="#FCFCFC" stroke-miterlimit="10" stroke-linecap="round" stroke-linejoin="round"/>
<path d="M12.5625 4.77832C13.0588 6.54858 14.4439 7.93369 16.2215 8.43736" stroke="#FCFCFC" stroke-miterlimit="10" stroke-linecap="round" stroke-linejoin="round"/>
</svg>
