<svg width="21" height="19" viewBox="0 0 21 19" fill="none" xmlns="http://www.w3.org/2000/svg">
<path d="M5.98715 17.8888H14.7205C17.0205 17.8888 17.9372 16.4805 18.0455 14.7638L18.4788 7.8805C18.5955 6.0805 17.1622 4.5555 15.3538 4.5555C14.8455 4.5555 14.3788 4.26383 14.1455 3.81383L13.5455 2.6055C13.1622 1.84717 12.1622 1.22217 11.3122 1.22217H9.40382C8.54548 1.22217 7.54548 1.84717 7.16215 2.6055L6.56215 3.81383C6.32882 4.26383 5.86215 4.5555 5.35382 4.5555C3.54548 4.5555 2.11215 6.0805 2.22882 7.8805L2.66215 14.7638C2.76215 16.4805 3.68715 17.8888 5.98715 17.8888Z" stroke="#FCFCFC" stroke-linecap="round" stroke-linejoin="round"/>
<path d="M9.104 6.22217H11.604" stroke="#FCFCFC" stroke-linecap="round" stroke-linejoin="round"/>
<path d="M10.3538 14.5556C11.8455 14.5556 13.0622 13.3389 13.0622 11.8472C13.0622 10.3556 11.8455 9.13892 10.3538 9.13892C8.86217 9.13892 7.64551 10.3556 7.64551 11.8472C7.64551 13.3389 8.86217 14.5556 10.3538 14.5556Z" stroke="#FCFCFC" stroke-linecap="round" stroke-linejoin="round"/>
</svg>
