<svg width="20" height="20" viewBox="0 0 20 20" fill="none" xmlns="http://www.w3.org/2000/svg">
<path d="M16.5001 5.98487C14.0026 5.73736 11.49 5.60986 8.98503 5.60986C7.50002 5.60986 6.01502 5.68486 4.53001 5.83486L3 5.98487" stroke="#FCFCFC" stroke-linecap="round" stroke-linejoin="round"/>
<path d="M7.12506 5.22751L7.29006 4.24501C7.41006 3.5325 7.50006 3 8.76757 3H10.7326C12.0001 3 12.0976 3.5625 12.2101 4.25251L12.3751 5.22751" stroke="#FCFCFC" stroke-linecap="round" stroke-linejoin="round"/>
<path d="M14.8875 8.35498L14.4 15.9075C14.3175 17.085 14.25 18 12.1575 18H7.34247C5.24996 18 5.18246 17.085 5.09996 15.9075L4.61246 8.35498" stroke="#FCFCFC" stroke-linecap="round" stroke-linejoin="round"/>
<path d="M8.49753 13.875H10.995" stroke="#FCFCFC" stroke-linecap="round" stroke-linejoin="round"/>
<path d="M7.87497 10.875H11.625" stroke="#FCFCFC" stroke-linecap="round" stroke-linejoin="round"/>
</svg>
